<svg xmlns="http://www.w3.org/2000/svg"
     lang="en-GB"
     viewBox="0 0 297 297">

  <title>Code Swap Icon</title>

  <defs>

  <style type="text/css"><![CDATA[

  rect {
    width: 297px;
    height: 297px;
    fill: rgb(191, 0 , 0);
  }

  path {
    fill: rgb(255, 255, 255);
    transform: translateX(42px);
  }

  ]]></style>

  </defs>

  <rect/>
  <path d="m -14.854458,252.89028 -14.02292,-0.0964 v -8.99179 -8.99178 H 8.7109724 c 41.8648296,0 38.4038696,0.21775 40.9812796,-2.57841 2.79054,-3.02738 2.69752,-2.52182 2.96564,-16.11881 0.13201,-6.69396 0.25557,-25.6249 0.27459,-42.06875 l 0.0346,-29.89792 h 9.19087 9.19088 l -0.17502,35.36597 c -0.20976,42.38619 -0.46054,50.87442 -1.60769,54.41597 -2.79005,8.61363 -8.17937,14.45603 -16.29682,17.6669 -1.72126,0.68085 -3.30848,0.96228 -6.82861,1.21081 -4.21464,0.29756 -25.92487,0.32738 -61.29514,0.0842 z m 182.460768,-0.0883 c -2.453,-0.16246 -4.43314,-0.51247 -5.82083,-1.02889 -7.34765,-2.73435 -12.99758,-8.18613 -15.80488,-15.25061 -1.69238,-4.2588 -1.91249,-6.11429 -2.15955,-18.20454 l -0.23249,-11.37709 h 9.16317 9.16316 l 0.11845,11.05266 0.11844,11.05266 1.06668,1.72462 c 1.53939,2.48892 3.39876,3.67196 6.37346,4.05517 1.3407,0.17272 18.19358,0.31923 37.45083,0.32557 l 35.01319,0.0115 v 8.99583 8.99583 l -35.36597,-0.0533 c -19.45128,-0.0293 -37.03893,-0.16407 -39.08366,-0.29949 z m 8.67921,-38.01859 c -0.10946,-0.10946 -0.19902,-4.22068 -0.19902,-9.13606 V 196.7103 H 136.57539 97.064282 v -17.99167 -17.99166 h 39.504838 39.50484 l 0.0945,-8.5322 0.0945,-8.5322 11.81806,12.33558 c 15.74335,16.43278 21.51944,22.72149 21.51944,23.42926 0,0.39979 -3.0021,3.90694 -7.24466,8.46345 -8.40672,9.02881 -25.89453,27.06821 -26.07021,26.89253 z M 26.155962,138.64467 C 10.412682,122.21199 4.6365124,115.92321 4.6365124,115.21543 c 0,-0.39979 3.0021,-3.90695 7.2446596,-8.46345 8.40673,-9.028808 25.89453,-27.068208 26.07022,-26.892528 0.10945,0.10946 0.19901,4.14131 0.19901,8.95966 v 8.76065 h 39.51111 39.511108 v 17.991658 17.99167 H 77.667672 38.162732 l -0.0944,8.70857 -0.0943,8.70858 z m 116.413568,-12.7545 c -0.004,-32.963608 0.55456,-57.760288 1.39712,-62.002328 1.99827,-10.06067 7.84667,-17.218503 17.0404,-20.855706 1.6776,-0.663687 3.29693,-0.948798 6.78918,-1.195353 5.50797,-0.388867 26.61764,-0.433556 54.09328,-0.114515 l 20.16643,0.234167 -2.1e-4,8.849859 -2.3e-4,8.849858 -36.96348,0.0388 c -32.78032,0.0344 -37.08418,0.10123 -38.02989,0.59028 -1.51302,0.78242 -3.82192,3.3966 -4.92831,5.57995 l -0.94404,1.86298 -0.18975,41.207728 -0.18974,41.20774 h -9.11884 -9.11883 l -0.003,-24.25348 z m -90.365968,-49.240838 -0.11844,-11.05266 -1.06668,-1.72463 c -1.53939,-2.48891 -3.39876,-3.67195 -6.37346,-4.05516 -1.3407,-0.17272 -18.4317,-0.31923 -37.9799996,-0.32557 l -35.5423604,-0.0115 v -8.995836 -8.995833 l 35.1895904,0.01245 c 38.4145196,0.01359 43.1189596,0.168328 46.5648596,1.531586 7.24803,2.867449 12.61547,8.133321 15.37923,15.088223 1.69238,4.2588 1.91249,6.11429 2.15955,18.20454 l 0.23249,11.37709 h -9.16317 -9.16316 l -0.11845,-11.05266 z" />

</svg>
