<svg xmlns="http://www.w3.org/2000/svg"
     xmlns:xlink="http://www.w3.org/1999/xlink"
     lang="en-GB"
     viewBox="0 0 784 784">

  <title>DaNIS³H Namespace Icon</title>

  <defs>

  <style type="text/css"><![CDATA[

  rect {
    width: 784px;
    height: 784px;
    fill: rgb(191, 0, 0);
  }

  path {
    fill: rgb(255, 255, 255);
    transform: scale(0.9) translate(45px, 45px);
  }

  ]]></style>

  </defs>

  <rect />

  <path d="m 429.43849,543.60547 c -14.40561,-1.64057 -17.78896,-2.29624 -17.83437,-3.45619 -0.0254,-0.64942 -1.07544,-10.04989 -2.33335,-20.88995 -1.25793,-10.84006 -2.13013,-19.8662 -1.93824,-20.05809 0.19189,-0.1919 2.96531,0.38702 6.16315,1.28648 8.47571,2.38397 31.19462,2.35679 35.57821,-0.0426 4.99091,-2.73178 9.66705,-7.94222 12.31129,-13.71802 l 2.41503,-5.2751 -11.67795,-27.9226 c -6.42288,-15.35742 -20.95345,-49.98217 -32.29019,-76.94387 -11.33672,-26.9617 -20.85176,-49.59575 -21.14454,-50.29787 -0.41928,-1.00555 6.30756,-1.2766 31.68228,-1.2766 h 32.2146 l 2.4297,7.9149 c 19.10424,62.23321 28.90211,93.01434 29.41311,92.40476 0.34358,-0.40985 7.02104,-23.14505 14.8388,-50.52266 l 14.21412,-49.77748 29.87234,-0.0102 c 16.42979,-0.005 29.87234,0.24552 29.87234,0.55754 0,1.11152 -61.53753,166.58945 -65.49267,176.11355 -10.22853,24.63058 -20.34721,34.93478 -39.74512,40.47382 -6.47874,1.85 -36.99862,2.75507 -48.54854,1.43972 z M 308.09998,483.67556 c -10.96933,-2.35198 -19.4204,-7.00618 -27.89918,-15.36468 l -7.44407,-7.3385 v 10.14701 10.14701 H 244.16098 215.56524 V 373.52171 265.77703 h 30.6254 30.6254 l 0.26822,36.22968 0.26821,36.2297 4.59575,-3.65175 c 11.718,-9.31106 25.2457,-13.18259 43.24863,-12.37742 18.56473,0.83029 29.04463,5.30064 41.81625,17.83731 8.02173,7.87417 14.2032,19.23439 17.77461,32.66593 2.36352,8.88884 2.66171,11.93607 2.67774,27.36442 0.0144,13.90543 -0.40792,19.29315 -2.12161,27.06383 -2.64293,11.98427 -6.87884,22.51818 -12.56377,31.24375 -13.42634,20.60755 -39.31574,30.73157 -64.68009,25.29308 z m 1.85903,-44.25325 c 4.97692,-1.89223 11.63497,-9.12897 13.97289,-15.18738 2.73081,-7.07657 3.83238,-26.23617 2.01246,-35.00272 -2.80207,-13.4975 -11.83437,-22.21111 -23.05997,-22.24632 -17.65265,-0.0554 -28.3546,17.79539 -25.92403,43.24113 1.4297,14.96769 6.14454,23.33587 15.6389,27.75689 5.48828,2.5556 12.82284,3.16333 17.35975,1.4384 z m -295.585272,31.2124 c 0,-0.25111 9.01479,-15.47093 20.03287,-33.82182 17.50305,-29.15176 19.90067,-33.65539 18.98604,-35.66278 -0.57575,-1.26364 -9.59054,-16.58951 -20.03287,-34.0575 -10.44232,-17.46798 -18.98604,-32.01423 -18.98604,-32.32501 0,-0.31077 10.47445,-0.56504 23.27656,-0.56504 h 23.27655 l 22.93621,33.35784 c 12.61492,18.3468 23.060142,34.08723 23.211602,34.97872 0.15147,0.89149 -10.014902,16.55706 -22.591942,34.81238 l -22.86733,33.19149 -23.62082,0.27414 c -12.99146,0.15078 -23.62083,0.0687 -23.62083,-0.18242 z m 76.99652,-1.19495 c 0.34062,-0.88764 9.384732,-16.23007 20.098042,-34.09431 l 19.47874,-32.48043 -19.98878,-33.42184 c -10.993832,-18.38201 -19.988772,-33.83969 -19.988772,-34.3504 0,-0.53801 9.743052,-0.81311 23.164622,-0.65407 l 23.16462,0.27449 23.29943,33.70213 c 12.81469,18.53617 23.18636,34.18874 23.04815,34.7835 -0.13821,0.59475 -10.59171,16.09646 -23.23001,34.44825 l -22.97872,33.3669 -23.34331,0.0198 c -20.861922,0.0178 -23.277482,-0.15174 -22.724012,-1.59405 z m 508.595762,0 c 0.34062,-0.88764 9.36688,-16.2003 20.05836,-34.02814 L 639.46343,402.99736 619.51435,369.559 c -10.97201,-18.39109 -19.9491,-33.87855 -19.9491,-34.41657 0,-0.60281 8.91266,-0.87287 23.22412,-0.70372 l 23.22411,0.27449 23.22155,33.70213 c 12.77185,18.53617 23.11675,34.17582 22.98865,34.75477 -0.12809,0.57896 -10.56061,16.0896 -23.18336,34.46808 l -22.95047,33.41545 h -23.37156 c -20.88266,0 -23.30562,-0.17187 -22.75227,-1.61387 z m 76.13159,-0.31025 c 0.57752,-1.07909 9.71713,-16.39424 20.31025,-34.03368 l 19.26022,-32.0717 -20.26418,-33.98549 c -11.1453,-18.69201 -20.26418,-34.17687 -20.26418,-34.41078 0,-0.23391 10.48765,-0.4253 23.30589,-0.4253 h 23.30589 l 23.64267,34.34188 23.64267,34.34187 -9.90485,14.42409 c -5.44766,7.93324 -15.94067,23.15599 -23.3178,33.82833 l -13.41295,19.40426 -23.67682,0.27425 c -23.07881,0.26733 -23.65031,0.22471 -22.62681,-1.68773 z" />

</svg>
