<svg xmlns="http://www.w3.org/2000/svg"
     xmlns:xlink="http://www.w3.org/1999/xlink"
     lang="en-GB"
     viewBox="0 0 300 300">

  <title>Update Icon</title>

  <defs>

    <style><![CDATA[

      rect {
        width: 300px;
        height: 300px;
        fill: rgb(191, 0, 0);
      }

      path {
        fill: rgb(255, 255, 255);
      }

    ]]></style>

  </defs>

  <rect x="0" y="0"></rect>
  <path d="M 38.369517,218.6488 38.739036,176 h 42.278624 42.27862 l -17.95797,17.99501 -17.957983,17.99503 5.138068,4.33831 c 8.245315,6.96192 20.407495,13.97656 29.952635,17.27544 7.696,2.6598 11.40662,3.05621 28.19564,3.01221 17.51461,-0.0459 20.17892,-0.37488 28.32206,-3.49709 13.3045,-5.10115 23.05442,-11.39534 32.89463,-21.23555 14.70276,-14.70276 23.67085,-33.12857 25.09012,-51.55003 l 0.74476,-9.66666 h 11.99807 11.99808 L 260.94064,161 c -0.98717,13.18375 -3.822,23.78309 -9.68581,36.215 -14.84392,31.47072 -42.41303,53.77695 -76.08027,61.55675 -10.48523,2.42292 -15.15136,2.77304 -29.48232,2.21217 -9.55337,-0.37389 -20.53662,-1.63133 -25.02557,-2.86511 -11.97423,-3.29106 -30.832583,-13.18368 -41.174311,-21.599 L 70.318052,229.05447 54.159025,245.17603 38,261.2976 Z m 0.29715,-77.10219 c 0,-15.16248 8.24283,-38.9986 18.860202,-54.538791 C 68.321727,71.207848 84.929407,57.167195 102.78501,48.745168 117.52911,41.790756 126.62036,39.747399 146,39.032129 c 14.46517,-0.533885 19.25484,-0.182068 28.94568,2.12616 18.42797,4.389292 32.16909,11.412778 48.15741,24.614643 l 6.43644,5.314685 16.23023,-16.19261 L 262,38.702396 261.63048,81.351197 261.26096,124 h -42.27861 -42.27863 l 17.82447,-17.86124 17.82448,-17.86124 -4.50967,-4.185073 c -7.858,-7.292403 -23.49993,-15.707744 -34.92853,-18.791512 -15.11096,-4.077376 -38.5553,-3.324972 -51.9032,1.665738 -19.32358,7.224987 -36.839858,21.646823 -46.712054,38.459867 -6.249321,10.64304 -11.384915,26.50634 -11.785331,36.40365 l -0.303556,7.50314 H 50.438499 38.666667 Z" />

</svg>
