<svg xmlns="http://www.w3.org/2000/svg"
     xmlns:xlink="http://www.w3.org/1999/xlink"
     lang="en-GB"
     viewBox="0 0 694.47 694.47">

  <title>Tools</title>

  <defs>

  <style type="text/css"><![CDATA[

  rect {
    width: 694.47px;
    height: 694.47px;
    fill: rgb(191, 0, 0);
  }

  path {
    fill: rgb(255, 255, 255);
    stroke-width: 1;
  }

  ]]></style>

  </defs>

  <rect />

  <path d="m 327.01762,666.65841 c -7.36825,-1.79379 -14.47035,-7.77857 -17.30994,-14.5867 -0.87102,-2.08835 -1.58367,-6.71557 -1.58367,-10.28272 0,-10.1751 -2.41304,-16.75524 -8.2034,-22.36997 -2.86807,-2.78108 -6.57414,-5.24503 -8.83636,-5.87477 -28.63146,-7.97028 -30.58051,-8.25683 -38.29102,-5.6296 -5.61434,1.91301 -10.04152,6.07571 -15.28621,14.37306 -6.08862,9.63247 -14.67785,14.36581 -24.37735,13.4338 -5.33756,-0.51286 -15.55355,-5.35985 -30.90072,-14.66085 -16.09863,-9.75644 -20.08425,-15.06036 -20.12507,-26.78174 -0.0193,-5.54449 0.55096,-7.55448 4.09778,-14.44332 5.26208,-10.22028 6.01435,-15.94011 3.10976,-23.6446 -1.80495,-4.78768 -4.12516,-7.64737 -14.23185,-17.54095 -10.79386,-10.56627 -12.69791,-12.00171 -17.94199,-13.5262 -7.41713,-2.15622 -11.03344,-1.53218 -21.72847,3.74955 -6.93926,3.42694 -9.41232,4.13572 -14.43035,4.13572 -7.29603,0 -13.64546,-2.60701 -18.21726,-7.47982 -3.84508,-4.09826 -11.24529,-16.07422 -18.22276,-29.49039 -4.54385,-8.73686 -5.04458,-10.36258 -5.03295,-16.34043 0.0206,-10.55984 4.26026,-16.67156 17.26169,-24.88345 6.63384,-4.19002 10.95459,-11.10961 11.56985,-18.52884 0.33123,-3.99414 -0.3083,-8.3156 -2.29812,-15.52905 -1.51639,-5.49716 -3.43331,-12.44294 -4.25983,-15.43506 -1.8729,-6.78017 -8.02022,-13.75852 -13.99126,-15.88268 -2.34292,-0.83348 -8.14121,-1.79504 -12.88509,-2.1368 -10.3577,-0.7462 -15.65481,-2.90825 -20.61321,-8.41339 -5.9865,-6.64661 -6.50623,-9.36256 -6.50623,-33.99924 0,-20.90343 0.11182,-22.16683 2.32953,-26.31924 5.27038,-9.86822 11.78918,-13.51578 25.90439,-14.49466 8.54601,-0.59265 10.62792,-1.11315 14.82052,-3.70523 5.3245,-3.29189 10.09469,-9.39082 11.10967,-14.20427 0.35532,-1.68511 1.9861,-7.78405 3.62394,-13.5532 3.31555,-11.67868 3.73223,-18.60477 1.44817,-24.07129 -2.09998,-5.02597 -7.20512,-10.61168 -11.87709,-12.99514 -10.64613,-5.43125 -15.65852,-13.10449 -15.63414,-23.93356 0.0146,-6.49229 0.42486,-7.89939 4.46627,-15.31915 17.29057,-31.74436 23.11372,-37.70752 36.83001,-37.71558 5.74945,-0.003 7.65748,0.53182 14.25005,3.99716 5.60965,2.94868 9.1782,4.11439 13.56714,4.43185 9.89056,0.71543 13.8079,-1.44591 27.44887,-15.14449 9.9483,-9.99031 12.15058,-12.7813 13.65188,-17.30129 2.43516,-7.33159 1.64985,-12.52143 -3.42363,-22.62549 -3.50966,-6.98966 -4.21772,-9.40608 -4.21772,-14.394202 0,-11.81131 4.69688,-17.82811 21.95745,-28.12799 23.97207,-14.304833 31.10017,-16.197409 41.87234,-11.117498 5.64012,2.659751 8.07333,5.017005 12.25233,11.869868 5.66143,9.28379 11.73238,13.77492 20.18689,14.93374 4.23047,0.57985 21.00973,-3.18588 33.43312,-7.50332 10.19615,-3.54342 16.31655,-13.936553 16.36285,-27.785998 0.0383,-11.460264 6.39373,-20.866069 16.17234,-23.934574 10.9454,-3.434641 45.28107,-2.68513 52.74141,1.151288 9.11346,4.686529 12.80334,11.324482 13.75156,24.738513 0.79038,11.181258 2.58382,15.752843 8.154,20.785171 4.33817,3.91927 7.93798,5.34758 24.67046,9.78853 13.48079,3.57793 15.35777,3.72413 21.22674,1.65344 6.2191,-2.19422 10.8997,-6.18838 14.84865,-12.67097 6.75956,-11.096517 13.42428,-15.453695 23.63785,-15.453695 6.6871,0 12.95547,2.683513 30.32918,12.984015 18.81793,11.15675 22.64066,15.94845 22.6392,28.37769 -7.5e-4,6.342362 -0.44618,7.982712 -3.94801,14.538992 -4.54312,8.50582 -5.61132,15.19747 -3.59009,22.4897 1.11709,4.03028 3.30085,6.84838 13.00426,16.78178 13.30608,13.62148 17.47708,16.14698 26.6676,16.14698 5.14974,0 7.24482,-0.63718 14.05368,-4.27417 7.15995,-3.82453 8.75379,-4.27854 15.15066,-4.31577 7.95014,-0.0463 13.19474,2.05259 18.04085,7.21981 3.38977,3.61437 11.79652,17.24694 18.34887,29.75493 4.42819,8.45311 4.97198,10.19961 4.97198,15.96848 0,10.01564 -3.45813,15.74807 -13.75934,22.80838 -8.79084,6.02512 -9.76676,6.99109 -12.7898,12.65951 -3.69441,6.9273 -3.58324,10.37363 0.85708,26.56795 4.63646,16.90966 5.74183,19.42808 10.5411,24.01633 4.66282,4.45779 7.92914,5.55323 19.38393,6.50086 14.45465,1.1958 20.70594,5.05818 25.53128,15.77454 2.13025,4.73096 2.30006,6.57054 2.30969,25.02127 0.0114,21.84983 -0.65938,25.80785 -5.50816,32.50141 -4.55703,6.29079 -10.87163,9.05477 -23.24684,10.17541 -8.15914,0.73886 -11.21719,1.48311 -14.85598,3.6156 -4.49186,2.6324 -10.93104,10.75139 -10.93104,13.78265 0,0.83165 -1.64088,7.46422 -3.6464,14.73903 -2.81656,10.21679 -3.48596,14.19065 -2.94144,17.46173 1.39789,8.39749 5.60866,13.97747 14.75805,19.55695 10.11445,6.16798 14.29787,12.91007 14.29787,23.04274 0,5.39911 -0.63746,7.52454 -4.62348,15.41573 -4.84735,9.59637 -13.20048,23.54891 -17.4893,29.213 -3.90712,5.15999 -11.51637,8.53831 -19.23152,8.53831 -5.57609,0 -7.57822,-0.58617 -14.97181,-4.38329 -7.35625,-3.77795 -9.3812,-4.37435 -14.66261,-4.31848 -8.61534,0.0911 -12.42056,2.41275 -25.53192,15.57736 -16.83532,16.90369 -18.28707,22.70241 -10.07949,40.26058 4.34018,9.28478 4.6854,10.59778 4.1984,15.9684 -0.58224,6.42105 -3.32396,12.67325 -7.04079,16.05581 -3.58133,3.25924 -15.57523,10.69306 -28.0687,17.39699 -10.53715,5.65418 -11.45368,5.95174 -18.24346,5.92293 -10.86463,-0.0461 -17.15821,-4.07353 -23.42618,-14.99108 -5.39937,-9.4046 -14.46368,-14.69283 -23.71844,-13.83764 -7.36288,0.68039 -28.86138,6.73285 -33.53623,9.44146 -7.95065,4.6066 -10.69849,10.28681 -11.75268,24.29455 -0.63764,8.47275 -1.19954,10.7083 -3.71355,14.77463 -3.42556,5.54069 -9.25078,9.87265 -15.36899,11.42921 -4.74199,1.20643 -39.9019,1.31209 -44.73925,0.13445 z m 56.17022,-111.79053 c 61.00173,-10.67612 111.52251,-44.04922 144.71326,-95.59493 34.67636,-53.85286 42.58091,-122.40975 21.15332,-183.46473 -23.43726,-66.78128 -79.96965,-118.4459 -147.99424,-135.2511 -18.43868,-4.5552 -31.38172,-6.05158 -52.21618,-6.03688 -19.80754,0.014 -35.19421,1.80577 -51.56222,6.00447 -74.62578,19.14285 -133.63677,77.73286 -152.86005,151.76952 -5.21616,20.08952 -6.27787,29.02584 -6.30949,53.10638 -0.0317,24.07481 1.12251,33.91992 6.27941,53.56545 17.38951,66.24647 65.67392,120.28393 129.00895,144.38025 17.14976,6.52476 30.00764,9.66115 54.6383,13.32778 6.95353,1.03514 46.27183,-0.2526 55.14894,-1.80621 z m 77.10638,-63.61443 c -3.66265,-1.24357 -7.49874,-4.50692 -18.89362,-16.07277 -21.27456,-21.59377 -76.59574,-80.35179 -76.59574,-81.35429 0,-0.47902 6.20425,-6.47091 13.78723,-13.31531 7.58298,-6.8444 16.54468,-14.95707 19.91489,-18.02814 l 6.12766,-5.58375 44.6273,45.31454 c 30.32689,30.79393 45.36446,46.7872 46.9278,49.91029 2.76933,5.53229 3.6231,14.75225 1.92702,20.81007 -1.85294,6.618 -7.83521,13.85695 -14.1986,17.18123 -4.47279,2.33661 -6.71395,2.84501 -12.2512,2.77913 -3.72735,-0.0443 -8.84508,-0.78279 -11.37274,-1.641 z m -211.10681,-3.99557 c -32.48407,-8.83305 -43.87676,-48.85864 -20.85936,-73.28456 8.24155,-8.74588 17.38178,-12.43293 30.26404,-12.20814 5.05532,0.0882 9.93529,0.31037 10.84437,0.49366 1.5497,0.31246 22.16605,-17.24824 105.51276,-89.87421 l 29.68542,-25.86704 -0.34783,-12.94147 c -0.3018,-11.2284 -0.0531,-13.79109 1.87898,-19.35998 3.37422,-9.7257 6.91193,-15.43281 13.74715,-22.17723 11.07404,-10.92692 23.82213,-15.45899 40.89192,-14.53748 8.72015,0.47075 18.33023,3.10485 17.65949,4.84042 -0.16378,0.42382 -7.20192,6.73563 -15.64029,14.02628 -21.67338,18.72551 -23.80305,21.39134 -24.11708,30.1886 -0.35101,9.83397 4.04605,18.13367 12.11088,22.85997 3.89929,2.28514 5.98945,2.78741 11.59945,2.78741 8.54085,0 9.71205,-0.73172 31.13026,-19.44928 11.8375,-10.34491 16.21377,-13.61475 17.07243,-12.75609 2.01288,2.01287 2.17053,19.24572 0.24407,26.67847 -4.7209,18.2144 -18.6546,33.04365 -36.16146,38.48559 -8.24036,2.5615 -25.28165,2.29695 -32.55467,-0.50536 l -5.38031,-2.07306 -42.61969,36.96995 c -23.44082,20.33346 -53.64947,46.54708 -67.13032,58.25248 l -24.51063,21.28254 -0.66118,9.01707 c -0.5201,7.09315 -1.36859,10.55182 -3.97676,16.21031 -8.50749,18.45723 -29.24042,28.22759 -48.68164,22.94115 z m 18.85176,-25.04483 c 14.18537,-6.86702 13.43182,-28.06054 -1.23462,-34.72257 -14.90651,-6.77109 -30.42353,6.47818 -26.1545,22.33213 3.21025,11.92197 16.20924,17.80253 27.38912,12.39044 z m 58.94868,-120.60726 c -2.14779,-2.40646 -12.44101,-13.31929 -22.87383,-24.25073 -10.43281,-10.93143 -22.59842,-23.68462 -27.03468,-28.34043 l -8.06595,-8.46508 h -5.49877 c -14.27774,0 -25.54944,11.27028 -26.64957,26.64621 l -0.49618,6.9347 -9.93682,9.76274 c -5.46526,5.36951 -10.57567,9.77243 -11.35647,9.78428 -2.34057,0.0355 -35.63242,-34.73038 -35.63242,-37.21012 0,-1.38469 3.60692,-5.76229 9.97571,-12.10718 8.24923,-8.21828 10.51492,-9.93829 13.09124,-9.93829 13.69434,0 26.47662,-11.76541 27.72368,-25.51817 l 0.55447,-6.11472 10.83808,-11.05108 c 20.32665,-20.72609 39.32205,-31.66513 60.58185,-34.88776 5.17071,-0.7838 9.64713,-0.81865 14.60121,-0.1137 11.31335,1.60986 25.01673,6.97273 25.01673,9.79039 0,0.61125 -1.63441,2.69515 -3.63201,4.63087 l -3.63203,3.51949 -8.8851,-0.34776 c -10.44513,-0.40882 -18.83692,1.45017 -28.91268,6.40484 -7.05982,3.47161 -16.73225,10.47034 -21.63236,15.65263 l -2.86439,3.02935 17.6729,17.31396 c 19.22586,18.83539 48.99517,47.7312 60.92305,59.13543 l 7.50547,7.17597 -12.86751,11.1795 c -7.07712,6.14871 -13.25922,11.31011 -13.73801,11.46977 -0.47878,0.15966 -2.62781,-1.67864 -4.77561,-4.08511 z"></path>

</svg>
