<svg xmlns="http://www.w3.org/2000/svg"
     xmlns:xlink="http://www.w3.org/1999/xlink"
     lang="en-GB"
     viewBox="0 0 512 512">

<title>Ashiva Site Manifest Icon</title>

<defs>
  
  <style type="text/css"><![CDATA[

  rect {
    width: 512px;
    height: 512px;
    fill: rgb(191, 0, 0);
  }

  path {
    fill: rgb(255, 255, 255);
    stroke-width: 1;
  }
  
  #manifest-type {
    transform: scale(0.66); 
  }
  
  #manifest-type rect {
    width: 155px;
    height: 336px;
    fill: rgb(191, 0, 0);
  }
  
  #manifest-type path {
    fill: rgb(255, 255, 255);
  }

  ]]></style>


  <g id="manifest-type">
  
    <rect />
  
    <path d="m 56.387241,296.69531 c -2.000672,-2.85636 -0.927593,-5.94859 2.476057,-7.13511 L 61.72,288.56435 v -12.92693 c 0,-12.78266 -0.02722,-12.93727 -2.439198,-13.8543 -5.419022,-2.06031 -5.101911,-8.2649 0.479464,-9.38117 C 61.52562,252.04888 70.33875,251.76 79.345,251.76 H 95.72 v 8.3 c 0,8.79139 -0.816521,10.7 -4.577555,10.7 -2.75141,0 -4.153167,-1.68188 -4.58396,-5.5 l -0.338485,-3 h -7.5 -7.5 v 4 c 0,3.3868 0.344925,4.04899 2.25,4.31955 1.717852,0.24397 2.25,-0.17499 2.25,-1.77144 0,-2.76628 3.996698,-4.65543 6.741404,-3.18651 3.22738,1.72725 4.434186,12.25644 1.964321,17.1384 -1.701417,3.36304 -6.759376,3.51738 -8.192853,0.25 -0.605281,-1.37964 -1.862468,-2.25 -3.25,-2.25 -1.973351,0 -2.262872,0.51178 -2.262872,4 v 4 h 8.388709 8.388709 l 0.654324,-3.48785 c 0.932159,-4.96883 4.975981,-6.96157 7.996829,-3.94072 1.164308,1.16431 1.571429,3.62554 1.571429,9.5 V 298.76 H 77.776704 c -19.017971,0 -20.010395,-0.0958 -21.389463,-2.06469 z M 64.47,222.6799 c -2.103573,-1.22522 -2.301396,-5.21739 -0.33923,-6.84585 0.775924,-0.64396 3.025924,-1.43293 5,-1.75328 L 72.72,213.49832 V 200.12916 186.76 h -3 c -2.916667,0 -3,0.13333 -3,4.8 0,5.5049 -1.230066,7.2 -5.224751,7.2 C 57.724138,198.76 56.72,195.90754 56.72,185.1949 V 176.76 h 21 21 v 7.85078 c 0,10.35256 -1.314234,14.14922 -4.897825,14.14922 -3.870268,0 -5.102175,-1.73842 -5.102175,-7.2 0,-4.66667 -0.08333,-4.8 -3,-4.8 h -3 v 13.36916 13.36916 l 3.58923,0.58245 c 6.135334,0.99562 8.309288,4.63785 4.839341,8.1078 -1.253091,1.25309 -3.937253,1.56527 -13.25,1.54102 C 71.475357,223.71287 65.4325,223.24051 64.47,222.6799 Z M 61.92,147.56 c -0.66,-0.66 -1.2,-2.47114 -1.2,-4.02475 0,-3.21631 2.796181,-4.77525 8.5651,-4.77525 H 72.72 v -13.5 -13.5 h -4.877555 c -5.576433,0 -7.426723,-1.50534 -6.944703,-5.64998 0.423206,-3.63893 2.497204,-4.15066 16.822258,-4.15066 14.325054,0 16.399052,0.51173 16.822258,4.15066 0.48202,4.14464 -1.36827,5.64998 -6.944703,5.64998 H 82.72 v 13.5 13.5 h 3.4349 c 5.768919,0 8.5651,1.55894 8.5651,4.77525 0,4.8552 -1.202434,5.22475 -17,5.22475 -10.022222,0 -14.976256,-0.37626 -15.8,-1.2 z m 8.3,-73.784342 C 69.12,73.311583 66.575438,73.168859 64.565419,73.458493 60.096547,74.102436 58.72,72.171759 58.72,65.26 c 0,-6.204357 1.352945,-8.5 5.009504,-8.5 2.263514,0 3.300855,0.699488 4.512712,3.042961 C 70.026502,63.253389 73.163211,64.76 78.562593,64.76 82.602852,64.76 86.72,62.477931 86.72,60.23848 86.72,58.315059 84.29181,57.168211 76.290575,55.3126 64.732058,52.632001 60.716657,48.838419 60.723738,40.605708 60.733576,29.168651 69.632819,24.796554 87.716154,27.34464 l 6.496154,0.91536 0.902624,4.281741 c 0.614636,2.915628 0.517648,5.566675 -0.303986,8.309045 -1.108468,3.699736 -1.460236,4.002168 -4.324822,3.718259 C 88.227167,44.34516 86.91303,43.43332 85.717155,41.26 c -3.07104,-5.581148 -9.107667,-7.035365 -13.49114,-3.25 -2.254911,1.947237 -2.429242,2.489831 -1.29555,4.032315 0.720479,0.980273 4.005366,2.456472 7.299749,3.280442 10.367384,2.593023 13.876745,4.267196 16.239786,7.747339 4.66064,6.863903 1.821461,16.166176 -6.02066,19.726084 -4.443726,2.017216 -14.490087,2.557016 -18.22934,0.979478 z" />
  
  </g>


</defs>

<rect />

<path d="M 377.79141,478.93645 c 11.61592,-2.67943 22.15285,-11.04012 27.43448,-21.76828 L 408.5,450.51771 408.79513,268.49647 C 409.01079,135.48314 408.78383,84.868759 407.95218,80.508569 405.10889,65.601899 394.44526,53.767487 380.0685,49.563496 375.78171,48.309972 369.6427,47.975239 350.93982,47.975239 h -23.69718 l -1.25685,-3.034315 C 324.2996,40.870102 316.60396,34.23743 312.12267,32.992662 309.87681,32.368829 285.45514,31.984273 247.86419,31.980816 l -60.63581,-0.0056 -5.36419,2.786742 c -3.7546,1.950546 -6.36621,4.276029 -8.70358,7.75 l -3.33939,4.963258 -25.68659,0.5 -25.68659,0.5 -6.56348,3.233628 c -8.01293,3.947732 -15.932026,11.997562 -19.688676,20.013732 l -2.69588,5.75264 V 263.99625 450.51727 l 3.27411,6.65067 c 5.16449,10.49058 14.657116,18.24854 26.225886,21.43344 5.74468,1.58151 252.00553,1.90035 258.79141,0.33505 z M 122.99353,463.0487 c -7.96243,-2.44684 -14.9495,-9.20898 -16.9097,-16.36532 -0.85543,-3.12299 -1.07932,-50.8827 -0.86825,-185.20814 0.26752,-170.244751 0.3885,-181.190351 2.036,-184.203401 2.75114,-5.03145 8.50281,-10.02491 13.51376,-11.73231 3.61281,-1.231008 9.24023,-1.56429 26.4128,-1.56429 H 169 v 8 8 h -18.11385 c -20.65869,0 -23.77451,0.89812 -27.76826,8.00404 L 121,91.747549 V 264.21351 436.67947 l 2.25,3.30594 c 1.2375,1.81826 3.5205,4.24731 5.07333,5.39788 l 2.82333,2.09195 H 249 366.85334 l 2.82333,-2.09195 c 1.55283,-1.15057 3.83959,-3.5852 5.08169,-5.41028 l 2.25835,-3.31833 L 376.75836,263.38819 376.5,90.121709 l -2.09195,-2.82323 c -1.15057,-1.55278 -3.57962,-3.83574 -5.39788,-5.07324 -3.13183,-2.13151 -4.27243,-2.25 -21.65805,-2.25 H 329 v -8 -8 l 22.25,0.02196 c 20.21746,0.01996 22.66108,0.208042 26.75,2.05895 5.54822,2.51148 9.51599,6.18268 12.34158,11.41909 l 2.15842,4 0.2858,180.500001 c 0.21229,134.07794 -0.011,181.58227 -0.86824,184.70814 -1.44147,5.25625 -6.84416,11.67184 -12.27501,14.57635 l -4.14255,2.21551 -125,0.17185 c -68.75,0.0945 -126.12791,-0.17476 -127.50647,-0.59839 z M 137,263.97524 V 95.975239 h 16.47432 16.47432 l 1.49215,2.8855 c 2.18019,4.216021 9.84181,10.582991 14.36605,11.938481 5.06883,1.51866 119.89173,1.66525 125.31079,0.15999 5.46804,-1.51887 10.05141,-5.01297 13.38237,-10.20196 l 3,-4.673421 16.75,-0.0543 16.75,-0.0543 v 168.000001 168 H 249 137 Z m 112,112 v -40 h -48 -48 v 40 40 h 48 48 z m -80,0 v -24 h 32 32 v 24 24 h -32 -32 z m 144,32 v -8 h -24 -24 v 8 8 h 24 24 z m 0,-32 v -8 h -24 -24 v 8 8 h 24 24 z m 0,-32 v -8 h -24 -24 v 8 8 h 24 24 z m 32,-48 v -8 h -52 -52 v 8 8 h 52 52 z m -147.50236,-32.90142 25.75233,-34.40142 -2.37498,-1.82561 c -1.30625,-1.00408 -4.23765,-3.17811 -6.51424,-4.83118 l -4.13925,-3.00557 -20.75625,27.7326 c -11.41593,15.25293 -20.93156,27.93589 -21.14584,28.18435 -0.21427,0.24847 -2.50183,-1.66049 -5.08346,-4.24212 l -4.69388,-4.69387 -5.77889,5.71859 -5.7789,5.71859 11.23186,11.26382 c 8.73219,8.75703 11.4875,10.98778 12.38051,10.02353 0.63176,-0.68216 12.7372,-16.72093 26.90099,-35.64171 z M 313,263.97524 v -8 h -36 -36 v 8 8 h 36 36 z m 32,0 v -8 h -8 -8 v 8 8 h 8 8 z m 0,-32 v -8 h -52 -52 v 8 8 h 52 52 z m 0,-32 v -8 h -52 -52 v 8 8 h 52 52 z m -147.50236,-32.90142 25.75233,-34.40142 -2.37498,-1.82561 c -1.30625,-1.00408 -4.23765,-3.17811 -6.51424,-4.83118 l -4.13925,-3.00557 -20.75625,27.7326 c -11.41593,15.25293 -20.93156,27.93589 -21.14584,28.18435 -0.21427,0.24847 -2.50183,-1.66049 -5.08346,-4.24212 l -4.69388,-4.69387 -5.77889,5.71859 -5.7789,5.71859 11.23186,11.26382 c 8.73219,8.75703 11.4875,10.98778 12.38051,10.02353 0.63176,-0.68216 12.7372,-16.72093 26.90099,-35.64171 z M 313,167.97524 v -8 h -36 -36 v 8 8 h 36 36 z m 32,0 v -8 h -8 -8 v 8 8 h 8 8 z m 0,-32 v -8 h -52 -52 v 8 8 h 52 52 z M 189.5,94.820509 c -4.28205,-2.3421 -4.5,-3.46002 -4.5,-23.08185 0,-18.684843 0.0221,-18.876394 2.45455,-21.308875 l 2.45454,-2.454545 h 58.85689 c 57.74244,0 58.89811,0.03839 61.03335,2.027677 3.13804,2.923528 3.37101,4.768128 3.01851,23.899543 l -0.31784,17.25045 -2.80576,2.41117 -2.80577,2.41116 -57.69423,-0.0304 c -39.82513,-0.021 -58.31368,-0.36922 -59.69424,-1.12432 z" />

<use id="manifest-site" href="#manifest-type" x="138" y="112" />

</svg>
