<svg xmlns="http://www.w3.org/2000/svg"
     xmlns:xlink="http://www.w3.org/1999/xlink"
     lang="en-GB"
     viewBox="0 0 768 768">

<title>Ashiva Site Manifest Icon</title>

<defs>
  
  <style type="text/css"><![CDATA[

  rect {
    width: 768px;
    height: 768px;
    fill: rgb(191, 0, 0);
  }

  path {
    fill: rgb(255, 255, 255);
    stroke-width: 1;
  }
  
  #manifest-type rect {
    width: 155px;
    height: 336px;
    fill: rgb(191, 0, 0);
  }
  
  #manifest-type path {
    fill: rgb(255, 255, 255);
  }

  ]]></style>


  <g id="manifest-type">
  
    <rect />
  
    <path d="m 56.387241,296.69531 c -2.000672,-2.85636 -0.927593,-5.94859 2.476057,-7.13511 L 61.72,288.56435 v -12.92693 c 0,-12.78266 -0.02722,-12.93727 -2.439198,-13.8543 -5.419022,-2.06031 -5.101911,-8.2649 0.479464,-9.38117 C 61.52562,252.04888 70.33875,251.76 79.345,251.76 H 95.72 v 8.3 c 0,8.79139 -0.816521,10.7 -4.577555,10.7 -2.75141,0 -4.153167,-1.68188 -4.58396,-5.5 l -0.338485,-3 h -7.5 -7.5 v 4 c 0,3.3868 0.344925,4.04899 2.25,4.31955 1.717852,0.24397 2.25,-0.17499 2.25,-1.77144 0,-2.76628 3.996698,-4.65543 6.741404,-3.18651 3.22738,1.72725 4.434186,12.25644 1.964321,17.1384 -1.701417,3.36304 -6.759376,3.51738 -8.192853,0.25 -0.605281,-1.37964 -1.862468,-2.25 -3.25,-2.25 -1.973351,0 -2.262872,0.51178 -2.262872,4 v 4 h 8.388709 8.388709 l 0.654324,-3.48785 c 0.932159,-4.96883 4.975981,-6.96157 7.996829,-3.94072 1.164308,1.16431 1.571429,3.62554 1.571429,9.5 V 298.76 H 77.776704 c -19.017971,0 -20.010395,-0.0958 -21.389463,-2.06469 z M 64.47,222.6799 c -2.103573,-1.22522 -2.301396,-5.21739 -0.33923,-6.84585 0.775924,-0.64396 3.025924,-1.43293 5,-1.75328 L 72.72,213.49832 V 200.12916 186.76 h -3 c -2.916667,0 -3,0.13333 -3,4.8 0,5.5049 -1.230066,7.2 -5.224751,7.2 C 57.724138,198.76 56.72,195.90754 56.72,185.1949 V 176.76 h 21 21 v 7.85078 c 0,10.35256 -1.314234,14.14922 -4.897825,14.14922 -3.870268,0 -5.102175,-1.73842 -5.102175,-7.2 0,-4.66667 -0.08333,-4.8 -3,-4.8 h -3 v 13.36916 13.36916 l 3.58923,0.58245 c 6.135334,0.99562 8.309288,4.63785 4.839341,8.1078 -1.253091,1.25309 -3.937253,1.56527 -13.25,1.54102 C 71.475357,223.71287 65.4325,223.24051 64.47,222.6799 Z M 61.92,147.56 c -0.66,-0.66 -1.2,-2.47114 -1.2,-4.02475 0,-3.21631 2.796181,-4.77525 8.5651,-4.77525 H 72.72 v -13.5 -13.5 h -4.877555 c -5.576433,0 -7.426723,-1.50534 -6.944703,-5.64998 0.423206,-3.63893 2.497204,-4.15066 16.822258,-4.15066 14.325054,0 16.399052,0.51173 16.822258,4.15066 0.48202,4.14464 -1.36827,5.64998 -6.944703,5.64998 H 82.72 v 13.5 13.5 h 3.4349 c 5.768919,0 8.5651,1.55894 8.5651,4.77525 0,4.8552 -1.202434,5.22475 -17,5.22475 -10.022222,0 -14.976256,-0.37626 -15.8,-1.2 z m 8.3,-73.784342 C 69.12,73.311583 66.575438,73.168859 64.565419,73.458493 60.096547,74.102436 58.72,72.171759 58.72,65.26 c 0,-6.204357 1.352945,-8.5 5.009504,-8.5 2.263514,0 3.300855,0.699488 4.512712,3.042961 C 70.026502,63.253389 73.163211,64.76 78.562593,64.76 82.602852,64.76 86.72,62.477931 86.72,60.23848 86.72,58.315059 84.29181,57.168211 76.290575,55.3126 64.732058,52.632001 60.716657,48.838419 60.723738,40.605708 60.733576,29.168651 69.632819,24.796554 87.716154,27.34464 l 6.496154,0.91536 0.902624,4.281741 c 0.614636,2.915628 0.517648,5.566675 -0.303986,8.309045 -1.108468,3.699736 -1.460236,4.002168 -4.324822,3.718259 C 88.227167,44.34516 86.91303,43.43332 85.717155,41.26 c -3.07104,-5.581148 -9.107667,-7.035365 -13.49114,-3.25 -2.254911,1.947237 -2.429242,2.489831 -1.29555,4.032315 0.720479,0.980273 4.005366,2.456472 7.299749,3.280442 10.367384,2.593023 13.876745,4.267196 16.239786,7.747339 4.66064,6.863903 1.821461,16.166176 -6.02066,19.726084 -4.443726,2.017216 -14.490087,2.557016 -18.22934,0.979478 z" />
  
  </g>


</defs>

<rect />

<path d="m 234.42571,708.80568 c -51.44247,-0.70693 -53.1585,-0.79301 -58.39364,-2.92903 -16.37526,-6.68139 -26.7361,-16.40986 -34.97943,-32.84445 l -4.12693,-8.22781 V 385.75375 106.7031 l 3.53456,-7.448389 c 6.58968,-13.88642 17.6104,-25.225716 31.58121,-32.494131 l 7.8101,-4.06326 29.78706,-0.501782 c 16.38289,-0.27598 33.96195,-0.754801 39.06459,-1.064047 l 9.27751,-0.562266 4.03744,-5.945393 c 4.25524,-6.26612 9.18237,-10.404337 17.34748,-14.569862 l 4.93995,-2.520173 92.56005,0.386635 92.56005,0.386635 4.5,2.215235 c 6.68894,3.292792 13.74786,9.821232 17.16378,15.873901 l 3.02714,5.363797 30.15454,0.01733 c 40.45835,0.02325 46.59741,0.699756 58.20185,6.413666 14.4301,7.10524 25.35222,19.739755 30.73501,35.553724 l 2.21768,6.51528 0.27727,277.21568 0.27728,277.21568 -4.65742,9.28432 c -8.20357,16.35341 -24.34489,29.8535 -40.39713,33.78686 -5.53372,1.35595 -257.00888,2.13552 -336.5,1.04314 z m 338.65727,-27.64122 c 6.67735,-4.05628 12.78155,-10.61551 16.04595,-17.24211 l 2.29678,-4.66235 0.26415,-273.33347 0.26416,-273.33346 -3.14655,-5.90353 C 584.89979,99.357981 577.63945,92.453281 570.14378,88.940051 l -5.71807,-2.68005 -34.25,-0.32016 -34.25,-0.32015 v 11.9996 11.999589 l 27.75,0.32056 c 31.73565,0.3666 30.65679,0.1086 39.10424,9.35145 l 5.14576,5.63028 v 260.26938 260.26937 l -2.83611,3.90004 c -1.55987,2.14502 -4.71116,5.58754 -7.00288,7.65004 l -4.16677,3.75 H 376.42571 198.93147 l -4.16677,-3.75 c -2.29172,-2.0625 -5.44301,-5.50502 -7.00288,-7.65004 l -2.83611,-3.90004 V 385.82867 126.19742 l 3.50826,-5.60868 c 5.97969,-9.55981 11.05304,-10.74428 46.24174,-10.79602 l 22.25,-0.0327 V 97.679971 85.599931 l -34.25,0.38674 c -38.29395,0.43241 -38.73703,0.50322 -48.29285,7.71793 -7.42641,5.607 -11.12452,11.661729 -12.13411,19.866569 -0.45267,3.67886 -0.82304,127.96383 -0.82304,276.18883 v 269.5 l 2.2009,4.76612 c 2.80935,6.08373 11.3614,14.62822 17.7991,17.78336 4.95815,2.43001 5.31387,2.45557 42.5,3.05409 20.625,0.33197 106.32883,0.42157 190.45295,0.19912 l 152.95296,-0.40446 z M 557.92571,385.76 v -265 h -30.5 -30.5 l -0.009,6.75 c -0.008,5.6318 -0.49697,7.60012 -2.9527,11.88176 -3.33514,5.81492 -10.47294,12.38119 -16.84518,15.4964 -4.22175,2.06389 -5.67103,2.11492 -73,2.5703 -37.78101,0.25553 -80.87731,0.0663 -95.76955,-0.42041 l -27.07681,-0.88502 -4.7978,-2.81169 c -6.50299,-3.81101 -12.3085,-9.17716 -15.71653,-14.52712 -2.44552,-3.83841 -2.83243,-5.44367 -2.83243,-11.75 V 119.76 h -31.5 -31.5 v 265.5 265.5 h 181.5 181.5 z m -325,168 v -60 h 71.5 71.5 v 60 60 h -71.5 -71.5 z m 120,0 v -36 h -48.5 -48.5 v 36 36 h 48.5 48.5 z m 48,48 v -12 h 35.5 35.5 v 12 12 h -35.5 -35.5 z m 0,-48 v -12 h 35.5 35.5 v 12 12 h -35.5 -35.5 z m 0,-48 v -12 h 35.5 35.5 v 12 12 h -35.5 -35.5 z m -36,-72 v -12 h 77.5 77.5 v 12 12 h -77.5 -77.5 z m -125.29855,-11.88091 -16.20145,-16.04626 8.42974,-8.48798 8.42974,-8.48799 6.83901,6.45157 c 3.76145,3.54836 7.22468,6.45157 7.69606,6.45157 0.47138,0 14.86489,-18.675 31.98558,-41.5 17.12069,-22.825 31.36741,-41.5 31.65937,-41.5 1.35996,0 18.45587,13.29886 18.42145,14.33 -0.0723,2.16668 -77.43102,104.16197 -79.2595,104.50144 -1.21853,0.22622 -7.02335,-4.84085 -18,-15.71235 z M 364.92571,385.76 v -12 h 53.5 53.5 v 12 12 h -53.5 -53.5 z m 132,0 v -12 h 11.5 11.5 v 12 12 h -11.5 -11.5 z m -132,-48 v -12 h 77.5 77.5 v 12 12 h -77.5 -77.5 z m 0,-48 v -12 h 77.5 77.5 v 12 12 h -77.5 -77.5 z m -125.29855,-11.88091 -16.20145,-16.04626 8.42974,-8.48798 8.42974,-8.48799 6.83901,6.45157 c 3.76145,3.54836 7.22468,6.45157 7.69606,6.45157 0.47138,0 14.86489,-18.675 31.98558,-41.5 17.12069,-22.825 31.36741,-41.5 31.65937,-41.5 1.35875,0 18.45611,13.29856 18.42344,14.33 -0.0684,2.15797 -77.43112,104.15086 -79.26149,104.49611 -1.22168,0.23043 -6.99496,-4.8074 -18,-15.70702 z M 364.92571,241.76 v -12 h 53.5 53.5 v 12 12 h -53.5 -53.5 z m 132,0 v -12 h 11.5 11.5 v 12 12 h -11.5 -11.5 z m -132,-48 v -12 h 77.5 77.5 v 12 12 h -77.5 -77.5 z m 102.7429,-63.77984 4.2429,-3.72016 0.1859,-26.999999 c 0.20277,-29.448734 -0.0187,-30.855854 -5.49442,-34.910066 -2.80595,-2.077522 -3.34662,-2.091632 -91.02869,-2.375647 l -88.20598,-0.285712 -2.80485,2.927628 c -3.55582,3.711487 -4.58053,10.836222 -4.55112,31.643797 0.0314,22.216769 1.0483,30.088409 4.30893,33.354689 2.38845,2.39259 3.57047,2.69994 12.37258,3.2171 5.35252,0.31448 45.05685,0.63855 88.23185,0.72015 l 78.5,0.14838 z" />

<use id="manifest-site" href="#manifest-type" x="207" y="158" />

</svg>
