<svg xmlns="http://www.w3.org/2000/svg"
     xmlns:xlink="http://www.w3.org/1999/xlink"
     lang="en-GB"
     viewBox="0 0 609 609">

<title>Ashiva Main Assets Icon</title>

<defs>
<style type="text/css"><![CDATA[

rect {
  width: 609px;
  height: 609px;
  fill: rgb(191, 0, 0);
}

path {
  fill: rgb(255, 255, 255);
  stroke-width: 1;
}

]]></style>

</defs>

<rect />

<path d="M 0,303.31916 Z m 321.26219,252.52026 c 22.21446,-12.44535 95.54797,-54.60519 150.5676,-86.56214 24.99574,-14.51823 48.54893,-28.19526 52.34042,-30.3934 l 6.89362,-3.99661 V 300.76596 166.64466 l -6.89362,-3.99662 c -3.79149,-2.19813 -27.34468,-15.87516 -52.34042,-30.39339 -50.31799,-29.22612 -125.38705,-72.417528 -150.6383,-86.670616 -12.9383,-7.303031 -17.19096,-9.228121 -20.42553,-9.246214 -3.42859,-0.01918 -9.66547,3.103362 -38.80851,19.429799 -19.09788,10.698959 -47.36171,26.810985 -62.80851,35.804504 -15.44681,8.993517 -50.37447,29.245797 -77.61703,45.005077 L 72,165.23041 v 135.53555 135.53555 l 49.53191,28.65322 c 27.24256,15.75927 62.17022,36.0109 77.61703,45.00362 27.73151,16.14455 77.03367,43.99864 91.91489,51.92887 5.72061,3.04854 8.45305,3.95338 10.79411,3.57444 1.72398,-0.27904 10.4559,-4.60906 19.40425,-9.62224 z m -29.68772,-21.43509 c -19.85215,-11.28279 -56.87873,-32.5894 -76.48784,-44.01423 -11.73639,-6.83795 -21.42283,-12.43264 -21.5254,-12.43264 -0.10258,0 -21.98093,-12.58623 -48.61855,-27.9694 L 96.510638,422.01867 V 300.76596 179.51325 l 48.432042,-27.96938 c 26.63762,-15.38318 48.51597,-27.9694 48.61855,-27.9694 0.20617,0 34.88249,-20.12985 54.09834,-31.404466 6.74043,-3.954846 21.36519,-12.286331 32.49949,-18.514411 l 20.24416,-11.32378 3.75584,1.917497 c 2.0657,1.054623 16.39413,9.223155 31.84094,18.152293 44.42767,25.681727 71.62671,41.364107 122.55319,70.661497 l 47.48936,27.32005 v 120.38281 120.38282 l -47.48936,27.31601 c -26.11915,15.0238 -59.20851,34.09173 -73.53191,42.37317 -57.22376,33.08536 -84.0467,48.39167 -84.64668,48.30297 -0.34645,-0.0513 -4.30652,-2.18269 -8.80013,-4.7366 z m 0.51064,-152.78992 v -70.81115 l -61.53192,-35.61811 c -33.84255,-19.58997 -63.02553,-36.48524 -64.85106,-37.54506 l -3.31915,-1.92694 v 70.84871 70.84872 l 63.57447,37.44294 c 34.96595,20.59362 64.14893,37.47199 64.85106,37.50749 1.00962,0.0511 1.2766,-14.74412 1.2766,-70.7466 z m 83.57236,33.0239 64.48303,-37.2766 0.0148,-70.21277 c 0.0134,-63.28711 -0.14415,-70.21277 -1.59715,-70.21277 -0.8866,0 -30.52916,16.61995 -65.87234,36.93322 l -64.26029,36.93321 v 70.88635 c 0,58.88329 0.23273,70.83045 1.37445,70.55615 0.75594,-0.1816 30.39181,-17.10467 65.85749,-37.60679 z m -9.40648,-151.59455 c 35.8811,-21.02806 65.37119,-38.86954 65.53351,-39.64771 0.16233,-0.77818 -0.79719,-1.91258 -2.13226,-2.52088 -1.33508,-0.60829 -30.39468,-17.54129 -64.57691,-37.62888 -34.18224,-20.08759 -62.66188,-36.52288 -63.28811,-36.52288 -0.91358,0 -123.2722,69.09994 -132.11797,74.61138 -2.0356,1.26829 -2.19635,1.72043 -1.02128,2.87242 1.47453,1.44556 130.64506,76.98756 131.73068,77.03922 0.34868,0.0167 29.99124,-17.17461 65.87234,-38.20267 z" />
</svg>
