<svg xmlns="http://www.w3.org/2000/svg"
   xmlns:xlink="http://www.w3.org/1999/xlink"
   lang="en-GB"
   viewBox="0 0 720 720">

  <title>Hide Icon</title>

  <defs>

    <style><![CDATA[

      rect {
        width: 720px;
        height: 720px;
        fill: rgb(191, 0, 0);
      }

      path {
        fill: rgb(255, 255, 255);
        transform: translate(38px, 40px);
        filter: url(#drop-shadow);
      }

    ]]></style>
    
   
    <filter id="drop-shadow">
      <feDropShadow dx="10" dy="10" stdDeviation="10" flood-color="rgb(0, 0, 0, 0.3)"/>
      <feDropShadow dx="10" dy="-10" stdDeviation="10" flood-color="rgb(0, 0, 0, 0.3)"/>
      <feDropShadow dx="-10" dy="-10" stdDeviation="10" flood-color="rgb(0, 0, 0, 0.3)"/>
      <feDropShadow dx="-10" dy="10" stdDeviation="10" flood-color="rgb(0, 0, 0, 0.3)"/>
    </filter>

  </defs>

  <rect x="0" y="0"></rect>
  <path d="m 499.56747,566.18851 -47.95852,-47.94411 -6.42768,2.05339 c -3.53523,1.12937 -6.86295,2.48866 -7.39495,3.02066 -0.532,0.532 -2.02283,0.96727 -3.31296,0.96727 -1.29013,0 -5.81263,1.07733 -10.05,2.39406 -4.23737,1.31673 -13.10431,3.60367 -19.70431,5.0821 -6.6,1.47842 -14.50452,3.32609 -17.5656,4.10594 -3.06109,0.77984 -7.56109,1.42864 -10,1.44176 -2.43892,0.0131 -6.2344,0.46178 -8.4344,0.99703 -2.2,0.53525 -13,1.68698 -24,2.5594 -16.94181,1.34367 -22.90528,1.4037 -39,0.39264 -10.45,-0.65646 -22.375,-1.81885 -26.5,-2.58308 -4.125,-0.76423 -9.22614,-1.38958 -11.33587,-1.38968 -2.10972,-9e-5 -6.60972,-0.67819 -10,-1.50688 -3.39027,-0.82869 -11.94397,-2.87632 -19.00823,-4.55029 -7.06425,-1.67397 -13.58925,-3.41571 -14.5,-3.87054 -2.47118,-1.2341 -8.59737,-3.07286 -10.2269,-3.06959 -1.54343,0.003 -12.75913,-4.33513 -17.08329,-6.60783 -1.45986,-0.76727 -3.54226,-1.39504 -4.62756,-1.39504 -1.08529,0 -2.49682,-0.63085 -3.13672,-1.40189 -0.63991,-0.77103 -2.35428,-1.70076 -3.80973,-2.06605 -4.49663,-1.12859 -32.9179,-15.43738 -39.78927,-20.03206 -5.59187,-3.73912 -6.98064,-4.55747 -8.73243,-5.14566 -0.9625,-0.32318 -1.75,-0.88279 -1.75,-1.24357 0,-0.36078 -1.66248,-1.54579 -3.69439,-2.63337 -2.03192,-1.08757 -4.71147,-2.9899 -5.95455,-4.2274 -1.24308,-1.2375 -2.8556,-2.25 -3.58336,-2.25 -0.72777,0 -2.07545,-0.87854 -2.99484,-1.95231 -0.9194,-1.07378 -3.4944,-3.15858 -5.72224,-4.63289 -2.22784,-1.47432 -4.05062,-3.07077 -4.05062,-3.54769 0,-0.47691 -0.675,-0.86711 -1.5,-0.86711 -0.825,0 -1.5,-0.34638 -1.5,-0.76972 0,-0.42335 -2.31059,-2.56085 -5.13465,-4.75 -2.82406,-2.18916 -8.30312,-7.01778 -12.1757,-10.73028 -3.87257,-3.7125 -7.41198,-6.75 -7.86535,-6.75 -0.45336,0 -0.8243,-0.41621 -0.8243,-0.92492 0,-0.5087 -4.275,-5.25588 -9.5,-10.54927 -5.225,-5.2934 -9.50391,-9.93968 -9.50868,-10.32508 -0.005,-0.3854 -1.57977,-2.35819 -3.5,-4.38398 -1.92023,-2.02578 -3.49132,-4.16328 -3.49132,-4.75 0,-0.58671 -0.37372,-1.06675 -0.83048,-1.06675 -0.45677,0 -2.35535,-2.1375 -4.21908,-4.75 -1.86372,-2.6125 -4.41501,-5.8704 -5.66952,-7.23978 -1.25451,-1.36938 -2.28092,-2.81873 -2.28092,-3.22077 0,-0.97475 -6.29508,-10.19837 -7.25,-10.62278 -0.4125,-0.18334 -0.75,-0.77586 -0.75,-1.31673 0,-0.54086 -1.125,-2.45833 -2.5,-4.26105 -1.375,-1.80272 -2.5,-3.76555 -2.5,-4.36185 0,-0.5963 -0.56286,-1.67883 -1.25079,-2.40561 -0.68793,-0.72679 -2.55343,-3.79643 -4.14554,-6.82143 -1.59212,-3.025 -3.43015,-6.175 -4.08452,-7 -0.65437,-0.825 -1.79045,-3.075 -2.52463,-5 -0.73417,-1.925 -2.55775,-5.75 -4.05238,-8.5 -1.49464,-2.75 -3.2908895,-6.91784 -3.9916795,-9.26188 -0.70078,-2.34403 -1.87632,-4.76163 -2.61231,-5.37244 -0.73598,-0.61081 -1.33815,-1.73658 -1.33815,-2.50169 0,-0.76512 -0.49399,-2.18213 -1.09776,-3.14892 -1.3968,-2.23663 2.78341,-13.40612 13.5535995,-36.21507 0.90897,-1.925 2.92717,-5.75 4.48489,-8.5 1.55773,-2.75 4.12013,-7.39767 5.69423,-10.32815 1.5741,-2.93048 3.53768,-6.08048 4.36352,-7 0.82583,-0.91952 2.39135,-3.35935 3.47892,-5.42185 1.08757,-2.0625 2.32507,-3.75 2.75,-3.75 0.42493,0 0.7726,-0.62686 0.7726,-1.39301 0,-0.76616 0.675,-1.65203 1.5,-1.96862 0.825,-0.31658 1.5,-1.19901 1.5,-1.96096 0,-0.76195 1.07475,-2.54504 2.38834,-3.96243 1.31359,-1.41738 3.86487,-4.63309 5.66952,-7.14602 1.80465,-2.51293 3.65489,-4.56896 4.11166,-4.56896 0.45676,0 0.83048,-0.6375 0.83048,-1.41667 0,-0.77916 0.37295,-1.56666 0.82878,-1.75 0.45583,-0.18333 3.46699,-3.45884 6.69146,-7.27891 8.55397,-10.13399 24.45623,-25.5354 36.47976,-35.33081 5.775,-4.70481 10.93768,-8.94001 11.47263,-9.41154 0.58921,-0.51936 -14.53793,-16.37161 -38.37356,-40.21297 L 31.97194,98.529169 50.431,79.981589 68.89006,61.433999 326.30456,318.86448 c 141.57797,141.58676 257.5424,257.81212 257.69873,258.27857 0.15633,0.46645 -1.53117,2.4882 -3.75,4.49277 -2.21883,2.00458 -4.03424,4.09587 -4.03424,4.6473 0,0.55143 -0.36895,1.0026 -0.81989,1.0026 -1.32834,0 -7.18011,5.57393 -7.18011,6.8392 0,0.63844 -0.34867,1.1608 -0.77483,1.1608 -1.23286,0 -12.22517,10.71248 -12.22517,11.91396 0,0.59732 -0.41538,1.08604 -0.92308,1.08604 -0.50769,0 -2.23863,1.31555 -3.84652,2.92345 l -2.92346,2.92345 z M 349.21905,466.71755 c 5.225,-1.38471 10.625,-2.75724 12,-3.05007 2.75309,-0.58631 3.85482,-1.0203 12.18807,-4.80109 3.12845,-1.41937 6.18494,-2.58067 6.79221,-2.58067 0.60727,0 1.64764,-0.46535 2.31193,-1.03411 0.66428,-0.56875 2.07729,-1.63518 3.14001,-2.36982 1.79872,-1.24344 0.40435,-2.86723 -20.18262,-23.50336 l -22.11483,-22.16765 -6.62944,1.53747 c -11.41412,2.64711 -26.52093,1.57763 -41.50533,-2.93836 -6.70501,-2.02075 -19.11179,-8.04802 -21.8854,-10.63203 -1.11703,-1.04068 -2.29378,-1.89214 -2.61499,-1.89214 -2.70649,0 -20.17527,-19.14468 -22.81153,-25 -0.37144,-0.825 -1.08949,-2.175 -1.59565,-3 -2.17158,-3.53945 -6.06891,-12.84603 -7.11912,-17 -2.23051,-8.82257 -3.90188,-23.67624 -3.93732,-34.99147 l -0.036,-11.49148 -21.24128,-21.25852 c -11.6827,-11.69219 -21.69785,-21.25853 -22.25589,-21.25853 -1.08876,0 -1.63115,1.17457 -6.23408,13.5 -4.69439,12.57036 -6.65135,21.09839 -8.3758,36.5 -1.25236,11.18532 -0.40696,32.91927 1.61426,41.5 0.77733,3.3 1.95673,8.7 2.62089,12 0.66417,3.3 1.58447,6.49903 2.04512,7.10895 0.46065,0.60992 1.44687,3.08492 2.19161,5.5 1.95279,6.33259 5.87398,14.89105 6.82256,14.89105 0.44693,0 0.81261,0.66976 0.81261,1.48835 0,1.91567 10.91278,19.51165 12.10086,19.51165 0.49453,0 0.89914,0.63118 0.89914,1.40263 0,2.42943 27.54632,29.23723 31.32523,30.48539 0.64613,0.21341 3.26006,1.90091 5.80875,3.75 2.54868,1.84909 5.33463,3.36198 6.19098,3.36198 0.85635,0 1.85228,0.47776 2.21316,1.06168 0.36089,0.58393 1.62495,1.48285 2.80902,1.99762 1.18407,0.51476 2.82786,1.37856 3.65286,1.91956 2.61119,1.71232 19.87112,8.02114 21.94454,8.02114 1.09318,0 3.46537,0.6295 5.27153,1.39888 7.0472,3.00196 18.24951,4.38071 36.28393,4.46574 16.21242,0.0764 18.94344,-0.16517 27.5,-2.43279 z M 537.29597,455.2088 c -1.6923,-1.69231 -3.07692,-3.49231 -3.07692,-4 0,-0.5077 -0.48887,-0.92308 -1.08638,-0.92308 -1.2628,0 -11.91362,-10.84807 -11.91362,-12.13426 0,-0.47616 -0.48872,-0.86574 -1.08604,-0.86574 -1.20148,0 -11.91396,-10.99231 -11.91396,-12.22517 0,-0.42616 -0.41351,-0.77483 -0.91892,-0.77483 -0.87584,0 -49.08108,-47.83955 -49.08108,-48.70876 0,-0.22942 1.06586,-2.75131 2.36857,-5.60419 2.63703,-5.77495 4.82125,-12.43365 6.78586,-20.68705 2.04116,-8.57494 1.71306,-44.3585 -0.49891,-54.41459 -0.95751,-4.35302 -1.95469,-8.26046 -2.21595,-8.68318 -0.26125,-0.42273 -0.88261,-2.71116 -1.38078,-5.08541 -1.28397,-6.11929 -6.49388,-19.77099 -9.08923,-23.81682 -0.52923,-0.825 -1.94821,-3.6375 -3.15328,-6.25 -1.20508,-2.6125 -2.55673,-4.75 -3.00367,-4.75 -0.44693,0 -0.81261,-0.675 -0.81261,-1.5 0,-0.825 -0.39752,-1.5 -0.88337,-1.5 -0.48585,0 -1.14779,-0.7875 -1.47097,-1.75 -0.82152,-2.44667 -2.75699,-5.24468 -5.39566,-7.80022 -1.2375,-1.19852 -2.25,-2.51141 -2.25,-2.91755 0,-0.40613 -1.58341,-2.37953 -3.5187,-4.38533 -1.93528,-2.00579 -5.72352,-6.0094 -8.41831,-8.8969 -2.69479,-2.8875 -5.31663,-5.25 -5.82631,-5.25 -0.50969,0 -1.76743,-0.92899 -2.79498,-2.06442 -2.03218,-2.24553 -13.90248,-10.93558 -14.93762,-10.93558 -0.35064,0 -2.07,-1.059 -3.8208,-2.35333 -1.7508,-1.29433 -6.33328,-3.80027 -10.18328,-5.56874 -3.85,-1.76848 -7.78139,-3.63448 -8.73643,-4.14667 -0.95504,-0.5122 -2.40227,-0.93126 -3.21607,-0.93126 -0.81381,0 -2.95741,-0.61623 -4.76357,-1.3694 -10.32487,-4.30546 -14.48344,-5.15988 -33.78393,-6.94128 -14.73678,-1.36018 -26.41609,-0.98941 -42,1.33332 -7.9229,1.18089 -19.70005,4.68301 -20.58984,6.12273 -0.29051,0.47005 -1.60008,0.85463 -2.91016,0.85463 -1.31008,0 -2.6975,0.51054 -3.08315,1.13454 -0.44881,0.72619 -2.07529,-0.35359 -4.51889,-3 -2.09974,-2.274 -4.28577,-4.13454 -4.85783,-4.13454 -0.57207,0 -1.04013,-0.39599 -1.04013,-0.87998 0,-0.48399 -11.7,-12.57659 -26,-26.87244 -14.3,-14.29584 -26,-26.44342 -26,-26.99461 0,-1.59232 33.86191,-11.28463 46.5,-13.30971 2.75,-0.44065 8.825,-1.53135 13.5,-2.42378 36.32913,-6.93499 84.27658,-6.32474 118.76435,1.51157 2.34539,0.53292 5.52773,0.96895 7.07186,0.96895 1.54413,0 4.80017,0.62222 7.23565,1.38272 2.43548,0.76049 6.45314,1.94632 8.92814,2.63517 10.03254,2.7923 11.8197,3.35078 19.55034,6.10941 4.42768,1.57998 8.63467,2.8727 9.34887,2.8727 1.30244,0 2.74171,0.58509 13.28886,5.40216 3.12845,1.42881 6.04699,2.59784 6.48565,2.59784 0.43867,0 3.05403,1.08555 5.81193,2.41233 2.75789,1.32678 7.03935,3.3837 9.51435,4.57095 9.07394,4.35271 23.42189,12.27376 28.25744,15.60004 2.73184,1.87917 5.36134,3.41668 5.84334,3.41668 0.77944,0 2.75197,1.41777 6.26081,4.5 0.62613,0.55 2.31467,1.60576 3.75232,2.34614 1.43764,0.74038 3.7805,2.42788 5.20635,3.75 1.42585,1.32212 2.89505,2.40386 3.2649,2.40386 0.36984,0 2.34393,1.4625 4.38686,3.25 3.71348,3.24918 4.90193,4.21805 10.52798,8.58282 7.95042,6.16805 29.52793,26.73333 36.00693,34.31782 6.91987,8.10057 14.34491,16.97871 16.49307,19.72083 1.375,1.75517 3.0625,3.81998 3.75,4.58845 0.6875,0.76847 1.25,1.84187 1.25,2.38532 0,0.54345 0.3637,1.13809 0.80823,1.32143 0.69055,0.2848 6.48253,8.4218 9.69177,13.61572 0.55,0.89013 2.4625,3.77363 4.25,6.40776 1.7875,2.63414 3.25,5.21181 3.25,5.72817 0,0.51635 0.57405,1.53347 1.27567,2.26025 0.70161,0.72679 2.61411,4.02143 4.25,7.32143 1.63588,3.3 3.20972,6.225 3.49743,6.5 1.66635,1.59278 3.9769,6.22027 3.9769,7.96482 0,1.11935 0.41425,2.03518 0.92054,2.03518 0.5063,0 1.21706,1.35 1.57946,3 0.3624,1.65 1.07316,3 1.57946,3 0.50629,0 0.92054,0.71807 0.92054,1.59571 0,0.87764 0.60667,2.79014 1.34815,4.25 6.12373,12.05669 6.19446,12.7848 2.11425,21.76539 -5.45578,12.00828 -10.49609,22.71864 -11.47746,24.3889 -0.48472,0.825 -1.83687,3.2632 -3.00476,5.41822 -3.63113,6.70024 -15.3137,25.06438 -16.16813,25.41511 -0.44663,0.18334 -0.81205,0.79358 -0.81205,1.3561 0,1.10695 -6.00086,9.09746 -7.24256,9.6439 -0.41659,0.18334 -0.75744,0.76483 -0.75744,1.29221 0,0.92551 -0.81152,2.0884 -4,5.73185 -0.825,0.94273 -3.525,4.36168 -6,7.59767 -2.475,3.23599 -5.9625,7.3906 -7.75,9.23247 -1.7875,1.84187 -3.25,3.51983 -3.25,3.7288 0,0.45637 -20.64213,21.13015 -27.79105,27.83367 -2.78609,2.6125 -5.73825,4.75 -6.56036,4.75 -0.82211,0 -2.87936,-1.38462 -4.57167,-3.07692 z M 404.91566,323.24435 c -0.93314,-1.08982 -1.69661,-2.32932 -1.69661,-2.75445 0,-0.42513 -1.25872,-1.51651 -2.79715,-2.42528 -1.53843,-0.90877 -3.41447,-2.8058 -4.16898,-4.21561 -0.7545,-1.40981 -1.77793,-2.56329 -2.27428,-2.56329 -0.49635,0 -1.5453,-0.64286 -2.33102,-1.42857 -0.78571,-0.78572 -1.42857,-1.83467 -1.42857,-2.33102 0,-0.49635 -1.15348,-1.51978 -2.56329,-2.27428 -1.40981,-0.75451 -3.30684,-2.63055 -4.21561,-4.16898 -0.90877,-1.53843 -2.00575,-2.79715 -2.43772,-2.79715 -1.00097,0 -11.78338,-11.18457 -11.78338,-12.22287 0,-0.42742 -0.39719,-0.77713 -0.88263,-0.77713 -0.48545,0 -11.74437,-10.86745 -25.01982,-24.14989 -26.41216,-26.42606 -27.34685,-27.85011 -18.27979,-27.85011 4.87866,0 15.07228,1.87107 21.78086,3.99795 6.49208,2.05824 24.20097,11.0374 24.78866,12.56891 0.30247,0.78823 1.12657,1.44794 1.83134,1.46603 0.70476,0.0181 3.0693,1.8181 5.25454,4 2.18523,2.18191 4.32273,3.96711 4.75,3.96711 0.42726,0 0.77684,0.47045 0.77684,1.04545 0,0.575 1.03071,2.07617 2.29046,3.33592 1.25976,1.25976 3.83912,4.7268 5.73193,7.70455 1.89281,2.97774 3.7871,5.56408 4.20954,5.74741 0.42244,0.18334 0.76807,1.01391 0.76807,1.84571 0,0.83181 0.60667,2.70681 1.34815,4.16667 3.3377,6.57142 4.60617,10.02884 5.55987,15.15429 1.38633,7.45055 3.41576,26.00955 2.9005,26.52481 -0.22842,0.22842 -1.17878,-0.47636 -2.11191,-1.56618 z" />

</svg>
