<svg xmlns="http://www.w3.org/2000/svg"
	 xmlns:xlink="http://www.w3.org/1999/xlink"
     viewBox="0 0 72 72">

<defs>
<style type="text/css"><![CDATA[

rect {
fill: rgb(255, 0, 0);
}

path {
fill: none;
stroke: rgb(255, 255, 255);
stroke-width: 2;
stroke-linecap: round;
stroke-linejoin: round;
}

path:nth-of-type(6) {
fill: #fff;
stroke-width: 0;
}

]]></style>
</defs>


<rect x="0" y="0" width="72" height="72" />
<path d="M66.792 28.871l-7.9-6.296M12.817 22.575l-7.609 6.296"/>
<path d="M12.817 35.22V4.865h36.786l9.289 9.289v21.182"/>
<path d="M58.892 14.154h-9.289V4.865"/>
<path d="M5.208 28.871L35.909 54.49l30.883-25.619"/>
<path d="M66.792 28.871l-.328 38.264H5.427l-.219-38.264M66.464 67.135L43.729 48.003M5.388 67.135l22.735-19.132"/>
<path d="M39.837 30.489a3.174 3.174 0 0 0-.16.8q0 .768.928.768a2.394 2.394 0 0 0 1.376-.5 4.875 4.875 0 0 0 1.264-1.36 8.489 8.489 0 0 0 .928-2 7.767 7.767 0 0 0 .369-2.416 7.91 7.91 0 0 0-.672-3.344 7.311 7.311 0 0 0-1.824-2.464 8.01 8.01 0 0 0-2.673-1.536 9.729 9.729 0 0 0-3.216-.528 9.138 9.138 0 0 0-6.757 2.868 9.661 9.661 0 0 0-1.952 3.12 10.5 10.5 0 0 0-.7 3.872 10.151 10.151 0 0 0 .738 3.9 9.174 9.174 0 0 0 5.081 5.1 9.791 9.791 0 0 0 3.768.72 11.121 11.121 0 0 0 4.312-.832 7.278 7.278 0 0 0 3.159-2.4h2.5a8.813 8.813 0 0 1-1.744 2.208 10.723 10.723 0 0 1-2.416 1.68 13.615 13.615 0 0 1-2.848 1.072 12.231 12.231 0 0 1-3.04.384 11.98 11.98 0 0 1-4.72-.928 11.884 11.884 0 0 1-7.28-11.04 11.418 11.418 0 0 1 .944-4.624 11.981 11.981 0 0 1 2.56-3.76 12.1 12.1 0 0 1 3.776-2.528 11.517 11.517 0 0 1 4.592-.928 12.058 12.058 0 0 1 4.224.736 11.134 11.134 0 0 1 3.472 2.032 9.6 9.6 0 0 1 2.352 3.072 8.767 8.767 0 0 1 .865 3.888 8.932 8.932 0 0 1-.752 3.712 10.082 10.082 0 0 1-1.891 2.856 8.661 8.661 0 0 1-2.449 1.824 5.583 5.583 0 0 1-2.431.64 2.006 2.006 0 0 1-1.408-.528 2.052 2.052 0 0 1-.608-1.52h-.128a9.1 9.1 0 0 1-1.76 1.408 4.155 4.155 0 0 1-5.424-.832 4.827 4.827 0 0 1-.864-1.584 6.171 6.171 0 0 1-.3-1.968 9.761 9.761 0 0 1 .512-3.1 9.157 9.157 0 0 1 1.44-2.736 7.292 7.292 0 0 1 2.256-1.936 6 6 0 0 1 2.96-.736 3.893 3.893 0 0 1 2.048.56 3.335 3.335 0 0 1 1.376 1.872h.064l.512-1.824h2.335zm-3.488-6.976a3.913 3.913 0 0 0-1.984.5 4.49 4.49 0 0 0-1.456 1.344 6.35 6.35 0 0 0-.9 1.92 8.093 8.093 0 0 0-.3 2.224 3 3 0 0 0 .528 1.872 2.061 2.061 0 0 0 1.744.688 3.074 3.074 0 0 0 1.776-.56 5.391 5.391 0 0 0 1.392-1.401 6.871 6.871 0 0 0 .9-1.84 6.4 6.4 0 0 0 .32-1.936 3.827 3.827 0 0 0-.5-1.968 1.644 1.644 0 0 0-1.52-.843z" />
</svg>
