<svg xmlns="http://www.w3.org/2000/svg"
     xmlns:xlink="http://www.w3.org/1999/xlink"
     viewBox="0 130.97873 582.12769 320.17023">

<defs>
<style type="text/css"><![CDATA[

rect {
fill: rgb(255, 255, 255);
}

path {
fill: rgb(11, 123, 191);
stroke-width: 1.02127659;
}

]]></style>
</defs>

<rect x="0" y="130.97873" width="582.12769" height="320.17023" />
<path d="M 0,291.06385 V 0 H 291.06385 582.12769 V 291.06385 582.12769 H 291.06385 0 Z m 378.561,90.38298 c 3.01877,-8.42553 7.74576,-21.75319 10.50441,-29.61702 2.75865,-7.86383 6.40521,-18.20426 8.10345,-22.97873 1.69825,-4.77447 8.14472,-22.92766 14.32549,-40.34043 8.282,-23.33245 11.24782,-30.64379 11.27598,-27.79756 0.021,2.1241 0.97442,6.64111 2.11869,10.03782 5.01949,14.90013 12.47806,21.50352 39.85863,35.28858 18.3749,9.25106 25.72506,15.3297 27.65616,22.8719 2.77039,10.82017 -3.13488,17.05692 -20.30938,21.44942 -16.42132,4.19987 -38.65355,0.84817 -59.32722,-8.94408 -4.11848,-1.95075 -7.72786,-3.3071 -8.02084,-3.01412 -0.74479,0.74478 -15.63997,37.33328 -15.63997,38.41798 0,1.82856 21.52317,7.70262 42.89362,11.70643 20.7956,3.89611 36.02453,5.03468 48.85868,3.65287 38.78027,-4.17533 63.70419,-26.43808 68.04042,-60.77562 l 0.64484,-5.10638 -14.09111,-8.59371 c -7.75012,-4.72654 -26.04006,-15.8116 -40.64431,-24.63347 -39.50015,-23.8605 -43.80982,-26.5175 -43.01152,-26.5175 0.40149,0 2.08587,0.70116 3.74308,1.55814 1.65722,0.85697 3.01312,1.16686 3.01312,0.68861 0,-0.80843 -13.15138,-8.91759 -26.80852,-16.53016 -3.22978,-1.8003 -5.85993,-3.57409 -5.84475,-3.94175 0.0151,-0.36766 1.40942,-4.34506 3.09835,-8.83868 1.68892,-4.49361 2.79581,-6.5617 2.45975,-4.59574 -0.33605,1.96596 -0.85565,4.97173 -1.15467,6.67949 -0.536,3.06126 -0.33723,3.22203 14.1084,11.41076 8.05864,4.56817 19.82229,10.87633 26.14144,14.01815 12.64227,6.28561 15.36967,8.35566 4.70408,3.57034 -3.7319,-1.6744 -7.02552,-2.80411 -7.31915,-2.51048 -0.72893,0.72892 -1.33151,0.36981 14.10443,8.4054 7.58298,3.94751 22.05957,11.53912 32.17021,16.87023 33.80606,17.82517 42.52261,22.23696 43.93445,22.23696 1.16528,0 1.13392,-0.90614 -0.18556,-5.3617 -2.27852,-7.69401 -3.70167,-10.0759 -10.23937,-17.1374 -7.16569,-7.73979 -12.77005,-11.5802 -32.90342,-22.54717 -15.85007,-8.63379 -24.45533,-15.08655 -27.20174,-20.39752 -2.90791,-5.62327 -1.48622,-15.76267 2.9786,-21.24312 0.63193,-0.77567 1.69377,-3.7629 2.35964,-6.6383 l 1.21067,-5.22798 -0.16873,4.59574 -0.16875,4.59575 18.36232,-0.35497 c 10.98557,-0.21237 20.92618,0.11332 24.74433,0.81072 7.56436,1.38165 19.87424,5.18435 24.46148,7.55651 1.79732,0.92942 3.65969,1.68987 4.1386,1.68987 0.47893,0 1.89943,-3.33192 3.15668,-7.40426 1.25724,-4.07234 3.90378,-12.39901 5.88117,-18.50372 1.97741,-6.10472 3.38038,-11.65951 3.11772,-12.344 -0.50939,-1.32744 -14.59142,-5.50068 -27.22277,-8.06753 -20.20595,-4.10609 -34.9298,-5.23494 -49.17906,-3.77044 -30.9907,3.18513 -51.87233,14.33546 -63.41669,33.86313 -4.39472,7.43383 -4.67381,7.32527 -1.68748,-0.65641 1.17825,-3.14919 1.90629,-5.96179 1.61785,-6.25023 -0.28844,-0.28845 -21.52295,31.10922 -47.18781,69.7726 -25.66485,38.66337 -47.05359,70.71348 -47.53054,71.22248 -0.9539,1.01801 1.97622,-6.44139 26.96493,-68.64638 16.23466,-40.41333 17.03301,-42.73451 18.96815,-55.14894 1.81219,-11.62573 2.00837,-12.25025 1.90556,-6.06637 -0.063,3.79146 0.10633,7.1145 0.37637,7.38454 0.27004,0.27003 4.77688,-10.0827 10.0152,-23.00608 5.23832,-12.92338 9.27405,-23.74723 8.96828,-24.05299 -0.50866,-0.50866 -25.75352,0.75451 -44.89437,2.24636 l -7.88811,0.61481 -0.52152,3.21522 c -1.03042,6.35264 -7.57427,54.40984 -8.22546,60.40672 -1.0988,10.119 -0.0449,9.36086 -14.05769,10.11315 -6.86561,0.36859 -19.73947,1.17462 -28.60855,1.79119 -8.86909,0.61656 -16.32581,0.92084 -16.57048,0.67616 -0.24467,-0.24468 -0.009,-3.17538 0.52422,-6.51268 1.19304,-7.47 1.17758,-7.36243 5.62755,-39.1419 1.99662,-14.25883 3.4063,-26.14906 3.13261,-26.42274 -0.27368,-0.27368 -7.52653,-0.0397 -16.11742,0.51992 -8.59089,0.55965 -20.60104,1.26942 -26.68922,1.57727 -6.08818,0.30784 -11.30941,0.79973 -11.60276,1.09307 -0.29335,0.29334 -1.39959,6.41849 -2.45834,13.61144 -2.89486,19.6672 -4.68566,31.70917 -7.56434,50.86533 -1.43496,9.54894 -4.88718,32.91045 -7.6716,51.91446 -5.60939,38.2848 -8.71219,58.63344 -10.21312,66.97928 -1.18607,6.59502 -1.29099,11.6217 -0.22894,10.96845 0.42128,-0.25912 11.33617,-1.03386 24.25532,-1.72164 12.91915,-0.68778 23.84851,-1.57438 24.28747,-1.97022 0.87393,-0.7881 -1.56998,-22.44437 -3.91695,-34.70939 -0.8121,-4.24394 -1.44035,-8.6354 -1.3961,-9.75881 0.10493,-2.66391 0.43776,-1.59309 2.46012,7.9149 2.47697,11.64528 3.75925,9.98365 3.1525,-4.08511 -0.61347,-14.22475 -0.0303,-13.29096 1.43489,2.29787 2.73259,29.07227 3.44438,35.23405 4.07008,35.23405 0.62425,0 3.40741,-16.65098 6.65741,-39.82979 2.96226,-21.12674 5.83552,-39.34273 6.27569,-39.78688 0.25494,-0.25725 9.98072,-1.03322 21.61283,-1.72439 11.63211,-0.69116 24.48121,-1.56872 28.55356,-1.95013 4.3864,-0.41083 7.40425,-0.30591 7.40425,0.2574 0,0.89427 -1.04717,8.94826 -4.62141,35.54442 -0.83036,6.17873 -2.21419,17.19173 -3.07518,24.47336 -2.09234,17.69552 -2.04926,17.56231 -7.87412,24.34613 -2.79851,3.25922 -4.86892,6.14514 -4.6009,6.41316 0.26801,0.26801 7.09924,1.38428 15.18051,2.48063 8.08128,1.09633 19.05919,2.6467 24.39536,3.44527 5.33617,0.79857 10.34552,1.38161 11.13189,1.29563 0.87049,-0.0952 3.57673,-6.14859 6.91845,-15.47545 z m -41.14323,-14.68128 c 2.54373,-6.03141 5.07895,-9.99475 9.08576,-14.20392 3.05664,-3.21101 10.40102,-11.3531 16.32082,-18.09353 5.9198,-6.74042 13.14206,-14.78298 16.04946,-17.87234 4.99905,-5.3119 4.93513,-5.17837 -1.17677,2.45812 -7.98847,9.98117 -27.96178,34.59496 -35.25239,43.44272 -5.58828,6.78184 -7.1759,10.11869 -3.12548,6.56915 2.8371,-2.48627 6.75617,-5.27298 5.3617,-3.81251 -0.5617,0.58829 -3.21953,3.0515 -5.90629,5.47382 l -4.88502,4.4042 z M 257.9291,334.41136 c -0.3845,-2.04954 -0.49484,-3.9307 -0.24519,-4.18034 0.24964,-0.24965 0.76849,1.223 1.15298,3.27255 0.3845,2.04954 0.49484,3.9307 0.24519,4.18034 -0.24964,0.24965 -0.76849,-1.223 -1.15298,-3.27255 z m 127.60284,-25.98581 c 1.01667,-1.12341 2.07827,-2.04256 2.35912,-2.04256 0.28085,0 -0.32118,0.91915 -1.33785,2.04256 -1.01667,1.1234 -2.07828,2.04255 -2.35913,2.04255 -0.28085,0 0.32118,-0.91915 1.33786,-2.04255 z m 46.49936,-78.12767 c 0,-0.5617 0.4455,-1.71063 0.99,-2.55319 0.5445,-0.84255 0.98999,-1.07234 0.98999,-0.51064 0,0.56171 -0.44549,1.71064 -0.98999,2.5532 -0.5445,0.84255 -0.99,1.07234 -0.99,0.51063 z M 272.34044,213.78724 c -0.37447,-0.37446 -0.65172,-1.63829 -0.61611,-2.80851 0.0595,-1.95635 0.14351,-1.9307 1.04321,0.31849 1.00015,2.50031 0.79269,3.70981 -0.4271,2.49002 z m 118.96977,-1.3617 c 0,-1.40425 0.23181,-1.97872 0.51512,-1.27659 0.28331,0.70212 0.28331,1.85106 0,2.55319 -0.28331,0.70213 -0.51512,0.12766 -0.51512,-1.2766 z m -124.1202,-14.84799 c -0.98551,-2.5682 -0.69478,-3.23086 0.50914,-1.16052 0.59611,1.02511 0.8687,2.07897 0.60575,2.34192 -0.26295,0.26295 -0.76465,-0.26869 -1.11489,-1.1814 z M 32.959059,382.57743 c 12.229609,-0.74063 22.41033,-1.52778 22.623823,-1.74923 0.63039,-0.6539 -9.260847,-68.52176 -10.403307,-71.38138 -0.336611,-0.84255 -1.160614,2.14469 -1.831116,6.6383 l -1.219096,8.17022 -0.12851,-5.93262 c -0.160345,-7.40221 -2.107472,-6.87341 -2.324084,0.63119 -0.08416,2.91579 -0.324246,4.15249 -0.533522,2.74823 -0.209276,-1.40425 0.0047,-7.83829 0.475525,-14.29787 0.551927,-7.57243 0.413117,-18.81936 -0.390744,-31.65957 -0.685724,-10.9532 -1.830381,-34.50639 -2.543682,-52.34043 -0.713299,-17.83405 -1.676103,-32.42554 -2.139562,-32.42554 -0.463461,0 -0.842655,0.39814 -0.842655,0.88476 0,0.98076 -6.54188,44.08402 -8.1583,53.75354 -3.829311,22.9072 -10.124716,63.04279 -13.856497,88.34043 -0.787165,5.33617 -2.5982211,16.82554 -4.0245691,25.53192 -1.4263481,8.70638 -2.877294,17.78298 -3.2243242,20.17021 l -0.6309641,4.34043 3.4579651,-0.038 c 1.9018808,-0.0209 13.4640093,-0.64397 25.6936193,-1.38459 z m 5.065116,-54.74763 c 0,-1.96595 0.210174,-2.77021 0.467054,-1.78723 0.256878,0.98298 0.256878,2.59149 0,3.57447 -0.25688,0.98298 -0.467054,0.17872 -0.467054,-1.78724 z m 33.400055,35.74469 c 1.267538,-10.39149 3.162006,-24.86809 4.20993,-32.17022 1.047924,-7.30213 3.321422,-23.84681 5.052217,-36.76596 1.730796,-12.91915 3.719522,-26.92118 4.41939,-31.11561 l 1.272489,-7.62625 4.74589,13.75391 c 4.977812,14.42603 13.370364,38.00403 22.708264,63.79647 3.05038,8.42553 8.09904,22.40455 11.21924,31.06449 3.1202,8.65994 5.81116,15.88341 5.97989,16.05216 0.16875,0.16873 9.70462,-0.34843 21.19083,-1.14928 11.48621,-0.80084 25.02019,-1.55024 30.07551,-1.66532 5.05532,-0.11509 11.16036,-0.41395 13.56676,-0.66412 4.30096,-0.44713 4.37284,-0.51804 4.23216,-4.17406 -0.13448,-3.49508 3.89693,-26.35403 13.44392,-76.22983 2.25789,-11.79575 5.45379,-28.8 7.102,-37.78724 1.64822,-8.98723 3.44398,-18.6383 3.99058,-21.44681 0.5466,-2.80851 2.40803,-12.68936 4.13651,-21.95745 2.78775,-14.94792 3.93489,-20.86041 5.71565,-29.4593 l 0.49608,-2.39548 -24.17869,0.35292 -24.1787,0.35293 0.67458,12.76595 c 0.37101,7.02128 1.106,18.74043 1.63329,26.04256 0.52731,7.30213 1.4422,20.62979 2.03309,29.61702 0.5909,8.98724 1.53808,23.23404 2.10486,31.65958 4.4871,66.70417 5.71491,92.80098 4.25236,90.38298 -0.50963,-0.84255 -1.49856,-8.65532 -2.19764,-17.3617 -0.69909,-8.70639 -1.46155,-17.66809 -1.69438,-19.9149 -0.23282,-2.24681 -1.10912,-12.12766 -1.94732,-21.95745 -1.54929,-18.1688 -3.91605,-44.5681 -5.19345,-57.92873 -0.38784,-4.05655 -1.09994,-7.13155 -1.58246,-6.83335 -0.4825,0.29821 -0.87728,4.16455 -0.87728,8.59187 0,4.42731 -0.45958,8.3337 -1.02128,8.68085 -0.64189,0.39672 -1.02967,-1.95207 -1.04389,-6.3227 -0.0502,-15.45539 -1.11385,-49.1142 -1.68811,-53.42198 -0.84853,-6.36529 -0.61281,-7.44494 -11.65017,53.3617 -5.27631,29.06809 -9.86639,52.85107 -10.20016,52.85107 -0.33379,0 -1.09867,-1.49362 -1.69975,-3.31915 -0.60109,-1.82553 -5.06655,-13.65958 -9.92326,-26.29787 -4.85671,-12.6383 -9.49485,-24.81703 -10.30698,-27.06384 -0.81212,-2.2468 -6.94534,-18.33191 -13.62939,-35.74468 l -12.1528,-31.65957 -9.04424,0.0515 c -12.326778,0.0702 -50.98157,2.61642 -52.325161,3.44681 -0.653965,0.40417 -1.912599,13.4502 -3.164348,32.79919 -1.143158,17.67042 -2.266178,33.277 -2.495598,34.68125 -0.229421,1.40426 1.35422,11.28511 3.519202,21.95745 2.164983,10.67234 6.9527,34.34043 10.639373,52.59575 8.442062,41.80261 9.91872,48.27786 10.781103,47.27589 0.382402,-0.44429 1.732352,-9.30993 2.999889,-19.70142 z"/>
</svg>
