<svg xmlns="http://www.w3.org/2000/svg"
	 lang="en-GB"
	 viewBox="0 0 768 768">

<title>Audio Icon</title>

<defs>

  <style><![CDATA[

  	rect {
  	  width: 768px;
  	  height: 768px;
  	  fill: rgb(191, 0, 0);
  	}

  	path {
  	  fill: rgb(255, 255, 255);
  	}

  ]]></style>

</defs>

<rect />

<path d="m 470.57734,741.2876 c -7.71475,-2.83606 -11.18777,-4.89195 -18.82603,-11.1443 -2.39807,-1.96296 -43.79807,-42.82236 -92,-90.79868 l -87.63988,-87.22967 -69.5,-0.27033 -69.5,-0.27033 -5.86156,-2.87813 c -8.69995,-4.27183 -19.79481,-15.53374 -22.7789,-23.12187 l -2.35954,-6 v -138 c 0,-131.11094 0.0914,-138.27456 1.83191,-143.5 4.32786,-12.99369 11.24782,-19.42452 26.95392,-25.04871 l 8.21417,-2.94141 66.47695,-0.005 66.47696,-0.005 90.52304,-90.2663 c 95.08695,-94.817141 94.44763,-94.232081 108.57699,-99.360761 5.97505,-2.16883 8.09265,-2.37282 24.63202,-2.37282 16.6968,0 18.4388,0.17171 22.54471,2.2223 2.44735,1.22227 5.35455,3.49301 6.46044,5.04609 4.95602,6.96009 4.73518,-9.62279 4.77327,358.416511 0.0249,240.3642 -0.28452,345.03405 -1.02571,347 -0.58374,1.54831 -2.49624,4.31599 -4.25,6.15042 -5.99091,6.26644 -7.33614,6.60106 -27.68867,6.88738 -18.04936,0.25392 -18.68352,0.19279 -26.03409,-2.50939 z M 600.3594,549.70163 c -5.93421,-2.20326 -10.33035,-6.14828 -13.14459,-11.79572 -5.39826,-10.83291 -3.08865,-16.71172 11.68289,-29.73724 40.36186,-35.59104 59.79177,-80.99428 57.38451,-134.09438 -2.23918,-49.39231 -20.58907,-87.5315 -58.17881,-120.9213 -12.02899,-10.68498 -14.65864,-14.55603 -14.65864,-21.5787 0,-11.90939 13.04063,-24.61151 23.75911,-23.14238 6.3213,0.86643 9.17103,2.59906 20.69094,12.58013 39.46289,34.19135 62.29527,76.84757 69.88539,130.56225 1.92863,13.64871 1.60428,48.41306 -0.58777,63 -5.75409,38.29032 -20.26693,71.24453 -44.36153,100.73141 -8.21433,10.05267 -30.26582,31.0853 -34.9257,33.312 -4.92676,2.35423 -12.81232,2.84138 -17.5458,1.08393 z" />

</svg>
