<svg xmlns="http://www.w3.org/2000/svg"
     xmlns:xlink="http://www.w3.org/1999/xlink"
     lang="en-GB"
     viewBox="0 0 10 10">

<title>Case Insensitive Icon</title>

<defs>

  <style><![CDATA[

  rect {
    fill: rgb(255, 0, 0);
  }

  path {
    fill: rgb(255, 255, 255);
  }

  #lower-case {
    transform: translate(-12px, -8px);
  }

  ]]></style>

</defs>

<rect width="10" height="10" />

<g id="case-insensitive">
<path id="lower-case" d="M18.55 17l-.184-1.035h-.055c-.35.44-.71.747-1.08.92-.37.167-.85.25-1.44.25-.564 0-.955-.208-1.377-.625-.42-.418-.627-1.012-.627-1.784 0-.808.283-1.403.846-1.784.568-.386 1.193-.607 2.208-.64l1.322-.04v-.335c0-.772-.396-1.158-1.187-1.158-.61 0-1.325.18-2.147.55l-.688-1.4c.877-.46 1.85-.69 2.916-.69 1.024 0 1.59.22 2.134.662.545.445.818 1.12.818 2.03V17h-1.45m-.394-3.527l-.802.027c-.604.018-1.054.127-1.35.327-.294.2-.442.504-.442.912 0 .58.336.87 1.008.87.48 0 .865-.137 1.152-.414.29-.277.436-.645.436-1.103v-.627" />
</g>

</svg>
