<svg xmlns="http://www.w3.org/2000/svg"
     xmlns:xlink="http://www.w3.org/1999/xlink"
     lang="en-GB"
     viewBox="0 0 384 384">

<title>Clear Screen Icon</title>

<defs>

  <style><![CDATA[

  rect {
    fill: rgb(255, 0, 0);
  }

  path {
    fill: rgb(255, 255, 255);
  }

  ]]></style>

</defs>

<rect width="384" height="384" />

<path d="m 190,311.65463 c 0,-0.42606 -3.375,-16.41169 -7.5,-35.52363 -4.125,-19.11193 -7.5,-35.42186 -7.5,-36.2443 0,-1.14264 8.19475,-3.41015 34.74392,-9.61376 19.10916,-4.46514 34.83361,-8.02875 34.94323,-7.91913 0.10961,0.10962 -2.24709,4.1201 -5.23713,8.91217 l -5.43643,8.71286 3.50412,1.46411 c 1.92726,0.80526 7.13326,2.24398 11.56888,3.19715 9.39904,2.01975 9.43408,1.99768 10.5284,-6.63149 1.13419,-8.94356 -1.00044,-20.34635 -5.52212,-29.498 -2.17108,-4.39417 -3.86764,-8.02899 -3.77014,-8.07737 0.0975,-0.0484 10.43692,-8.94066 22.97649,-19.76061 C 285.83879,169.85268 296.48253,161 296.95198,161 c 0.9087,0 6.76316,8.49911 9.29923,13.5 0.83675,1.65 2.7471,6.825 4.2452,11.5 3.27357,10.21551 4.48975,27.95955 2.55423,37.26633 -1.41888,6.82257 -3.89353,10.62155 -28.81378,44.23367 -15.13923,20.41959 -18.56744,24.46334 -22.9798,27.10582 -6.71538,4.02172 -15.52901,5.92276 -26.78967,5.77833 -10.26271,-0.13162 -18.50118,-2.15824 -26.15723,-6.43455 l -5.18984,-2.8988 -6.56016,10.68924 C 192.95207,307.61913 190,312.08069 190,311.65463 Z m -52.50013,-8.66939 C 119.21768,299.34888 101.61879,288.13655 95.702205,276.35577 94.360932,273.68509 88.192502,257.55 81.994582,240.5 71.315757,211.12338 70.728047,209.10725 70.771665,202 70.85808,187.91924 77.398527,173.61353 89.056451,162.00626 92.6625,158.41589 97.5,154.62734 99.806451,153.58728 102.1129,152.54721 104,151.37954 104,150.99245 c 0,-0.3871 -2.20992,-5.38125 -4.910935,-11.09813 -2.701014,-5.71688 -4.788035,-10.5198 -4.637824,-10.67316 0.400421,-0.40883 65.911079,23.76911 66.817249,24.66016 0.74982,0.73731 -22.27723,70.1065 -23.26849,70.09653 -0.275,-0.003 -2.26935,-4.04891 -4.43188,-8.99144 C 131.40558,210.04388 129.42306,206 129.16251,206 c -1.39856,0 -7.83173,5.89176 -12.31369,11.27739 l -5.1189,6.15097 5.13849,4.72486 c 7.32686,6.73706 15.76125,10.56827 26.61291,12.08854 l 8.98132,1.25824 3.86187,29.78596 c 2.12403,16.38227 3.60906,30.44477 3.30007,31.25 -0.43891,1.14378 -2.48276,1.44007 -9.3432,1.35447 -4.82976,-0.0603 -10.58144,-0.4676 -12.78151,-0.90519 z M 214.4673,153.84758 c -12.63201,-14.94582 -23.13479,-27.60321 -23.33951,-28.12752 -0.23244,-0.59534 3.46762,-0.67846 9.85399,-0.22136 9.68392,0.69311 10.19812,0.63301 9.69686,-1.13339 -0.29113,-1.02592 -0.81008,-3.44031 -1.15322,-5.36531 -0.34315,-1.925 -1.76625,-6.74565 -3.16246,-10.71256 l -2.53856,-7.21257 -4.94342,1.87836 c -10.62369,4.03668 -22.26133,13.99151 -26.83319,22.9531 -1.62721,3.18958 -2.59693,4.10238 -3.86043,3.63379 -0.92805,-0.34419 -13.70558,-5.60244 -28.39451,-11.68501 l -26.70714,-11.05922 1.78636,-4.70132 C 119.08658,91.002887 132.44557,75.518944 143.69798,68.683468 151.41131,63.997866 159.99697,61 165.70284,61 c 6.2971,0 73.85999,10.698211 76.54747,12.120869 C 256.10878,80.457058 268,103.5207 268,123.06373 v 6.74381 l 10.75,0.65317 c 5.9125,0.35924 11.30668,0.74005 11.98706,0.84623 1.0121,0.15795 -50.57304,48.59802 -52.66485,49.45396 -0.35068,0.14349 -10.97289,-11.9675 -23.60491,-26.91332 z" />

</svg>
