<svg xmlns="http://www.w3.org/2000/svg"
     lang="en-GB"
     viewBox="0 0 384 384">

<title>Download Icon</title>

<defs>

  <style><![CDATA[

  rect {
    fill: rgb(255, 0, 0);
  }

  path {
    fill: rgb(255, 255, 255);
  }

  ]]></style>

</defs>

<rect width="384" height="384" />

<path d="m 55.194284,275.66571 v -46.5 h 24.95078 c 27.051066,0 33.451686,0.78488 38.066446,4.66795 6.45072,5.42792 7.3856,7.8047 8.02528,20.40283 0.75779,14.92422 2.92415,19.2926 11.70616,23.60502 l 5.75133,2.8242 h 51.02712 51.02711 l 4.96396,-2.55476 c 3.48908,-1.79569 5.8368,-3.96654 7.90163,-7.30633 2.67955,-4.33406 2.99022,-5.78652 3.53574,-16.53014 0.6353,-12.51184 1.31862,-14.4842 6.78561,-19.58601 5.13448,-4.79152 10.2242,-5.52276 38.44033,-5.52276 h 25.8185 v 46.5 46.5 h -139 H 55.194284 Z M 160.36901,193.20426 126.19428,157.16369 v -20.61553 -20.61554 l 25.75,25.30402 25.75,25.30401 0.25819,-57.18747 0.25819,-57.187469 h 15.99181 15.99181 v 56.999999 c 0,31.35 0.31155,57 0.69232,57 0.38078,0 12.28215,-11.8125 26.4475,-26.25 l 25.75517,-26.25 0.003,21 0.003,21 -32.98907,35.5 c -18.14398,19.525 -33.56807,36.0803 -34.27575,36.78956 -1.04967,1.05201 -7.582,-5.34946 -35.46141,-34.75101 z" />

</svg>
