<svg xmlns="http://www.w3.org/2000/svg"
	 lang="en-GB"
	 viewBox="0 0 768 768">

<title>Mute Icon</title>

<defs>

  <style><![CDATA[

  	rect {
  	  width: 768px;
  	  height: 768px;
  	  fill: rgb(191, 0, 0);
  	}

  	path {
  	  fill: rgb(255, 255, 255);
  	}

  ]]></style>

</defs>

<rect />

<path d="m 514.64857,746.41567 c -7.23403,-2.33279 -15.45533,-6.93789 -23.16845,-12.97761 -3.14331,-2.46136 -44.6698,-43.2877 -92.2811,-90.7252 l -86.56599,-86.25 h -67.29941 c -47.65888,0 -68.66895,-0.33827 -71.99223,-1.1591 -10.38521,-2.56509 -23.41546,-14.17469 -26.78831,-23.86766 -1.83792,-5.28188 -1.90451,-10.42057 -1.90451,-146.97324 v -141.5 l 2.89186,-6.2618 c 3.2572,-7.05289 8.40912,-12.23957 15.39549,-15.4994 2.59196,-1.20939 4.91571,-2.33594 5.16389,-2.50342 0.24818,-0.16749 -20.72025,-21.55146 -46.5965,-47.51995 -30.937231,-31.04751 -47.695971,-48.58514 -48.940811,-51.21543 -2.8746,-6.0739 -2.65973,-18.56296 0.42151,-24.500003 3.16419,-6.09687 8.64277,-11.63242 14.66456,-14.81707 4.20155,-2.222 6.27753,-2.64426 13.000001,-2.64426 6.74443,0 8.78473,0.4178 13,2.6621 3.65377,1.94535 22.6348,20.316143 70.49714,68.230673 l 65.49713,65.56856 h 31.48475 31.48474 l 89.51812,-89.32184 c 95.1437,-94.935093 95.62848,-95.37672 110.05601,-100.257898 6.53075,-2.209511 8.73786,-2.420265 25.34601,-2.420265 16.8774,0 18.51482,0.162627 22.65421,2.25 3.53889,1.784556 5.02413,3.387752 7.17979,7.75 l 2.71791,5.5 0.0321,248.502843 0.0321,248.50284 65.8925,65.88683 c 46.80175,46.79773 66.57555,67.22255 68.25005,70.49716 3.3554,6.56182 3.366,18.66705 0.022,25.11033 -3.1642,6.09686 -8.6428,11.63242 -14.6646,14.81707 -6.9012,3.64972 -18.7705,3.80022 -25.50001,0.32333 -3.02072,-1.5607 -19.21059,-17.00386 -49.25,-46.97853 l -44.75005,-44.65354 v 56.77796 c 0,62.53583 0.17139,60.72201 -6.27221,66.37956 -4.82954,4.24039 -10.80361,5.3457 -28.52701,5.27798 -11.68868,-0.0447 -15.93014,-0.4526 -20.70078,-1.99102 z" />

</svg>
