<svg xmlns="http://www.w3.org/2000/svg"
	 lang="en-GB"
	 viewBox="0 0 384 384">

<title>Share Icon</title>

<defs>

  <style><![CDATA[

  rect {
    width: 384px;
    height: 384px;
    fill: rgba(0, 0, 0, 0);
  }

  path {
    fill: rgb(255, 255, 255);
    filter: url(#drop-shadow);
  }

  ]]></style>


</defs>

<rect />

<path d="m 268.40709,331.9694 c -7.26498,-1.44038 -13.75786,-5.21485 -20.49854,-11.9163 -8.75696,-8.70601 -11.18503,-14.72094 -11.44798,-28.35953 l -0.18907,-9.80642 -50.26096,-29.3414 -50.26095,-29.3414 -4.31124,3.29085 C 124.10982,232.08919 118.98638,233.5 106,233.5 c -10.400255,0 -12.050125,-0.25781 -17.252644,-2.69589 -3.163954,-1.48273 -8.152285,-4.96536 -11.085181,-7.73918 C 62.883154,209.08755 59.925018,187.45463 70.358306,169.65157 73.807655,163.7657 82.219319,156.30188 89,153.11046 c 4.962135,-2.33549 6.673523,-2.58864 17.5,-2.58864 10.81426,0 12.54346,0.25509 17.5,2.58165 3.025,1.4199 6.87929,3.74748 8.56508,5.17238 l 3.06508,2.59074 49.93492,-29.11083 L 235.5,102.64493 V 92.0206 c 0,-10.249163 0.13156,-10.890529 3.72581,-18.162998 7.03755,-14.239505 19.54526,-22.627927 35.19567,-23.604322 33.57325,-2.094561 55.62777,31.861437 40.36792,62.15203 -11.27997,22.39058 -40.82824,29.36035 -62.18335,14.66765 l -4.70581,-3.23768 -49.61012,28.90637 -49.61012,28.90636 v 10.3462 10.3462 l 50.29808,29.27537 50.29807,29.27537 3.11193,-2.33135 c 16.46151,-12.33245 39.54033,-10.77361 53.93854,3.64323 9.47604,9.48828 14.01485,23.37253 11.7878,36.05894 -4.12439,23.49478 -26.08979,38.3899 -49.70733,33.70743 z" />

</svg>
