<svg xmlns="http://www.w3.org/2000/svg"
     lang="en-GB"
     viewBox="0 0 384 384">

<title>Swap Displays Icon</title>

<defs>

  <style><![CDATA[

  rect {
    fill: rgb(255, 0, 0);
  }

  path {
    fill: rgb(255, 255, 255);
  }

  ]]></style>

</defs>

<rect width="384" height="384" />

<path d="m 249,287.91171 v -11.37214 l 8.72915,-8.76979 L 266.4583,259 H 176.72915 87 v -10 -10 h 90.23025 90.23025 L 258.23025,229.73121 249,220.46242 v -11.1871 -11.18711 l 23.75,24.52046 c 13.0625,13.48625 23.91034,24.97243 24.10632,25.52484 0.19597,0.55242 -2.96118,4.46086 -7.0159,8.68544 -4.05471,4.22458 -14.90255,15.50742 -24.10631,25.07297 L 249,299.28384 Z M 111,172.29111 C 98.075,158.8577 87.5,147.27116 87.5,146.54326 87.5,145.81535 98.075,134.2091 111,120.7516 l 23.5,-24.46819 0.30661,11.10829 0.30661,11.1083 -9.05661,8.72021 C 121.07548,132.01632 117,136.17882 117,136.47021 117,136.76159 157.5,137 207,137 h 90 v 10 10 l -90.25,0.0434 -90.25,0.0434 9.29234,8.70656 9.29233,8.70657 -0.29233,11.10775 L 134.5,196.7155 Z" />

</svg>
