<svg xmlns="http://www.w3.org/2000/svg"
     xmlns:xlink="http://www.w3.org/1999/xlink"
     lang="en-GB"
     viewBox="0 0 768 768">

<title>Swap Displays Icon</title>

<defs>

  <style><![CDATA[

  rect {
    width: 768px;
    height: 768px;
    fill: rgb(191, 0, 0);
  }

  path {
    fill: rgb(255, 255, 255);
    transform: translate(-6px, 16px);
  }

  ]]></style>

</defs>

<rect />

<path d="M 270.80655,607.01 C 254.64768,590.0975 197.08483,529.96767 142.88911,473.38815 88.693384,416.80863 44.223124,369.98538 44.066294,369.33647 43.909474,368.68757 74.307764,336.22991 111.61805,297.20833 148.92834,258.18675 206.56679,197.91 239.70349,163.26 c 33.13671,-34.65 60.90092,-63.1455 61.69824,-63.323316 1.24774,-0.27829 1.44969,5.328646 1.44969,40.249996 V 180.76 h 40.5 40.5 v 188 188 h -40.5 -40.5 v 40.5 c 0,33.07155 -0.24442,40.5 -1.33256,40.5 -0.7329,0 -14.55345,-13.8375 -30.71231,-30.75 z m 206.04487,-9.75 v -40.5 h -40.5 -40.5 v -188 -188 h 40.5 40.5 v -40.57332 c 0,-34.56456 0.21063,-40.525446 1.42227,-40.249996 0.78225,0.177816 22.93929,22.823316 49.23787,50.323316 26.29858,27.5 83.95515,87.7467 128.12572,133.88155 44.17053,46.13486 80.17603,84.42199 80.01213,85.08253 -0.1639,0.66053 -50.023,53.13743 -110.79799,116.61532 -60.775,63.4779 -118.35209,123.62826 -127.94908,133.66748 -9.59699,10.03922 -18.03449,18.25312 -18.75,18.25312 -1.04648,0 -1.30092,-7.9212 -1.30092,-40.5 z" />

</svg>
