<svg xmlns="http://www.w3.org/2000/svg"
     lang="en-GB"
     viewBox="0 0 270 270">

<title>Undo Icon</title>

<defs>

  <style><![CDATA[

  rect {
    width: 270px;
    height: 270px;
    fill: rgb(255, 0, 0);
  }

  path {
    fill: rgb(255, 255, 255);
  }

  ]]></style>

</defs>

<rect />

<path d="m 41.985711,196.85714 -31.9882776,-32 h 15.7441376 15.74414 v -8.39405 c 0,-4.61672 0.46783,-12.9529 1.03962,-18.52484 4.37585,-42.641531 32.97639,-79.186981 73.231859,-93.574842 25.31834,-9.049126 54.48012,-8.479661 79.5359,1.553159 29.73054,11.904688 54.10489,37.997142 64.06536,68.581233 1.5869,4.87264 3.18542,10.88434 3.55227,13.35934 0.5439,3.66947 0.15097,3.0235 -2.129,-3.5 -4.05122,-11.59143 -9.54417,-20.69805 -17.66091,-29.279531 -16.83321,-17.79704 -37.57758,-26.132848 -62.08333,-24.947245 -29.39458,1.422128 -54.73917,18.393975 -67.53853,45.226776 -5.44944,11.42429 -7.0855,18.88615 -7.7288,35.25 l -0.5602,14.25 h 15.63788 c 8.60083,0 15.63788,0.34018 15.63788,0.75595 0,0.41578 -14.06514,14.81578 -31.25586,32 l -31.255859,31.24405 z" />

</svg>
