<svg xmlns="http://www.w3.org/2000/svg"
     lang="en-GB"
     viewBox="0 0 253.18681 253.18681">

  <title>Copy Icon</title>

  <defs>

    <style><![CDATA[

      rect {
        width: 253.18681px;
        height: 253.18681px;
        fill: rgb(191,0,0);
      }

      path {
        fill: rgb(255,255,255);
        filter: url(#drop-shadow);
      }

    ]]></style>

    <filter id="drop-shadow">
      <feDropShadow dx="2" dy="2" stdDeviation="2" flood-color="rgb(0,0,0,0.3)"/>
      <feDropShadow dx="2" dy="-2" stdDeviation="2" flood-color="rgb(0,0,0,0.3)"/>
      <feDropShadow dx="-2" dy="-2" stdDeviation="2" flood-color="rgb(0,0,0,0.3)"/>
      <feDropShadow dx="-2" dy="2" stdDeviation="2" flood-color="rgb(0,0,0,0.3)"/>
    </filter>

  </defs>

  <rect />

  <path d="M 57.703081,238.88394 C 49.694364,236.72688 43.189635,230.34846 40.085789,221.60873 39.42138,219.7379 39.347343,212.88725 39.231265,142.5394 39.08994,56.891428 38.918538,62.114667 42.076861,55.824175 44.317762,51.360936 48.415788,47.259155 52.7797,45.111529 57.260826,42.906221 60.977221,42.21457 68.394804,42.205434 l 6.197002,-0.0076 0.262786,-6.483517 c 0.283917,-7.004924 0.846317,-9.571396 3.058233,-13.956044 1.695407,-3.360775 6.706405,-8.360541 10.219042,-10.196133 5.553305,-2.9019815 2.752659,-2.7708993 59.201863,-2.7708993 56.20533,0 53.3313,-0.1313007 58.93304,2.6923663 3.61055,1.819969 8.91658,7.152854 10.59034,10.643956 2.9181,6.086508 2.67263,-1.216922 2.81272,83.684707 0.14132,85.64798 0.31273,80.42474 -2.8456,86.71523 -2.2409,4.46324 -6.33892,8.56502 -10.70283,10.71265 -4.48113,2.20531 -8.19753,2.89695 -15.61511,2.90609 l -6.197,0.008 -0.25763,6.48352 c -0.1874,4.71622 -0.50196,7.26233 -1.154,9.34066 -2.56619,8.17967 -9.42811,14.81351 -17.4666,16.88607 -2.39263,0.61689 -8.56202,0.69305 -54.06594,0.66742 -42.707569,-0.024 -51.752264,-0.1332 -53.662039,-0.64757 z m 105.851809,-17.1257 c 1.02967,-0.72528 2.33236,-2.19045 2.89488,-3.25595 l 1.02276,-1.93727 v -75.32959 c 0,-66.99769 -0.0753,-75.509695 -0.68033,-76.957835 -0.86713,-2.075358 -2.18564,-3.482923 -4.25808,-4.545692 -1.59305,-0.816937 -3.11933,-0.838466 -51.49774,-0.726458 l -49.856047,0.115433 -1.689068,1.360466 c -0.928989,0.74826 -2.13087,2.132875 -2.670848,3.076923 l -0.98178,1.716457 0.0026,75.604396 c 0.0022,72.89959 0.03182,75.66912 0.824048,77.41366 0.880396,1.9387 3.163407,3.95094 5.174444,4.56075 0.680554,0.20637 23.423688,0.34105 50.540291,0.2993 l 49.30293,-0.0759 1.87212,-1.31868 z M 199.4113,187.8703 c 0.92818,-0.74826 2.1294,-2.13287 2.66938,-3.07692 l 0.98178,-1.71646 0.007,-75.62115 0.007,-75.621142 -0.98901,-1.955391 c -0.57824,-1.143243 -1.78065,-2.505532 -2.89501,-3.279952 l -1.90599,-1.32456 h -50.0337 -50.034167 l -1.87225,1.318681 c -1.029736,0.725275 -2.332488,2.190452 -2.895007,3.255949 -0.903538,1.711448 -1.022756,2.542364 -1.022756,7.128278 v 5.191009 l 36.15385,0.125769 c 36.09044,0.125548 36.15891,0.12749 39.04269,1.106994 9.25479,3.143478 15.69544,10.92168 17.10283,20.654656 0.26426,1.827512 0.43383,26.621771 0.43917,64.216639 l 0.009,61.23973 6.77394,-0.14083 6.77393,-0.14083 1.6876,-1.36047 z" />

</svg>
