<svg xmlns="http://www.w3.org/2000/svg"
     lang="en-GB"
     viewBox="0 0 204 204">

  <title>Dark Theme Icon</title>

  <defs>

  <style type="text/css"><![CDATA[

  rect {
    width: 204px;
    height: 204px;
    fill: rgb(0, 0, 0, 0.9);
  }

  /*
  path {
    fill: rgb(255, 255, 255, 0.2);
  }
  */

  ]]></style>

  </defs>
     
  <mask id="myMask" maskPathUnits="objectBoundingBox">
    <circle cx=".5" cy=".5" r=".5" />
  </mask>
     
  <clipPath id="myyClip" clipPathUnits="objectBoundingBox">
     <path d="M 127.18285,151.44795 C 118.63374,147.11681 114.05663,137.61308 115.33231,126.84197 117.17348,111.29618 132.26681,103 158.70828,103 h 6.56357 l -0.62232,-4.540323 c -0.88744,-6.474562 -2.21093,-8.378126 -7.4303,-10.6869 -3.86501,-1.709678 -5.86649,-1.942184 -12.38908,-1.439198 -4.27864,0.329945 -11.17526,1.739868 -15.32581,3.133161 C 125.3538,90.860033 121.74237,92 121.47895,92 121.21553,92 121,88.417433 121,84.038741 v -7.96126 l 5.20052,-1.544388 c 9.37953,-2.785423 17.89992,-3.790916 28.17951,-3.325475 14.99097,0.678764 23.43712,5.03294 27.72411,14.292382 1.67806,3.624454 1.854,6.980896 1.8739,35.75 L 184,153 h -8.5 -8.5 v -5.19617 -5.19616 l -3.25,3.08836 c -5.99678,5.69854 -11.24611,7.64514 -21.75,8.06551 -8.73746,0.34967 -9.92679,0.16396 -14.81715,-2.31359 z M 154,136.23754 c 1.375,-0.86137 4.4125,-3.1214 6.75,-5.0223 3.94715,-3.20988 4.25,-3.80388 4.25,-8.3357 V 118 h -9.18428 C 142.03801,118 136,121.62929 136,129.91069 c 0,3.19612 3.95525,7.73202 7.32689,8.40251 3.1549,0.62738 7.80043,-0.27606 10.67311,-2.07566 z M 19,151.9985 C 19,151.16457 37.891564,87.042408 46.620029,58.25 l 2.501,-8.25 H 63.060515 C 70.727232,50 77,50.209637 77,50.46586 c 0,0.256223 6.75,23.162098 15,50.90195 8.25,27.73984 15,50.70521 15,51.03414 C 107,152.73088 102.08193,153 96.070958,153 H 85.141917 l -1.484128,-5.25 c -0.816271,-2.8875 -2.100363,-7.5 -2.853538,-10.25 l -1.369408,-5 -17.55893,-0.27243 -17.558929,-0.27243 -2.881611,10.52243 L 38.553761,153 h -9.77688 C 22.915895,153 19,152.59888 19,151.9985 Z M 72.921092,109.25 c -1.065757,-3.7125 -3.816884,-13.619611 -6.113614,-22.015802 -2.29673,-8.396192 -4.489095,-14.921192 -4.871922,-14.5 -0.382827,0.421191 -3.268243,9.729349 -6.412036,20.684796 C 52.379727,104.37444 49.577692,113.93694 49.296777,114.66899 48.887691,115.73506 51.380997,116 61.822428,116 h 13.036405 z" />
  </clipPath>

  <rect mask="url(#myMask)" />

</svg>
