<svg xmlns="http://www.w3.org/2000/svg"
   xmlns:xlink="http://www.w3.org/1999/xlink"
   lang="en-GB"
   viewBox="0 0 584 584">

  <title>Replace Icon</title>

  <defs>

    <style><![CDATA[

      rect {
        width: 584px;
        height: 584px;
        fill: rgb(191, 0, 0);
      }

      path {
        fill: rgb(255, 255, 255);
      }

    ]]></style>

  </defs>

  <rect x="0" y="0"></rect>
  <path d="m 52.887621,544.85255 c -7.10284,-1.46069 -11.97957,-5.22821 -15.63303,-12.07731 -1.79893,-3.37245 -1.86697,-9.00284 -1.86697,-154.5 v -151 l 2.34889,-4.76999 c 1.52289,-3.09263 3.98445,-5.90583 7,-8 l 4.65111,-3.23001 30.75,-0.30334 30.749999,-0.30335 v 67.29231 67.29232 l -16.761409,-16.73966 -16.76141,-16.73966 -15.25408,15.27793 -15.25407,15.27793 36.76549,36.62061 c 35.094749,34.95648 37.015289,36.69431 42.262819,38.24232 4.53251,1.33707 6.46309,1.42542 11,0.50338 l 5.50266,-1.11831 37.5,-37.38322 37.5,-37.38321 -14.98839,-15.01892 -14.98838,-15.01891 -16.76162,16.73986 -16.76161,16.73986 v -67.23897 -67.23897 h 56 c 30.94529,0 56,0.38795 56,0.86711 0,0.47692 1.74548,2.02222 3.87885,3.43402 2.37259,1.5701 4.79964,4.43708 6.25,7.38289 l 2.37115,4.81598 v 151 151 l -2.15268,4 c -2.49463,4.63539 -5.43013,7.5101 -10.34732,10.13303 -3.34638,1.78502 -8.02089,1.87349 -106.5,2.01551 -56.65,0.0817 -104.574999,-0.17536 -106.499999,-0.57123 z M 321.88762,460.77524 v -21 l 32.25,-0.006 c 34.86744,-0.006 40.92576,-0.55462 49.5009,-4.48045 10.78095,-4.93568 17.94611,-12.771 22.32079,-24.40848 1.87381,-4.98467 2.09423,-7.57052 1.99082,-23.35528 l -0.11628,-17.75 h 21.52688 21.52689 v 11.89405 c 0,25.34521 -2.66941,38.89485 -10.67219,54.17079 -7.93199,15.14083 -20.13686,27.33907 -35.30351,35.28435 -17.47246,9.1532 -27.7618,10.6487 -73.2743,10.64997 l -29.75,0.001 z m -6,-92.86711 c 0,-0.47692 -1.74548,-2.02222 -3.87885,-3.43402 -2.37259,-1.5701 -4.79964,-4.43708 -6.25,-7.38289 l -2.37115,-4.81598 v -151 -151.000002 l 2.15268,-4 c 2.49463,-4.63539 5.43013,-7.5101 10.34732,-10.13303 3.35329,-1.78871 7.92218,-1.86697 109,-1.86697 101.07782,0 105.64671,0.0783 109,1.86697 4.91719,2.62293 7.85269,5.49764 10.34732,10.13303 l 2.15268,4 v 151.000002 151 l -2.34889,4.76999 c -1.52289,3.09263 -3.98445,5.90583 -7,8 l -4.65111,3.23001 -30.75,0.30334 -30.75,0.30335 V 301.58962 234.2973 l 16.76141,16.73966 16.76141,16.73966 15.25408,-15.27793 15.25407,-15.27793 -36.76548,-36.62061 c -35.09476,-34.95648 -37.0153,-36.69431 -42.26283,-38.24232 -4.53251,-1.33707 -6.46309,-1.42542 -11,-0.50338 l -5.50266,1.11831 -37.5,37.38322 -37.5,37.38321 14.98839,15.01892 14.98838,15.01891 16.76162,-16.73986 16.76161,-16.73986 v 67.23897 67.23897 h -56 c -30.94529,0 -56,-0.38795 -56,-0.86711 z m -205,-170.02694 c 0,-25.34521 2.66941,-38.89485 10.67219,-54.17079 7.93199,-15.14083 20.13686,-27.33907 35.30351,-35.28435 17.47246,-9.153202 27.7618,-10.648702 73.2743,-10.649972 l 29.75,-8.4e-4 v 21.000002 21 l -32.25,0.006 c -34.86744,0.006 -40.92576,0.55462 -49.5009,4.48045 -10.78095,4.93568 -17.94611,12.771 -22.32079,24.40848 -1.87381,4.98467 -2.09423,7.57052 -1.99082,23.35528 l 0.11628,17.75 H 132.41451 110.88762 V 197.8814 Z" />

</svg>
