<svg xmlns="http://www.w3.org/2000/svg"
     lang="en-GB"
     viewBox="0 0 1457.5775 1457.5775">

<title>Lock Icon</title>

<defs>

  <style><![CDATA[

  rect {
    width: 1457.5775px;
    height: 1457.5775px;
    fill: rgb(191, 0, 0);
  }

  path {
    fill-rule: evenodd;
    fill: rgb(255, 255, 255);
  }

  ]]></style>

</defs>

<rect />

<path d="m 663.88735,4.6353435 c 3.81511,-0.5463249 5.12485,-0.5699274 10.8169,-0.5790053 9.21304,-0.014855 22.81748,0 32.4507,0 h 55.43663 c 7.67099,0 18.34207,0 25.69014,0 6.28777,0 7.25267,-0.2609485 12.16901,0.2305788 4.75699,0.4756822 16.05238,2.6665934 21.63381,3.7830107 50.77858,10.1573503 100.20472,29.9278733 144.67606,56.2952263 6.57554,3.898713 12.5214,7.53169 18.92957,11.803835 41.71733,27.811811 78.02853,62.563521 108.94733,102.309891 51.1707,65.78032 84.2183,147.87883 92.288,231.21127 2.8714,29.65191 2.9337,59.43388 2.9337,89.23944 0,12.87734 -3.2338,30.72624 0.4298,43.06732 1.9399,6.53485 29.2045,9.12074 36.0772,12.53106 23.2786,11.55097 41.191,30.42121 49.5472,55.27487 5.7755,17.17762 4.5373,34.88375 4.5373,52.73239 v 75.71832 263.66195 339.3803 c 0,48.4998 -9.3668,101.0444 -64.9014,115.2531 -23.5348,6.0213 -54.1365,1.0286 -78.4225,1.0286 H 972.16905 442.14086 308.2817 c -45.14653,0 -85.51376,2.2269 -111.94472,-41.9155 -14.73611,-24.6108 -12.44965,-52.2653 -12.44965,-79.7746 V 1203.3803 807.2113 684.16904 c 0,-22.00716 -2.83088,-46.13755 2.56234,-67.60564 6.70744,-26.69936 24.68594,-47.90774 48.81794,-60.61763 7.97804,-4.20191 37.97451,-7.31803 40.13355,-15.17999 2.73333,-9.95334 0.42984,-23.41703 0.42984,-33.72351 0,-25.16395 -1.04755,-50.58027 0.0532,-75.71831 2.61326,-59.67848 18.93373,-120.72459 44.91601,-174.42254 C 364.62648,166.32513 438.67537,92.658179 528.67607,47.657847 559.79018,32.100793 592.28021,20.423801 626.02819,11.997855 634.72165,9.8272451 657.36054,5.5700376 663.88735,4.6353435 M 720.67608,183.10902 c 24.81223,-3.25789 53.00317,1.66522 77.07043,7.70995 92.93183,23.3407 169.88449,95.63714 196.83465,187.77259 12.22964,41.81003 11.39074,83.97137 11.39074,127.0986 0,8.36521 4.5279,37.38314 -5.4878,40.13358 -11.87876,3.26211 -28.17014,0.4298 -40.48407,0.4298 H 873.46482 593.57749 496.22537 c -7.90393,0 -28.00162,3.62968 -34.33908,-1.38966 -5.21505,-4.13037 -2.16796,-22.23724 -2.16796,-28.35682 0,-28.90248 -2.55548,-59.20461 0.96712,-87.88733 12.55338,-102.21539 75.62246,-188.68913 172.1033,-226.87946 28.90711,-11.44237 57.48931,-14.63994 87.88733,-18.63125 m 6.76056,517.86438 c 13.44669,-1.60564 28.89357,1.72917 41.9155,5.00052 90.58726,22.7574 129.33143,124.40683 92.70629,205.35005 -8.51433,18.81702 -23.74928,36.28018 -39.97389,48.82733 -5.51013,4.26125 -23.97517,11.77941 -24.8544,18.9536 -1.59854,13.04363 6.27811,31.55 8.89824,44.4444 7.24417,35.6509 14.8654,71.2337 22.43184,106.8169 9.40529,44.2309 25.77399,92.5036 20.17952,137.9155 -1.74065,14.1294 -5.06852,41.5611 -22.59887,44.3307 -15.50663,2.45 -32.97673,0.2891 -48.67605,0.2891 h -98.70423 c -12.66034,0 -40.03794,5.1407 -49.5827,-4.3652 -21.62798,-21.54 -15.59184,-71.7584 -10.17942,-98.3954 11.0037,-54.1544 23.23551,-108.0634 34.07197,-162.2535 4.29385,-21.4724 13.57729,-45.6733 14.04592,-67.53264 0.16728,-7.80213 -16.60081,-14.02594 -22.15859,-18.16167 -17.05099,-12.68844 -32.85529,-30.19122 -42.0647,-49.517 -32.60474,-68.4205 -10.93063,-151.73513 55.58583,-191.38758 21.80694,-12.99981 44.24711,-17.36455 68.95774,-20.31511" />

</svg>
