<svg xmlns="http://www.w3.org/2000/svg"
     xmlns:xlink="http://www.w3.org/1999/xlink"
     lang="en-GB"
     viewBox="0 0 200 200">

<title>Angular Logo</title>

<defs>
<style type="text/css"><![CDATA[

rect {
fill: rgb(255, 255, 255);
}

polygon,
path {
transform: translate(15px, 10px);
}

path {
fill: rgb(242, 242, 242);
}

polygon:nth-of-type(1),
polygon:nth-of-type(4) {
fill: rgb(179, 179, 179);
}

polygon:nth-of-type(2) {
fill: rgb(166, 18, 13);
}

polygon:nth-of-type(3) {
fill: rgb(221, 27, 22);
}

]]></style>
</defs>

<rect width="200" height="200" />
<polygon points="13.621,138.311 83.331,176.625 153.4,137.792 166.462,29.46 83.243,0.875 0.554,29.975" />
<polygon points="83.05,167.471 146.041,132.609 158.214,35.721 83.05,10.089" />
<polygon points="83.049,167.471 83.049,10.086 9.833,36.183 21.03,133.072" />
<path d="m 103.74,93.871 -20.69,9.675 H 61.243 L 50.992,129.186 31.925,129.539 83.05,15.804 103.74,93.871 z M 101.74,89 83.187,52.271 67.969,88.368 h 15.08 L 101.74,89 z" />
<polygon points="100.454,88.396 83.088,88.396 83.049,103.523 107.062,103.546 118.285,129.543 136.529,129.881 83.049,15.804 83.186,52.271" />

</svg>
