<svg xmlns="http://www.w3.org/2000/svg"
     xmlns:xlink="http://www.w3.org/1999/xlink"
     lang="en-GB"
     viewBox="0 0 499 499">

<title>ES Modules Logo</title>

<defs>

  <style type="text/css"><![CDATA[

  rect {
    width: 499px;
    height: 499px;
    fill: rgb(255, 228, 47);
  }

  path {
    fill: rgb(60, 68, 79);
    stroke-width: 1px;
  }
  
  ]]></style>

</defs>


<rect />

<path d="m 281.97919,476.34126 c -3.03059,-0.81497 -7.77307,-2.7134 -10.53885,-4.21872 -5.10921,-2.78079 -17.14333,-14.66356 -17.14143,-16.92586 9.4e-4,-1.13034 3.33069,-3.31736 14.64098,-9.61639 l 4.03911,-2.24949 3.47607,4.55246 c 1.91183,2.50386 5.39293,5.53038 7.73577,6.72561 5.36091,2.73493 15.20836,3.56399 20.62288,1.73624 5.30779,-1.79173 9.09943,-7.16789 8.35331,-11.84417 -1.03167,-6.46596 -3.807,-8.7411 -18.92326,-15.51276 -17.43427,-7.81004 -24.79681,-13.34811 -29.20516,-21.96795 -2.79471,-5.46463 -3.08071,-6.93346 -3.07626,-15.79908 0.004,-8.6363 0.32549,-10.38312 2.7583,-15.00301 5.26957,-10.00686 15.09693,-15.6142 28.87134,-16.47355 11.61863,-0.72486 20.77969,2.01926 27.73738,8.30848 2.73268,2.47013 5.7354,5.81257 6.67274,7.42763 l 1.70425,2.93646 -9.04924,5.77403 -9.04923,5.77404 -2.74709,-3.60162 c -4.968,-6.51338 -13.6997,-8.31807 -19.93034,-4.11924 -9.74751,6.56885 -4.98894,16.58557 11.01881,23.19438 19.47774,8.04141 29.26813,15.28738 34.02719,25.18386 3.31367,6.89077 3.48692,21.13863 0.34074,28.02187 -3.94116,8.62251 -12.16763,14.9407 -23.33848,17.9247 -6.64319,1.77455 -22.00195,1.65383 -28.99953,-0.22792 z M 159.31915,418.72341 v -56.17022 h 37.78723 37.78723 v 11.21651 11.21651 l -25.78723,0.27285 -25.78723,0.27286 L 183.0281,396 l -0.29105,10.46809 h 24.54637 24.54636 v 11.21555 11.21556 l -24.25532,0.27381 -24.25531,0.2738 -0.28877,11.48936 -0.28877,11.48936 h 27.60792 27.60791 v 11.23405 11.23404 h -39.31915 -39.31914 z m 191.99999,0 v -56.17022 h 18.28698 18.28698 l 1.52638,4.34043 c 0.83952,2.38723 6.6274,18.76909 12.86197,36.40413 6.23455,17.63503 11.33556,32.22652 11.33556,32.42553 0,0.19901 0.406,0.36183 0.90222,0.36183 0.49623,0 1.13247,-1.03405 1.4139,-2.29788 0.28142,-1.26382 4.04555,-12.17872 8.36472,-24.25531 4.31917,-12.0766 9.80782,-27.47234 12.19698,-34.21277 l 4.34394,-12.25532 18.55934,-0.27836 18.55933,-0.27836 v 56.19326 56.19325 H 465.70212 453.4468 v -43.09787 c 0,-23.70383 -0.38702,-42.66128 -0.86004,-42.12766 -0.47302,0.53361 -6.30533,17.05532 -12.96068,36.71489 -6.65535,19.65957 -13.08913,38.50213 -14.29727,41.87234 l -2.19662,6.12766 -9.28945,0.2928 -9.28945,0.2928 -14.04796,-42.9311 c -7.72637,-23.61211 -14.42877,-42.9311 -14.8942,-42.9311 -0.46544,0 -0.72154,19.30227 -0.56912,42.89395 l 0.27713,42.89394 -12,-3.3e-4 -12,-3.2e-4 z" />

</svg>
