<svg xmlns="http://www.w3.org/2000/svg"
     xmlns:xlink="http://www.w3.org/1999/xlink"
     lang="en-GB"
     viewBox="0 0 600 600">

<title>Express Logo</title>

<defs>
<style type="text/css"><![CDATA[

rect {
fill: rgb(255, 255, 255);
}

path {
fill: rgb(0, 0, 0);
stroke-width: 1.33333337;
transform: translateY(200px);
}

]]></style>
</defs>

<rect width="600" height="600" />
<path d="m 196.31855,106.44417 c 0.26938,-42.475739 0.72504,-55.014746 2.01478,-55.444446 1.24144,-0.413608 1.68171,2.279557 1.7256,10.555832 l 0.0589,11.111111 2.56509,-4.854794 c 5.78841,-10.955352 14.80295,-17.049206 26.83447,-18.140188 15.42882,-1.399036 27.15232,5.255696 34.03246,19.318212 3.08412,6.303718 3.79779,9.73911 4.21691,20.298995 0.77396,19.500358 -4.85001,32.762638 -17.42107,41.081758 -4.3655,2.88896 -7.34752,3.69544 -15.11421,4.08764 -5.46052,0.27575 -11.83309,-0.2234 -14.62788,-1.14576 -6.54881,-2.1613 -15.09616,-10.01498 -18.11609,-16.64586 l -2.42899,-5.33334 -0.0293,25 c -0.0251,21.40199 -0.31926,25 -2.04407,25 -1.77051,0 -1.97259,-6.65501 -1.66667,-54.88916 z m 50.22982,22.28367 c 2.00862,-1.0387 5.78159,-4.24571 8.38439,-7.1267 12.46265,-13.79466 12.93685,-43.446351 0.9278,-58.015415 -6.53817,-7.931932 -13.13035,-10.614397 -24.6548,-10.032438 -13.09133,0.661082 -19.35092,4.925121 -25.81211,17.583246 -4.19932,8.226894 -4.60806,10.048111 -4.62574,20.610556 -0.0344,20.557581 7.34776,33.660761 21.50846,38.177071 7.26791,2.31797 18.55159,1.76182 24.272,-1.19632 z M 59.905753,131 C 51.305429,126.64385 46.305315,119.86179 43.361487,108.55967 35.262664,77.466197 51.721212,49.38888 78.071541,49.346359 97.253725,49.315404 110.8992,63.137327 112.90637,84.631633 l 0.81258,8.7017 H 79.339603 44.960259 l 0.746537,7.233247 c 0.793393,7.68724 4.900979,18.35048 8.677464,22.52659 6.065813,6.70768 21.541615,10.47048 31.747688,7.71915 10.903573,-2.93936 19.043522,-10.98949 21.922282,-21.68037 1.50801,-5.60035 3.95356,-6.92608 3.93274,-2.13195 -0.0224,5.16849 -6.16825,16.49406 -10.91526,20.11479 -7.376127,5.62604 -13.527853,7.55188 -24.123131,7.55188 -8.051168,0 -11.097838,-0.65548 -17.042826,-3.66667 z M 109.33333,84.904185 c 0,-11.669616 -8.8508,-25.487754 -18.901217,-29.509132 -11.216521,-4.487962 -25.364196,-2.095049 -33.556442,5.675678 -5.047407,4.787698 -10.07069,14.881292 -11.083539,22.270842 l -0.821263,5.99176 H 77.152101 109.33333 Z M 342.57241,131 c -8.60032,-4.35615 -13.60042,-11.13821 -16.54426,-22.44033 -8.09882,-31.093473 8.35973,-59.17079 34.71006,-59.213311 19.18218,-0.03096 32.82766,13.790968 34.83483,35.285274 l 0.81257,8.7017 h -34.37934 -34.37935 l 0.74655,7.233247 c 0.79338,7.68724 4.90097,18.35048 8.67745,22.52659 6.06583,6.70768 21.54163,10.47048 31.74769,7.71915 10.90358,-2.93936 19.04352,-10.98949 21.92228,-21.68037 1.50802,-5.60035 3.95356,-6.92608 3.93275,-2.13195 -0.0224,5.16849 -6.16825,16.49406 -10.91527,20.11479 -7.37612,5.62604 -13.52785,7.55188 -24.12313,7.55188 -8.05116,0 -11.09783,-0.65548 -17.04283,-3.66667 z M 392,84.904185 c 0,-11.669616 -8.85081,-25.487754 -18.90121,-29.509132 -11.21654,-4.487962 -25.3642,-2.095049 -33.55646,5.675678 -5.0474,4.787698 -10.07068,14.881292 -11.08353,22.270842 l -0.82127,5.99176 H 359.81877 392 Z m 29.64576,46.335115 c -8.0804,-4.02663 -12.00161,-9.58985 -13.51723,-19.17756 -1.49912,-9.48344 1.60766,-8.99007 3.75292,0.59598 2.11259,9.44009 7.15663,14.60054 17.09523,17.48977 13.33705,3.87718 30.45512,-0.31128 35.38577,-8.65822 4.71002,-7.97342 1.88844,-18.76365 -6.01225,-22.99197 -1.52697,-0.817213 -9.42645,-3.230577 -17.55439,-5.363029 -19.1461,-5.023192 -25.30774,-8.043607 -28.00518,-13.728046 -7.16107,-15.090826 2.94158,-28.530364 22.37458,-29.764837 15.8818,-1.008885 26.83167,3.90548 31.01608,13.920199 C 468.26056,68.537967 468.60565,76 466.75652,76 c -1.29164,0 -1.98189,-1.795204 -3.38843,-8.812611 -0.9634,-4.806534 -6.29358,-10.357774 -12.03476,-12.533873 -5.26904,-1.99714 -19.16373,-2.023 -25.15165,-0.04681 -7.03319,2.321166 -11.51501,8.312474 -11.51501,15.393297 0,8.838447 4.16049,12.897947 16.94013,16.528948 21.56495,6.127109 28.60089,8.583968 31.80856,11.107125 9.49681,7.470194 9.66264,21.280934 0.3598,29.966954 -5.43384,5.07355 -12.23419,7.06364 -24.13721,7.06364 -9.26398,0 -12.25943,-0.57062 -17.99219,-3.42737 z m 77.33333,0 c -8.0804,-4.02663 -12.00161,-9.58985 -13.51722,-19.17756 -1.49912,-9.48344 1.60765,-8.99007 3.75292,0.59598 2.11258,9.44009 7.15662,14.60054 17.09522,17.48977 13.33706,3.87718 30.45512,-0.31128 35.38578,-8.65822 4.71001,-7.97342 1.88844,-18.76365 -6.01226,-22.99197 -1.52697,-0.817213 -9.42645,-3.230577 -17.55438,-5.363029 -19.14611,-5.023192 -25.30775,-8.043607 -28.00519,-13.728046 -7.16107,-15.090826 2.94159,-28.530364 22.37459,-29.764837 15.8818,-1.008885 26.83166,3.90548 31.01608,13.920199 C 545.59389,68.537967 545.93899,76 544.08985,76 c -1.29164,0 -1.98189,-1.795204 -3.38842,-8.812611 -0.9634,-4.806534 -6.29359,-10.357774 -12.03476,-12.533873 -5.26904,-1.99714 -19.16374,-2.023 -25.15166,-0.04681 C 496.48183,56.927869 492,62.919177 492,70 c 0,8.838447 4.16049,12.897947 16.94013,16.528948 21.56495,6.127109 28.6009,8.583968 31.80856,11.107125 9.49682,7.470197 9.66264,21.280937 0.3598,29.966957 -5.43384,5.07355 -12.23418,7.06364 -24.13721,7.06364 -9.26397,0 -12.25943,-0.57062 -17.99219,-3.42737 z m -380.31242,1.31441 c 0,-0.42879 6.9,-9.70344 15.33333,-20.61034 8.43333,-10.90689 15.33333,-20.473886 15.33333,-21.25999 0,-0.786103 -6.3,-9.68274 -14,-19.770305 -7.7,-10.087566 -14,-18.769739 -14,-19.293719 0,-3.894452 5.44552,1.693313 17.35815,17.811579 10.91613,14.769962 14.16344,18.361208 15.25504,16.870793 C 168.70225,66.155105 181.01883,50.702287 182.33333,50.686581 183.25,50.675648 184,50.979604 184,51.362083 c 0,0.382477 -6.56576,9.43154 -14.59056,20.109026 l -14.59057,19.413612 15.9239,20.492099 c 8.75814,11.27065 15.9239,20.82159 15.9239,21.2243 0,0.40272 -0.76415,0.73221 -1.69811,0.73221 -0.93396,0 -6.18396,-5.81012 -11.66667,-12.91138 -5.4827,-7.10126 -12.41729,-16.07572 -15.41018,-19.94324 l -5.44163,-7.031867 -15.22504,19.934827 c -12.96687,16.9781 -18.55837,22.7545 -18.55837,19.17204 z m 165.6474,-40.109737 c 0.26966,-31.271733 0.74461,-41.019922 2.01926,-41.444444 1.22931,-0.40942 1.68036,2.010794 1.71886,9.222694 0.0493,9.254414 0.14654,9.563674 1.81512,5.777777 2.12992,-4.832689 8.0191,-10.861367 13.255,-13.568956 5.00969,-2.590613 18.21102,-4.023263 18.21102,-1.976317 0,1.469532 -1.39353,1.925942 -10.64485,3.486409 -7.75244,1.307645 -14.04765,6.486064 -18.22381,14.990872 -3.75718,7.651521 -3.80282,8.039207 -4.24592,36.067992 -0.37083,23.45711 -0.77571,28.33333 -2.3526,28.33333 -1.61695,0 -1.85142,-6.177 -1.55208,-40.889357 z M 197.33333,106.66667 C 197.33333,71.111111 197.79945,52 198.66667,52 c 0.77638,0 1.35794,4.594841 1.39226,11 l 0.0589,11 2.7578,-5.333333 c 7.75026,-14.98829 22.34208,-21.866074 38.27933,-18.042784 7.55789,1.81311 17.52316,9.620406 21.09743,16.528786 6.08308,11.757495 7.28877,27.576644 3.12842,41.046271 -4.98988,16.15539 -15.05734,24.9467 -29.98561,26.18467 -14.01005,1.16182 -25.94285,-5.27208 -31.88177,-17.18996 L 200,110.14308 v 25.59513 c 0,16.17452 -0.49075,25.59512 -1.33333,25.59512 -0.86722,0 -1.33334,-19.1111 -1.33334,-54.66666 z m 51.8058,20.95344 c 15.45078,-10.22484 20.95824,-38.002171 11.40366,-57.515191 -11.91022,-24.32383 -43.24139,-23.741907 -56.2427,1.044612 -3.27285,6.23956 -3.59204,8.15841 -3.57918,21.517136 0.012,12.674663 0.43918,15.531803 3.1439,21.036453 3.50975,7.14307 11.96146,15.06347 18.08218,16.94546 2.22916,0.68542 8.01932,1.105 12.86704,0.93241 7.04182,-0.25071 9.9221,-1.04711 14.3251,-3.96088 z m -184.956361,5.30081 c -2.466142,-0.93634 -6.753601,-3.60796 -9.527685,-5.93695 C 38.076121,113.06509 37.572944,75.92438 53.747079,59.961924 61.006292,52.797713 67.525363,50.162329 78,50.157491 c 19.139697,-0.0088 31.82118,12.776781 34.77757,35.063168 L 113.67688,92 H 79.583797 c -20.855424,0 -34.407036,0.507984 -34.901653,1.308292 -1.2391,2.004904 1.893216,17.290718 4.635049,22.619208 C 54.821384,126.62438 64.312771,132 77.695383,132 c 15.096112,0 26.766557,-8.32186 30.384987,-21.66667 1.5528,-5.72671 4.44943,-6.9794 3.08313,-1.33333 -2.3872,9.86479 -8.27748,17.45911 -17.03726,21.96611 -6.676312,3.43504 -23.203137,4.51396 -29.943471,1.95481 z M 110.02565,83 C 106.31316,58.08752 83.848815,45.193675 62.835099,55.914072 54.433991,60.199999 46.928429,72.000096 44.758765,84.333333 l -0.8796,5 h 33.545143 33.545142 z m 236.82379,49.92092 c -2.46615,-0.93634 -6.7536,-3.60796 -9.52769,-5.93695 -16.57896,-13.91888 -17.08214,-51.05959 -0.908,-67.022046 7.25921,-7.164211 13.77828,-9.799595 24.25292,-9.804433 19.13969,-0.0088 31.82117,12.776781 34.77757,35.063168 L 396.34355,92 h -34.09308 c -20.85543,0 -34.40704,0.507984 -34.90166,1.308292 -1.2391,2.004904 1.89322,17.290718 4.63504,22.619208 5.5042,10.69688 14.99559,16.0725 28.3782,16.0725 15.09611,0 26.76655,-8.32186 30.38499,-21.66667 1.55279,-5.72671 4.44943,-6.9794 3.08313,-1.33333 -2.3872,9.86479 -8.27748,17.45911 -17.03726,21.96611 -6.67631,3.43504 -23.20314,4.51396 -29.94347,1.95481 z M 392.69232,83 c -3.71249,-24.91248 -26.17684,-37.806325 -47.19056,-27.085928 -8.40111,4.285927 -15.90667,16.086024 -18.07633,28.419261 l -0.8796,5 h 33.54514 33.54515 z m 35.97435,50.49712 c -5.61348,-1.47495 -11.57455,-4.74704 -14.46326,-7.93902 -4.62225,-5.10753 -8.26245,-20.22477 -4.87008,-20.22477 0.73334,0 1.34651,1.65 1.36262,3.66667 0.0375,4.69712 4.12597,13.62068 7.69414,16.79344 6.32995,5.62847 22.63414,7.94389 33.90184,4.81455 11.05762,-3.071 17.09595,-12.80301 14.2774,-23.01096 -1.91246,-6.92636 -8.27182,-10.69295 -25.236,-14.947043 -24.84028,-6.22918 -29.72617,-9.825695 -29.90537,-22.013344 -0.2108,-14.33753 14.40352,-23.318832 33.63936,-20.67323 9.53171,1.310946 16.41016,5.678992 19.93268,12.657928 3.07216,6.086658 3.95461,12.045326 1.78387,12.045326 -0.66888,0 -1.62827,-2.439395 -2.13199,-5.420876 C 462.92232,59.008649 452.04944,52 437.8976,52 c -17.103,0 -28.03101,11.788564 -22.71725,24.50618 2.43922,5.837899 7.46404,8.421905 26.04845,13.395423 22.76331,6.091858 28.61635,10.847707 28.43111,23.101487 -0.1941,12.83823 -9.99028,20.54736 -26.90416,21.17227 -5.549,0.20501 -11.88908,-0.10013 -14.08908,-0.67824 z m 77.33333,0 c -5.61348,-1.47495 -11.57455,-4.74704 -14.46325,-7.93902 -4.62226,-5.10753 -8.26246,-20.22477 -4.87008,-20.22477 0.73333,0 1.3465,1.65 1.36261,3.66667 0.0375,4.69712 4.12597,13.62068 7.69415,16.79344 6.32994,5.62847 22.63413,7.94389 33.90184,4.81455 11.05761,-3.071 17.09594,-12.80301 14.2774,-23.01096 -1.91247,-6.92636 -8.27183,-10.69295 -25.236,-14.947043 -24.84028,-6.22918 -29.72618,-9.825695 -29.90538,-22.013344 -0.2108,-14.33753 14.40352,-23.318832 33.63936,-20.67323 9.53171,1.310946 16.41016,5.678992 19.93268,12.657928 3.07216,6.086658 3.95462,12.045326 1.78387,12.045326 -0.66888,0 -1.62827,-2.439395 -2.13199,-5.420876 C 540.25565,59.008649 529.38277,52 515.23093,52 c -17.103,0 -28.03101,11.788564 -22.71725,24.50618 2.43923,5.837899 7.46404,8.421905 26.04845,13.395423 22.76331,6.091858 28.61635,10.847707 28.43111,23.101487 -0.19409,12.83823 -9.99028,20.54736 -26.90416,21.17227 C 514.54008,134.38037 508.2,134.07523 506,133.49712 Z m -383.90008,-5.16379 c 3.19542,-4.26084 23.77452,-31.119574 27.52131,-35.919326 0.84924,-1.087908 -3.18894,-7.458877 -12.85826,-20.28624 -7.75296,-10.285133 -14.0963,-19.021436 -14.0963,-19.414004 0,-2.838659 4.10281,1.634777 15.85409,17.28624 7.43303,9.9 13.76413,18 14.06913,18 0.305,0 6.68347,-8.1 14.17436,-18 7.49091,-9.9 14.18342,-18 14.87223,-18 1.9236,0 1.32691,0.902816 -13.49564,20.419581 l -13.85916,18.248275 11.85916,15.434534 c 19.92168,25.92781 21.14961,27.66057 19.13808,27.00609 -1.07008,-0.34816 -8.54559,-9.10783 -16.61225,-19.46593 -8.06667,-10.3581 -15.06202,-19.210425 -15.5452,-19.671826 -0.4832,-0.4614 -7.87251,8.206436 -16.42068,19.261846 -8.54817,11.05542 -16.17404,20.10076 -16.94638,20.10076 -0.77234,0 0.28314,-2.25 2.34551,-5 z M 285.33333,92.666667 C 285.33333,66.444444 285.80692,52 286.66667,52 c 0.7585,0 1.36977,4.167455 1.41785,9.666667 0.0677,7.745601 0.34572,9.012149 1.39893,6.373177 2.28791,-5.732723 7.83343,-11.977253 12.95842,-14.591828 C 308.28171,50.468755 320,48.396801 320,50.343501 c 0,0.722123 -2.97633,1.707775 -6.61408,2.190339 -8.24976,1.094369 -16.74629,7.263741 -21.38592,15.528421 -3.23415,5.761066 -3.34597,6.820448 -3.75832,35.604409 -0.24532,17.12477 -0.94992,29.66666 -1.66667,29.66666 -0.73954,0 -1.24168,-16.44562 -1.24168,-40.666663 z" />
</svg>
