<svg xmlns="http://www.w3.org/2000/svg"
     xmlns:xlink="http://www.w3.org/1999/xlink"
     lang="en-GB"
     viewBox="0 0 484 484">

  <title>Apache .htaccess</title>

  <defs>

    <style type="text/css"><![CDATA[

    rect {
      width: 484px;
      height: 484px;
      fill: rgb(191, 0, 0);
    }

    path {
      fill: rgb(255, 255, 255);
      transform: translate(12px, 270px);
    }

    #apache {
      width: 1000px;
      height: 262.05px;
      transform: scale(0.45) rotateY(180deg) rotateZ(180deg) translate(40px, -620px);
    }

    ]]></style>


    <g id="apache">

      <defs>

        <style type="text/css"><![CDATA[

        #feather-tip {
          fill: url(#feather-tip-colours);
        }

        #feather-top-left {
          fill: url(#feather-top-left-colours);
        }

        #feather-bottom-left {
          fill: url(#feather-bottom-left-colours);
        }

        #feather-top-right {
          fill: url(#feather-top-right-colours);
        }

        #feather-bottom-right {
          fill: url(#feather-bottom-right-colours);
        }

        #feather-tail-top {
          fill: url(#feather-tail-top-colours);
        }

        #feather-tail-bottom {
          fill: url(#feather-tail-bottom-colours);
        }

        ]]></style>


        <linearGradient id="feather-tip-colours" x1="-5167.1" y1="697.55" x2="-4570.1" y2="1395.6" gradientUnits="userSpaceOnUse" gradientTransform="matrix(-.21591 .044142 -.044142 -.21591 -974.83 437.49)">
          <stop style="stop-color:#F69923" offset="0"/>
          <stop style="stop-color:#F79A23" offset=".3123"/>
          <stop style="stop-color:#E97826" offset=".8383"/>
        </linearGradient>

        <linearGradient id="feather-top-left-colours" x1="-9585.3" y1="620.5" x2="-5326.2" y2="620.5" gradientUnits="userSpaceOnUse" gradientTransform="matrix(-.21591 .044142 -.044142 -.21591 -974.83 437.49)">
          <stop style="stop-color:#9E2064" offset=".3233"/>
          <stop style="stop-color:#C92037" offset=".6302"/>
          <stop style="stop-color:#CD2335" offset=".7514"/>
          <stop style="stop-color:#E97826" offset="1"/>
        </linearGradient>

        <linearGradient id="feather-bottom-left-colours" x1="-9610.3" y1="999.73" x2="-5351.2" y2="999.73" gradientUnits="userSpaceOnUse" gradientTransform="matrix(-.21591 .044142 -.044142 -.21591 -974.83 437.49)">
          <stop style="stop-color:#9E2064" offset=".3233"/>
          <stop style="stop-color:#C92037" offset=".6302"/>
          <stop style="stop-color:#CD2335" offset=".7514"/>
          <stop style="stop-color:#E97826" offset="1"/>
        </linearGradient>

        <linearGradient id="feather-top-right-colours" x1="-9346.1" y1="580.82" x2="-5087" y2="580.82" gradientUnits="userSpaceOnUse" gradientTransform="matrix(-.21591 .044142 -.044142 -.21591 -974.83 437.49)">
          <stop style="stop-color:#9E2064" offset=".3233"/>
          <stop style="stop-color:#C92037" offset=".6302"/>
          <stop style="stop-color:#CD2335" offset=".7514"/>
          <stop style="stop-color:#E97826" offset="1"/>
        </linearGradient>

        <linearGradient id="feather-bottom-right-colours" x1="-9346.1" y1="1021.6" x2="-5087" y2="1021.6" gradientUnits="userSpaceOnUse" gradientTransform="matrix(-.21591 .044142 -.044142 -.21591 -974.83 437.49)">
          <stop style="stop-color:#9E2064" offset=".3233"/>
          <stop style="stop-color:#C92037" offset=".6302"/>
          <stop style="stop-color:#CD2335" offset=".7514"/>
          <stop style="stop-color:#E97826" offset="1"/>
        </linearGradient>

        <linearGradient id="feather-tail-top-colours" x1="-9035.5" y1="638.44" x2="-6797.2" y2="638.44" gradientUnits="userSpaceOnUse" gradientTransform="matrix(-.21591 .044142 -.044142 -.21591 -974.83 437.49)">
          <stop style="stop-color:#282662" offset="0"/>
          <stop style="stop-color:#662E8D" offset=".095484"/>
          <stop style="stop-color:#9F2064" offset=".7882"/>
          <stop style="stop-color:#CD2032" offset=".9487"/>
        </linearGradient>

        <linearGradient id="feather-tail-bottom-colours" x1="-9071.2" y1="1047.7" x2="-6533.2" y2="1047.7" gradientUnits="userSpaceOnUse" gradientTransform="matrix(-.21591 .044142 -.044142 -.21591 -974.83 437.49)">
          <stop style="stop-color:#282662" offset="0"/>
          <stop style="stop-color:#662E8D" offset=".095484"/>
          <stop style="stop-color:#9F2064" offset=".7882"/>
          <stop style="stop-color:#CD2032" offset=".9487"/>
        </linearGradient>

      </defs>

      <path id="feather-tip" d="m23.148 66.817c19.071 7.1961 39.608 9.0845 59.733 11.274 11.854 1.1234 23.738 1.9142 35.63 2.4926 8.1692-17.104 16.338-34.207 24.508-51.311-31.491 0.85648-63.087 0.17618-94.393-3.5401 30.943 3.103 62.137 1.8494 93.129 0.17007-22.37-26.669-46.909-51.428-71.93-75.588-23.519 11.839-46.291 28.35-58.634 52.244-6.3001 14.546-9.9508 31.534-4.821 46.981 2.7562 7.894 9.065 14.16 16.773 17.277z"/>

      <path id="feather-top-left" d="m294.05 14.992c-16.961 2.5069-33.723 4.7285-50.218 6.643-17.122 1.9948-33.955 3.6385-50.416 4.8964-0.9569 0.07847-1.9446 0.15235-2.9192 0.24395-16.218 1.2152-32.064 2.0446-47.489 2.4796l-24.508 51.311c3.1595 0.15406 6.3543 0.2819 9.6108 0.41887 12.251 0.46429 25.27 0.74328 38.902 0.81409 15.365 0.07595 31.56-0.1344 48.36-0.60148 15.522-0.45209 31.601-1.1524 48.051-2.1282 14.003-0.83512 28.316-1.8448 42.838-3.0914 0.5424-0.0455 1.068-0.07818 1.6104-0.12365 13.32-22.17 22.89-45.722 34.335-68.583-16.183 2.7801-32.241 5.3583-48.157 7.7211z"/>

      <path id="feather-bottom-left" d="m141.76 25.871c14.308-0.86871 30.359-2.1245 48.242-3.9432 0.92606-0.08306 1.8876-0.19234 2.8313-0.2885 15.471-1.594 32.288-3.5552 50.488-6.02 15.721-2.1083 32.439-4.5725 50.245-7.4582 15.511-2.5017 31.888-5.3162 49.043-8.4876l-59.49-64.569c-24.736-13.567-40.821-16.794-59.841-16.547-5.1755 0.16099-10.523 0.42238-15.982 0.79335-16.711 1.142-34.469 3.2787-51.604 6.1064-16.54 2.7429-32.435 6.1328-46.23 9.9134-8.7714 2.4155-16.684 4.99-23.332 7.642-5.8619 2.3434-11.266 4.7863-16.287 7.3018 25.101 24.05 54.589 54.423 71.931 75.557z"/>

      <path id="feather-top-right" d="m639.56-61.012c-16.179 4.4506-32.604 8.8647-49.245 13.247-15.935 4.1875-32.046 8.2859-48.306 12.331-16.26 4.0447-32.63 7.9786-49.096 11.819-16.744 3.9098-33.563 7.6825-50.376 11.314-16.632 3.5798-33.29 7.0141-49.89 10.268-5.9877 1.1747-11.971 2.3185-17.936 3.4492-10.325 1.9485-20.605 3.8091-30.84 5.5819-0.55156 0.10715-1.0985 0.18346-1.6632 0.2729l-34.33 68.583c1.0848-0.091 2.1565-0.19968 3.2413-0.29065 15.39-1.3696 31.015-2.9407 46.779-4.8063 15.922-1.8736 31.965-4.0286 48.062-6.4433 13.582-2.0319 27.162-4.2534 40.724-6.6821 2.7532-0.50491 5.4578-1.0013 8.1802-1.5108 16.983-3.1812 33.094-6.6493 48.365-10.29 17.296-4.1271 33.51-8.4938 48.609-12.995 9.938-2.9512 19.414-5.9711 28.431-8.9803 7.6399-2.6465 15.232-5.3947 22.71-8.2228 17.654-6.6419 34.84-13.842 51.5-21.64 11.64-22.613 23.669-45.588 34.514-68.935-12.622 3.624-25.468 7.2775-38.5 10.904-3.6155 1.007-7.2794 2.0226-10.926 3.0251z"/>

      <path id="feather-bottom-right" d="m343.66-0.50096c2.2193-0.41089 4.4564-0.83491 6.7242-1.2543 6.7596-1.2806 13.634-2.5914 20.659-3.9587 7.5938-1.4876 15.325-3.0493 23.223-4.6806 3.9802-0.81109 7.965-1.653 12.029-2.4989 12.131-2.5468 24.602-5.2637 37.426-8.1328 15.759-3.5362 32.058-7.3074 48.887-11.362 16.043-3.8564 32.564-7.9569 49.579-12.315 16.146-4.1247 32.739-8.4981 49.773-13.089 15.198-4.1078 30.724-8.4034 46.643-12.908 0.77254-0.21613 1.5451-0.43223 2.3045-0.66606 15.804-4.4748 31.971-9.1635 48.483-14.053 0.3797-0.1169 0.7594-0.23382 1.1214-0.33761l-19.143-20.676c0.2395 0.5082 0.5278 1.0079 0.7674 1.5161-23.296-24.428-69.92-45.278-111.88-49.997-19.338-2.1783-39.994-1.8427-62.413 0.92504-16.69 2.0589-34.353 5.4699-53.191 10.219-16.464 4.1405-33.814 9.2679-52.184 15.425 7.8381 3.7633 15.478 9.0727 22.931 15.646 1.2939 1.1531 2.614 2.3417 3.9119 3.5742s2.5912 2.4958 3.8622 3.8031c-0.012-0.0177-0.0441-0.0222-0.0569-0.04-28.247-17.932-58.622-19.938-89.973-14.526 9.3924 3.2694 23.242 9.6268 35.603 20.379 1.6889 1.4639 3.3155 3.0287 4.9198 4.6376 0.41208 0.40779 0.81102 0.79786 1.1923 1.2011-0.012-0.01769-0.0309-0.0045-0.0441-0.02217 0 0-0.012-0.01769-0.0309-0.0045-10.105-6.0061-19.623-10.334-29.164-13.137-2.0374-0.60186-4.084-1.1421-6.1444-1.5898-3.1256-0.70044-6.2609-1.229-9.4323-1.6212-2.0262-0.25361-4.0614-0.44555-6.1236-0.56271-4.8248-0.29107-9.7616-0.2522-14.877 0.1383-1.5609 0.1148-3.1265 0.26044-4.7274 0.43231-2.2279 0.36236-4.3941 0.73388-6.5295 1.11-9.6447 1.7187-18.003 3.5811-25.18 5.4456-3.5886 0.93227-6.8597 1.8486-9.8489 2.7754-1.1876 0.35928-2.3445 0.72314-3.4528 1.0785-3.3117 1.0836-6.2044 2.1035-8.6957 3.0727-3.7281 1.4472-6.5694 2.7582-8.5675 3.8006 1.3027 0.35098 2.6974 0.8259 4.1661 1.4378 10.15 4.2169 23.891 14.166 33.591 23.215l-17.583-18.98 17.583 18.98c0.15354 0.13308 0.28938 0.2793 0.44292 0.41237 0.95142 0.91323 1.8983 1.8573 2.8628 2.7882-0.23288-0.1291-0.43954-0.17283-0.65472-0.31504l60.164 64.89c0.33972-0.059824 0.67944-0.11965 1.05-0.17492z"/>
        
      <path id="feather-tail-top" d="m656.71-7.0909c20.267-9.5939 39.714-20.144 58.137-31.855 0.64586-0.42398 1.3003-0.79943 1.9461-1.2234-7.5146 19.097-3.8382 52.585-3.7537 52.44 11.85-34.711 26.515-65.255 48.744-84.672 8.4826 7.5928 14.923 21.83 20.214 39.882 2.6186-24.849-1.858-38.732-4.0514-43.799 10.917 12.948 30.734 20.176 52.045 26.46-23.946-14.536-39.792-28.878-46.004-42.955 68.312-21.018 142.29-46.157 219.96-74.026-6.0925-4.5911-12.639-5.1694-19.442-3.1706-14.023 5.1017-106.22 38.312-231.64 76.244-3.5629 1.0778-7.1567 2.1511-10.768 3.2375-1.0067 0.30738-2.0264 0.59708-3.0153 0.89135-13.174 3.9515-26.666 7.9189-40.462 11.92-3.1433 0.90384-6.2865 1.8077-9.4475 2.7247-0.0663 0.02188-0.13246 0.04334-0.18106 0.052l-34.514 68.935c0.7115-0.33546 1.4939-0.72358 2.2408-1.0853z"/>

      <path id="feather-tail-bottom" d="m697.74-87.882c12.856-3.8255 25.903-7.7645 39.192-11.856 0.1987-0.06501 0.3797-0.1169 0.5784-0.18193 1.8809-0.57144 3.7485-1.1606 5.6293-1.732 8.9497-2.7671 16.955-5.3279 35.178-11.129-2.3417-10.966 2.6186-24.849 9.1692-39.363-11.075 9.2259-18.387 22.082-20.063 37.399-28.142-41.768-64.174-69.017-107.07-65.115-3.8322 0.34468-7.6833 0.92288-11.624 1.7871 16.438 0.48738 28.367 7.3631 41.449 27.265 0.0441 0.0223 0.101 0.0623 0.1451 0.0846-0.0441-0.0223-0.101-0.0623-0.1451-0.0846-33.43-18.78-55.964-23.938-85.227-21.557-6.9364 0.56118-14.25 1.539-22.182 2.866 43.476 5.8729 71.791 29.037 88.586 63.086l0.7758 1.4939 18.367 19.182c2.4192-0.69629 4.8254-1.4103 7.2492-2.1374z"/>

    </g>

  </defs>

  <rect/>

  <path d="m 11.259293,95.380505 c -4.1108064,-4.110806 -4.1108064,-6.650204 0,-10.76101 3.4203,-3.4203 6.026548,-3.305986 10.407373,0.456488 4.477126,3.84518 2.074823,10.284777 -4.740706,12.707917 -1.586187,0.56394 -3.519163,-0.255891 -5.666667,-2.403395 z M 120,97.397725 c -9.67812,-2.122581 -10.66667,-5.024273 -10.66667,-31.31007 V 44 h -4.66666 c -4.06592,0 -4.666671,-0.421329 -4.666671,-3.272916 0,-2.670133 0.839681,-3.43044 4.559181,-4.128224 4.34028,-0.814241 4.59975,-1.185251 5.4039,-7.727084 1.68642,-13.719179 1.89656,-14.205109 6.14286,-14.205109 H 120 V 25.333333 36 h 8 8 v 4 4 h -8 -8 v 21.170073 c 0,25.242328 0.96027,26.987722 12.23108,22.23131 3.18238,-1.343008 6.11928,4.162406 3.56574,6.684264 -2.34189,2.312849 -11.54998,4.243484 -15.79682,3.312078 z m 36.16409,-0.187077 c -13.17403,-2.75934 -16.36307,-20.749959 -4.93063,-27.815596 5.2291,-3.231755 18.24543,-6.728385 25.04667,-6.728385 4.89967,0 5.0532,-0.143804 5.0532,-4.73288 0,-5.509474 -2.96277,-11.917127 -6.05973,-13.105546 -4.4316,-1.700564 -11.06798,-0.726396 -17.17608,2.521318 -6.61591,3.517712 -7.89647,3.42982 -10.10316,-0.693436 -1.15884,-2.1653 -0.49447,-3.032012 4.623,-6.031054 10.82554,-6.344193 25.78368,-6.440886 32.55448,-0.21044 C 191.11469,45.883199 192,50.318631 192,74.623841 v 22.709492 h -3.89406 c -3.24261,0 -4.04104,-0.669172 -4.77261,-4 -0.98431,-4.4815 -2.19691,-4.975874 -4.72708,-1.927205 -3.81169,4.592813 -14.73661,7.418472 -22.44216,5.80452 z m 19.97207,-10.922275 c 4.05476,-2.725208 4.57282,-3.775313 4.93352,-10 l 0.40301,-6.95504 -4.40301,0.0326 c -7.32394,0.05421 -16.22556,2.629992 -19.40302,5.614455 -3.53976,3.324764 -3.8843,8.499165 -0.79334,11.914629 3.26608,3.608979 13.4686,3.287674 19.26284,-0.606638 z m 48.77748,10.968091 C 201.10418,93.2085 196.6996,49.840265 218.93162,38.35684 c 8.80626,-4.548657 25.16127,-2.677233 30.25239,3.461632 1.59484,1.923044 1.52929,2.58668 -0.47407,4.800367 -2.29496,2.535908 -2.38674,2.535588 -7.16426,-0.02501 -9.75687,-5.229366 -19.67892,-2.053934 -23.70726,7.587215 -2.36478,5.65972 -2.36478,19.311528 0,24.971248 4.10455,9.823571 13.81231,12.796092 23.6792,7.250585 l 5.21406,-2.930457 2.80108,2.801079 2.80108,2.801078 -5.21199,3.449131 c -6.11057,4.043784 -15.05239,5.949359 -22.20821,4.732757 z m 54.66666,0 C 255.77085,93.2085 251.36626,49.840265 273.59829,38.35684 c 8.80625,-4.548657 25.16127,-2.677233 30.25239,3.461632 1.59484,1.923044 1.52929,2.58668 -0.47407,4.800367 -2.29496,2.535908 -2.38675,2.535588 -7.16427,-0.02501 -9.75686,-5.229366 -19.67892,-2.053934 -23.70725,7.587215 -2.36479,5.65972 -2.36479,19.311528 0,24.971248 4.10455,9.823571 13.81231,12.796092 23.6792,7.250585 l 5.21405,-2.930457 2.80108,2.801079 2.80108,2.801078 -5.21198,3.449131 c -6.11058,4.043784 -15.05239,5.949359 -22.20822,4.732757 z M 338,97.290656 c -15.1844,-2.241115 -23.36531,-13.412583 -23.30406,-31.822953 0.0351,-10.528252 3.03212,-17.98561 9.3725,-23.320688 5.97072,-5.024032 9.71549,-6.281883 18.83169,-6.325484 14.46347,-0.06917 23.80906,8.569062 24.85072,22.969768 l 0.56965,7.875368 h -21.49358 -21.49359 v 3.579034 c 0,1.968468 1.22652,6.11269 2.7256,9.209379 4.73963,9.790753 15.4472,12.459177 28.11959,7.007659 l 6.67287,-2.870595 2.72568,2.725676 2.72568,2.725676 -6.04308,3.541481 C 355.41162,96.598199 345.86058,98.450825 338,97.290656 Z m 20.66666,-38.666815 c 0,-3.876404 -4.25294,-10.686165 -7.82874,-12.535284 -8.29527,-4.289646 -17.22015,-1.987482 -22.46456,5.794712 C 323.07014,59.752704 323.4853,60 342,60 c 10.56798,0 16.66666,-0.503564 16.66666,-1.376159 z m 33.22205,38.669176 c -2.62786,-0.440574 -6.97404,-2.158316 -9.65817,-3.817202 -4.19748,-2.594179 -4.68269,-3.385295 -3.46817,-5.654635 2.12128,-3.963664 4.43813,-4.268899 9.40738,-1.239377 8.61064,5.24952 18.65138,2.595713 20.54664,-5.430563 1.12803,-4.777079 -2.89042,-8.32618 -13.37934,-11.816669 -8.85335,-2.946202 -14.46859,-7.770699 -15.84342,-13.612308 -1.26426,-5.371803 2.6437,-13.844295 7.8778,-17.079146 7.50983,-4.641333 22.56244,-3.466216 28.88422,2.254916 1.83344,1.659232 1.96224,2.52342 0.68172,4.573863 -1.90435,3.049328 -3.44562,3.147133 -8.45163,0.536319 -5.82643,-3.038692 -12.07397,-2.541194 -15.87968,1.264512 -6.23263,6.232621 -3.10113,10.792144 10.52676,15.327217 11.01163,3.664431 15.53605,8.472492 15.52885,16.502356 -0.005,6.298913 -3.64221,13.224553 -8.257,15.724999 -4.22308,2.288204 -12.77892,3.427562 -18.51596,2.465718 z m 50.66667,0 c -2.62787,-0.440574 -6.97404,-2.158316 -9.65817,-3.817202 -4.19748,-2.594179 -4.6827,-3.385295 -3.46818,-5.654635 2.12128,-3.963664 4.43814,-4.268899 9.40739,-1.239377 8.61064,5.24952 18.65137,2.595713 20.54664,-5.430563 1.12803,-4.777079 -2.89043,-8.32618 -13.37935,-11.816669 -8.85334,-2.946202 -14.46858,-7.770699 -15.84341,-13.612308 -1.26427,-5.371803 2.64369,-13.844295 7.8778,-17.079146 7.50983,-4.641333 22.56244,-3.466216 28.88421,2.254916 1.83344,1.659232 1.96224,2.52342 0.68172,4.573863 -1.90434,3.049328 -3.44561,3.147133 -8.45162,0.536319 -5.82643,-3.038692 -12.07398,-2.541194 -15.87968,1.264512 -6.23263,6.232621 -3.10114,10.792144 10.52676,15.327217 11.01162,3.664431 15.53605,8.472492 15.52885,16.502356 -0.005,6.298913 -3.64221,13.224553 -8.257,15.724999 -4.22308,2.288204 -12.77892,3.427562 -18.51596,2.465718 z M 41.333333,52.666667 V 8 h 5.333333 5.333333 v 18.232419 18.232418 l 3,-2.732468 c 4.864482,-4.43068 8.707799,-5.8828 15.7136,-5.937066 8.058964,-0.06243 14.164016,3.207908 17.893657,9.58521 2.375945,4.062624 2.761195,7.47242 3.195859,28.286154 l 0.494241,23.666666 h -6.148679 -6.148678 v -23.39394 c 0,-23.060232 -0.04668,-23.440622 -3.272727,-26.666666 -5.318973,-5.318972 -14.303777,-4.301844 -21.727273,2.459642 -2.88398,2.626794 -3,3.600079 -3,25.166716 v 22.434248 h -5.333333 -5.333333 z"/>

  <use id="apache-feather" href="#apache" />

</svg>
