<svg xmlns="http://www.w3.org/2000/svg"
     xmlns:xlink="http://www.w3.org/1999/xlink"
     viewBox="0 0 512 512">

<defs>

<style type="text/css"><![CDATA[

polygon:nth-of-type(1) {
fill: #e44d26; 
}

polygon:nth-of-type(2) {
fill: #f16529; 
}

polygon:nth-of-type(3),
polygon:nth-of-type(4) {
fill: #ebebeb; 
}

polygon:nth-of-type(5),
polygon:nth-of-type(6) {
fill: rgb(255, 255, 255); 
}

]]></style>
</defs>

<g>
<polygon points="437.367,100.62 404.321,470.819 255.778,512 107.644,470.877 74.633,100.62" />
<polygon points="256,480.523 376.03,447.246 404.27,130.894 256,130.894" />
<polygon points="191.76,221.716 256,221.716 256,176.305 255.843,176.305 142.132,176.305 143.219,188.488 154.38,313.627 256,313.627 256,268.217 195.91,268.217" />
<polygon points="201.994,336.333 177.419,336.333 156.409,336.333 162.771,407.634 255.791,433.457 256,433.399 256,386.153 255.801,386.206 205.227,372.55" />
<path d="m 108.382,0 h 23.077 v 22.8 h 21.11 V 0 h 23.078 V 69.044 H 152.57 v -23.12 h -21.11 v 23.12 H 108.383 V 0 z" />
<path d="M 205.994,22.896 H 185.678 V 0 h 63.72 V 22.896 H 229.073 V 69.044 H 205.995 V 22.896 z" />
<path d="m 259.511,0 h 24.063 L 298.376,24.26 313.163,0 h 24.072 V 69.044 H 314.253 V 34.822 l -15.877,24.549 h -0.397 L 282.091,34.822 v 34.222 h -22.58 V 0 z" />
<path d="m 348.72,0 h 23.084 v 46.222 h 32.453 V 69.044 H 348.72 V 0 z" />
<polygon points="255.843,313.627 311.761,313.627 306.49,372.521 255.843,386.191 255.843,433.435 348.937,407.634 349.62,399.962 360.291,280.411 361.399,268.217 349.162,268.217 255.843,268.217" />
<polygon points="255.843,221.605 255.843,221.716 365.385,221.716 365.385,221.716 365.531,221.716 366.442,211.509 368.511,188.488 369.597,176.305 255.843,176.305 255.843,204.509" />
</g>
</svg>
