<svg xmlns="http://www.w3.org/2000/svg"
     xmlns:xlink="http://www.w3.org/1999/xlink"
     viewBox="0 0 91.7 91.7">

<defs>
<style type="text/css"><![CDATA[

rect:nth-of-type(1),
path {
fill: rgb(0, 122, 204);
}

rect:nth-of-type(2) {
fill: rgb(255, 255, 255);
}

path {
transform: translate(-54px, -68px);
}

]]></style>
</defs>

<rect width="91.7" height="91.7" />
<rect x="0" y="9" width="91.7" height="74" />
<path d="M 54.151055,114.92768 V 76.12212 h 45.861115 45.86111 v 38.80556 38.80556 H 100.01217 54.151055 Z m 28.30775,13.33994 0.0909,-21.93784 17.552435,21.93784 17.55243,21.93784 h 4.69674 c 6.02985,0 7.90349,-0.51113 10.16552,-2.77316 2.58512,-2.58512 2.77316,-3.62459 2.77316,-15.3298 0,-6.46334 0.14107,-10.33186 0.40942,-11.22754 0.73482,-2.45262 4.16223,-5.5945 6.10291,-5.5945 0.29877,0 0.54322,-0.15875 0.54322,-0.35278 0,-0.19403 -0.24445,-0.35278 -0.54322,-0.35278 -1.94068,0 -5.36809,-3.14189 -6.10291,-5.59451 -0.26835,-0.89567 -0.40942,-4.7642 -0.40942,-11.22753 0,-11.23629 -0.21472,-12.57809 -2.40116,-15.0055 -2.18044,-2.42074 -3.64595,-2.87177 -9.85518,-3.03306 l -5.37718,-0.13967 -0.0909,21.97547 -0.0909,21.97547 L 99.922235,101.58774 82.369805,79.6499 h -4.69674 c -6.02985,0 -7.90349,0.51113 -10.16552,2.77316 -2.58512,2.58512 -2.77316,3.62458 -2.77316,15.3298 0,6.46333 -0.14107,10.33186 -0.40942,11.22753 -0.73482,2.45262 -4.16223,5.59451 -6.10291,5.59451 -0.29877,0 -0.54322,0.15875 -0.54322,0.35278 0,0.19403 0.24445,0.35278 0.54322,0.35278 1.66535,0 4.96084,2.72684 5.9096,4.88988 0.2659,0.60622 0.47523,4.8072 0.6001,12.04345 0.21168,12.26636 0.29011,12.72605 2.57815,15.11135 2.23571,2.33075 3.93407,2.79594 10.3864,2.84488 l 4.67163,0.0354 z" />

</svg>
