<svg xmlns="http://www.w3.org/2000/svg"
     xmlns:xlink="http://www.w3.org/1999/xlink"
     lang="en-GB"
     viewBox="0 0 140 140">

<title>Progressive Web App Logo</title>

<defs>
<style type="text/css"><![CDATA[

path {
transform: translate(-42px, -20px);
}

path:nth-of-type(1),
path:nth-of-type(3) {
fill: rgb(0, 0, 0);
}

path:nth-of-type(2) {
fill: rgb(87, 15, 194);
}

rect {
fill: rgb(255, 255, 255);
}

]]></style>
</defs>

<rect width="140" height="140" />
<path fill-opacity="0.917647" stroke-width="0.2" stroke-linejoin="round" d="M 142.661,103.442L 146.264,94.3307L 156.667,94.3307L 151.729,80.5101L 157.904,64.8957L 175.589,111.852L 162.547,111.852L 159.525,103.442L 142.661,103.442 Z" />
<path fill-opacity="0.917647" stroke-width="0.2" stroke-linejoin="round" d="M 131.534,109.284L 150.466,62.3284L 137.915,62.3286L 124.964,92.6725L 115.754,62.3286L 106.107,62.3286L 96.2186,92.6725L 89.2451,78.8454L 82.9344,98.2877L 89.3417,109.284L 101.694,109.284L 110.63,82.0724L 119.149,109.284L 131.534,109.284 Z" />
<path fill-opacity="0.917647" stroke-width="0.2" stroke-linejoin="round" d="M 62.788,93.1663L 70.519,93.1663C 72.8608,93.1663 74.9463,92.905 76.7751,92.3823L 78.7744,86.2226L 84.3623,69.0073C 83.9365,68.3325 83.4506,67.6944 82.9042,67.0932C 80.035,63.9174 75.8374,62.3297 70.311,62.3297L 50.8738,62.3297L 50.8738,109.286L 62.788,109.286L 62.788,93.1663 Z M 73.0212,73.1324C 74.1418,74.2602 74.7021,75.7696 74.7021,77.6603C 74.7021,79.5657 74.2094,81.0768 73.2239,82.1939C 72.1434,83.435 70.1541,84.0555 67.2557,84.0555L 62.788,84.0555L 62.788,71.4405L 67.2886,71.4405C 69.9897,71.4405 71.9006,72.0045 73.0212,73.1324 Z" />

</svg>
