<svg xmlns="http://www.w3.org/2000/svg"
     lang="en-GB"
     viewBox="0 0 310.67 310.67">

   <title>Previous Track Icon</title>  

   <defs>
     <style type="text/css"><![CDATA[

       rect {
         width: 310.67px;
         height: 310.67px;
         fill: rgba(255, 0, 0);
       }

       path {
         fill: rgb(255, 255, 255);
         transform-origin: center;
         transform: rotate(180deg);
       }

     ]]></style>
   </defs>

  <rect />
  <path d="m 41.05704,301.01641 c -2.40666,-1.1862 -5.70666,-4.02254 -7.33333,-6.30298 L 30.76613,290.56718 30.4139,156.80852 C 30.09373,35.22508 30.2604,22.631072 32.24495,18.448942 36.34681,9.8049037 46.13416,5.7216047 57.68168,7.8366927 c 4.49926,0.824102 12.73019,8.5543683 71.51427,67.1642303 36.5364,36.428107 67.2864,67.853137 68.33333,69.833387 2.45146,4.63689 2.44877,16.16991 -0.005,20.79909 -2.9432,5.55286 -132.92629,134.60512 -137.17843,136.19608 -5.45163,2.03974 -14.25367,1.66872 -19.28896,-0.81307 z m 196.34351,-6.48753 c -6.74054,-2.1464 -18.09235,-13.70992 -19.87435,-20.24499 -2.03257,-7.45401 -2.03257,-228.545972 0,-235.999983 1.91312,-7.015916 13.20044,-18.126343 20.68552,-20.361322 8.36297,-2.497111 18.83155,-2.044583 25.31568,1.094327 7.36504,3.565357 15.95508,12.98101 17.75431,19.46073 1.98442,7.146675 1.98442,228.465838 0,235.612518 -1.83678,6.61494 -10.37584,15.85435 -17.93763,19.40881 -6.58564,3.09562 -18.02972,3.54993 -25.94353,1.02991 z"/>
</svg>
