<svg xmlns="http://www.w3.org/2000/svg"
     xmlns:xlink="http://www.w3.org/1999/xlink"
     lang="en-GB"
     viewBox="0 0 512 512">

<title>Ashiva Page Manifest Model Icon</title>

<defs>
  
  <style type="text/css"><![CDATA[

  rect {
    width: 512px;
    height: 512px;
    fill: rgb(191, 0, 0);
  }

  path {
    fill: rgb(255, 255, 255);
    stroke-width: 1;
  }

  #cogwheel rect {
    width: 58px;
    height: 58px;
    fill: rgb(191, 0, 0);
    stroke: rgb(191, 0, 0);
    stroke-width: 15px;
  }

  #cogwheel path {
    fill: rgb(255, 255, 255);
    fill-rule: evenodd;
    stroke: rgb(255, 255, 255);
    stroke-width: 1;
    transform: translate(-103px, -90px);
  }
 
  #page-manifest-model-cogwheel {
    transform: scale(1.6);
  }
  
  #manifest-type {
    transform: scale(0.66); 
  }
  
  #manifest-type rect {
    width: 155px;
    height: 336px;
    fill: rgb(191, 0, 0);
  }
  
  #manifest-type path {
    fill: rgb(255, 255, 255);
  }

  ]]></style>

  <g id="cogwheel">
  
    <rect />

    <path d="M 127.78857,157.89428 z m 11.55899,-14.962766 c 0.89181,-4.753756 5.9662,-7.918695 9.53007,-5.943986 1.32602,0.734734 2.71541,1.351827 3.08755,1.371317 0.37213,0.01949 2.13381,-2.511491 3.91484,-5.624401 l 3.23823,-5.659836 -2.66484,-2.292198 c -3.7166,-3.196886 -3.73776,-8.957481 -0.0437,-11.903003 l 2.62112,-2.090002 -2.04284,-3.947563 c -3.68115,-7.113451 -4.38695,-7.706951 -7.67745,-6.455902 -4.26433,1.621293 -9.14563,-1.1722 -9.99925,-5.722418 l -0.63,-3.358176 -6.69635,0.294467 c -6.69474,0.294397 -6.69641,0.295211 -7.00018,3.416872 -0.24594,2.527409 -1.03326,3.451327 -4.13167,4.848514 -2.96026,1.334892 -4.29304,1.477134 -5.88042,0.627595 -2.93221,-1.569275 -2.92803,-1.571697 -6.20609,3.597267 -3.49837,5.516358 -3.69853,7.373132 -0.97798,9.072146 1.50508,0.93994 2,2.332028 2,5.625537 0,3.572644 -0.4623,4.679429 -2.51691,6.025662 -2.76575,1.812188 -2.72148,2.014025 2.14038,9.756901 2.18436,3.478763 2.46743,3.615935 5.27495,2.556215 4.18855,-1.581015 10.10155,1.538038 10.10155,5.328495 0,3.658512 0.54317,3.939263 7.62135,3.939263 h 6.28802 z m -0.8,-17.787878 c 6.7296,-6.729597 -0.87689,-18.136092 -9.66633,-14.495386 -3.10599,1.286545 -5.87912,5.448531 -5.87912,8.823546 0,1.085114 1.165,3.357461 2.58889,5.04966 3.40661,4.048524 9.24964,4.329108 12.95656,0.62218 z" />

  </g>


  <g id="manifest-type">
  
    <rect />
  
    <path d="m 55.747241,296.69531 c -2.000672,-2.85636 -0.927593,-5.94859 2.476057,-7.13511 L 61.08,288.56435 v -12.92693 c 0,-12.78266 -0.02722,-12.93727 -2.439198,-13.8543 -5.419022,-2.06031 -5.101911,-8.2649 0.479464,-9.38117 C 60.88562,252.04888 69.69875,251.76 78.705,251.76 H 95.08 v 8.3 c 0,8.79139 -0.816521,10.7 -4.577555,10.7 -2.75141,0 -4.153167,-1.68188 -4.58396,-5.5 l -0.338485,-3 h -7.5 -7.5 v 4 c 0,3.3868 0.344925,4.04899 2.25,4.31955 1.717852,0.24397 2.25,-0.17499 2.25,-1.77144 0,-2.76628 3.996698,-4.65543 6.741404,-3.18651 3.22738,1.72725 4.434186,12.25644 1.964321,17.1384 -1.701417,3.36304 -6.759376,3.51738 -8.192853,0.25 -0.605281,-1.37964 -1.862468,-2.25 -3.25,-2.25 -1.973351,0 -2.262872,0.51178 -2.262872,4 v 4 h 8.388709 8.388709 l 0.654324,-3.48785 c 0.932159,-4.96883 4.975981,-6.96157 7.996829,-3.94072 1.164308,1.16431 1.571429,3.62554 1.571429,9.5 V 298.76 H 77.136704 c -19.017971,0 -20.010395,-0.0958 -21.389463,-2.06469 z M 68.735189,223.36048 C 59.980425,220.10434 56.123924,213.34605 56.123924,201.26 c 0,-15.48438 7.906421,-24.66173 21.380374,-24.81717 6.070876,-0.07 16.899116,1.4526 18.325702,2.57692 0.745479,0.58752 1.25,3.34812 1.25,6.83964 0,5.04807 -0.324955,6.06742 -2.359095,7.40024 -2.963641,1.94185 -5.287048,1.08533 -7.225786,-2.66377 -2.464742,-4.76629 -8.777244,-6.18145 -14.807927,-3.3197 -4.866681,2.30939 -6.607192,6.11987 -6.607192,14.46506 0,6.59431 0.235684,7.40831 2.923077,10.0957 2.580669,2.58067 3.625343,2.92308 8.918212,2.92308 7.28413,0 9.158711,-0.63593 9.158711,-3.10699 0,-1.59443 -0.757095,-1.89301 -4.8,-1.89301 -2.64,0 -5.34,-0.54 -6,-1.2 -1.542501,-1.5425 -1.542501,-5.0575 0,-6.6 1.640336,-1.64034 20.959664,-1.64034 22.6,0 1.66251,1.66251 1.50183,5.30461 -0.3,6.8 -0.956591,0.7939 -1.5,3.00453 -1.5,6.10212 0,4.70373 -0.134315,4.92654 -4.25,7.05022 -5.418422,2.79588 -18.377102,3.57472 -24.094811,1.44814 z M 53.28,147.56 c -2.231269,-2.23127 -1.435708,-6.57545 1.464223,-7.99543 2.117143,-1.03669 3.759891,-3.96398 8,-14.25558 2.934678,-7.12305 5.335777,-13.08555 5.335777,-13.25 0,-0.16444 -1.5199,-0.29899 -3.377555,-0.29899 -3.901592,0 -5.916215,-1.91137 -5.449209,-5.16993 0.496078,-3.4614 4.36912,-4.79895 13.943425,-4.81533 l 8.61666,-0.0147 7.453354,18.25 c 6.173323,15.11576 7.913613,18.47404 10.133335,19.55457 2.91558,1.41924 3.7185,5.75692 1.47999,7.99543 -1.67652,1.67652 -16.88087,1.59257 -19.20384,-0.10603 -2.588413,-1.89269 -1.69677,-5.88826 1.673353,-7.49852 C 87.74265,137.85639 85.591521,136.76 77.08,136.76 c -8.511521,0 -10.66265,1.09639 -6.269513,3.19545 3.370123,1.61026 4.261766,5.60583 1.673353,7.49852 -2.32297,1.6986 -17.527325,1.78255 -19.20384,0.10603 z m 26.067865,-24.8 c -0.864185,-2.2 -1.884724,-4 -2.267865,-4 -0.383141,0 -1.40368,1.8 -2.267865,4 l -1.571245,4 H 77.08 80.91911 Z M 59.125681,72.315042 C 57.219479,70.01821 58.300955,66.412059 61.33,64.964801 l 2.75,-1.313933 V 50.205434 C 64.08,37.718948 63.94609,36.76 62.202445,36.76 c -4.614758,0 -5.443204,-6.480763 -1.122445,-8.780663 3.728306,-1.984543 24.333036,-1.104198 29.297855,1.251763 6.291342,2.985437 9.951475,10.415019 8.324465,16.897542 -1.727862,6.884371 -10.466211,12.57214 -19.37232,12.609396 -4.927477,0.02061 -5.25,0.175544 -5.25,2.521962 0,2.181451 0.437673,2.5 3.4349,2.5 5.768919,0 8.5651,1.558938 8.5651,4.775249 0,4.709099 -1.38937,5.224751 -14.077555,5.224751 -8.962398,0 -11.956385,-0.335968 -12.876764,-1.444958 z M 83.951886,47.654816 C 89.201168,45.824907 90.317412,41.027794 86.028092,38.73222 85.028957,38.197499 81.931899,37.76 79.145741,37.76 H 74.08 v 5.5 5.5 h 3.350777 c 1.842927,0 4.777426,-0.497333 6.521109,-1.105184 z" />
  
  </g>


</defs>

<rect />

<path d="M 377.79141,478.93645 c 11.61592,-2.67943 22.15285,-11.04012 27.43448,-21.76828 L 408.5,450.51771 408.79513,268.49647 C 409.01079,135.48314 408.78383,84.868759 407.95218,80.508569 405.10889,65.601899 394.44526,53.767487 380.0685,49.563496 375.78171,48.309972 369.6427,47.975239 350.93982,47.975239 h -23.69718 l -1.25685,-3.034315 C 324.2996,40.870102 316.60396,34.23743 312.12267,32.992662 309.87681,32.368829 285.45514,31.984273 247.86419,31.980816 l -60.63581,-0.0056 -5.36419,2.786742 c -3.7546,1.950546 -6.36621,4.276029 -8.70358,7.75 l -3.33939,4.963258 -25.68659,0.5 -25.68659,0.5 -6.56348,3.233628 c -8.01293,3.947732 -15.932026,11.997562 -19.688676,20.013732 l -2.69588,5.75264 V 263.99625 450.51727 l 3.27411,6.65067 c 5.16449,10.49058 14.657116,18.24854 26.225886,21.43344 5.74468,1.58151 252.00553,1.90035 258.79141,0.33505 z M 122.99353,463.0487 c -7.96243,-2.44684 -14.9495,-9.20898 -16.9097,-16.36532 -0.85543,-3.12299 -1.07932,-50.8827 -0.86825,-185.20814 0.26752,-170.244751 0.3885,-181.190351 2.036,-184.203401 2.75114,-5.03145 8.50281,-10.02491 13.51376,-11.73231 3.61281,-1.231008 9.24023,-1.56429 26.4128,-1.56429 H 169 v 8 8 h -18.11385 c -20.65869,0 -23.77451,0.89812 -27.76826,8.00404 L 121,91.747549 V 264.21351 436.67947 l 2.25,3.30594 c 1.2375,1.81826 3.5205,4.24731 5.07333,5.39788 l 2.82333,2.09195 H 249 366.85334 l 2.82333,-2.09195 c 1.55283,-1.15057 3.83959,-3.5852 5.08169,-5.41028 l 2.25835,-3.31833 L 376.75836,263.38819 376.5,90.121709 l -2.09195,-2.82323 c -1.15057,-1.55278 -3.57962,-3.83574 -5.39788,-5.07324 -3.13183,-2.13151 -4.27243,-2.25 -21.65805,-2.25 H 329 v -8 -8 l 22.25,0.02196 c 20.21746,0.01996 22.66108,0.208042 26.75,2.05895 5.54822,2.51148 9.51599,6.18268 12.34158,11.41909 l 2.15842,4 0.2858,180.500001 c 0.21229,134.07794 -0.011,181.58227 -0.86824,184.70814 -1.44147,5.25625 -6.84416,11.67184 -12.27501,14.57635 l -4.14255,2.21551 -125,0.17185 c -68.75,0.0945 -126.12791,-0.17476 -127.50647,-0.59839 z M 137,263.97524 V 95.975239 h 16.47432 16.47432 l 1.49215,2.8855 c 2.18019,4.216021 9.84181,10.582991 14.36605,11.938481 5.06883,1.51866 119.89173,1.66525 125.31079,0.15999 5.46804,-1.51887 10.05141,-5.01297 13.38237,-10.20196 l 3,-4.673421 16.75,-0.0543 16.75,-0.0543 v 168.000001 168 H 249 137 Z m 112,112 v -40 h -48 -48 v 40 40 h 48 48 z m -80,0 v -24 h 32 32 v 24 24 h -32 -32 z m 144,32 v -8 h -24 -24 v 8 8 h 24 24 z m 0,-32 v -8 h -24 -24 v 8 8 h 24 24 z m 0,-32 v -8 h -24 -24 v 8 8 h 24 24 z m 32,-48 v -8 h -52 -52 v 8 8 h 52 52 z m -147.50236,-32.90142 25.75233,-34.40142 -2.37498,-1.82561 c -1.30625,-1.00408 -4.23765,-3.17811 -6.51424,-4.83118 l -4.13925,-3.00557 -20.75625,27.7326 c -11.41593,15.25293 -20.93156,27.93589 -21.14584,28.18435 -0.21427,0.24847 -2.50183,-1.66049 -5.08346,-4.24212 l -4.69388,-4.69387 -5.77889,5.71859 -5.7789,5.71859 11.23186,11.26382 c 8.73219,8.75703 11.4875,10.98778 12.38051,10.02353 0.63176,-0.68216 12.7372,-16.72093 26.90099,-35.64171 z M 313,263.97524 v -8 h -36 -36 v 8 8 h 36 36 z m 32,0 v -8 h -8 -8 v 8 8 h 8 8 z m 0,-32 v -8 h -52 -52 v 8 8 h 52 52 z m 0,-32 v -8 h -52 -52 v 8 8 h 52 52 z m -147.50236,-32.90142 25.75233,-34.40142 -2.37498,-1.82561 c -1.30625,-1.00408 -4.23765,-3.17811 -6.51424,-4.83118 l -4.13925,-3.00557 -20.75625,27.7326 c -11.41593,15.25293 -20.93156,27.93589 -21.14584,28.18435 -0.21427,0.24847 -2.50183,-1.66049 -5.08346,-4.24212 l -4.69388,-4.69387 -5.77889,5.71859 -5.7789,5.71859 11.23186,11.26382 c 8.73219,8.75703 11.4875,10.98778 12.38051,10.02353 0.63176,-0.68216 12.7372,-16.72093 26.90099,-35.64171 z M 313,167.97524 v -8 h -36 -36 v 8 8 h 36 36 z m 32,0 v -8 h -8 -8 v 8 8 h 8 8 z m 0,-32 v -8 h -52 -52 v 8 8 h 52 52 z M 189.5,94.820509 c -4.28205,-2.3421 -4.5,-3.46002 -4.5,-23.08185 0,-18.684843 0.0221,-18.876394 2.45455,-21.308875 l 2.45454,-2.454545 h 58.85689 c 57.74244,0 58.89811,0.03839 61.03335,2.027677 3.13804,2.923528 3.37101,4.768128 3.01851,23.899543 l -0.31784,17.25045 -2.80576,2.41117 -2.80577,2.41116 -57.69423,-0.0304 c -39.82513,-0.021 -58.31368,-0.36922 -59.69424,-1.12432 z" />

<use id="page-manifest-model-cogwheel" href="#cogwheel" x="221" y="16" />

<use id="manifest-page" href="#manifest-type" x="138" y="112" />

</svg>
