<svg xmlns="http://www.w3.org/2000/svg"
     xmlns:xlink="http://www.w3.org/1999/xlink"
     lang="en-GB"
     viewBox="0 0 768 768">

<title>Ashiva Page Manifest Model Icon</title>

<defs>
  
  <style type="text/css"><![CDATA[

  rect {
    width: 768px;
    height: 768px;
    fill: rgb(191, 0, 0);
  }

  path {
    fill: rgb(255, 255, 255);
    stroke-width: 1;
  }

  #cogwheel rect {
    width: 58px;
    height: 58px;
    fill: rgb(191, 0, 0);
    stroke: rgb(191, 0, 0);
    stroke-width: 15px;
  }

  #cogwheel path {
    fill: rgb(255, 255, 255);
    fill-rule: evenodd;
    stroke: rgb(255, 255, 255);
    stroke-width: 1;
    transform: translate(-103px, -90px);
  }
 
  #page-manifest-model-cogwheel {
    transform: scale(2.4);
  }
  
  #manifest-type rect {
    width: 155px;
    height: 336px;
    fill: rgb(191, 0, 0);
  }
  
  #manifest-type path {
    fill: rgb(255, 255, 255);
  }

  ]]></style>

  <g id="cogwheel">
  
    <rect />

    <path d="M 127.78857,157.89428 z m 11.55899,-14.962766 c 0.89181,-4.753756 5.9662,-7.918695 9.53007,-5.943986 1.32602,0.734734 2.71541,1.351827 3.08755,1.371317 0.37213,0.01949 2.13381,-2.511491 3.91484,-5.624401 l 3.23823,-5.659836 -2.66484,-2.292198 c -3.7166,-3.196886 -3.73776,-8.957481 -0.0437,-11.903003 l 2.62112,-2.090002 -2.04284,-3.947563 c -3.68115,-7.113451 -4.38695,-7.706951 -7.67745,-6.455902 -4.26433,1.621293 -9.14563,-1.1722 -9.99925,-5.722418 l -0.63,-3.358176 -6.69635,0.294467 c -6.69474,0.294397 -6.69641,0.295211 -7.00018,3.416872 -0.24594,2.527409 -1.03326,3.451327 -4.13167,4.848514 -2.96026,1.334892 -4.29304,1.477134 -5.88042,0.627595 -2.93221,-1.569275 -2.92803,-1.571697 -6.20609,3.597267 -3.49837,5.516358 -3.69853,7.373132 -0.97798,9.072146 1.50508,0.93994 2,2.332028 2,5.625537 0,3.572644 -0.4623,4.679429 -2.51691,6.025662 -2.76575,1.812188 -2.72148,2.014025 2.14038,9.756901 2.18436,3.478763 2.46743,3.615935 5.27495,2.556215 4.18855,-1.581015 10.10155,1.538038 10.10155,5.328495 0,3.658512 0.54317,3.939263 7.62135,3.939263 h 6.28802 z m -0.8,-17.787878 c 6.7296,-6.729597 -0.87689,-18.136092 -9.66633,-14.495386 -3.10599,1.286545 -5.87912,5.448531 -5.87912,8.823546 0,1.085114 1.165,3.357461 2.58889,5.04966 3.40661,4.048524 9.24964,4.329108 12.95656,0.62218 z" />

  </g>


  <g id="manifest-type">
  
    <rect />
  
    <path d="m 55.747241,296.69531 c -2.000672,-2.85636 -0.927593,-5.94859 2.476057,-7.13511 L 61.08,288.56435 v -12.92693 c 0,-12.78266 -0.02722,-12.93727 -2.439198,-13.8543 -5.419022,-2.06031 -5.101911,-8.2649 0.479464,-9.38117 C 60.88562,252.04888 69.69875,251.76 78.705,251.76 H 95.08 v 8.3 c 0,8.79139 -0.816521,10.7 -4.577555,10.7 -2.75141,0 -4.153167,-1.68188 -4.58396,-5.5 l -0.338485,-3 h -7.5 -7.5 v 4 c 0,3.3868 0.344925,4.04899 2.25,4.31955 1.717852,0.24397 2.25,-0.17499 2.25,-1.77144 0,-2.76628 3.996698,-4.65543 6.741404,-3.18651 3.22738,1.72725 4.434186,12.25644 1.964321,17.1384 -1.701417,3.36304 -6.759376,3.51738 -8.192853,0.25 -0.605281,-1.37964 -1.862468,-2.25 -3.25,-2.25 -1.973351,0 -2.262872,0.51178 -2.262872,4 v 4 h 8.388709 8.388709 l 0.654324,-3.48785 c 0.932159,-4.96883 4.975981,-6.96157 7.996829,-3.94072 1.164308,1.16431 1.571429,3.62554 1.571429,9.5 V 298.76 H 77.136704 c -19.017971,0 -20.010395,-0.0958 -21.389463,-2.06469 z M 68.735189,223.36048 C 59.980425,220.10434 56.123924,213.34605 56.123924,201.26 c 0,-15.48438 7.906421,-24.66173 21.380374,-24.81717 6.070876,-0.07 16.899116,1.4526 18.325702,2.57692 0.745479,0.58752 1.25,3.34812 1.25,6.83964 0,5.04807 -0.324955,6.06742 -2.359095,7.40024 -2.963641,1.94185 -5.287048,1.08533 -7.225786,-2.66377 -2.464742,-4.76629 -8.777244,-6.18145 -14.807927,-3.3197 -4.866681,2.30939 -6.607192,6.11987 -6.607192,14.46506 0,6.59431 0.235684,7.40831 2.923077,10.0957 2.580669,2.58067 3.625343,2.92308 8.918212,2.92308 7.28413,0 9.158711,-0.63593 9.158711,-3.10699 0,-1.59443 -0.757095,-1.89301 -4.8,-1.89301 -2.64,0 -5.34,-0.54 -6,-1.2 -1.542501,-1.5425 -1.542501,-5.0575 0,-6.6 1.640336,-1.64034 20.959664,-1.64034 22.6,0 1.66251,1.66251 1.50183,5.30461 -0.3,6.8 -0.956591,0.7939 -1.5,3.00453 -1.5,6.10212 0,4.70373 -0.134315,4.92654 -4.25,7.05022 -5.418422,2.79588 -18.377102,3.57472 -24.094811,1.44814 z M 53.28,147.56 c -2.231269,-2.23127 -1.435708,-6.57545 1.464223,-7.99543 2.117143,-1.03669 3.759891,-3.96398 8,-14.25558 2.934678,-7.12305 5.335777,-13.08555 5.335777,-13.25 0,-0.16444 -1.5199,-0.29899 -3.377555,-0.29899 -3.901592,0 -5.916215,-1.91137 -5.449209,-5.16993 0.496078,-3.4614 4.36912,-4.79895 13.943425,-4.81533 l 8.61666,-0.0147 7.453354,18.25 c 6.173323,15.11576 7.913613,18.47404 10.133335,19.55457 2.91558,1.41924 3.7185,5.75692 1.47999,7.99543 -1.67652,1.67652 -16.88087,1.59257 -19.20384,-0.10603 -2.588413,-1.89269 -1.69677,-5.88826 1.673353,-7.49852 C 87.74265,137.85639 85.591521,136.76 77.08,136.76 c -8.511521,0 -10.66265,1.09639 -6.269513,3.19545 3.370123,1.61026 4.261766,5.60583 1.673353,7.49852 -2.32297,1.6986 -17.527325,1.78255 -19.20384,0.10603 z m 26.067865,-24.8 c -0.864185,-2.2 -1.884724,-4 -2.267865,-4 -0.383141,0 -1.40368,1.8 -2.267865,4 l -1.571245,4 H 77.08 80.91911 Z M 59.125681,72.315042 C 57.219479,70.01821 58.300955,66.412059 61.33,64.964801 l 2.75,-1.313933 V 50.205434 C 64.08,37.718948 63.94609,36.76 62.202445,36.76 c -4.614758,0 -5.443204,-6.480763 -1.122445,-8.780663 3.728306,-1.984543 24.333036,-1.104198 29.297855,1.251763 6.291342,2.985437 9.951475,10.415019 8.324465,16.897542 -1.727862,6.884371 -10.466211,12.57214 -19.37232,12.609396 -4.927477,0.02061 -5.25,0.175544 -5.25,2.521962 0,2.181451 0.437673,2.5 3.4349,2.5 5.768919,0 8.5651,1.558938 8.5651,4.775249 0,4.709099 -1.38937,5.224751 -14.077555,5.224751 -8.962398,0 -11.956385,-0.335968 -12.876764,-1.444958 z M 83.951886,47.654816 C 89.201168,45.824907 90.317412,41.027794 86.028092,38.73222 85.028957,38.197499 81.931899,37.76 79.145741,37.76 H 74.08 v 5.5 5.5 h 3.350777 c 1.842927,0 4.777426,-0.497333 6.521109,-1.105184 z" />
  
  </g>


</defs>

<rect />

<path d="m 234.42571,708.80568 c -51.44247,-0.70693 -53.1585,-0.79301 -58.39364,-2.92903 -16.37526,-6.68139 -26.7361,-16.40986 -34.97943,-32.84445 l -4.12693,-8.22781 V 385.75375 106.7031 l 3.53456,-7.448389 c 6.58968,-13.88642 17.6104,-25.225716 31.58121,-32.494131 l 7.8101,-4.06326 29.78706,-0.501782 c 16.38289,-0.27598 33.96195,-0.754801 39.06459,-1.064047 l 9.27751,-0.562266 4.03744,-5.945393 c 4.25524,-6.26612 9.18237,-10.404337 17.34748,-14.569862 l 4.93995,-2.520173 92.56005,0.386635 92.56005,0.386635 4.5,2.215235 c 6.68894,3.292792 13.74786,9.821232 17.16378,15.873901 l 3.02714,5.363797 30.15454,0.01733 c 40.45835,0.02325 46.59741,0.699756 58.20185,6.413666 14.4301,7.10524 25.35222,19.739755 30.73501,35.553724 l 2.21768,6.51528 0.27727,277.21568 0.27728,277.21568 -4.65742,9.28432 c -8.20357,16.35341 -24.34489,29.8535 -40.39713,33.78686 -5.53372,1.35595 -257.00888,2.13552 -336.5,1.04314 z m 338.65727,-27.64122 c 6.67735,-4.05628 12.78155,-10.61551 16.04595,-17.24211 l 2.29678,-4.66235 0.26415,-273.33347 0.26416,-273.33346 -3.14655,-5.90353 C 584.89979,99.357981 577.63945,92.453281 570.14378,88.940051 l -5.71807,-2.68005 -34.25,-0.32016 -34.25,-0.32015 v 11.9996 11.999589 l 27.75,0.32056 c 31.73565,0.3666 30.65679,0.1086 39.10424,9.35145 l 5.14576,5.63028 v 260.26938 260.26937 l -2.83611,3.90004 c -1.55987,2.14502 -4.71116,5.58754 -7.00288,7.65004 l -4.16677,3.75 H 376.42571 198.93147 l -4.16677,-3.75 c -2.29172,-2.0625 -5.44301,-5.50502 -7.00288,-7.65004 l -2.83611,-3.90004 V 385.82867 126.19742 l 3.50826,-5.60868 c 5.97969,-9.55981 11.05304,-10.74428 46.24174,-10.79602 l 22.25,-0.0327 V 97.679971 85.599931 l -34.25,0.38674 c -38.29395,0.43241 -38.73703,0.50322 -48.29285,7.71793 -7.42641,5.607 -11.12452,11.661729 -12.13411,19.866569 -0.45267,3.67886 -0.82304,127.96383 -0.82304,276.18883 v 269.5 l 2.2009,4.76612 c 2.80935,6.08373 11.3614,14.62822 17.7991,17.78336 4.95815,2.43001 5.31387,2.45557 42.5,3.05409 20.625,0.33197 106.32883,0.42157 190.45295,0.19912 l 152.95296,-0.40446 z M 557.92571,385.76 v -265 h -30.5 -30.5 l -0.009,6.75 c -0.008,5.6318 -0.49697,7.60012 -2.9527,11.88176 -3.33514,5.81492 -10.47294,12.38119 -16.84518,15.4964 -4.22175,2.06389 -5.67103,2.11492 -73,2.5703 -37.78101,0.25553 -80.87731,0.0663 -95.76955,-0.42041 l -27.07681,-0.88502 -4.7978,-2.81169 c -6.50299,-3.81101 -12.3085,-9.17716 -15.71653,-14.52712 -2.44552,-3.83841 -2.83243,-5.44367 -2.83243,-11.75 V 119.76 h -31.5 -31.5 v 265.5 265.5 h 181.5 181.5 z m -325,168 v -60 h 71.5 71.5 v 60 60 h -71.5 -71.5 z m 120,0 v -36 h -48.5 -48.5 v 36 36 h 48.5 48.5 z m 48,48 v -12 h 35.5 35.5 v 12 12 h -35.5 -35.5 z m 0,-48 v -12 h 35.5 35.5 v 12 12 h -35.5 -35.5 z m 0,-48 v -12 h 35.5 35.5 v 12 12 h -35.5 -35.5 z m -36,-72 v -12 h 77.5 77.5 v 12 12 h -77.5 -77.5 z m -125.29855,-11.88091 -16.20145,-16.04626 8.42974,-8.48798 8.42974,-8.48799 6.83901,6.45157 c 3.76145,3.54836 7.22468,6.45157 7.69606,6.45157 0.47138,0 14.86489,-18.675 31.98558,-41.5 17.12069,-22.825 31.36741,-41.5 31.65937,-41.5 1.35996,0 18.45587,13.29886 18.42145,14.33 -0.0723,2.16668 -77.43102,104.16197 -79.2595,104.50144 -1.21853,0.22622 -7.02335,-4.84085 -18,-15.71235 z M 364.92571,385.76 v -12 h 53.5 53.5 v 12 12 h -53.5 -53.5 z m 132,0 v -12 h 11.5 11.5 v 12 12 h -11.5 -11.5 z m -132,-48 v -12 h 77.5 77.5 v 12 12 h -77.5 -77.5 z m 0,-48 v -12 h 77.5 77.5 v 12 12 h -77.5 -77.5 z m -125.29855,-11.88091 -16.20145,-16.04626 8.42974,-8.48798 8.42974,-8.48799 6.83901,6.45157 c 3.76145,3.54836 7.22468,6.45157 7.69606,6.45157 0.47138,0 14.86489,-18.675 31.98558,-41.5 17.12069,-22.825 31.36741,-41.5 31.65937,-41.5 1.35875,0 18.45611,13.29856 18.42344,14.33 -0.0684,2.15797 -77.43112,104.15086 -79.26149,104.49611 -1.22168,0.23043 -6.99496,-4.8074 -18,-15.70702 z M 364.92571,241.76 v -12 h 53.5 53.5 v 12 12 h -53.5 -53.5 z m 132,0 v -12 h 11.5 11.5 v 12 12 h -11.5 -11.5 z m -132,-48 v -12 h 77.5 77.5 v 12 12 h -77.5 -77.5 z m 102.7429,-63.77984 4.2429,-3.72016 0.1859,-26.999999 c 0.20277,-29.448734 -0.0187,-30.855854 -5.49442,-34.910066 -2.80595,-2.077522 -3.34662,-2.091632 -91.02869,-2.375647 l -88.20598,-0.285712 -2.80485,2.927628 c -3.55582,3.711487 -4.58053,10.836222 -4.55112,31.643797 0.0314,22.216769 1.0483,30.088409 4.30893,33.354689 2.38845,2.39259 3.57047,2.69994 12.37258,3.2171 5.35252,0.31448 45.05685,0.63855 88.23185,0.72015 l 78.5,0.14838 z" />

<use id="page-manifest-model-cogwheel" href="#cogwheel" x="221" y="10" />

<use id="manifest-page" href="#manifest-type" x="207" y="158" />

</svg>
