<svg xmlns="http://www.w3.org/2000/svg"
     xmlns:xlink="http://www.w3.org/1999/xlink"
     lang="en-GB"
     viewBox="0 0 300 300">

  <title>Control Pad Menu</title>

  <defs>

  <style type="text/css"><![CDATA[

  rect {
    width: 300px;
    height: 300px;
    fill: rgb(191, 0, 0);
  }

  path {
    fill: rgb(255, 255, 255);
    stroke-width: 1;
  }

  ]]></style>

  </defs>

  <rect />

  <path d="m 244.12325,271.71231 c -5.42986,-1.28201 -11.27275,-6.04804 -14.06861,-11.47573 -2.47942,-4.81339 -2.56402,-5.61543 -2.87338,-27.24085 l -0.31874,-22.28144 h 9.49634 9.49633 l 0.32241,20.97929 0.3224,20.97928 2.77273,2.77072 c 2.21947,2.21785 3.68337,2.77071 7.33658,2.77071 3.76063,0 4.98861,-0.49381 6.97727,-2.80576 2.3851,-2.77284 2.41342,-3.05157 2.41342,-23.75 v -20.94424 h 10 10 v 20.05718 c 0,11.97704 -0.47039,21.92528 -1.16765,24.69433 -1.53362,6.09056 -9.59766,14.58286 -15.33235,16.14661 -4.53984,1.23793 -20.29401,1.29995 -25.37675,0.0999 z M 14.000003,241.21429 v -30.5 h 12.95299 12.953 l 0.89013,3.25 c 0.48958,1.7875 2.40636,9.4375 4.25952,17 1.85315,7.5625 3.64864,13.75 3.98996,13.75 0.34132,0 2.55768,-7.65 4.92525,-17 l 4.30468,-17 h 12.86223 12.86224 v 30.5 30.5 h -7.9805 -7.9805 l -0.2695,-21.75 -0.2695,-21.75 -5.5,21.78443 -5.5,21.78442 -7.42201,-0.28442 -7.42201,-0.28443 -5.25217,-20 -5.25218,-20 -0.0758,20.25 -0.0758,20.25 h -8.5 -8.5 z m 81,0 v -30.5 H 120.5 146 v 6.5 6.5 h -16 -16 v 5 5 h 15 15 v 6 6 h -15 -15 v 6 6 h 16.5 16.5 v 7 7 H 121 95.000003 Z m 60.999997,0 v -30.5 h 9.36101 9.361 l 10.889,16.07515 10.88899,16.07516 0.27477,-16.07516 0.27477,-16.07515 H 206.02477 215 v 30.5 30.5 l -9.25,-0.0416 -9.25,-0.0416 -10.5,-15.62082 -10.5,-15.62082 -0.27539,15.66246 -0.2754,15.66246 H 165.47461 156 v -30.5 z M 14.670253,169.05121 c -0.36864,-0.36864 -0.67025,-8.69525 -0.67025,-18.50359 V 132.71429 H 150.02256 286.04512 l -0.27256,18.25 -0.27256,18.25 -135.07975,0.25358 c -74.293867,0.13947 -135.381367,-0.048 -135.749997,-0.41666 z m -0.44281,-76.586924 0.27256,-18.25 H 150 285.5 l 0.27256,18.25 0.27256,18.250004 H 150 13.954883 Z m 0.44281,-40.413084 c -0.36864,-0.368637 -0.67025,-8.695249 -0.67025,-18.503583 V 15.714286 H 150.02256 286.04512 l -0.27256,18.25 -0.27256,18.25 -135.07975,0.253583 C 76.126383,52.607339 15.038883,52.419839 14.670253,52.051202 Z"></path>

</svg>
