<svg xmlns="http://www.w3.org/2000/svg"
     xmlns:xlink="http://www.w3.org/1999/xlink"
     lang="en-GB"
     viewBox="0 0 400 400">

<title>Ashiva WebRig Icon</title>

<defs>
<style type="text/css"><![CDATA[

rect {
  width: 400px;
  height: 400px;
  fill: rgb(191, 0, 0);
}

path {
  fill: rgb(255, 255, 255);
  stroke-width: 1;
}

]]></style>

</defs>

<rect />

<path d="M 0.76190381,200.76191 Z m 112.99999619,86.5 v -45.5 h -45.999996 -46 v 45.5 45.5 h 46 45.999996 z m -77.999996,-1 v -31.5 h 32.5 32.499996 v 31.5 31.5 h -32.499996 -32.5 z m 211.999996,1 v -45.5 h -46 -46 v 45.5 45.5 h 46 46 z m -78,-1 v -31.5 h 32.5 32.5 v 31.5 31.5 h -32.5 -32.5 z m 211,1 v -45.5 h -46 -46 v 45.5 45.5 h 46 46 z m -78,-1 v -31.5 h 32.5 32.5 v 31.5 31.5 h -32.5 -32.5 z m -227.999996,-68.5 v -15 h 60.499996 60.5 v 15 15 h 5.5 5.5 v -15 -15 h 60.5 60.5 v 15 15 h 6.5 6.5 v -20.5 -20.5 h -67 -67 v -15 -15 h -5.5 -5.5 v 15 15 h -67 -66.999996 v 20.5 20.5 h 6.5 6.5 z m 171.999996,-108.5 V 63.761906 h -46 -46 v 45.500004 45.5 h 46 46 z m -78,-1 V 76.761906 h 32.5 32.5 v 31.500004 31.5 h -32.5 -32.5 z" />

</svg>
