<svg xmlns="http://www.w3.org/2000/svg"
     xmlns:xlink="http://www.w3.org/1999/xlink"
     lang="en-GB"
     viewBox="0 0 512 512">

<title>Webmanifest Icon</title>

<defs>
  
  <style type="text/css"><![CDATA[

  rect {
    width: 512px;
    height: 512px;
    fill: rgb(191, 0, 0);
  }

  path {
    fill: rgb(255, 255, 255);
    stroke-width: 1;
  }
  
  #manifest-type {
    transform: scale(0.66); 
  }
  
  #manifest-type rect {
    width: 155px;
    height: 336px;
    fill: rgb(191, 0, 0);
  }
  
  #manifest-type path {
    fill: rgb(255, 255, 255);
  }

  ]]></style>


  <g id="manifest-type">
  
    <rect />
  
    <path d="m 47.05,302.32227 c -4.102577,-2.9095 -2.787776,-8.81965 2.338428,-10.51145 L 52.8,290.6849 V 271.26245 251.84 h -2.428571 c -5.095447,0 -7.58132,-6.8711 -3.742688,-10.34501 1.559263,-1.41112 4.484406,-1.65499 19.850776,-1.65499 18.679495,0 22.425481,0.59869 27.670478,4.42233 6.417995,4.67877 8.680575,15.73474 4.592375,22.44045 l -2.050144,3.36278 3.438204,3.4382 c 8.54184,8.54185 6.64495,22.28376 -3.83043,27.74925 -3.632841,1.89543 -5.973477,2.11351 -25.5,2.37596 -18.392773,0.24721 -21.825175,0.0584 -23.75,-1.3067 z m 43.772918,-13.50519 c 2.250388,-2.25039 1.76171,-4.05046 -2.03289,-7.48827 -1.811725,-1.64137 -3.924254,-2.04885 -12.092624,-2.33252 L 66.8,278.65259 v 6.0937 6.09371 h 11 c 9.708207,0 11.237563,-0.23756 13.022918,-2.02292 z M 84.55,262.85096 c 2.247742,-1.37047 3.25,-2.73958 3.25,-4.43956 0,-4.08503 -3.39418,-5.5714 -12.722506,-5.5714 H 66.8 v 6 6 l 7.25,-0.004 c 5.462623,-0.003 8.051238,-0.49226 10.5,-1.9853 z M 47.022506,197.2833 c -2.601344,-1.82206 -2.993755,-6.52919 -0.732792,-8.79016 0.819343,-0.81934 2.853927,-1.78934 4.521298,-2.15556 L 53.842596,185.67173 53.571298,166.50587 53.3,147.34 50.8,146.99882 c -5.547406,-0.75705 -8.030916,-7.01089 -4.171259,-10.50383 1.603604,-1.45124 5.050691,-1.65499 28,-1.65499 H 100.8 v 10.27749 c 0,11.7132 -1.20632,14.72251 -5.901716,14.72251 -3.815931,0 -5.898689,-2.65436 -6.278659,-8.00181 L 88.3,147.34 h -11 -11 l -0.297717,6.25 -0.297718,6.25 h 3.36725 c 2.838853,0 3.591723,-0.51 4.797718,-3.25 1.18722,-2.69735 2.051988,-3.30181 5.085449,-3.5547 C 84.545946,152.5692 85.8,155.09832 85.8,166.84 c 0,10.71637 -1.318716,14 -5.622445,14 -3.868567,0 -6.05399,-1.63218 -6.733305,-5.02875 -0.559235,-2.79617 -0.939465,-3.069 -3.882103,-2.78551 L 66.3,173.34 l -0.297717,6.25 -0.297718,6.25 H 78.252283 90.8 v -3.77749 c 0,-5.37033 2.292057,-8.22251 6.60773,-8.22251 3.04213,0 3.68183,0.44877 4.9433,3.46788 0.90238,2.1597 1.44897,6.87504 1.44897,12.5 V 198.84 H 76.522506 c -23.069795,0 -27.620327,-0.24013 -29.5,-1.5567 z M 50.156874,68.57586 C 47.244943,44.42214 46.977076,43.107985 44.450756,40.581666 41.288961,37.41987 41.076336,34.563664 43.8,31.84 c 1.766667,-1.766667 3.333333,-2 13.428571,-2 13.571879,0 15.490186,1.049635 14.620758,8 -0.301891,2.41337 -3.150464,4 -7.181442,4 -2.062419,0 -3.936988,0.3375 -4.165709,0.75 -0.330972,0.596911 1.692034,19.288137 2.29995,21.25 0.08521,0.275 1.618349,-3.775 3.406969,-9 l 3.252036,-9.5 6.468187,-0.291102 6.468186,-0.291103 2.889358,9.041103 c 1.589147,4.972606 3.184189,9.041102 3.544537,9.041102 0.777466,0 2.954583,-19.161097 2.300841,-20.25 -0.247652,-0.4125 -2.191575,-0.75 -4.31983,-0.75 -4.606536,0 -7.012412,-2.05853 -7.012412,-6 0,-5.212839 1.911676,-6 14.571429,-6 10.095241,0 11.661901,0.233333 13.428571,2 2.71911,2.719105 2.51203,5.578883 -0.63161,8.722514 -2.49709,2.497091 -2.77771,3.862087 -5.49003,26.704546 -1.57213,13.240117 -2.86291,24.63544 -2.86839,25.32294 -0.007,0.87881 -2.068108,1.25 -6.940746,1.25 H 84.938449 L 80.661535,80.881023 C 78.309232,73.753585 76.140581,68.159943 75.842311,68.450707 75.54404,68.741471 73.463774,74.460511 71.219499,81.159685 L 67.138997,93.34 l -6.96338,0.28965 -6.963381,0.28965 z" />
  
  </g>


</defs>

<rect />

<path d="M 377.79141,478.93645 c 11.61592,-2.67943 22.15285,-11.04012 27.43448,-21.76828 L 408.5,450.51771 408.79513,268.49647 C 409.01079,135.48314 408.78383,84.868759 407.95218,80.508569 405.10889,65.601899 394.44526,53.767487 380.0685,49.563496 375.78171,48.309972 369.6427,47.975239 350.93982,47.975239 h -23.69718 l -1.25685,-3.034315 C 324.2996,40.870102 316.60396,34.23743 312.12267,32.992662 309.87681,32.368829 285.45514,31.984273 247.86419,31.980816 l -60.63581,-0.0056 -5.36419,2.786742 c -3.7546,1.950546 -6.36621,4.276029 -8.70358,7.75 l -3.33939,4.963258 -25.68659,0.5 -25.68659,0.5 -6.56348,3.233628 c -8.01293,3.947732 -15.932026,11.997562 -19.688676,20.013732 l -2.69588,5.75264 V 263.99625 450.51727 l 3.27411,6.65067 c 5.16449,10.49058 14.657116,18.24854 26.225886,21.43344 5.74468,1.58151 252.00553,1.90035 258.79141,0.33505 z M 122.99353,463.0487 c -7.96243,-2.44684 -14.9495,-9.20898 -16.9097,-16.36532 -0.85543,-3.12299 -1.07932,-50.8827 -0.86825,-185.20814 0.26752,-170.244751 0.3885,-181.190351 2.036,-184.203401 2.75114,-5.03145 8.50281,-10.02491 13.51376,-11.73231 3.61281,-1.231008 9.24023,-1.56429 26.4128,-1.56429 H 169 v 8 8 h -18.11385 c -20.65869,0 -23.77451,0.89812 -27.76826,8.00404 L 121,91.747549 V 264.21351 436.67947 l 2.25,3.30594 c 1.2375,1.81826 3.5205,4.24731 5.07333,5.39788 l 2.82333,2.09195 H 249 366.85334 l 2.82333,-2.09195 c 1.55283,-1.15057 3.83959,-3.5852 5.08169,-5.41028 l 2.25835,-3.31833 L 376.75836,263.38819 376.5,90.121709 l -2.09195,-2.82323 c -1.15057,-1.55278 -3.57962,-3.83574 -5.39788,-5.07324 -3.13183,-2.13151 -4.27243,-2.25 -21.65805,-2.25 H 329 v -8 -8 l 22.25,0.02196 c 20.21746,0.01996 22.66108,0.208042 26.75,2.05895 5.54822,2.51148 9.51599,6.18268 12.34158,11.41909 l 2.15842,4 0.2858,180.500001 c 0.21229,134.07794 -0.011,181.58227 -0.86824,184.70814 -1.44147,5.25625 -6.84416,11.67184 -12.27501,14.57635 l -4.14255,2.21551 -125,0.17185 c -68.75,0.0945 -126.12791,-0.17476 -127.50647,-0.59839 z M 137,263.97524 V 95.975239 h 16.47432 16.47432 l 1.49215,2.8855 c 2.18019,4.216021 9.84181,10.582991 14.36605,11.938481 5.06883,1.51866 119.89173,1.66525 125.31079,0.15999 5.46804,-1.51887 10.05141,-5.01297 13.38237,-10.20196 l 3,-4.673421 16.75,-0.0543 16.75,-0.0543 v 168.000001 168 H 249 137 Z m 112,112 v -40 h -48 -48 v 40 40 h 48 48 z m -80,0 v -24 h 32 32 v 24 24 h -32 -32 z m 144,32 v -8 h -24 -24 v 8 8 h 24 24 z m 0,-32 v -8 h -24 -24 v 8 8 h 24 24 z m 0,-32 v -8 h -24 -24 v 8 8 h 24 24 z m 32,-48 v -8 h -52 -52 v 8 8 h 52 52 z m -147.50236,-32.90142 25.75233,-34.40142 -2.37498,-1.82561 c -1.30625,-1.00408 -4.23765,-3.17811 -6.51424,-4.83118 l -4.13925,-3.00557 -20.75625,27.7326 c -11.41593,15.25293 -20.93156,27.93589 -21.14584,28.18435 -0.21427,0.24847 -2.50183,-1.66049 -5.08346,-4.24212 l -4.69388,-4.69387 -5.77889,5.71859 -5.7789,5.71859 11.23186,11.26382 c 8.73219,8.75703 11.4875,10.98778 12.38051,10.02353 0.63176,-0.68216 12.7372,-16.72093 26.90099,-35.64171 z M 313,263.97524 v -8 h -36 -36 v 8 8 h 36 36 z m 32,0 v -8 h -8 -8 v 8 8 h 8 8 z m 0,-32 v -8 h -52 -52 v 8 8 h 52 52 z m 0,-32 v -8 h -52 -52 v 8 8 h 52 52 z m -147.50236,-32.90142 25.75233,-34.40142 -2.37498,-1.82561 c -1.30625,-1.00408 -4.23765,-3.17811 -6.51424,-4.83118 l -4.13925,-3.00557 -20.75625,27.7326 c -11.41593,15.25293 -20.93156,27.93589 -21.14584,28.18435 -0.21427,0.24847 -2.50183,-1.66049 -5.08346,-4.24212 l -4.69388,-4.69387 -5.77889,5.71859 -5.7789,5.71859 11.23186,11.26382 c 8.73219,8.75703 11.4875,10.98778 12.38051,10.02353 0.63176,-0.68216 12.7372,-16.72093 26.90099,-35.64171 z M 313,167.97524 v -8 h -36 -36 v 8 8 h 36 36 z m 32,0 v -8 h -8 -8 v 8 8 h 8 8 z m 0,-32 v -8 h -52 -52 v 8 8 h 52 52 z M 189.5,94.820509 c -4.28205,-2.3421 -4.5,-3.46002 -4.5,-23.08185 0,-18.684843 0.0221,-18.876394 2.45455,-21.308875 l 2.45454,-2.454545 h 58.85689 c 57.74244,0 58.89811,0.03839 61.03335,2.027677 3.13804,2.923528 3.37101,4.768128 3.01851,23.899543 l -0.31784,17.25045 -2.80576,2.41117 -2.80577,2.41116 -57.69423,-0.0304 c -39.82513,-0.021 -58.31368,-0.36922 -59.69424,-1.12432 z" />

<use id="manifest-web" href="#manifest-type" x="138" y="112" />

</svg>
