<svg xmlns="http://www.w3.org/2000/svg"
     xmlns:xlink="http://www.w3.org/1999/xlink"
     lang="en-GB"
     viewBox="0 0 768 768">

<title>Webmanifest Icon</title>

<defs>
  
  <style type="text/css"><![CDATA[

  rect {
    width: 768px;
    height: 768px;
    fill: rgb(191, 0, 0);
  }

  path {
    fill: rgb(255, 255, 255);
    stroke-width: 1;
  }
  
  #manifest-type rect {
    width: 155px;
    height: 336px;
    fill: rgb(191, 0, 0);
  }
  
  #manifest-type path {
    fill: rgb(255, 255, 255);
  }

  ]]></style>


  <g id="manifest-type">
  
    <rect />
  
    <path d="m 47.05,302.32227 c -4.102577,-2.9095 -2.787776,-8.81965 2.338428,-10.51145 L 52.8,290.6849 V 271.26245 251.84 h -2.428571 c -5.095447,0 -7.58132,-6.8711 -3.742688,-10.34501 1.559263,-1.41112 4.484406,-1.65499 19.850776,-1.65499 18.679495,0 22.425481,0.59869 27.670478,4.42233 6.417995,4.67877 8.680575,15.73474 4.592375,22.44045 l -2.050144,3.36278 3.438204,3.4382 c 8.54184,8.54185 6.64495,22.28376 -3.83043,27.74925 -3.632841,1.89543 -5.973477,2.11351 -25.5,2.37596 -18.392773,0.24721 -21.825175,0.0584 -23.75,-1.3067 z m 43.772918,-13.50519 c 2.250388,-2.25039 1.76171,-4.05046 -2.03289,-7.48827 -1.811725,-1.64137 -3.924254,-2.04885 -12.092624,-2.33252 L 66.8,278.65259 v 6.0937 6.09371 h 11 c 9.708207,0 11.237563,-0.23756 13.022918,-2.02292 z M 84.55,262.85096 c 2.247742,-1.37047 3.25,-2.73958 3.25,-4.43956 0,-4.08503 -3.39418,-5.5714 -12.722506,-5.5714 H 66.8 v 6 6 l 7.25,-0.004 c 5.462623,-0.003 8.051238,-0.49226 10.5,-1.9853 z M 47.022506,197.2833 c -2.601344,-1.82206 -2.993755,-6.52919 -0.732792,-8.79016 0.819343,-0.81934 2.853927,-1.78934 4.521298,-2.15556 L 53.842596,185.67173 53.571298,166.50587 53.3,147.34 50.8,146.99882 c -5.547406,-0.75705 -8.030916,-7.01089 -4.171259,-10.50383 1.603604,-1.45124 5.050691,-1.65499 28,-1.65499 H 100.8 v 10.27749 c 0,11.7132 -1.20632,14.72251 -5.901716,14.72251 -3.815931,0 -5.898689,-2.65436 -6.278659,-8.00181 L 88.3,147.34 h -11 -11 l -0.297717,6.25 -0.297718,6.25 h 3.36725 c 2.838853,0 3.591723,-0.51 4.797718,-3.25 1.18722,-2.69735 2.051988,-3.30181 5.085449,-3.5547 C 84.545946,152.5692 85.8,155.09832 85.8,166.84 c 0,10.71637 -1.318716,14 -5.622445,14 -3.868567,0 -6.05399,-1.63218 -6.733305,-5.02875 -0.559235,-2.79617 -0.939465,-3.069 -3.882103,-2.78551 L 66.3,173.34 l -0.297717,6.25 -0.297718,6.25 H 78.252283 90.8 v -3.77749 c 0,-5.37033 2.292057,-8.22251 6.60773,-8.22251 3.04213,0 3.68183,0.44877 4.9433,3.46788 0.90238,2.1597 1.44897,6.87504 1.44897,12.5 V 198.84 H 76.522506 c -23.069795,0 -27.620327,-0.24013 -29.5,-1.5567 z M 50.156874,68.57586 C 47.244943,44.42214 46.977076,43.107985 44.450756,40.581666 41.288961,37.41987 41.076336,34.563664 43.8,31.84 c 1.766667,-1.766667 3.333333,-2 13.428571,-2 13.571879,0 15.490186,1.049635 14.620758,8 -0.301891,2.41337 -3.150464,4 -7.181442,4 -2.062419,0 -3.936988,0.3375 -4.165709,0.75 -0.330972,0.596911 1.692034,19.288137 2.29995,21.25 0.08521,0.275 1.618349,-3.775 3.406969,-9 l 3.252036,-9.5 6.468187,-0.291102 6.468186,-0.291103 2.889358,9.041103 c 1.589147,4.972606 3.184189,9.041102 3.544537,9.041102 0.777466,0 2.954583,-19.161097 2.300841,-20.25 -0.247652,-0.4125 -2.191575,-0.75 -4.31983,-0.75 -4.606536,0 -7.012412,-2.05853 -7.012412,-6 0,-5.212839 1.911676,-6 14.571429,-6 10.095241,0 11.661901,0.233333 13.428571,2 2.71911,2.719105 2.51203,5.578883 -0.63161,8.722514 -2.49709,2.497091 -2.77771,3.862087 -5.49003,26.704546 -1.57213,13.240117 -2.86291,24.63544 -2.86839,25.32294 -0.007,0.87881 -2.068108,1.25 -6.940746,1.25 H 84.938449 L 80.661535,80.881023 C 78.309232,73.753585 76.140581,68.159943 75.842311,68.450707 75.54404,68.741471 73.463774,74.460511 71.219499,81.159685 L 67.138997,93.34 l -6.96338,0.28965 -6.963381,0.28965 z" />
  
  </g>


</defs>

<rect />

<path d="m 234.42571,708.80568 c -51.44247,-0.70693 -53.1585,-0.79301 -58.39364,-2.92903 -16.37526,-6.68139 -26.7361,-16.40986 -34.97943,-32.84445 l -4.12693,-8.22781 V 385.75375 106.7031 l 3.53456,-7.448389 c 6.58968,-13.88642 17.6104,-25.225716 31.58121,-32.494131 l 7.8101,-4.06326 29.78706,-0.501782 c 16.38289,-0.27598 33.96195,-0.754801 39.06459,-1.064047 l 9.27751,-0.562266 4.03744,-5.945393 c 4.25524,-6.26612 9.18237,-10.404337 17.34748,-14.569862 l 4.93995,-2.520173 92.56005,0.386635 92.56005,0.386635 4.5,2.215235 c 6.68894,3.292792 13.74786,9.821232 17.16378,15.873901 l 3.02714,5.363797 30.15454,0.01733 c 40.45835,0.02325 46.59741,0.699756 58.20185,6.413666 14.4301,7.10524 25.35222,19.739755 30.73501,35.553724 l 2.21768,6.51528 0.27727,277.21568 0.27728,277.21568 -4.65742,9.28432 c -8.20357,16.35341 -24.34489,29.8535 -40.39713,33.78686 -5.53372,1.35595 -257.00888,2.13552 -336.5,1.04314 z m 338.65727,-27.64122 c 6.67735,-4.05628 12.78155,-10.61551 16.04595,-17.24211 l 2.29678,-4.66235 0.26415,-273.33347 0.26416,-273.33346 -3.14655,-5.90353 C 584.89979,99.357981 577.63945,92.453281 570.14378,88.940051 l -5.71807,-2.68005 -34.25,-0.32016 -34.25,-0.32015 v 11.9996 11.999589 l 27.75,0.32056 c 31.73565,0.3666 30.65679,0.1086 39.10424,9.35145 l 5.14576,5.63028 v 260.26938 260.26937 l -2.83611,3.90004 c -1.55987,2.14502 -4.71116,5.58754 -7.00288,7.65004 l -4.16677,3.75 H 376.42571 198.93147 l -4.16677,-3.75 c -2.29172,-2.0625 -5.44301,-5.50502 -7.00288,-7.65004 l -2.83611,-3.90004 V 385.82867 126.19742 l 3.50826,-5.60868 c 5.97969,-9.55981 11.05304,-10.74428 46.24174,-10.79602 l 22.25,-0.0327 V 97.679971 85.599931 l -34.25,0.38674 c -38.29395,0.43241 -38.73703,0.50322 -48.29285,7.71793 -7.42641,5.607 -11.12452,11.661729 -12.13411,19.866569 -0.45267,3.67886 -0.82304,127.96383 -0.82304,276.18883 v 269.5 l 2.2009,4.76612 c 2.80935,6.08373 11.3614,14.62822 17.7991,17.78336 4.95815,2.43001 5.31387,2.45557 42.5,3.05409 20.625,0.33197 106.32883,0.42157 190.45295,0.19912 l 152.95296,-0.40446 z M 557.92571,385.76 v -265 h -30.5 -30.5 l -0.009,6.75 c -0.008,5.6318 -0.49697,7.60012 -2.9527,11.88176 -3.33514,5.81492 -10.47294,12.38119 -16.84518,15.4964 -4.22175,2.06389 -5.67103,2.11492 -73,2.5703 -37.78101,0.25553 -80.87731,0.0663 -95.76955,-0.42041 l -27.07681,-0.88502 -4.7978,-2.81169 c -6.50299,-3.81101 -12.3085,-9.17716 -15.71653,-14.52712 -2.44552,-3.83841 -2.83243,-5.44367 -2.83243,-11.75 V 119.76 h -31.5 -31.5 v 265.5 265.5 h 181.5 181.5 z m -325,168 v -60 h 71.5 71.5 v 60 60 h -71.5 -71.5 z m 120,0 v -36 h -48.5 -48.5 v 36 36 h 48.5 48.5 z m 48,48 v -12 h 35.5 35.5 v 12 12 h -35.5 -35.5 z m 0,-48 v -12 h 35.5 35.5 v 12 12 h -35.5 -35.5 z m 0,-48 v -12 h 35.5 35.5 v 12 12 h -35.5 -35.5 z m -36,-72 v -12 h 77.5 77.5 v 12 12 h -77.5 -77.5 z m -125.29855,-11.88091 -16.20145,-16.04626 8.42974,-8.48798 8.42974,-8.48799 6.83901,6.45157 c 3.76145,3.54836 7.22468,6.45157 7.69606,6.45157 0.47138,0 14.86489,-18.675 31.98558,-41.5 17.12069,-22.825 31.36741,-41.5 31.65937,-41.5 1.35996,0 18.45587,13.29886 18.42145,14.33 -0.0723,2.16668 -77.43102,104.16197 -79.2595,104.50144 -1.21853,0.22622 -7.02335,-4.84085 -18,-15.71235 z M 364.92571,385.76 v -12 h 53.5 53.5 v 12 12 h -53.5 -53.5 z m 132,0 v -12 h 11.5 11.5 v 12 12 h -11.5 -11.5 z m -132,-48 v -12 h 77.5 77.5 v 12 12 h -77.5 -77.5 z m 0,-48 v -12 h 77.5 77.5 v 12 12 h -77.5 -77.5 z m -125.29855,-11.88091 -16.20145,-16.04626 8.42974,-8.48798 8.42974,-8.48799 6.83901,6.45157 c 3.76145,3.54836 7.22468,6.45157 7.69606,6.45157 0.47138,0 14.86489,-18.675 31.98558,-41.5 17.12069,-22.825 31.36741,-41.5 31.65937,-41.5 1.35875,0 18.45611,13.29856 18.42344,14.33 -0.0684,2.15797 -77.43112,104.15086 -79.26149,104.49611 -1.22168,0.23043 -6.99496,-4.8074 -18,-15.70702 z M 364.92571,241.76 v -12 h 53.5 53.5 v 12 12 h -53.5 -53.5 z m 132,0 v -12 h 11.5 11.5 v 12 12 h -11.5 -11.5 z m -132,-48 v -12 h 77.5 77.5 v 12 12 h -77.5 -77.5 z m 102.7429,-63.77984 4.2429,-3.72016 0.1859,-26.999999 c 0.20277,-29.448734 -0.0187,-30.855854 -5.49442,-34.910066 -2.80595,-2.077522 -3.34662,-2.091632 -91.02869,-2.375647 l -88.20598,-0.285712 -2.80485,2.927628 c -3.55582,3.711487 -4.58053,10.836222 -4.55112,31.643797 0.0314,22.216769 1.0483,30.088409 4.30893,33.354689 2.38845,2.39259 3.57047,2.69994 12.37258,3.2171 5.35252,0.31448 45.05685,0.63855 88.23185,0.72015 l 78.5,0.14838 z" />

<use id="manifest-web" href="#manifest-type" x="207" y="158" />

</svg>
