<svg xmlns="http://www.w3.org/2000/svg"
     xmlns:xlink="http://www.w3.org/1999/xlink"
     lang="en-GB"
     viewBox="0 0 512 512">

<title>WebManifest Icon</title>

<defs>
<style type="text/css"><![CDATA[

rect:nth-of-type(1) {
  width: 512px;
  height: 512px;
  fill: rgb(191, 0, 0);
}

path {
  fill: rgb(255, 255, 255);
  stroke-width: 1;
}

rect:nth-of-type(2) {
  width: 100px;
  height: 182px;
  fill: rgb(191, 0, 0);
}

text {
  fill: rgb(255, 255, 255);
  stroke: rgb(255, 255, 255);
  stroke-width: 2px;
  font-size: 70px;
  font-family: courier;
  font-weight: 900;
  writing-mode: vertical-lr;
  text-orientation: upright;
}

]]></style>

</defs>

<rect />

<path d="M 377.79141,478.93645 c 11.61592,-2.67943 22.15285,-11.04012 27.43448,-21.76828 L 408.5,450.51771 408.79513,268.49647 C 409.01079,135.48314 408.78383,84.868759 407.95218,80.508569 405.10889,65.601899 394.44526,53.767487 380.0685,49.563496 375.78171,48.309972 369.6427,47.975239 350.93982,47.975239 h -23.69718 l -1.25685,-3.034315 C 324.2996,40.870102 316.60396,34.23743 312.12267,32.992662 309.87681,32.368829 285.45514,31.984273 247.86419,31.980816 l -60.63581,-0.0056 -5.36419,2.786742 c -3.7546,1.950546 -6.36621,4.276029 -8.70358,7.75 l -3.33939,4.963258 -25.68659,0.5 -25.68659,0.5 -6.56348,3.233628 c -8.01293,3.947732 -15.932026,11.997562 -19.688676,20.013732 l -2.69588,5.75264 V 263.99625 450.51727 l 3.27411,6.65067 c 5.16449,10.49058 14.657116,18.24854 26.225886,21.43344 5.74468,1.58151 252.00553,1.90035 258.79141,0.33505 z M 122.99353,463.0487 c -7.96243,-2.44684 -14.9495,-9.20898 -16.9097,-16.36532 -0.85543,-3.12299 -1.07932,-50.8827 -0.86825,-185.20814 0.26752,-170.244751 0.3885,-181.190351 2.036,-184.203401 2.75114,-5.03145 8.50281,-10.02491 13.51376,-11.73231 3.61281,-1.231008 9.24023,-1.56429 26.4128,-1.56429 H 169 v 8 8 h -18.11385 c -20.65869,0 -23.77451,0.89812 -27.76826,8.00404 L 121,91.747549 V 264.21351 436.67947 l 2.25,3.30594 c 1.2375,1.81826 3.5205,4.24731 5.07333,5.39788 l 2.82333,2.09195 H 249 366.85334 l 2.82333,-2.09195 c 1.55283,-1.15057 3.83959,-3.5852 5.08169,-5.41028 l 2.25835,-3.31833 L 376.75836,263.38819 376.5,90.121709 l -2.09195,-2.82323 c -1.15057,-1.55278 -3.57962,-3.83574 -5.39788,-5.07324 -3.13183,-2.13151 -4.27243,-2.25 -21.65805,-2.25 H 329 v -8 -8 l 22.25,0.02196 c 20.21746,0.01996 22.66108,0.208042 26.75,2.05895 5.54822,2.51148 9.51599,6.18268 12.34158,11.41909 l 2.15842,4 0.2858,180.500001 c 0.21229,134.07794 -0.011,181.58227 -0.86824,184.70814 -1.44147,5.25625 -6.84416,11.67184 -12.27501,14.57635 l -4.14255,2.21551 -125,0.17185 c -68.75,0.0945 -126.12791,-0.17476 -127.50647,-0.59839 z M 137,263.97524 V 95.975239 h 16.47432 16.47432 l 1.49215,2.8855 c 2.18019,4.216021 9.84181,10.582991 14.36605,11.938481 5.06883,1.51866 119.89173,1.66525 125.31079,0.15999 5.46804,-1.51887 10.05141,-5.01297 13.38237,-10.20196 l 3,-4.673421 16.75,-0.0543 16.75,-0.0543 v 168.000001 168 H 249 137 Z m 112,112 v -40 h -48 -48 v 40 40 h 48 48 z m -80,0 v -24 h 32 32 v 24 24 h -32 -32 z m 144,32 v -8 h -24 -24 v 8 8 h 24 24 z m 0,-32 v -8 h -24 -24 v 8 8 h 24 24 z m 0,-32 v -8 h -24 -24 v 8 8 h 24 24 z m 32,-48 v -8 h -52 -52 v 8 8 h 52 52 z m -147.50236,-32.90142 25.75233,-34.40142 -2.37498,-1.82561 c -1.30625,-1.00408 -4.23765,-3.17811 -6.51424,-4.83118 l -4.13925,-3.00557 -20.75625,27.7326 c -11.41593,15.25293 -20.93156,27.93589 -21.14584,28.18435 -0.21427,0.24847 -2.50183,-1.66049 -5.08346,-4.24212 l -4.69388,-4.69387 -5.77889,5.71859 -5.7789,5.71859 11.23186,11.26382 c 8.73219,8.75703 11.4875,10.98778 12.38051,10.02353 0.63176,-0.68216 12.7372,-16.72093 26.90099,-35.64171 z M 313,263.97524 v -8 h -36 -36 v 8 8 h 36 36 z m 32,0 v -8 h -8 -8 v 8 8 h 8 8 z m 0,-32 v -8 h -52 -52 v 8 8 h 52 52 z m 0,-32 v -8 h -52 -52 v 8 8 h 52 52 z m -147.50236,-32.90142 25.75233,-34.40142 -2.37498,-1.82561 c -1.30625,-1.00408 -4.23765,-3.17811 -6.51424,-4.83118 l -4.13925,-3.00557 -20.75625,27.7326 c -11.41593,15.25293 -20.93156,27.93589 -21.14584,28.18435 -0.21427,0.24847 -2.50183,-1.66049 -5.08346,-4.24212 l -4.69388,-4.69387 -5.77889,5.71859 -5.7789,5.71859 11.23186,11.26382 c 8.73219,8.75703 11.4875,10.98778 12.38051,10.02353 0.63176,-0.68216 12.7372,-16.72093 26.90099,-35.64171 z M 313,167.97524 v -8 h -36 -36 v 8 8 h 36 36 z m 32,0 v -8 h -8 -8 v 8 8 h 8 8 z m 0,-32 v -8 h -52 -52 v 8 8 h 52 52 z M 189.5,94.820509 c -4.28205,-2.3421 -4.5,-3.46002 -4.5,-23.08185 0,-18.684843 0.0221,-18.876394 2.45455,-21.308875 l 2.45454,-2.454545 h 58.85689 c 57.74244,0 58.89811,0.03839 61.03335,2.027677 3.13804,2.923528 3.37101,4.768128 3.01851,23.899543 l -0.31784,17.25045 -2.80576,2.41117 -2.80577,2.41116 -57.69423,-0.0304 c -39.82513,-0.021 -58.31368,-0.36922 -59.69424,-1.12432 z" />

<rect x="139" y="122" />

<text x="190" y="120">WEB</text>

</svg>
