<svg xmlns="http://www.w3.org/2000/svg"
     xmlns:xlink="http://www.w3.org/1999/xlink"
     lang="en-GB"
     viewBox="0 0 200 200">

<title>Vibrate Icon</title>

<defs>

  <style><![CDATA[

  rect {
    width: 200px;
    height: 200px;
    fill: rgb(191, 0, 0);
  }

  path {
    fill: rgb(255, 255, 255);
    transform: translate(-50px, -50px)
  }

  ]]></style>

</defs>

<rect />

<path d="m 111.5,238.28897 c -3.9954,-1.04378 -7.16523,-4.22806 -8.44375,-8.48225 -1.01597,-3.38057 -1.25874,-20.43529 -1.12891,-79.30672 0.18343,-83.173311 -0.10895,-79.523576 6.73555,-84.078443 C 112.26935,64.021537 124.90948,63 151,63 c 26.09052,0 38.73065,1.021537 42.33711,3.421557 6.8445,4.554867 6.55212,0.905132 6.73555,84.078443 0.18121,82.16969 0.20901,81.73579 -5.49794,85.80672 -3.02907,2.16072 -3.65369,2.19559 -42.07472,2.34901 -21.45,0.0856 -39.9,-0.0794 -41,-0.36676 z m 43.84268,-9.39924 c 4.15039,-1.89105 5.84136,-7.79809 3.49398,-12.20547 -1.76575,-3.31531 -3.97961,-4.62065 -7.83666,-4.62065 -11.70609,0 -11.99717,17.50925 -0.29705,17.86871 1.21162,0.0372 3.2995,-0.43194 4.63973,-1.04259 z M 189,145 V 90 h -38 -38 v 55 55 h 38 38 z M 161.69053,80.364077 c 0.34527,-0.899757 0.1696,-2.362257 -0.39037,-3.25 -1.49137,-2.364312 -19.10895,-2.364312 -20.60032,0 -0.55997,0.887743 -0.73564,2.350243 -0.39037,3.25 0.93363,2.432995 20.44743,2.432995 21.38106,0 z M 75.718697,171.221 C 72.573413,168.04255 70,165.08579 70,164.65041 c 0,-0.43538 1.881187,-3.02257 4.180415,-5.74932 l 4.180416,-4.95773 -4.180416,-4.25953 C 71.881187,147.34109 70,144.91615 70,144.29508 c 0,-0.62106 1.9125,-2.71989 4.25,-4.66406 l 4.25,-3.53485 -4.25,-4.33594 C 71.9125,129.37547 70,126.97596 70,126.42799 c 0,-1.2203 10.778533,-11.98663 11.38228,-11.3694 0.237468,0.24278 -1.787794,2.88938 -4.500583,5.88135 l -4.932344,5.43994 4.514808,4.58373 4.514808,4.58374 -4.695876,4.69587 -4.695877,4.69588 4.885445,4.48532 4.885444,4.48533 -4.777532,5.10756 c -5.230117,5.59142 -5.24473,5.2411 0.45653,10.9449 3.692957,3.6946 6.237193,7.03779 5.355908,7.03779 -0.52559,0 -3.529031,-2.60055 -6.674314,-5.779 z m 5.717627,0.029 c -2.965897,-3.1625 -5.402392,-6.32255 -5.414432,-7.02234 -0.01204,-0.69979 1.886875,-3.34311 4.219811,-5.87405 l 4.241704,-4.60171 -4.241704,-3.65322 C 77.908767,148.08941 76,145.7053 76,144.80066 c 0,-0.90465 1.887898,-3.26078 4.195329,-5.23586 l 4.19533,-3.59104 -4.19533,-4.27473 C 77.887898,129.34793 76,127.03985 76,126.56996 76,124.5084 85.278097,115 87.289731,115 c 1.820981,0 1.441817,0.70385 -2.577323,4.78435 C 82.120584,122.41574 80,125.21121 80,125.9965 c 0,0.78529 1.800886,3.26277 4.00197,5.50551 l 4.00197,4.07771 -4.505698,4.42201 -4.505697,4.422 4.714032,4.786 4.714032,4.786 -4.210305,4.28999 C 81.894637,160.64521 80,163.25248 80,164.07964 c 0,0.82717 2.025,3.49133 4.5,5.92036 4.341326,4.26069 5.677496,7 3.414432,7 -0.597062,0 -3.51221,-2.5875 -6.478108,-5.75 z M 212,175.70821 c 0,-0.71049 2.025,-3.27918 4.5,-5.70821 2.475,-2.42903 4.5,-5.09319 4.5,-5.92036 0,-0.82716 -1.89464,-3.43443 -4.2103,-5.79392 l -4.21031,-4.28999 4.71403,-4.786 4.71404,-4.786 -4.5057,-4.422 -4.5057,-4.42201 4.00197,-4.07771 C 219.19911,129.25927 221,126.78179 221,125.9965 c 0,-0.78529 -2.12058,-3.58076 -4.71241,-6.21215 C 212.26845,115.70385 211.88929,115 213.71027,115 215.7219,115 225,124.5084 225,126.56996 c 0,0.46989 -1.8879,2.77797 -4.19533,5.12907 l -4.19533,4.27473 4.19533,3.59104 c 2.30743,1.97508 4.19533,4.33121 4.19533,5.23586 0,0.90464 -1.90877,3.28875 -4.2417,5.29802 l -4.24171,3.65322 4.24171,4.60171 c 2.33293,2.53094 4.23185,5.17426 4.21981,5.87405 C 224.95053,165.8304 214.55033,177 213.08557,177 212.48851,177 212,176.41869 212,175.70821 Z m 8.03858,-1.45821 c 1.31297,-1.5125 3.07891,-3.442 3.92432,-4.28779 5.70126,-5.7038 5.68664,-5.35348 0.45653,-10.9449 l -4.77753,-5.10756 4.87285,-4.47377 4.87285,-4.47376 -4.68328,-4.75478 -4.68329,-4.75479 4.52506,-4.52506 4.52506,-4.52506 -4.9426,-5.45126 c -2.71842,-2.9982 -4.7483,-5.6499 -4.51083,-5.89268 0.60375,-0.61723 11.38228,10.1491 11.38228,11.3694 0,0.54797 -1.9125,2.94748 -4.25,5.33224 l -4.25,4.33594 4.25,3.53485 c 2.3375,1.94417 4.25,4.043 4.25,4.66406 0,0.62107 -1.88119,3.04601 -4.18042,5.38875 l -4.18041,4.25953 4.18041,4.95773 C 229.11881,161.62784 231,164.24217 231,164.71071 231,165.84242 219.69351,177 218.54669,177 c -0.49243,0 0.17893,-1.2375 1.49189,-2.75 z M 88.21584,170.71855 C 85.347128,167.81376 83,164.79329 83,164.00641 c 0,-0.78689 1.893694,-3.36024 4.208208,-5.71856 L 91.416416,154 87.208208,149.71215 C 84.893694,147.35383 83,144.97016 83,144.4151 c 0,-0.55506 1.802075,-2.76888 4.004611,-4.9196 l 4.004611,-3.9104 -4.004611,-4.0804 C 84.802075,129.26048 83,126.75096 83,125.92799 c 0,-2.4141 10.588169,-12.3 12.420623,-11.59682 2.389292,0.91685 1.978288,1.86091 -2.890429,6.6392 l -4.469806,4.38678 4.459208,4.76725 c 2.617983,2.79884 4.231601,5.36039 3.907973,6.20376 -0.303179,0.79007 -2.365105,2.89416 -4.582056,4.67575 l -4.030822,3.23925 4.766304,4.83907 4.766304,4.83907 -4.797665,5.12909 -4.797665,5.12909 4.742172,4.81457 C 96.875222,173.44202 97.664852,176 94.656823,176 c -0.673829,0 -3.572271,-2.37665 -6.440983,-5.28145 z m 116.22502,4.18576 c -0.37245,-0.60263 1.4568,-3.26225 4.065,-5.91026 l 4.74217,-4.81457 -4.79766,-5.12909 -4.79767,-5.12909 4.7663,-4.83907 4.76631,-4.83907 -4.03082,-3.23925 c -2.21695,-1.78159 -4.27888,-3.88568 -4.58206,-4.67575 -0.32363,-0.84337 1.28999,-3.40492 3.90797,-6.20376 l 4.45921,-4.76725 -4.4698,-4.38678 c -4.86872,-4.77829 -5.27972,-5.72235 -2.89043,-6.6392 1.83245,-0.70318 12.42062,9.18272 12.42062,11.59682 0,0.82297 -1.80207,3.33249 -4.00461,5.57671 l -4.00461,4.0804 4.00461,3.9104 c 2.20254,2.15072 4.00461,4.36454 4.00461,4.9196 0,0.55506 -1.89369,2.93873 -4.20821,5.29705 L 209.58358,154 l 4.20821,4.28785 C 216.10631,160.64617 218,163.24904 218,164.07201 218,165.81533 207.99085,176 206.27757,176 c -0.63774,0 -1.46426,-0.49306 -1.83671,-1.09569 z" />

</svg>
