<svg xmlns="http://www.w3.org/2000/svg"
     xmlns:xlink="http://www.w3.org/1999/xlink"
     lang="en-GB"
     viewBox="0 0 200 200">

<title>Vibrate Off Icon</title>

<defs>

  <style><![CDATA[

  rect {
    width: 200px;
    height: 200px;
    fill: rgb(191, 0, 0);
  }

  path {
    fill: rgb(255, 255, 255);
    transform: translate(-50px, -50px)
  }

  ]]></style>

</defs>

<rect />

<path d="m 111.5,238.28897 c -3.9954,-1.04378 -7.16523,-4.22806 -8.44375,-8.48225 -1.01597,-3.38057 -1.25874,-20.43529 -1.12891,-79.30672 0.18343,-83.173311 -0.10895,-79.523576 6.73555,-84.078443 C 112.26935,64.021537 124.90948,63 151,63 c 26.09052,0 38.73065,1.021537 42.33711,3.421557 6.8445,4.554867 6.55212,0.905132 6.73555,84.078443 0.18121,82.16969 0.20901,81.73579 -5.49794,85.80672 -3.02907,2.16072 -3.65369,2.19559 -42.07472,2.34901 -21.45,0.0856 -39.9,-0.0794 -41,-0.36676 z m 43.84268,-9.39924 c 4.15039,-1.89105 5.84136,-7.79809 3.49398,-12.20547 -1.76575,-3.31531 -3.97961,-4.62065 -7.83666,-4.62065 -11.70609,0 -11.99717,17.50925 -0.29705,17.86871 1.21162,0.0372 3.2995,-0.43194 4.63973,-1.04259 z M 189,145 V 90 h -38 -38 v 55 55 h 38 38 z M 161.69053,80.364077 c 0.34527,-0.899757 0.1696,-2.362257 -0.39037,-3.25 -1.49137,-2.364312 -19.10895,-2.364312 -20.60032,0 -0.55997,0.887743 -0.73564,2.350243 -0.39037,3.25 0.93363,2.432995 20.44743,2.432995 21.38106,0 z" />

</svg>
