<svg xmlns="http://www.w3.org/2000/svg"
     xmlns:xlink="http://www.w3.org/1999/xlink"
     lang="en-GB"
     viewBox="0 0 1706.66 1054.77">

  <title>Threadless</title>

  <defs>

    <style><![CDATA[

      rect {
        width: 1706.66px;
        height: 1054.77px;
        fill: rgb(250, 96, 0);
      }

      path {
        fill: rgb(0, 0, 0);
        stroke: rgb(191, 0, 0);
        stroke-width: 1px;
        transform: translateY(240px);
      }

    ]]></style>

  </defs>

  <rect />

  <path d="m 152.81314,546.82221 c -7.47231,-40.9172 -10.72868,-76.13724 -9.3999,-101.66667 0.79979,-15.36594 4.59484,-42.99501 6.63648,-48.31542 0.76159,-1.98468 0.0912,-2.16435 -5.5922,-1.49865 -8.63369,1.01124 -20.53808,-1.34834 -30.63102,-6.07139 -9.82783,-4.599 -13.60501,-9.28041 -11.39732,-14.12576 2.88829,-6.33911 17.58703,-14.827 39.07852,-22.56617 l 10.17437,-3.66384 1.49229,-11.63635 c 1.92719,-15.02739 1.78858,-29.9405 -0.41012,-44.12241 -0.96638,-6.23333 -1.33666,-11.80035 -0.82284,-12.37115 1.32236,-1.46898 34.4023,-14.91602 78.0586,-31.73092 l 37.33334,-14.37952 4.15584,-20.42586 c 4.4548,-21.89528 11.57547,-45.10827 15.04636,-49.05028 1.59271,-1.80889 74.74845,-31.40397 127.36261,-51.5244 2.15518,-0.82417 2.38968,-0.57118 1.46827,1.58399 -4.44056,10.38645 -10.3488,30.70126 -13.16215,45.25649 -6.30032,32.59563 -8.68508,58.22116 -13.5226,145.30832 -4.79585,86.33711 -8.94882,135.00923 -13.50986,158.33332 -0.9581,4.8995 -2.87082,4.68615 -16.31112,-1.81933 -14.92474,-7.224 -33.13699,-24.89852 -40.6468,-39.44669 -11.9816,-23.21104 -13.62704,-50.91041 -4.67704,-78.73397 l 2.68057,-8.33334 6.22463,-0.0264 c 15.50796,-0.0658 45.55796,-7.58312 45.55796,-11.39678 0,-3.62547 -2.98323,-9.40211 -7.01314,-13.58005 -8.32006,-8.62568 -26.8212,-12.19094 -39.69388,-7.64919 -3.13993,1.10783 -5.88182,1.84136 -6.0931,1.63008 -0.21128,-0.21128 0.81973,-4.86769 2.29114,-10.34757 3.62199,-13.48914 3.0604,-34.01939 -1.15133,-42.08966 -5.35593,-10.2627 -15.54501,-17.06574 -28.6664,-19.13996 l -6.51248,-1.02948 1.08625,8.81451 c 1.96635,15.95592 1.17942,46.43927 -1.5097,58.48117 l -2.45644,11 h -11.09044 c -13.53594,0 -23.13318,3.22036 -31.36333,10.52399 -5.6895,5.04898 -5.71142,5.10325 -3.45305,8.54996 5.49916,8.39277 24.83615,15.15453 39.43874,13.79092 l 8.48416,-0.79227 -0.79476,3.63037 c -5.19851,23.74644 -6.49007,35.51928 -6.54187,59.63036 -0.0299,13.93333 0.66495,31.63333 1.54417,39.33333 1.70019,14.88986 7.73371,53.74588 8.9578,57.68852 0.5756,1.85393 3.36758,-0.41279 13.1184,-10.65044 l 12.38719,-13.00562 9.83421,6.5393 c 24.4625,16.26645 35.7566,21.02791 49.86452,21.02224 10.95436,-0.004 20.55662,-3.20476 32.20552,-10.73381 21.54928,-13.92797 33.67137,-40.04789 52.99645,-114.19352 12.06617,-46.29496 15.85877,-56.66666 20.72118,-56.66666 3.34108,0 5.43052,9.07522 17.27324,75.02389 9.81803,54.67373 10.55615,57.16504 19.0556,64.31686 7.22767,6.08168 14.5601,9.07046 22.41468,9.13647 14.61136,0.1228 28.9128,-7.41607 35.57752,-18.75435 l 3.75582,-6.38954 -0.2241,-50.33132 -0.22409,-50.33132 2.89076,0.72652 c 1.58992,0.39957 7.09076,1.78537 12.22409,3.07956 l 9.33334,2.35304 0.85235,21.25176 c 0.4688,11.68847 1.53928,25.45176 2.37885,30.58509 7.06513,43.1978 24.58191,64.34191 49.10197,59.26991 12.8456,-2.65714 27.29818,-10.95715 44.90483,-25.78854 l 6.15556,-5.18529 10.05007,2.98353 c 20.42374,6.06315 40.65066,4.75832 58.61407,-3.78116 9.98714,-4.7477 20.7204,-13.20661 24.48361,-19.29561 l 2.89161,-4.67872 7.45471,3.29683 c 30.66167,13.56004 60.82996,6.08389 73.09153,-18.11315 l 3.31224,-6.5364 7.81807,7.81807 c 13.01972,13.01972 26.51109,15.10973 43.5572,6.74763 4.4,-2.15846 11.13012,-7.04368 14.95583,-10.85606 l 6.95584,-6.93158 4.71829,3.59881 c 2.59506,1.97935 8.68263,5.45396 13.52795,7.72135 11.33057,5.30222 23.14624,5.68318 32.92054,1.06142 7.009,-3.31418 17.1868,-12.7313 20.3309,-18.81145 2.4915,-4.81785 3.4437,-4.82132 6.2782,-0.0228 3.3657,5.69767 16.2739,18.16992 22.7067,21.9398 14.6931,8.6107 28.6779,9.35034 43.0466,2.27668 7.578,-3.73063 19.3365,-14.35001 22.8329,-20.62084 1.378,-2.47148 1.6141,-2.42332 5.9141,1.20597 6.4391,5.4348 18.8338,10.96875 30.2619,13.51126 18.7123,4.16309 43.3599,0.48288 57.6988,-8.61523 l 6.1486,-3.90128 11.1847,3.26879 c 13.1437,3.84125 30.2604,4.40349 40.2098,1.32077 9.1146,-2.82405 18.6364,-9.35237 26.8026,-18.37628 3.902,-4.31185 7.4857,-7.83972 7.9637,-7.83972 0.4781,0 3.7248,2.05151 7.2149,4.55892 30.313,21.77771 60.2712,20.2514 89.8134,-4.57579 l 6.1528,-5.17086 11.8472,5.09374 c 31.7206,13.63846 67.3047,15.82706 100.4858,6.18036 5.882,-1.71009 10.6921,-2.7291 10.6889,-2.26448 -0.013,1.54546 -101.0335,40.60692 -135.9943,52.58345 -29.0109,9.93831 -61.4829,9.87543 -91.538,-0.17725 l -11.4183,-3.81913 -9.5218,3.89048 c -32.8896,13.4382 -69.4307,16.53078 -88.1077,7.45684 l -5.5748,-2.70846 -13.9197,6.03794 c -22.2587,9.65513 -29.9776,11.86534 -43.9576,12.58674 -8.9533,0.462 -16.0995,-0.0181 -24.2017,-1.62582 -8.417,-1.67019 -12.2016,-1.90439 -14.1265,-0.8742 -5.5883,2.99077 -31.1902,9.33037 -41.2093,10.20434 -12.579,1.09728 -27.2377,-0.91954 -37.8558,-5.20838 l -7.5747,-3.05954 -21.16368,7.99854 c -20.52869,7.75852 -21.56381,8.00194 -34.49707,8.11221 -11.69269,0.0997 -14.23667,-0.31009 -20.67472,-3.33031 -4.03776,-1.89418 -10.81835,-6.276 -15.06797,-9.73737 l -7.72658,-6.29339 -10.29818,3.97142 c -21.83246,8.41948 -43.87134,10.07021 -56.98728,4.26841 l -6.018,-2.66205 -10.94696,4.37832 c -16.80568,6.72153 -27.27586,9.24536 -38.94698,9.38816 -7.5418,0.0923 -11.9279,-0.51903 -14.97188,-2.08662 -4.20343,-2.16469 -4.58171,-2.10781 -16,2.40588 -25.20257,9.96268 -45.22224,13.80642 -59.69479,11.46127 -6.1609,-0.99832 -7.98162,-0.55593 -24,5.83131 -31.45556,12.54273 -49.7978,16.92332 -68.66666,16.39933 -9.43938,-0.26213 -11.12687,0.17629 -30.10042,7.82045 -35.02405,14.11063 -46.35792,17.63216 -56.74841,17.63216 -11.22006,0 -17.18008,-2.67756 -25.66122,-11.52841 l -5.92358,-6.18179 -8.44986,3.44215 c -4.64741,1.89317 -15.99576,6.73457 -25.21853,10.75865 -20.11196,8.77525 -30.97402,11.80952 -42.56466,11.89024 -10.51098,0.0732 -16.45036,-2.283 -24.53146,-9.73191 l -6.02583,-5.55441 -56.10877,22.25436 c -30.85983,12.23989 -59.23444,23.08651 -63.0547,24.10357 -16.52597,4.39975 -33.14907,1.51807 -50.82395,-8.81054 l -9.03136,-5.27762 -20.4636,7.98452 c -11.25498,4.39148 -20.73804,7.98452 -21.07345,7.98452 -0.33541,0 -1.5686,-5.25 -2.74041,-11.66666 z m 379.05423,-104.59532 -4.35011,-4.40468 0.30899,-24 c 0.48536,-37.69902 -2.51303,-67.88893 -8.38204,-84.39652 l -2.03716,-5.72984 6.29648,-2.74065 c 9.80237,-4.26665 16.64847,-6.55877 17.38623,-5.82101 2.47036,2.47034 9.59378,68.65825 10.40598,96.68802 0.6422,22.16297 0.46723,25.14033 -1.72382,29.33333 -2.11612,4.0496 -3.1735,4.72018 -7.99651,5.07135 -4.79213,0.34893 -6.15729,-0.2022 -9.90804,-4 z m 110.6026,-11.75869 c -6.32353,-3.34096 -14.71442,-13.10858 -13.78273,-16.04411 2.72431,-8.58351 4.60324,-22.69574 4.62296,-34.72193 0.0281,-17.14933 -3.05497,-30.44156 -10.62501,-45.80797 -5.31279,-10.78444 -13.80776,-23.40531 -15.75386,-23.40531 -0.57352,0 -3.56825,2.5733 -6.65497,5.71843 l -5.6122,5.71841 -11.31787,-2.71841 c -6.22483,-1.49514 -11.32427,-3.16294 -11.33208,-3.70623 -0.0236,-1.63689 26.02056,-13.67341 49.3745,-22.81886 33.01357,-12.9282 81.56185,-30.3539 82.35546,-29.56028 0.38516,0.38514 0.45028,0.86218 0.14474,1.06006 -11.07168,7.17015 -17.2972,12.13827 -23.20058,18.51462 -28.28097,30.54682 -37.01866,80.80318 -20.04589,115.2975 2.70003,5.48735 6.99407,11.59856 10.15853,14.45746 l 5.48152,4.95223 -4.47457,4.70581 c -5.03655,5.29683 -16.10705,11.0433 -21.14124,10.97398 -1.83333,-0.0252 -5.52185,-1.20219 -8.19671,-2.6154 z m 89.19671,-22.03752 c -3.48333,-1.11238 -6.33333,-2.36618 -6.33333,-2.78624 0,-0.42007 2.79026,-3.85191 6.2006,-7.62632 11.75258,-13.00729 20.46606,-37.1428 20.46606,-56.68907 0,-27.48672 -13.10897,-53.92133 -34.54234,-69.65563 l -4.54236,-3.33456 61.87569,-21.59724 c 34.03163,-11.87848 62.44039,-21.59474 63.13058,-21.59166 0.6902,0.003 -2.3098,2.14436 -6.66667,4.7584 -9.38636,5.63168 -14.78021,10.5726 -22.72328,20.81516 -13.03836,16.81296 -23.33843,42.10002 -27.87411,68.43203 -2.52561,14.66246 -3.29698,45.04333 -1.6097,63.39856 0.97832,10.64268 0.84226,11.70369 -2.0516,16 -5.23291,7.76887 -13.05943,11.11314 -26.99621,11.53545 -7.97486,0.24164 -14.12437,-0.31479 -18.33333,-1.65888 z m -36.40932,-25.26413 c -8.87653,-9.41187 -13.35223,-30.16407 -9.99419,-46.33962 2.00799,-9.67246 8.07652,-21.83309 14.51722,-29.09086 4.36908,-4.92333 5.51846,-5.54493 8.75222,-4.73331 7.96991,2.00032 14.32918,13.05641 16.193,28.15279 1.0002,8.10121 -2.00404,23.42913 -6.48836,33.10433 -3.80206,8.20319 -14.93377,23.56233 -17.07705,23.56233 -0.83159,0 -3.48787,-2.09505 -5.90284,-4.65566 z m 129.26015,0.68224 c -4.06877,-1.64396 -8.00301,-7.1679 -10.75592,-15.10202 -2.93079,-8.44677 -3.24143,-37.11661 -0.53732,-49.59122 5.08811,-23.47245 13.89191,-41.4308 23.101,-47.12233 2.56089,-1.58272 5.22565,-2.87767 5.92168,-2.87767 0.69604,0 3.24419,9.15 5.66256,20.33333 2.41837,11.18334 7.32808,30.60581 10.91044,43.16105 3.58237,12.55526 6.50023,23.95526 6.48412,25.33334 -0.0928,7.9368 -9.81013,20.37817 -19.27447,24.6775 -5.6035,2.5455 -16.64342,3.15518 -21.51209,1.18802 z m 86.46263,-6.35991 c -1.95271,-1.72025 -5.3718,-13.01835 -13.01288,-43 -12.03815,-47.23458 -18.57174,-68.21146 -26.07172,-83.70641 -7.71814,-15.94565 -17.22402,-25.62692 -25.16264,-25.62692 -3.3493,0 -3.3883,-1.15075 -0.67211,-19.82888 2.28688,-15.72597 6.86141,-33.88565 11.92448,-47.33696 5.70508,-15.15701 16.44433,-35.28401 20.10724,-37.68404 6.89964,-4.52081 125.41109,-50.757613 126.72679,-49.441963 0.325,0.32501 -1.85,4.82469 -4.83339,9.99928 -11.58017,20.085543 -20.30921,44.233553 -24.92742,68.959233 -3.10543,16.62631 -3.1058,57.42689 -7.1e-4,77.04036 2.78955,17.62022 2.79387,16.95964 -0.11093,16.95964 -4.23055,0 -18.07486,4.03192 -25.52031,7.43236 -35.31359,16.1282 -43.1926,57.4327 -19.87731,104.20373 6.67279,13.38577 6.75577,13.69989 4.52048,17.11137 -4.37817,6.68193 -17.83439,9.54876 -23.08955,4.9192 z m 162.33706,-1.59472 c -7.9951,-4.2288 -18.1729,-16.14473 -20.509,-24.01149 -5.9251,-19.95172 -5.9725,-43.73349 -0.1698,-85.02061 11.4511,-81.47549 9.8229,-108.98893 -8.6211,-145.67211 -2.9221,-5.81183 -4.7987,-10.88479 -4.1701,-11.27325 2.9948,-1.85089 65.9218,-26.248283 69.5966,-26.983223 3.8562,-0.77124 4.1195,-0.60294 3.2657,2.08704 -32.4901,102.367373 -36.288,166.764313 -15.1322,256.582643 3.9339,16.70193 3.9775,17.25457 1.807,22.93787 -3.0825,8.07136 -10.0544,13.96477 -16.4307,13.88892 -2.7245,-0.0324 -7.0608,-1.17351 -9.6364,-2.53579 z m 95.2251,-9.36851 C 1156.8063,364.03187 1144,355.69347 1144,350.54575 c 0,-1.28346 3.2303,-9.1713 7.1784,-17.52855 13.1521,-27.84024 20.7497,-55.2787 24.1601,-87.25288 l 0.8594,-8.05788 15.3354,-5.73 c 8.4345,-3.15149 15.5359,-5.52544 15.781,-5.27544 0.2451,0.25 -2.4405,6.32626 -5.9679,13.5028 -9.0123,18.33512 -12.323,31.34567 -13.0643,51.33948 -0.8129,21.92424 1.8187,35.54601 10.6503,55.12963 3.8151,8.45973 3.8939,8.99946 1.7848,12.21846 -4.4714,6.82414 -19.3611,10.3571 -32.1749,7.63428 z m -756.53395,-1.03677 c 0.056,-6.71699 13.38588,-188.83866 13.85587,-189.30865 0.35455,-0.35454 1.56488,2.56986 2.68962,6.49867 4.46853,15.60903 5.44649,27.01933 5.35481,62.47665 -0.0989,38.24752 -1.88583,57.02656 -8.11998,85.33333 -3.56713,16.19691 -10.47194,36 -12.55225,36 -0.68003,0 -1.23265,-0.45 -1.22807,-1 z m 829.22025,-4.15008 -3.0669,-2.48343 7.455,-15.18324 c 4.1003,-8.35078 8.3854,-18.18325 9.5224,-21.84992 7.7914,-25.12481 5.3706,-43.95826 -7.9816,-62.09593 -3.3052,-4.48978 -5.8177,-8.32621 -5.5834,-8.5254 0.7578,-0.6443 74.2744,-28.71199 75.2042,-28.71199 1.3076,0 -0.5621,17.20631 -3.5825,32.96738 -5.0436,26.31903 -15.4761,55.64771 -27.164,76.36594 -7.6604,13.57912 -19.366,28.13644 -24.2733,30.18684 -6.3956,2.67224 -16.8225,2.33183 -20.5299,-0.67025 z m -267.94606,-5.84992 c -6.76645,-3.41212 -12.7874,-11.47968 -17.42636,-23.34984 -4.2462,-10.86516 -4.40611,-29.38952 -0.31925,-36.98349 3.85748,-7.16776 7.68385,-10.51369 16.79185,-14.68348 12.16165,-5.56779 12.57164,-5.266 19.04248,14.01681 3.07612,9.16667 8.67604,23.5262 12.44414,31.91007 3.7682,8.38386 6.8513,15.98053 6.8513,16.88148 0,2.42905 -7.7448,8.52505 -15.33335,12.06898 -8.38933,3.91792 -14.48148,3.95646 -22.05081,0.13947 z M 1372.914,334.82221 c 4.3299,-17.53381 5.3851,-39.06465 2.5647,-52.33333 -4.0848,-19.21701 -15.6612,-36.35148 -31.3449,-46.39396 -5.2146,-3.33892 -6.685,-4.8938 -5.3334,-5.63932 3.904,-2.15325 79.9504,-30.9915 80.4066,-30.49169 0.5757,0.6308 -3.9036,45.74057 -5.9439,59.85831 -3.5137,24.31326 -10.1895,45.89793 -18.9433,61.24893 -3.8858,6.81416 -21.502,26.75106 -23.6374,26.75106 -0.5382,0 0.466,-5.85 2.2316,-13 z m 104.4194,7.12024 c 0,-0.30054 1.7549,-5.91665 3.8997,-12.48025 8.2311,-25.18784 8.6679,-47.41145 1.34,-68.1729 -2.226,-6.3069 -4.1656,-12.62059 -4.3103,-14.03043 -0.2166,-2.114 2.655,-3.69171 16.3811,-9 9.1541,-3.54016 17.1941,-6.43665 17.8667,-6.43665 0.6726,0 -1.3134,1.8372 -4.4131,4.08266 -12.6459,9.16059 -12.1004,23.85002 1.2223,32.91734 15.714,10.69482 36.5078,-9.30947 26.7928,-25.77536 -1.5882,-2.69174 -2.7132,-5.04406 -2.5,-5.22738 0.8532,-0.73389 67.9908,-25.99726 69.0878,-25.99726 4.5646,0 2.0174,30.1045 -4.1049,48.51565 -5.7529,17.30084 -14.4803,31.26212 -27.9823,44.76419 -18.6872,18.68719 -42.0621,30.30061 -71.1212,35.33525 -11.2464,1.9485 -22.1586,2.68973 -22.1586,1.50514 z m -153.5557,-8.82073 -4.889,-2.58264 4.3894,-12.35843 c 4.0399,-11.37485 6.9991,-23.09962 9.6735,-38.32823 l 1.0484,-5.9698 4.5334,7.06485 c 12.8769,20.06785 14.706,45.18594 3.8442,52.79381 -4.0169,2.8136 -12.6449,2.52621 -18.5999,-0.61956 z m -105.1427,-3.29951 c -5.6199,-14.29818 -6.7657,-47.48486 -2.0255,-58.66666 l 2.261,-5.33333 3.9534,4.66666 c 7.6558,9.03692 11.1761,18.27659 11.1761,29.33334 0,8.436 -0.6474,11.35546 -4.1394,18.66666 -2.2767,4.76667 -5.3801,10.16667 -6.8964,12 l -2.757,3.33333 z m 210.8074,-11.13034 c 6.6518,-13.31136 9.5164,-26.72795 10.221,-47.86965 0.3482,-10.45 1.1677,-19 1.821,-19 2.5118,0 13.3023,16.66913 15.3498,23.71214 4.2644,14.6688 0.827,33.07276 -7.9847,42.75095 -4.2285,4.64446 -12.048,8.20357 -18.0232,8.20357 h -5.2801 z m -307.226,-14.53632 c -5.3696,-19.2814 -6.7349,-33.41125 -6.7959,-70.33333 -0.036,-22.05397 0.6262,-41.68172 1.7107,-50.66667 2.158,-17.88018 7.9923,-48.9177 9.4836,-50.45087 1.2007,-1.23448 7.7908,17.82399 11.9124,34.45087 9.2845,37.45359 9.118,81.45327 -0.4325,114.26288 -3.6254,12.45464 -11.1608,30.40379 -12.7642,30.40379 -0.5385,0 -1.9399,-3.45 -3.1141,-7.66667 z m -104.6395,-47.69837 c -14.8997,-61.21193 -17.63471,-94.97324 -10.2673,-126.74084 2.9092,-12.54425 3.9033,-13.971 6.3564,-9.12267 7.0785,13.98987 11.2521,36.26434 12.9689,69.21412 1.2816,24.5976 0.3929,87.25192 -1.3047,91.98272 -0.6342,1.76723 -3.1874,-6.57537 -7.7533,-25.33333 z m 496.4787,13.09936 c -8.1118,-2.18554 -12.7222,-8.88679 -12.7222,-18.49164 0,-5.45104 0.6421,-6.86526 5.1765,-11.39955 4.5343,-4.53428 5.9484,-5.17647 11.3995,-5.17647 11.7092,0 18.5952,6.48206 18.6005,17.50938 0,6.63556 -2.6223,11.88072 -7.5284,15.04009 -3.4677,2.23311 -11.1644,3.53163 -14.9259,2.51819 z m 1.66,-12.40099 c -0.7605,-5.18199 2.9864,-5.51296 6.2376,-0.55099 1.243,1.89696 2.6083,3.10064 3.034,2.67484 0.4259,-0.42578 -0.315,-1.97785 -1.6465,-3.44901 -2.3,-2.54159 -2.3053,-2.80229 -0.1053,-5.23303 2.2024,-2.43362 2.1897,-2.6835 -0.2587,-5.13196 -1.8497,-1.84969 -3.7931,-2.39482 -6.9077,-1.9377 -4.0136,0.58908 -4.2748,0.93136 -3.5347,4.63197 0.4396,2.19773 0.7992,6.02088 0.7992,8.49588 0,2.475 0.6681,4.5 1.4847,4.5 0.8912,0 1.25,-1.59892 0.8976,-4 z m -1.0489,-8.52401 c 0,-2.97332 0.5784,-3.47599 4,-3.47599 3.1111,0 4,0.59259 4,2.66667 0,1.46666 -0.8509,2.66666 -1.8909,2.66666 -1.04,0 -2.84,0.36419 -4,0.80932 -1.5908,0.61046 -2.1091,-0.0448 -2.1091,-2.66666 z" />

</svg>
