<svg xmlns="http://www.w3.org/2000/svg"
     xmlns:xlink="http://www.w3.org/1999/xlink"
     lang="en-GB"
     viewBox="0 0 768 768">

  <title>Timer Icon</title>

  <defs>

    <style><![CDATA[

    rect {
      width: 768px;
      height: 768px;
      fill: rgb(191, 0, 0);
    }

    path {
      fill: rgb(255, 255, 255);
      stroke-width: 1;
    }

    ]]></style>

  </defs>

  <rect x="0" y="0" />

  <path d="m 180.76393,677.63055 c -6.46185,-7.71797 -8.54587,-13.21698 -8.56246,-22.59341 -0.0117,-6.58186 0.4551,-9.0012 2.63301,-13.64796 3.37085,-7.19202 9.5103,-13.33176 16.70328,-16.70408 l 5.64796,-2.64796 h 179.5 179.49999 l 5.5,2.59718 c 7.19369,3.39697 13.55387,9.71925 16.84784,16.74744 2.17526,4.64124 2.65057,7.08997 2.65057,13.65538 0,9.44668 -2.72369,16.32124 -9.2116,23.25 l -3.97959,4.25 H 376.43245 184.87196 Z m 25.92179,-59.84954 c 0,-3.23144 3.50379,-29.45399 5.56993,-41.68559 8.7544,-51.82642 17.69919,-78.96221 32.65265,-99.05828 7.47265,-10.04255 28.89038,-31.13609 46.01663,-45.3201 22.94198,-19.00063 32.77988,-32.82603 33.59255,-47.20829 0.99192,-17.55443 -8.20819,-30.30847 -46.87331,-64.98018 -26.34271,-23.62198 -35.48612,-34.14933 -43.49862,-50.08253 -12.40866,-24.67517 -23.49084,-72.42981 -26.07145,-112.34543 l -0.68294,-10.56347 H 377.07288 546.7546 l -0.60129,5.25 c -4.62757,40.40462 -12.48563,79.47136 -20.6253,102.53968 -8.61646,24.41962 -17.95251,36.64286 -49.80075,65.20175 -37.25595,33.40808 -46.92289,46.3116 -47.00889,62.74784 -0.0827,15.80095 9.88994,28.87012 49.46734,64.82719 30.95886,28.1269 38.89815,38.71961 48.12487,64.20882 8.91749,24.63496 17.20476,66.5119 18.993,95.97472 l 0.68281,11.25 H 528.91565 511.8449 l -0.66846,-6.75 c -3.42104,-34.5454 -10.96972,-70.29612 -17.66576,-83.6655 -7.12102,-14.21788 -23.20312,-30.20341 -37.79773,-37.57075 -7.89314,-3.98445 -14.98475,-5.83747 -26.22575,-6.85273 -7.34001,-0.66293 -11.08357,-1.55359 -15.394,-3.66249 -7.97728,-3.90291 -16.63744,-12.82449 -19.26454,-19.84604 -2.02578,-5.41438 -2.06949,-6.72345 -1.49815,-44.8648 0.64527,-43.07579 1.33494,-49.90913 6.28486,-62.27097 7.62267,-19.03673 12.14811,-24.52031 51.19957,-62.03984 9.14608,-8.78728 19.00786,-18.90188 21.91506,-22.47688 l 5.28583,-6.5 -50.66505,-0.25916 c -27.86578,-0.14254 -73.46434,-0.14254 -101.33012,0 l -50.66506,0.25916 5.03949,6 c 2.77172,3.3 15.0359,15.9 27.25373,28 25.98622,25.73559 37.18876,39.11538 43.47578,51.9254 7.51647,15.31507 7.5927,15.87766 8.64095,63.76796 0.92227,42.13505 0.90692,42.76703 -1.17357,48.32763 -2.69581,7.20522 -11.22674,16.06284 -19.20774,19.94332 -4.40221,2.14042 -8.14069,3.03204 -15.5,3.69671 -11.24101,1.01526 -18.33262,2.86828 -26.22576,6.85273 -14.6144,7.37733 -30.54259,23.21102 -37.70996,37.48625 -6.71258,13.36943 -13.6451,42.7732 -16.82471,71.36074 -0.89552,8.05159 -1.81902,15.65176 -2.05221,16.88926 -0.41991,2.22835 -0.58735,2.25 -17.40493,2.25 -9.33952,0 -16.98095,-0.34026 -16.98095,-0.75613 z m -5.9242,-475.37762 c -11.11928,-1.84482 -21.13124,-9.49578 -25.9937,-19.8639 -3.7052,-7.9005 -3.67755,-19.16172 0.0667,-27.150309 3.37085,-7.19202 9.5103,-13.331756 16.70328,-16.704076 l 5.64792,-2.647962 h 179.5 179.49999 l 5.5,2.597181 c 7.19369,3.396965 13.55387,9.719245 16.84784,16.747435 2.17526,4.641241 2.65057,7.089971 2.65057,13.655381 0,9.78172 -2.84024,16.68767 -9.6659,23.50235 -5.66014,5.65103 -11.52465,8.58775 -19.83251,9.93133 -8.17043,1.32136 -342.94128,1.25704 -350.92419,-0.0674 z" />

</svg>
