<svg xmlns="http://www.w3.org/2000/svg"
     lang="en-GB"
     viewBox="0 0 297 297">

  <title>Code Share Icon</title>

  <defs>

  <style type="text/css"><![CDATA[

  rect {
    width: 297px;
    height: 297px;
    fill: rgb(191, 0 , 0);
  }

  path {
    fill: rgb(255, 255, 255);
    transform: translateX(43.5px);
  }

  ]]></style>

  </defs>

  <rect/>
  <path d="m 59.090281,253.98392 -11.288889,-0.21344 -2.665486,-1.07506 c -6.826779,-2.75341 -12.286008,-8.35594 -15.58255,-15.99159 l -1.15474,-2.67467 -0.09867,-83.68458 C 28.19192,58.723638 28.057621,65.071549 30.219101,59.632266 c 2.763763,-6.954904 8.131195,-12.220777 15.37923,-15.088225 1.677595,-0.663687 3.296923,-0.948798 6.789172,-1.195353 5.977696,-0.42203 100.561187,-0.42203 106.538887,0 3.49225,0.246555 5.11157,0.531666 6.78917,1.195353 8.8165,3.487959 14.45373,10.100308 16.92338,19.850725 0.57249,2.260254 0.61292,7.748827 0.62074,84.262174 0.009,92.39438 0.25037,84.59313 -2.79994,90.66389 -2.62088,5.2161 -7.17999,9.82687 -12.23283,12.37143 -5.10182,2.56924 -1.38765,2.3946 -52.16302,2.45276 -25.126597,0.0288 -50.764721,-0.0437 -56.973609,-0.1611 z M 161.55777,234.68071 c 1.00417,-0.90283 2.28985,-2.45064 2.85707,-3.43959 l 1.03131,-1.79807 -0.0315,-64.73472 c -0.0173,-35.60409 -0.13487,-72.12914 -0.26127,-81.166773 l -0.22981,-16.432053 -1.06668,-1.725091 c -1.53918,-2.489235 -3.3985,-3.672381 -6.37346,-4.055628 -3.18218,-0.409945 -100.470874,-0.409945 -103.653046,0 -2.975102,0.383265 -4.834403,1.566467 -6.373463,4.055879 l -1.06668,1.725337 v 81.695689 c 0,75.6089 0.04383,81.77455 0.588286,82.75403 0.323557,0.58208 1.196682,1.64429 1.940277,2.36047 2.714622,2.61453 -2.454317,2.39744 57.140916,2.39985 l 53.67226,0.002 1.82575,-1.64151 z m -33.91809,-36.41169 c -2.57502,-1.03915 -3.95561,-2.01674 -6.06346,-4.29346 -2.25062,-2.43094 -2.85903,-4.08143 -3.29269,-8.93242 l -0.27936,-3.12492 -16.22778,-9.48033 c -8.925278,-5.21417 -16.357924,-9.48328 -16.516991,-9.48688 -0.159072,-0.004 -0.952821,0.44108 -1.763889,0.9882 -2.593838,1.74973 -3.630845,2.00384 -8.177452,2.00384 -3.784918,0 -4.420175,-0.092 -5.997222,-0.86832 -2.25467,-1.10993 -5.142177,-3.98009 -6.297161,-6.25935 -3.559129,-7.0236 -0.628205,-15.73968 6.47355,-19.25125 1.293184,-0.63944 2.324378,-0.80697 5.562127,-0.90366 3.821468,-0.11412 4.059357,-0.0776 6.17361,0.94899 1.209439,0.58722 2.620384,1.34289 3.135433,1.67927 l 0.936445,0.61158 16.34967,-9.54858 16.34966,-9.54858 0.17639,-3.83004 c 0.16178,-3.51286 0.2752,-4.01227 1.36962,-6.03033 1.46985,-2.71035 4.00243,-5.13172 6.66733,-6.37458 1.7661,-0.82367 2.45636,-0.94014 5.54499,-0.93568 4.37992,0.006 6.71686,0.83183 9.46477,3.34327 3.76958,3.44518 5.36223,8.38746 4.3175,13.39801 -0.94575,4.53582 -3.4828,7.80236 -7.59551,9.77949 -1.57949,0.75932 -2.59497,0.96689 -5.30482,1.08434 -3.8071,0.16501 -6.17247,-0.45344 -8.89292,-2.32516 l -1.54256,-1.0613 -7.57045,4.41453 c -4.16375,2.428 -11.14233,6.48855 -15.507953,9.02345 -11.026856,6.40274 -9.877778,5.34519 -9.877778,9.09098 v 3.14597 l 1.322917,0.8541 c 0.727604,0.46975 8.213082,4.8597 16.634404,9.75543 l 15.31148,8.90133 0.91629,-0.59956 c 3.11485,-2.03815 4.67735,-2.49712 8.50102,-2.49712 3.28325,0 3.93409,0.10776 5.72762,0.94832 5.67008,2.65738 9.00597,9.44521 7.54713,15.35683 -1.5793,6.39979 -6.38843,10.33714 -12.92197,10.57956 -2.317,0.086 -3.37445,-0.0404 -4.65199,-0.55597 z" />

</svg>
