<svg xmlns="http://www.w3.org/2000/svg"
     xmlns:xlink="http://www.w3.org/1999/xlink"
     lang="en-GB"
     viewBox="0 0 250 250">
  
<title>Scotia Beauty</title>

<defs>
<style type="text/css"><![CDATA[

rect {
width: 250;
height: 250;
fill: rgb(255, 0, 125);
}

path {
fill: rgb(255, 255, 255);
stroke-width: 0.35277778;
transform: translate(124px, -24px);
}

]]></style>
</defs>

<rect />

<path d="m -69.502335,260.62025 c -11.776137,-7.00174 -1.757452,-21.99463 -0.225672,-32.02668 6.39275,-20.3871 16.502436,-39.6659 30.737383,-55.67073 16.390593,-20.5826 41.8336106,-29.89252 63.107125,-44.21519 10.423937,-6.46577 20.22833,-14.00175 29.177089,-22.28021 7.178932,-9.986865 -9.936397,6.44222 -13.973122,8.56469 -20.724808,15.59253 -44.4346055,26.58131 -65.54101,41.58971 -14.485399,11.31835 -26.153712,25.91962 -35.613825,41.60125 -9.19847,-8.43317 -1.951545,-22.28172 -3.60772,-32.98578 3.796431,-24.79149 16.808248,-48.87761 38.315026,-62.56212 25.0769769,-18.522786 56.118493,-25.233725 83.382165,-39.533639 9.943499,-5.242147 18.509882,-12.277226 25.873238,-20.607489 9.702088,-5.379173 3.192603,9.472016 1.179891,13.601733 -2.982935,8.110445 -6.649045,15.969623 -11.224683,23.29898 -2.054977,5.294673 3.923716,-3.308789 4.247345,3.702604 0.375927,10.448212 -2.832355,20.865451 -3.350617,31.415811 -4.595,24.76061 -16.794805,49.39643 -38.748894,63.04898 -20.21207,14.07874 -43.8649388,21.86895 -67.738077,27.04602 -11.27691,2.28889 -21.705755,9.37019 -25.798609,20.46881 -4.953963,9.68276 -5.625322,20.4268 -4.448955,30.976 -0.168342,2.95245 -2.886678,4.89773 -5.748078,4.56725 z M 61.013028,97.550327 c 3.170154,-6.100474 -3.937531,3.159603 0,0 z m 3.6686,-4.892847 c 2.382684,-5.884918 -4.459669,3.591497 -0.03371,0.02527 z m 3.23377,-4.072252 c 3.218721,-5.081423 -5.053169,3.251355 0,0 z" />
</svg>

