<svg xmlns="http://www.w3.org/2000/svg"
     xmlns:xlink="http://www.w3.org/1999/xlink"
     lang="en-GB"
     viewBox="0 0 2589.33 1600.29">

  <title>TeePublic</title>

  <defs>

    <style><![CDATA[

      rect {
        width: 2589.33px;
        height: 1600.29px;
        fill: rgb(0, 0, 0);
      }

      path {
        fill: rgb(255, 255, 255);
        stroke: rgb(191, 191, 191);
        stroke-width: 1px;
        paint-order: stroke;
        transform: translate(120px, 600px) scale(0.9);
      }

    ]]></style>

  </defs>

  <rect />

  <path d="m 175.92372,442.39924 c 0,-3.39052 11.78888,-13.20233 22.66974,-18.86789 l 11.07613,-5.76724 -7.5348,-2.19043 c -10.23677,-2.9759 -26.26335,-6.54892 -26.66312,-5.94434 -0.17904,0.27076 -1.96215,3.0469 -3.96244,6.16921 -6.80852,10.62755 -18.76781,16.55261 -28.91269,14.32443 l -4.05181,-0.88992 3.6895,-6.78623 c 4.15608,-7.64445 11.76879,-13.84404 18.56528,-15.11907 4.54564,-0.85277 4.53145,-0.86596 -4.22645,-3.9262 l -8.7874,-3.07056 -5.59764,6.09658 c -6.40515,6.97608 -14.06822,10.95573 -21.1775,10.9981 -5.4434,0.0324 -11.75347,-1.95274 -11.75347,-3.69772 0,-0.61948 2.21651,-3.71584 4.92559,-6.88078 5.34534,-6.24483 13.40672,-10.62802 19.74107,-10.73375 3.66663,-0.0612 3.33327,-0.43027 -3.99999,-4.42816 l -8,-4.36137 -5.14725,4.52842 c -2.83099,2.49064 -7.16172,5.37012 -9.62385,6.39887 -8.55635,3.57508 -25.895566,1.63883 -25.895566,-2.89172 0,-2.30689 7.582749,-8.48939 14,-11.41472 2.933333,-1.33717 7.991696,-2.4444 11.240806,-2.46051 l 5.90747,-0.0293 -7.14828,-5.33331 c -7.692131,-5.73911 -8.68914,-6.12101 -10.08469,-3.86296 -1.927536,3.11881 -14.646405,7.83704 -21.161007,7.84993 -7.162816,0.0141 -18.554876,-4.57612 -17.709153,-7.1357 0.275852,-0.83487 3.40649,-3.31794 6.956974,-5.51794 5.688345,-3.52469 7.656127,-4 16.559987,-4 h 10.10456 l -6.722086,-6.9775 -6.722085,-6.9775 -7.277915,2.77334 c -10.211926,3.89137 -20.660334,3.06184 -28.179326,-2.23724 -3.054842,-2.15294 -5.762914,-4.54798 -6.017936,-5.3223 -1.385909,-4.20806 18.852816,-8.69104 27.926139,-6.18577 2.746265,0.75828 4.993209,1.12844 4.993209,0.82259 0,-0.30587 -2.135828,-3.52903 -4.746284,-7.16259 -4.312817,-6.00313 -5.051365,-6.49049 -8.0868,-5.33643 -4.279693,1.62715 -18.011888,1.6432 -22.265329,0.026 -4.329131,-1.64588 -12.901587,-9.24077 -12.901587,-11.43029 0,-4.78518 20.154963,-6.33183 28.312889,-2.17267 l 4.876735,2.48629 -3.947339,-7.81962 -3.947338,-7.81964 h -9.559841 c -11.903714,0 -19.77673,-3.4386 -24.616003,-10.75124 -1.8543842,-2.80216 -3.0294222,-5.64851 -2.6111952,-6.32522 1.21147,-1.9602 10.6453592,-2.73745 17.5559142,-1.44642 3.49024,0.65205 8.353706,2.71698 10.807701,4.58873 2.453996,1.87176 4.452974,3.22265 4.442173,3.002 -0.0108,-0.22065 -1.142149,-4.00119 -2.514109,-8.40119 l -2.494473,-8 -7.683542,-0.97673 C 17.302352,270.38233 9.6821368,266.21785 5.1058338,259.00177 c -5.49277002,-8.6612 -5.16555202,-9.54681 3.527379,-9.54681 8.5121312,0 15.6542802,2.61383 21.1420602,7.7374 l 3.851554,3.59593 -0.851554,-4.5 c -0.468353,-2.475 -0.851552,-6.51357 -0.851552,-8.9746 0,-3.80229 -0.550909,-4.59246 -3.666666,-5.25913 -6.758979,-1.44619 -14.815616,-4.73744 -18.2935302,-7.47317 -4.262048,-3.35252 -8.70647,-11.8202 -8.70647,-16.58788 0,-3.46332 0.176172,-3.54354 6.022978,-2.74214 8.7495782,1.19927 14.6771912,4.71068 20.3416722,12.05007 l 2.968683,3.84648 v -8.66344 -8.66345 l -8.720615,-4.29314 C 11.263263,204.30632 6.5084298,198.0092 5.5367848,187.89711 l -0.655857,-6.82564 3.85473,0.96124 c 2.1201022,0.52866 5.7906322,1.87662 8.1567352,2.99546 4.694102,2.21964 13.673591,11.43362 13.73854,14.0973 0.08533,3.49978 2.319404,-2.51072 3.199024,-8.60662 0.902506,-6.25449 0.892263,-6.27577 -4.293693,-8.92145 -5.731956,-2.92423 -13.101608,-10.62499 -15.035193,-15.71069 -0.684209,-1.79962 -1.244016,-6.50175 -1.244016,-10.44919 v -7.17717 l 3.934533,1.37158 c 6.551393,2.28383 15.641133,11.28944 18.225691,18.05702 l 2.362086,6.18502 2.84452,-8.51933 2.84452,-8.51935 -4.930458,-3.5716 c -10.424558,-7.5515 -15.446691,-20.25788 -12.440511,-31.4754 1.133891,-4.23109 3.660939,-3.74473 9.919,1.90906 6.692992,6.0467 10.567362,13.37438 10.594629,20.03782 l 0.02068,5.05312 5.112053,-9.33333 5.112054,-9.33333 -3.974798,-4.5795 c -5.501121,-6.33802 -8.893361,-14.36644 -8.92805,-21.13 -0.03033,-5.913303 2.977482,-14.957173 4.97446,-14.957173 2.15091,0 9.528352,8.66805 11.595349,13.623843 1.137165,2.72645 2.067575,7.73033 2.067575,11.11973 v 6.16256 l 5.409101,-6.84302 5.409101,-6.84303 -4.075768,-8.156333 c -4.975569,-9.957 -5.480584,-19.74965 -1.428155,-27.69307 1.456188,-2.85436 3.182968,-5.52062 3.837292,-5.92501 1.545144,-0.95496 7.288199,7.77143 9.461498,14.37644 0.932985,2.83549 1.410477,8.13044 1.061093,11.76654 l -0.635244,6.61112 6.402413,-6.30614 6.402415,-6.30615 -2.46155,-4.82503 c -3.419789,-6.70335 -4.564171,-15.89712 -2.796085,-22.4633 1.425768,-5.29489 7.165961,-13.63248 9.385577,-13.63248 0.587386,0 2.334044,2.69346 3.881474,5.98547 3.11359,6.62387 3.85851,20.23721 1.36258,24.90091 -1.63169,3.04883 -1.68926,3.07403 7.9026,-3.45849 4.59042,-3.12629 5.56072,-4.45631 4.86363,-6.66667 -1.5291,-4.84846 -2.33014,-16.48733 -1.45558,-21.14912 0.91597,-4.88255 9.24124,-15.6121 12.11373,-15.6121 4.40752,0 6.46593,21.40031 2.69321,27.99999 -1.04803,1.83334 -1.92677,3.79198 -1.95276,4.35253 -0.10301,2.22223 15.4735,-6.9991 18.2832,-10.8237 5.10094,-6.94342 14.1503,-11.32982 23.5274,-11.40418 4.47819,-0.0355 9.30383,0.60826 10.72363,1.4306 2.39333,1.38619 2.00463,2.07125 -5.33333,9.3998 -8.62015,8.60908 -16.65764,11.9019 -25.15874,10.30709 -3.36352,-0.631 -6.22464,0.1232 -12.23953,3.22638 -6.22102,3.20953 -7.15821,4.06927 -4.51654,4.1433 4.95997,0.139 13.49254,4.49149 17.80186,9.08079 l 3.80187,4.04887 -3.07012,1.64307 c -1.68856,0.90369 -6.2239,1.64307 -10.07852,1.64307 -7.26694,0 -11.31634,-1.80893 -18.04145,-8.0594 l -3.58635,-3.33324 -6.74698,4.95274 c -3.71084,2.724 -6.74698,5.11843 -6.74698,5.32095 0,0.20252 1.45508,0.09 3.2335,-0.24991 5.91477,-1.13068 22.09983,6.37187 22.09983,10.24433 0,1.76621 -10.25463,5.41025 -15.22492,5.41025 -2.47736,0 -7.97934,-1.82799 -12.22662,-4.06219 l -7.72233,-4.06217 -5.879222,5.87921 -5.879223,5.879233 6.547586,-0.62915 c 4.882286,-0.469123 8.322774,0.13454 13.527239,2.37344 8.0792,3.47558 8.45294,5.76552 1.54496,9.46615 -6.0363,3.23368 -16.381681,3.17429 -23.673942,-0.13589 l -5.653151,-2.56615 -3.611678,4.92876 c -1.986423,2.71081 -4.497488,5.99201 -5.580144,7.29153 -1.877048,2.25304 -1.727239,2.26199 3.225857,0.19246 5.546603,-2.31752 13.438864,-1.94092 19.769132,0.94334 4.403442,2.00635 4.382817,2.90724 -0.163533,7.1431 -5.745914,5.35348 -12.834682,6.76725 -22.081399,4.40388 l -7.748065,-1.98034 -3.846747,7.62036 -3.846746,7.62036 4.876734,-2.48629 c 7.04748,-3.59301 21.646223,-3.08759 21.646223,0.74941 0,2.25672 -8.008608,10.1669 -11.723299,11.57922 -1.714332,0.65178 -6.922825,1.18506 -11.574428,1.18506 h -8.457461 l -2.763664,8.18366 c -2.500308,7.40381 -2.539087,7.98041 -0.406941,6.05085 3.899325,-3.52884 11.804878,-6.23451 18.216301,-6.23451 6.511666,0 7.060725,0.84272 4.16951,6.39955 -4.004225,7.696 -12.282305,12.26712 -22.215163,12.26712 -4.95567,0 -5.043488,0.0915 -6.467703,6.73229 -2.262837,10.55126 -1.972842,11.49878 2.222848,7.26286 4.580069,-4.62398 10.837952,-7.32848 16.957175,-7.32848 5.735413,0 6.21601,2.70345 1.677762,9.43776 -4.102533,6.08774 -10.621665,10.24689 -17.732621,11.31325 l -5.902316,0.88511 0.02247,8.8486 0.02247,8.84861 2.606141,-4.06641 c 2.889913,-4.5092 10.375194,-9.15516 17.0156,-10.56124 3.783042,-0.80104 4.333333,-0.5689 4.333333,1.82806 0,9.41296 -9.667879,20.40764 -19.580044,22.26718 -4.984666,0.93513 -5.008841,1.1049 -2.223786,15.61828 l 0.720094,3.75252 2.766087,-5.59075 c 1.753646,-3.54444 4.975677,-6.99204 8.802909,-9.4192 8.917621,-5.65539 9.963027,-5.25225 9.232231,3.56019 -0.82043,9.8933 -3.621667,13.56266 -16.243919,21.27804 -2.017443,1.23316 -2.013284,1.91732 0.05535,9.10662 l 2.236669,7.77331 3.266715,-6.87324 c 3.220114,-6.7752 12.650478,-15.43881 15.134261,-13.90375 0.641721,0.3966 1.162812,4.1357 1.15798,8.30908 -0.01,8.59526 -2.331441,13.13454 -10.074921,19.69979 l -4.849735,4.11181 4.069255,7.88819 c 2.905704,5.63267 4.087593,7.01813 4.133388,4.84536 0.1026,-4.86804 3.858216,-12.60477 8.393262,-17.29051 2.306689,-2.38333 4.617585,-4.33333 5.135325,-4.33333 1.354212,0 3.874036,7.78709 3.839595,11.86563 -0.04028,4.76944 -4.446279,14.06448 -8.667932,18.28613 l -3.501689,3.5017 4.432785,6.5095 4.432785,6.5095 0.860296,-5.79895 c 1.000686,-6.74527 3.740996,-12.52772 7.585848,-16.00727 3.425224,-3.09979 5.091343,-2.07969 6.830384,4.18193 2.147807,7.73346 1.687112,11.32062 -2.526801,19.67475 -3.859521,7.65156 -3.881176,7.81556 -1.477236,11.18791 1.341837,1.88237 3.575889,4.44915 4.964559,5.70392 2.446378,2.21051 2.525088,2.06547 2.532329,-4.66667 0.0073,-6.84965 3.771605,-17.07478 6.563954,-17.83025 2.050262,-0.55468 5.772727,5.32751 7.530487,11.89957 1.33638,4.99656 1.2256,6.93651 -0.71095,12.45068 -3.36591,9.58415 -3.36602,9.58371 3.53546,14.73906 6.31946,4.72058 6.34743,4.7272 5,1.1832 -2.7666,-7.27672 -0.11954,-23.39034 3.84244,-23.39034 0.73343,0 2.98,2.15867 4.99238,4.79703 4.17072,5.46809 5.81603,17.44304 3.36331,24.47892 -1.41148,4.04896 -1.35672,4.11815 6.33117,7.99899 l 7.75497,3.91469 -2.58456,-4.92815 c -2.02689,-3.86484 -2.45134,-6.74228 -1.96717,-13.33616 0.33955,-4.62441 0.99359,-8.78422 1.4534,-9.24404 1.11833,-1.11833 7.29392,3.59007 10.71001,8.16555 2.22935,2.98596 2.74905,5.65715 2.74905,14.12955 v 10.44748 l 4.66667,1.53841 c 2.56667,0.84612 6.40597,2.08448 8.53179,2.75191 l 3.8651,1.2135 -2.77629,-2.96384 c -1.52696,-1.6301 -3.41627,-4.65289 -4.19845,-6.7173 -1.69279,-4.46775 -1.90875,-18.24654 -0.28599,-18.24654 2.37613,0 10.25125,6.23787 12.97187,10.27499 2.9056,4.31161 5.0775,14.82144 3.76809,18.23371 -0.51113,1.332 0.6004,2.1649 3.69648,2.76985 2.43507,0.4758 12.00803,2.97321 21.27325,5.54981 l 16.84584,4.68474 11.15416,-3.36616 c 6.13478,-1.85139 15.50415,-4.33992 20.82082,-5.53008 l 9.66666,-2.16394 v -6.60261 c 0,-10.93276 4.98858,-19.10739 13.66667,-22.39516 l 3.66666,-1.38915 v 7.76842 c 0,5.67344 -0.87683,9.4175 -3.25139,13.88342 l -3.25137,6.11502 7.5847,-2.72903 7.58472,-2.72901 v -10.2912 c 0,-9.20882 0.39135,-10.80427 3.72087,-15.1695 3.89269,-5.10358 8.59176,-8.37926 10.00007,-6.97097 0.45422,0.45424 1.04165,4.55285 1.30538,9.10803 0.36574,6.31678 -0.13964,9.46866 -2.12966,13.28216 -1.43506,2.75 -2.29691,5 -1.91523,5 0.38168,0 3.95579,-1.86623 7.94245,-4.14716 5.53724,-3.1681 7.02699,-4.66328 6.31027,-6.33334 -2.24921,-5.24102 -2.18609,-17.10044 0.1152,-21.63905 2.92893,-5.77652 5.93585,-9.21379 8.06021,-9.21379 3.95756,0 6.27007,18.37026 3.06612,24.35688 -1.17924,2.20346 -0.0473,1.74519 5,-2.02432 3.58839,-2.6799 6.397,-5.65105 6.24138,-6.60256 -0.15563,-0.95149 -1.15606,-4.81964 -2.22318,-8.59588 -2.21381,-7.83412 -1.21516,-14.85934 2.89486,-20.36426 3.35181,-4.48939 4.26457,-4.34498 7.49472,1.18578 1.84282,3.15535 2.71284,7.06232 2.7414,12.31068 l 0.0419,7.68838 5.3288,-5.32575 5.3288,-5.32576 -3.51344,-6.31825 c -4.58116,-8.23838 -5.63017,-13.594 -3.89261,-19.87337 2.33023,-8.42122 3.42627,-9.45145 6.80356,-6.39504 4.19693,3.79818 7.03572,9.78085 7.87511,16.59662 l 0.73645,5.97981 4.52115,-7.05589 4.52114,-7.05589 -4.12024,-4.25726 c -5.82889,-6.02273 -8.67305,-13.50197 -7.66594,-20.15904 1.4171,-9.36715 2.60508,-10.05708 8.17805,-4.74947 5.40371,5.14639 8.53223,11.2881 8.62997,16.94176 0.0553,3.20111 0.61366,2.64458 4.0738,-4.06084 l 4.00966,-7.77033 -5.98354,-5.57213 c -3.29093,-3.06467 -6.62414,-7.25708 -7.40712,-9.31646 -1.71465,-4.50988 -1.89033,-16.45824 -0.25684,-17.4678 2.56471,-1.58508 12.41984,7.4623 15.34268,14.08512 l 2.94341,6.66944 2.43514,-7.72513 c 2.30406,-7.30935 2.31086,-7.79887 0.12626,-9.09541 -12.11278,-7.18902 -16.68097,-13.553 -16.68097,-23.23847 0,-6.65501 1.29927,-6.84681 9.81164,-1.44844 4.30256,2.72861 7.12029,5.7736 8.78649,9.49517 2.75676,6.15744 3.2401,5.49675 4.76387,-6.51189 0.78076,-6.15296 0.60135,-7 -1.48259,-7 -4.71622,0 -14.09691,-5.72011 -17.21106,-10.49487 -1.73564,-2.66116 -3.57501,-7.15348 -4.08752,-9.98294 l -0.93181,-5.1445 4.50882,0.94188 c 6.94775,1.45135 15.59969,7.01064 17.93305,11.52286 2.95331,5.71108 3.71395,3.99285 2.64619,-5.97766 l -0.91984,-8.5894 -5.81093,-0.8714 c -9.89665,-1.48409 -20.67301,-11.25041 -20.67301,-18.73536 0,-2.77965 0.36053,-2.88004 6.7284,-1.87341 7.05258,1.11487 14.93049,5.19148 17.34409,8.97512 1.06237,1.6654 1.22101,0.45404 0.62684,-4.78656 -1.18212,-10.42632 -1.58268,-10.98376 -7.8928,-10.98376 -7.29747,0 -16.66959,-4.82315 -20.46244,-10.53051 -4.49721,-6.76728 -3.98708,-8.13616 3.03207,-8.13616 6.42673,0 14.31865,2.70719 18.2417,6.25751 3.0216,2.73451 2.98808,2.12875 -0.38033,-6.87416 l -2.76247,-7.38335 h -9.04036 c -7.18024,0 -9.9473,-0.61726 -13.44826,-3 -5.1406,-3.49866 -10.21228,-9.88526 -8.89562,-11.20194 2.08679,-2.08678 15.09206,-2.03598 20.15324,0.0787 2.84096,1.18703 5.34674,1.97687 5.5684,1.7552 0.22167,-0.22166 -1.38898,-3.54073 -3.57922,-7.3757 -3.25755,-5.70376 -4.3994,-6.7537 -6.27442,-5.76932 -8.41841,4.41961 -21.57389,2.49622 -27.86912,-4.07458 -4.17506,-4.35782 -3.56645,-5.31637 4.9103,-7.73349 5.95201,-1.69719 9.58518,-1.69072 14.09812,0.0251 1.98277,0.75385 3.82777,1.1479 4.1,0.87569 0.27221,-0.27223 -1.61479,-3.25799 -4.19335,-6.63501 l -4.68828,-6.14007 -5.65825,2.56843 c -7.479,3.3949 -17.01327,3.35033 -23.7986,-0.11134 -2.95211,-1.50605 -5.14822,-3.45605 -4.88026,-4.33333 0.26796,-0.87729 3.15722,-2.98428 6.42058,-4.68221 4.63892,-2.41366 7.48244,-2.96967 13.03385,-2.54864 l 7.10049,0.5385 -5.84688,-5.846863 -5.84688,-5.84688 -7.72233,4.06217 c -4.24728,2.23433 -9.74927,4.06232 -12.22663,4.06232 -4.77598,0 -15.22492,-3.61783 -15.22492,-5.27145 0,-2.99451 8.94322,-8.01236 17.93336,-10.06204 l 6.60004,-1.50475 -6.32394,-4.35098 -6.32394,-4.35099 -5.20053,4.69836 c -7.67964,6.93811 -14.46445,8.33674 -25.68499,5.29474 -3.33677,-0.90463 -2.88688,-3.42377 1.33334,-7.46604 4.1189,-3.94522 12.03645,-7.62096 16.62384,-7.71765 2.18145,-0.046 0.8395,-1.20106 -4.74044,-4.08033 -5.81818,-3.00221 -8.77859,-3.79759 -11.72552,-3.15034 -7.73396,1.69867 -16.98407,-1.81532 -24.86034,-9.44408 -3.99418,-3.86868 -7.00602,-7.80235 -6.69297,-8.74151 0.85637,-2.56912 7.6518,-4.03492 14.36413,-3.0984 8.12964,1.13428 14.87796,4.81278 20.22136,11.02266 3.64538,4.23648 18.4766,13.66137 18.4766,11.74142 0,-0.28946 -0.9,-2.68029 -2,-5.31296 -3.45489,-8.26874 -1.5498,-27.53899 2.72258,-27.53899 2.94536,0 11.10234,10.37754 12.0257,15.29943 0.97334,5.1883 0.18543,18.7266 -1.28912,22.15065 -0.65528,1.52161 0.69128,3.20855 4.78935,6 9.53496,6.49484 9.21123,6.3893 7.74157,2.52382 -2.20472,-5.79884 -1.52521,-16.3438 1.50744,-23.39339 1.55698,-3.61928 3.52292,-6.58051 4.36875,-6.58051 2.22488,0 8.62843,10.3941 9.60256,15.58666 1.10637,5.89745 -0.3504,14.9634 -3.34973,20.84641 l -2.43588,4.77785 6.15838,5.1807 6.1584,5.18071 0.0887,-8.11949 c 0.0916,-8.38832 3.40143,-17.04325 7.96675,-20.83213 1.9698,-1.63479 2.55022,-1.49713 4.65692,1.10452 6.38502,7.88519 5.65574,23.33721 -1.59594,33.813933 -1.34733,1.94653 -2.44969,3.78817 -2.44969,4.09252 0,0.30436 2.4,3.77009 5.33333,7.70165 l 5.33334,7.14828 v -6.28363 c 0,-3.456 0.82494,-8.258 1.8332,-10.67112 2.03028,-4.859213 9.72886,-14.193533 11.70625,-14.193533 2.14392,0 5.12717,8.92772 5.12717,15.343633 0,6.75996 -3.60288,15.08526 -9.22781,21.32304 l -3.60701,4 5.04193,9.33333 c 4.91103,9.09104 5.04377,9.21219 5.11336,4.66667 0.0393,-2.56667 1.17676,-7.10015 2.5277,-10.07442 2.48364,-5.46812 12.53491,-15.25899 15.66472,-15.25899 0.93476,0 2.10067,2.138 2.59089,4.75112 2.09482,11.16628 -2.61756,22.35559 -12.46285,29.59247 l -4.97429,3.65641 2.80404,8.37215 2.80402,8.37215 2.2969,-6.01435 c 2.51849,-6.59457 11.69482,-15.63236 18.1605,-17.88631 l 3.93454,-1.37158 v 7.3068 c 0,4.01873 -0.80828,9.23752 -1.79618,11.5973 -1.9431,4.64151 -11.0124,13.50107 -16.27541,15.89907 -1.79396,0.81737 -3.20415,2.43984 -3.13375,3.60547 0.22855,3.78428 3.55043,15.52312 3.71362,13.12314 0.38596,-5.67637 12.28674,-15.33452 21.82505,-17.71222 3.55763,-0.88686 3.66667,-0.74955 3.66667,4.61696 0,10.57081 -8.70431,21.1002 -20.66667,24.99994 -3.85591,1.25703 -4.01423,1.62572 -4.39511,10.23496 l -0.39509,8.93096 5.47424,-5.93885 c 5.64663,-6.12587 14.20891,-10.13559 21.64333,-10.13559 3.0279,0 3.71307,0.49936 3.2016,2.33334 -0.35789,1.28333 -1.06796,3.83333 -1.57793,5.66666 -2.36924,8.51738 -15.48959,18.61506 -24.23747,18.65364 -3.68914,0.0163 -5.13002,2.76254 -6.13514,11.69334 l -0.78935,7.01365 5.02044,-4.03453 c 5.91213,-4.75112 11.79084,-6.65943 20.51501,-6.65943 7.31448,0 7.66588,0.91869 3.2999,8.62724 -4.8883,8.63076 -15.08967,14.01476 -26.58719,14.03199 -4.89599,0.008 -4.99235,0.11053 -7.16328,7.6741 -1.21029,4.21667 -2.5302,8.26667 -2.93311,9 -0.40292,0.73334 0.42056,0.3557 1.82996,-0.83921 6.48192,-5.49547 13.5861,-7.31761 26.22919,-6.72749 5.88329,0.2746 6.27461,1.92102 1.98924,8.36953 -4.62695,6.96248 -12.95731,10.53051 -24.58589,10.53051 h -9.6983 l -3.94733,7.81964 -3.94734,7.81962 4.87673,-2.48629 c 3.02905,-1.54431 7.67465,-2.48349 12.26148,-2.47887 7.78853,0.008 17.38474,2.09692 17.38474,3.78464 0,1.89398 -10.00656,10.7183 -13.75346,12.12854 -4.63794,1.74561 -16.12768,1.83425 -21.93332,0.16921 -4.23861,-1.21561 -4.45532,-1.06758 -9.66272,6.60067 l -5.32688,7.84416 5.00052,-2.08935 c 3.39848,-1.41997 7.35129,-1.8734 12.33819,-1.41529 6.90497,0.63431 17.33767,4.43599 17.33767,6.31785 0,1.74372 -6.19409,6.59075 -10.97537,8.5885 -6.71348,2.80508 -15.60336,2.59281 -23.93085,-0.57139 -3.81416,-1.44927 -7.01157,-2.49927 -7.10536,-2.33333 -0.0939,0.16593 -2.91879,3.30169 -6.27775,6.96836 l -6.1072,6.66666 h 9.64026 c 8.38888,0 10.47769,0.51923 16.09158,4 3.54824,2.2 6.67703,4.68307 6.95288,5.51794 0.84572,2.55958 -10.54633,7.14989 -17.70914,7.1357 -6.51462,-0.0133 -19.23348,-4.73112 -21.16102,-7.84993 -1.38222,-2.23648 -2.25666,-1.896 -9.92112,3.86296 l -7.098,5.33333 5.80055,0.0293 c 3.19031,0.0161 8.20055,1.12333 11.13388,2.4605 6.41725,2.92534 14,9.10783 14,11.41472 0,2.65396 -6.18712,4.76216 -13.97593,4.76216 -8.8602,0 -11.69522,-1.04492 -19.96819,-7.35982 l -6.52336,-4.97939 -8.09959,4.08956 c -7.33466,3.70335 -7.72184,4.09989 -4.0996,4.19889 6.21404,0.16984 14.18094,4.42856 19.66667,10.51287 6.59019,7.30928 6.43195,9.15976 -0.87703,10.25581 -10.93808,1.64027 -18.68498,-1.35658 -27.09672,-10.48224 l -5.50209,-5.96906 -8.18261,2.96285 -8.18262,2.96285 5.54706,1.66194 c 6.50956,1.9503 16.17946,11.03021 18.33641,17.21762 1.38101,3.96158 1.25655,4.30294 -1.85337,5.08348 -10.9721,2.75383 -24.62159,-5.32345 -32.35854,-19.1486 -1.12508,-2.01041 -2.53852,-1.87872 -16.3643,1.52475 -8.32307,2.04887 -15.86762,4.13277 -16.76566,4.63091 -0.97261,0.53949 2.22806,2.77881 7.91595,5.5383 9.85089,4.77919 23.71685,16.14066 23.71685,19.43307 0,2.9608 -4.04449,2.16928 -6.7972,-1.33024 -3.56486,-4.53199 -15.53948,-12.20656 -26.02585,-16.68004 l -8.94939,-3.81783 -9.44712,4.00976 c -11.35022,4.81752 -22.87404,12.23711 -25.69638,16.54456 -2.18388,3.33296 -7.08406,4.31355 -7.08406,1.41756 z M 562.59039,274.78829 V 141.45496 h -38 -38 V 102.78829 64.121617 h 115.33333 115.33333 v 38.666673 38.66667 h -38 -38 V 274.78829 408.12163 H 601.92372 562.59039 Z M 753.25705,236.12163 V 64.121617 h 96 96 v 38.666673 38.66667 h -57.33333 -57.33334 v 28 28 h 38 38 v 38.66667 38.66666 h -38 -38 v 28 28.00001 h 57.33334 57.33333 v 38.66666 38.66667 h -96 -96 z m 228,0 V 64.121617 h 96.00005 96 v 38.666673 38.66667 h -57.3333 -57.3334 v 28 28 h 38.6667 38.6667 v 38.66667 38.66666 h -38.6667 -38.6667 v 28 28.00001 h 57.3334 57.3333 v 38.66666 38.66667 h -96 -96.00005 z m 229.33335,-0.0913 V 63.938997 l 64.3334,0.49983 c 60.5299,0.47028 64.9318,0.66635 74.4578,3.31667 42.5819,11.84713 65.3736,40.062193 70.5797,87.374233 5.2807,47.98974 -15.2644,90.4035 -52.4064,108.18911 -18.267,8.74728 -25.7636,10.27049 -54.6312,11.10039 l -24.9999,0.71872 v 66.49181 66.49183 h -38.6667 -38.6667 z m 115.0365,-39.98888 c 6.6518,-1.84721 13.7552,-8.2388 15.6978,-14.12452 0.86,-2.60593 1.5418,-8.51112 1.5153,-13.12262 -0.06,-10.46111 -3.5813,-17.87771 -10.5415,-22.20499 -4.5851,-2.85063 -6.8217,-3.1756 -24.7081,-3.58999 l -19.6666,-0.45561 v 27.45561 27.45563 l 16.3333,-0.008 c 8.9833,-0.004 18.5997,-0.63681 21.3698,-1.40607 z m 232.2968,210.14903 c -47.7341,-7.46152 -81.9517,-36.30937 -94.5166,-79.68438 -5.7746,-19.93398 -6.1423,-28.83103 -6.1463,-148.71777 V 64.121617 h 38.6667 38.6666 l 0.028,112.333343 c 0.021,85.55983 0.4312,114.25724 1.7203,120.40544 2.0593,9.82184 7.4169,19.3134 13.5363,23.98088 18.6322,14.21155 54.266,12.20063 68.3657,-3.85808 2.2421,-2.55365 5.4881,-8.14219 7.2133,-12.41896 l 3.1327,-7.77595 0.3945,-116.33333 0.3947,-116.333343 h 38.6053 38.6055 V 175.98036 c 0,67.50789 -0.5469,117.18799 -1.3793,125.29985 -4.5215,44.06059 -23.4275,74.42579 -57.3531,92.11601 -24.1419,12.58849 -59.2753,17.58664 -89.9343,12.79422 z M 1742.5904,236.03109 V 63.940557 l 65,0.5233 c 61.8881,0.49824 65.5425,0.66472 76.3333,3.47762 34.7466,9.05762 57.2715,30.43715 66.2136,62.846813 1.7987,6.51942 2.3988,13.62187 2.4222,28.66667 0.027,17.28929 -0.3922,21.35536 -3.0903,30 -3.8572,12.35839 -9.1384,22.45985 -16.6815,31.90715 l -5.7809,7.24048 7.4584,5.0061 c 15.8404,10.63204 26.8231,25.43882 33.0167,44.51294 5.055,15.56828 5.9666,43.32763 1.9506,59.40856 -7.7877,31.18448 -28.5614,53.52987 -59.206,63.68537 -18.7989,6.2299 -28.7141,6.90607 -101.2678,6.90607 h -66.3683 z m 134,93.26513 c 12.3128,-3.41038 17.9211,-11.72145 17.9707,-26.63155 0.039,-11.63563 -3.7886,-19.17412 -11.9174,-23.47272 -5.5362,-2.9276 -7.1288,-3.07032 -34.263,-3.07032 h -28.457 v 27.33333 27.33334 l 25.6667,-0.008 c 14.6547,-0.004 27.9549,-0.64122 31,-1.48464 z m -13.5477,-135.07059 c 13.4252,-6.61104 17.3742,-29.97543 7.2433,-42.85487 -5.3639,-6.81896 -11.7365,-8.52077 -32.0289,-8.55319 l -18.3334,-0.0293 v 27.45835 27.45836 l 19,-0.47931 c 15.2542,-0.3848 20.0092,-0.97626 24.119,-3.00006 z m 146.2144,41.896 V 64.121617 h 38.6666 38.6667 V 197.45496 330.7883 h 57.3333 57.3334 v 38.66666 38.66667 h -96 -96 z m 228,0 V 64.121617 h 38.6666 38.6667 v 172.000013 172 h -38.6667 -38.6666 z m 259.002,170.67128 c -80.2603,-8.47653 -127.7848,-52.42444 -141.2888,-130.65543 -3.0459,-17.64585 -3.0608,-61.33392 -0.027,-78.69837 8.826,-50.51276 32.8079,-88.06788 70.1583,-109.866263 41.35,-24.13268 104.9494,-30.31707 159.822,-15.54103 l 5.6666,1.52592 v 38.770713 38.77071 l -3,-0.69035 c -21.464,-4.93929 -29.1868,-6.36858 -41.6666,-7.71153 -27.7138,-2.98224 -53.7944,0.48148 -72.6667,9.65069 -11.7165,5.69256 -27.2477,21.28863 -32.9692,33.10699 -8.1777,16.8918 -10.2937,27.52392 -10.2167,51.33333 0.057,17.52268 0.5791,23.19115 2.9235,31.73398 8.7132,31.74905 29.7519,51.73313 62.2624,59.14163 20.8917,4.7608 60.8325,2.51229 86.6813,-4.8798 l 8.652,-2.47425 v 39.20198 39.20197 l -7,2.00283 c -20.2016,5.78001 -62.3616,8.7134 -87.3313,6.07628 z M 185.92372,331.49244 c -17.6,-1.74697 -33.65,-3.22008 -35.66666,-3.27356 l -3.66667,-0.0972 0.0627,-27 c 0.0345,-14.85 0.62549,-34.8 1.31338,-44.33334 0.68791,-9.53333 1.64715,-27.8989 2.13167,-40.81237 l 0.88093,-23.47905 -13.19433,-0.69731 c -7.25688,-0.38352 -14.17452,-1.10536 -15.37254,-1.60408 -1.96565,-0.81828 -11.31663,-20.28027 -15.92611,-33.14668 -2.09219,-5.83988 -1.85996,-6.11959 8.10432,-9.76111 3.3,-1.206 13.5,-5.20274 22.66667,-8.88166 28.58387,-11.47171 32.91831,-12.84127 47.48702,-15.00451 13.71721,-2.03681 14.26423,-2.02156 17.00967,0.47452 4.991,4.53769 8.44122,5.57892 18.48633,5.57892 8.79844,0 10.38796,-0.41403 15.21327,-3.96259 4.57766,-3.36645 5.97114,-3.77629 9.26266,-2.72428 2.13091,0.68107 7.77439,2.19884 12.54106,3.37284 30.30474,7.46387 73.33333,25.69063 73.33333,31.06374 0,1.40093 -3.72073,9.91094 -8.26828,18.91114 l -8.26829,16.36402 -13.06416,-0.71987 c -7.1853,-0.39593 -13.38926,-0.19389 -13.78658,0.449 -0.39732,0.64288 -0.1188,19.33623 0.61898,41.54077 0.73776,22.20454 1.63829,53.33219 2.00116,69.17256 l 0.65978,28.80066 -14.27964,0.88655 c -37.81257,2.34754 -57.87641,2.09929 -90.27964,-1.11706 z" />

</svg>
