<svg xmlns="http://www.w3.org/2000/svg"
     xmlns:xlink="http://www.w3.org/1999/xlink"
     lang="en-GB"
     viewBox="0 0 207 207">

<title>Security.txt Protocol Icon</title>

<defs>

  <style type="text/css"><![CDATA[
  
  rect {
    width: 207px;
    height: 207px;
    fill: rgb(191, 0, 0);
  }
  
  path {
    fill: rgb(255, 255, 255);
    stroke-width: 1;
    transform: translateX(14px);
  }
  
  #letter {
    transform: scale(0.283); 
  }
  
  #letter rect {
    width: 212px;
    height: 212px;
    fill: rgba(155, 4, 4, 0.9);
    stroke: rgb(63, 0, 0);
    stroke-width: 10.6px;
  }
  
  #letter path {
    transform: translate(1px, 5px);
  }
  
  #letter path:nth-of-type(1) {
    stroke: rgb(63, 0, 0);
    stroke-width: 30px;  
  }
  
  #letter path:nth-of-type(2) {
    fill: rgb(255, 255, 255);
  }
  
  ]]></style>
  
  
  <g id="letter">
  
    <rect />
  
    <path d="m 99.676963,178.39151 c -9.134969,-0.96039 -19.712296,-4.15747 -28.656257,-8.66158 l -6.969245,-3.50965 -3.40676,4.10129 c -3.86981,4.65874 -8.361731,5.61253 -10.205708,2.16703 -1.509929,-2.82133 -1.365685,-33.33524 0.164816,-34.86574 0.66,-0.66 2.694647,-1.2 4.52144,-1.2 2.68122,0 3.540492,0.53007 4.457881,2.75 4.791704,11.59512 5.822437,13.23368 10.481169,16.66197 6.285561,4.62544 18.419681,9.32297 27.355732,10.59033 13.915259,1.97354 31.110319,-1.68573 41.457739,-8.82259 14.43923,-9.95908 14.27151,-28.79975 -0.33878,-38.05478 -6.2105,-3.9341 -10.73935,-5.33948 -30.76734,-9.54764 C 74.700256,103.05139 65.30664,98.01608 57.790943,83.20876 48.934268,65.759468 58.370624,43.008392 78.494995,33.291238 c 7.975243,-3.850887 15.151166,-5.204018 26.908815,-5.074074 12.49632,0.138108 20.33211,2.005399 28.32167,6.749128 3.20192,1.901111 6.12692,3.438277 6.5,3.415924 0.37308,-0.02235 2.23633,-1.372352 4.14056,-3 4.0459,-3.458261 8.45838,-3.910468 10.00259,-1.0251 1.363,2.546793 1.363,33.584689 0,36.131482 -1.04675,1.955859 -5.38698,2.626997 -7.55953,1.168946 -0.6021,-0.404078 -2.04654,-3.89509 -3.20988,-7.757806 C 140.78549,54.557057 136.37326,49.493371 127.09979,44.964162 109.61278,36.423421 87.118681,38.71455 74.730936,50.298174 65.784262,58.664095 63.739799,68.754824 69.0234,78.4685 c 5.54329,10.1911 11.812964,13.12848 41.45818,19.42341 24.40196,5.18157 32.47669,8.31377 40.50118,15.71048 2.40906,2.2206 5.62682,6.57613 7.15058,9.67896 2.46649,5.02252 2.77047,6.73871 2.77047,15.64151 0,8.54746 -0.35025,10.71159 -2.41129,14.8989 -4.76531,9.68146 -12.97368,16.33172 -25.88217,20.96921 -5.78914,2.07981 -22.78483,5.10581 -25.20654,4.4879 -0.275,-0.0702 -3.75208,-0.46947 -7.726847,-0.88736 z" />
  
    <path d="m 99.676963,178.39151 c -9.134969,-0.96039 -19.712296,-4.15747 -28.656257,-8.66158 l -6.969245,-3.50965 -3.40676,4.10129 c -3.86981,4.65874 -8.361731,5.61253 -10.205708,2.16703 -1.509929,-2.82133 -1.365685,-33.33524 0.164816,-34.86574 0.66,-0.66 2.694647,-1.2 4.52144,-1.2 2.68122,0 3.540492,0.53007 4.457881,2.75 4.791704,11.59512 5.822437,13.23368 10.481169,16.66197 6.285561,4.62544 18.419681,9.32297 27.355732,10.59033 13.915259,1.97354 31.110319,-1.68573 41.457739,-8.82259 14.43923,-9.95908 14.27151,-28.79975 -0.33878,-38.05478 -6.2105,-3.9341 -10.73935,-5.33948 -30.76734,-9.54764 C 74.700256,103.05139 65.30664,98.01608 57.790943,83.20876 48.934268,65.759468 58.370624,43.008392 78.494995,33.291238 c 7.975243,-3.850887 15.151166,-5.204018 26.908815,-5.074074 12.49632,0.138108 20.33211,2.005399 28.32167,6.749128 3.20192,1.901111 6.12692,3.438277 6.5,3.415924 0.37308,-0.02235 2.23633,-1.372352 4.14056,-3 4.0459,-3.458261 8.45838,-3.910468 10.00259,-1.0251 1.363,2.546793 1.363,33.584689 0,36.131482 -1.04675,1.955859 -5.38698,2.626997 -7.55953,1.168946 -0.6021,-0.404078 -2.04654,-3.89509 -3.20988,-7.757806 C 140.78549,54.557057 136.37326,49.493371 127.09979,44.964162 109.61278,36.423421 87.118681,38.71455 74.730936,50.298174 65.784262,58.664095 63.739799,68.754824 69.0234,78.4685 c 5.54329,10.1911 11.812964,13.12848 41.45818,19.42341 24.40196,5.18157 32.47669,8.31377 40.50118,15.71048 2.40906,2.2206 5.62682,6.57613 7.15058,9.67896 2.46649,5.02252 2.77047,6.73871 2.77047,15.64151 0,8.54746 -0.35025,10.71159 -2.41129,14.8989 -4.76531,9.68146 -12.97368,16.33172 -25.88217,20.96921 -5.78914,2.07981 -22.78483,5.10581 -25.20654,4.4879 -0.275,-0.0702 -3.75208,-0.46947 -7.726847,-0.88736 z" />
  
  </g>
  
</defs>

<rect />

<path d="M 0.78856714,103.89428 Z m 142.00000286,23.5 V 74.394285 h -2.5 -2.5 v 50.499995 50.5 H 85.788571 33.788567 v -57.5 -57.499995 h 11.89302 c 9.922375,0 11.993582,-0.262097 12.499995,-1.581787 0.333844,-0.869984 0.606989,-6.269984 0.606989,-12 V 36.394285 h 21.5 21.499999 v -2.5 -2.5 H 78.052475 54.31638 L 41.552477,44.129857 28.788567,56.865428 v 61.764422 61.76443 H 85.788571 142.78857 Z M 38.788567,54.552792 c 0,-0.925254 12.47027,-13.158507 13.41345,-13.158507 0.32261,0 0.58655,3.15 0.58655,7 v 7 h -7 c -3.85,0 -7,-0.378672 -7,-0.841493 z M 127.78857,157.89428 v -2.5 H 85.788571 43.788567 v 2.5 2.5 h 42.000004 41.999999 z m 0,-19 v -2.5 H 85.788571 43.788567 v 2.5 2.5 h 42.000004 41.999999 z m 0,-19 v -2.5 H 85.788571 43.788567 v 2.5 2.5 h 42.000004 41.999999 z m 0,-19 V 98.394281 H 85.788571 43.788567 v 2.499999 2.5 h 42.000004 41.999999 z m 0,-18.999995 v -2.5 H 85.788571 43.788567 v 2.5 2.499996 h 42.000004 41.999999 z m 11.55899,-14.962766 c 0.89181,-4.753756 5.9662,-7.918695 9.53007,-5.943986 1.32602,0.734734 2.71541,1.351827 3.08755,1.371317 0.37213,0.01949 2.13381,-2.511491 3.91484,-5.624401 l 3.23823,-5.659836 -2.66484,-2.292198 c -3.7166,-3.196886 -3.73776,-8.957481 -0.0437,-11.903003 l 2.62112,-2.090002 -2.04284,-3.947563 c -3.68115,-7.113451 -4.38695,-7.706951 -7.67745,-6.455902 -4.26433,1.621293 -9.14563,-1.1722 -9.99925,-5.722418 l -0.63,-3.358176 -6.69635,0.294467 c -6.69474,0.294397 -6.69641,0.295211 -7.00018,3.416872 -0.24594,2.527409 -1.03326,3.451327 -4.13167,4.848514 -2.96026,1.334892 -4.29304,1.477134 -5.88042,0.627595 -2.93221,-1.569275 -2.92803,-1.571697 -6.20609,3.597267 -3.49837,5.516358 -3.69853,7.373132 -0.97798,9.072146 1.50508,0.93994 2,2.332028 2,5.625537 0,3.572644 -0.4623,4.679429 -2.51691,6.025662 -2.76575,1.812188 -2.72148,2.014025 2.14038,9.756901 2.18436,3.478763 2.46743,3.615935 5.27495,2.556215 4.18855,-1.581015 10.10155,1.538038 10.10155,5.328495 0,3.658512 0.54317,3.939263 7.62135,3.939263 h 6.28802 z m -10.89232,-1.203901 c -0.36667,-0.366666 -0.66667,-1.686342 -0.66667,-2.932612 0,-1.476215 -0.78417,-2.509417 -2.25,-2.964529 -1.2375,-0.384221 -3.375,-1.479948 -4.75,-2.434949 -1.67485,-1.163259 -3.16012,-1.473216 -4.5,-0.939089 -3.0919,1.23255 -3.34838,1.131734 -4.93722,-1.940744 -1.37109,-2.651402 -1.33365,-3.01879 0.47432,-4.654988 2.8741,-2.601018 2.7961,-11.971149 -0.11929,-14.331889 -2.02358,-1.638601 -2.0326,-1.772441 -0.32047,-4.755664 1.55515,-2.709695 2.06311,-2.95888 4.33219,-2.125216 3.80336,1.397363 11.60326,-3.167595 12.42399,-7.271251 0.5266,-2.633012 1.00944,-2.982402 4.12148,-2.982402 3.24648,0 3.525,0.235978 3.525,2.98658 0,2.447458 0.60977,3.241356 3.37792,4.397966 1.85786,0.776263 3.70404,1.939053 4.10263,2.58398 0.46157,0.746835 2.04903,0.950058 4.37208,0.559703 3.21688,-0.540552 3.84123,-0.291967 5.2899,2.106173 1.563,2.587418 1.5401,2.802003 -0.47306,4.432159 -1.68101,1.361204 -2.13468,2.885521 -2.20857,7.420747 -0.0792,4.860756 0.23853,5.92487 2.14129,7.171605 2.15719,1.413448 2.17672,1.565114 0.56604,4.396198 -1.8474,3.247172 -2.3835,3.435229 -5.31716,1.865185 -1.53768,-0.822944 -2.41382,-0.732718 -3.68426,0.379411 -0.91674,0.802513 -3.12931,2.199936 -4.91681,3.105384 -2.34744,1.189085 -3.25,2.333412 -3.25,4.120589 0,2.137563 -0.45367,2.47432 -3.33333,2.47432 -1.83334,0 -3.63334,-0.3 -4,-0.666667 z m 9.87878,-16.787878 c 6.7296,-6.729597 -0.87689,-18.136092 -9.66633,-14.495386 -3.10599,1.286545 -5.87912,5.448531 -5.87912,8.823546 0,1.085114 1.165,3.357461 2.58889,5.04966 3.40661,4.048524 9.24964,4.329108 12.95656,0.62218 z m -9.89046,-2.374196 c -3.33168,-3.681462 -1.02129,-9.171259 3.85973,-9.171259 2.35721,0 5.48528,3.263357 5.48528,5.722506 0,1.905185 -3.73495,5.277494 -5.84501,5.277494 -1.01476,0 -2.58976,-0.822933 -3.5,-1.828741 z" />

<use id="letter-s" href="#letter" x="70" y="90" />

</svg>
