<svg xmlns="http://www.w3.org/2000/svg"
     xmlns:xlink="http://www.w3.org/1999/xlink"
     lang="en-GB"
     viewBox="0 0 768 768">

  <title>XML Logo</title>

  <defs>

    <style type="text/css"><![CDATA[

    rect {
      width: 768px;
      height: 768px;
      fill: rgb(191, 0, 0);
    }

    #document {
      fill: rgb(255, 255, 255);
    }

    #format {
      width: 768px;
      height: 294px;
      fill: rgb(255, 255, 255);
      transform: translateY(336px);
    }

    #xml {
      width: 768px;
      height: 294px;
      fill: rgb(191, 0, 0);
      transform: translateY(336px);
    }

    ]]></style>

  </defs>

  <rect />

  <path id="document" d="m 132.5,759.07241 c -6.92255,-0.45116 -9.84946,-1.11314 -12.68007,-2.86782 -4.52369,-2.80423 -9.07717,-7.89316 -12.06379,-13.48239 L 105.5,738.5 105.22836,384.75947 104.95672,31.018931 l 2.48987,-4.759465 c 3.38153,-6.463915 7.05022,-10.489382 13.4039,-14.707418 L 126.20098,8 h 189.8217 189.82171 l 3.8278,4.380421 c 2.1053,2.409231 11.27234,12.646731 20.37121,22.75 26.15606,29.043348 72.59918,82.005409 109.58848,124.970739 l 22.0403,25.60116 0.66161,23.39884 c 0.36388,12.86936 0.66264,136.92927 0.66391,275.68868 l 0.002,252.28984 -2.10338,4.21016 c -2.68418,5.37272 -10.23948,13.24418 -15.39662,16.04093 l -4,2.16923 -250,0.0795 c -137.5,0.0437 -254.05,-0.18447 -259,-0.50707 z M 632,468.5 V 208 l -24.75,-0.0725 c -54.94078,-0.16085 -113.70477,-1.60724 -116.33473,-2.8634 -1.4216,-0.67901 -3.4466,-2.65872 -4.5,-4.39935 C 484.58288,197.63694 484.47836,194.0816 484,118.5 L 483.5,39.5 309.75,39.247183 136,38.994367 V 383.99718 729 h 248 248 z" />

  <path id="format" d="M 81.92,292.85763 C 65.453616,290.1375 51.60581,277.55156 47.46234,261.5399 45.16103,252.6469 45.13196,40.44567 47.43084,31.61966 50.60917,19.41723 58.6421,9.94429 70.689677,4.19136 L 78.42,0.5 h 307.5 307.5 l 7.5,3.587527 c 12.1629,5.817964 20.06925,15.402253 23.46709,28.447433 1.33242,5.11549 1.52971,20.08157 1.50846,114.42514 -0.0157,69.49927 -0.38809,110.11726 -1.03544,112.92524 -3.88737,16.86196 -18.54081,30.34907 -35.94011,33.07952 -8.34609,1.30974 -599.05405,1.20539 -607,-0.10723 z" />

  <path id="xml" d="M 81.92,292.85763 m 83.48058,-75.47902 c 7.28297,-16.01676 14.50301,-32.33609 16.04453,-36.26517 l 2.80277,-7.14379 18.20758,36.26518 18.20758,36.26517 26.55734,0.2662 26.55734,0.2662 -29.9516,-51.64444 -29.9516,-51.64444 27.166,-47.12176 C 255.98181,70.70479 268.8688,48.4875 269.67826,47.25 L 271.15002,45 244.78501,45.0229 218.42,45.0458 208.47172,66.73534 c -5.47155,11.92924 -12.29075,27.46153 -15.15377,34.51619 -2.86302,7.05466 -5.52554,12.8325 -5.9167,12.83963 -0.39117,0.007 -3.74706,-6.64793 -7.45755,-14.78905 C 176.23321,91.16091 168.89102,75.6125 163.62771,64.75 L 154.05806,45 H 127.9057 c -14.3838,0 -26.00237,0.37168 -25.81903,0.82596 0.18333,0.45427 12.82915,22.94517 28.10182,49.97978 l 27.7685,49.15382 -27.86575,48.77022 c -15.32617,26.82362 -28.40434,49.79023 -29.06261,51.03691 l -1.19686,2.26669 26.16353,-0.26669 L 152.15882,246.5 Z M 336.32013,244.75 c 0.46479,-2.38636 5.23615,-106.67196 6.29101,-137.5 0.34346,-10.0375 0.89597,-18.25 1.22779,-18.25 0.33182,0 2.07825,7.31365 3.88096,16.25255 4.72783,23.44344 18.94209,78.03593 34.75877,133.49745 l 1.49721,5.25 h 17.97206 c 9.88464,0 17.97207,-0.18387 17.97207,-0.4086 0,-0.22473 7.22743,-23.51223 16.06096,-51.75 16.49466,-52.7278 24.17179,-78.57671 28.0194,-94.3414 1.20812,-4.95 2.52074,-9.36397 2.91693,-9.80882 0.3962,-0.44485 0.96391,14.40515 1.26158,33 0.29768,18.59485 1.35095,54.62132 2.3406,80.05882 L 472.31884,247 H 494.61942 516.92 l 0.0149,-2.25 C 516.9634,240.4295 506.8768,55.45546 506.32881,50.25 L 505.77613,45 h -29.7406 -29.74059 l -11.26203,35.09086 c -10.45733,32.58356 -19.88132,65.44572 -26.59182,92.72766 -1.5312,6.22519 -3.12519,10.95019 -3.5422,10.5 C 404.48185,182.86834 402.94144,176.65 401.47573,169.5 396.24814,143.99899 385.28322,103.41731 368.30941,46.75 367.82515,45.13328 365.47349,45 337.43221,45 h -30.35302 l -0.59715,6.25 c -0.32842,3.4375 -3.06255,45.625 -6.07583,93.75 -3.01328,48.125 -5.75825,90.7625 -6.09994,94.75 l -0.62125,7.25 h 21.09844 c 21.08335,0 21.09875,-0.002 21.53667,-2.25 z M 678.92,228.01134 V 209.02269 L 638.67,208.76134 598.42,208.5 598.16415,126.75 597.90831,45 H 574.91415 551.92 v 101 101 h 63.5 63.5 z" />

</svg>
