<svg xmlns="http://www.w3.org/2000/svg"
     xmlns:xlink="http://www.w3.org/1999/xlink"
     lang="en-GB"
     viewBox="0 0 326 326">

  <title>World Wide Web Icon</title>

  <defs>
    <style type="text/css"><![CDATA[

      rect {
        width: 326px;
        height: 326px;
        fill: rgb(255, 0, 0);
      }

      path {
        fill: rgba(0, 0, 0, 0);
        transform: translate(-1px, 6px);
      }

      path.webIcon {
        fill: rgb(255, 255, 255);
      }

    ]]></style>
  </defs>

  <rect />

  <path d=" M327.000000,114.000000 C327.000000,180.666656 327.000000,246.833313 327.000000,313.000000 C218.333359,313.000000 109.666733,313.000000 1.000070,313.000000 C1.000047,209.000046 1.000047,105.000099 1.000023,1.000112 C109.666595,1.000075 218.333191,1.000075 326.999878,1.000037 C327.000000,38.500000 327.000000,76.000000 327.000000,114.000000  M314.827209,160.488800 C314.243134,151.709702 314.263031,142.841293 312.980377,134.165482 C301.762146,58.285480 229.690643,-4.910369 140.994507,8.536048 C29.976610,25.366463 -23.699060,153.258240 40.334820,245.200546 C86.908905,312.073395 179.555054,326.703430 240.462799,288.342072 C287.198334,258.906769 312.855988,217.143478 314.827209,160.488800  z"/>
  <path class="webIcon" d=" M314.827271,160.985184 C312.855988,217.143478 287.198334,258.906769 240.462799,288.342072 C179.555054,326.703430 86.908905,312.073395 40.334820,245.200546 C-23.699060,153.258240 29.976610,25.366463 140.994507,8.536048 C229.690643,-4.910369 301.762146,58.285480 312.980377,134.165482 C314.263031,142.841293 314.243134,151.709702 314.827271,160.985184  M106.776993,179.814056 C106.901054,162.520782 106.927711,145.225815 107.226616,127.935555 C107.290817,124.221169 106.622490,122.500404 102.416954,122.537148 C83.275826,122.704399 64.132042,122.650055 44.989922,122.545570 C41.415909,122.526062 39.639782,123.748756 38.779980,127.390663 C33.953033,147.836380 33.934753,168.213196 38.804771,188.650314 C39.596512,191.972885 41.070190,193.402664 44.554379,193.382828 C64.362770,193.270081 84.172028,193.310303 103.980942,193.274811 C104.928421,193.273102 105.875496,193.046646 106.822060,192.924957 C106.822060,188.665833 106.822060,184.713028 106.776993,179.814056  M243.500092,193.270874 C256.656738,193.296005 269.814270,193.245438 282.969421,193.398712 C286.320190,193.437759 288.206085,192.394180 289.009338,188.980667 C293.862396,168.357422 293.929688,147.764832 289.019775,127.145134 C288.310669,124.167229 286.939148,122.577339 283.589813,122.590828 C263.938934,122.669983 244.287384,122.631851 224.636353,122.557510 C221.638062,122.546173 220.606949,123.683044 220.623337,126.729004 C220.735245,147.525330 220.757431,168.322968 220.623947,189.118988 C220.602081,192.526550 221.894119,193.469269 225.014603,193.383987 C230.839798,193.224777 236.671310,193.296371 243.500092,193.270874  M136.643448,193.287033 C153.636124,193.285187 170.628815,193.286957 187.621490,193.280106 C197.080322,193.276291 198.016708,193.294815 198.263840,184.043365 C198.778687,164.769684 198.268753,145.465469 197.906464,126.178955 C197.883621,124.962143 195.518768,122.763985 194.224594,122.749832 C174.069565,122.529465 153.911423,122.595924 133.753998,122.591194 C131.140228,122.590584 129.796844,123.685890 129.795959,126.490837 C129.789490,146.948730 129.778061,167.407150 129.612030,187.864120 C129.575882,192.317734 131.513153,193.879929 136.643448,193.287033  M147.376740,47.960918 C140.229355,63.119244 136.395157,79.237137 133.433228,95.626915 C132.814713,99.049492 133.987167,100.119743 137.280273,100.105881 C155.066895,100.031013 172.854202,100.026855 190.640793,100.103745 C193.863617,100.117676 195.301163,99.320709 194.373840,95.757774 C191.116119,83.240952 188.889526,70.371078 184.561111,58.245792 C181.390594,49.364170 176.183762,40.979977 170.671066,33.238159 C166.431122,27.283737 161.893768,27.597166 157.016800,33.251446 C153.380875,37.466862 150.792709,42.585983 147.376740,47.960918  M185.788361,255.141205 C188.553711,244.040298 191.243835,232.919830 194.120667,221.847885 C195.306198,217.285202 194.110962,215.733231 189.159790,215.813736 C172.031082,216.092255 154.895142,215.919830 137.761993,215.943298 C136.335831,215.945267 134.909927,216.128738 132.707642,216.281845 C134.177277,223.638977 135.255966,230.500977 136.946930,237.208664 C140.807236,252.521637 145.061615,267.744049 154.926331,280.558807 C161.193970,288.700775 167.202118,289.047028 172.781555,280.518585 C177.813019,272.827728 181.266602,264.104645 185.788361,255.141205  M54.141487,90.717453 C52.589558,93.509041 51.037624,96.300621 49.275696,99.469955 C50.915066,99.802902 51.543758,100.041077 52.172901,100.042274 C69.979118,100.076172 87.785904,100.016518 105.591270,100.149673 C109.975754,100.182457 110.620026,97.587723 111.155396,94.144348 C114.153824,74.859322 118.894264,56.057175 127.154152,38.268223 C127.661087,37.176445 127.934021,35.976017 128.589615,34.001637 C96.453789,43.947540 71.942566,62.322079 54.141487,90.717453  M214.778091,233.179230 C211.225784,249.559708 206.812653,265.662262 199.164429,280.791901 C221.868835,281.354218 271.511841,240.724945 277.799286,216.541779 C277.390137,216.363541 276.963989,216.016312 276.536804,216.015060 C258.237732,215.961349 239.937180,215.837540 221.641937,216.091675 C220.076721,216.113403 217.706451,218.408005 217.169769,220.107666 C215.930115,224.033478 215.587418,228.242523 214.778091,233.179230  M85.499969,215.933304 C73.662346,215.933304 61.824722,215.933304 49.644783,215.933304 C58.928486,242.691818 105.615448,280.864319 128.590973,280.888916 C119.281914,261.401367 113.940857,240.910690 110.836342,219.780884 C110.391281,216.751694 108.412567,215.798935 105.481682,215.860504 C99.156700,215.993317 92.827438,215.922089 85.499969,215.933304  M202.406982,34.956207 C201.368301,35.013016 200.329620,35.069828 199.109695,35.136551 C208.609512,54.029369 213.445267,73.841522 216.644165,94.080299 C217.377533,98.720184 219.149948,100.232315 223.712509,100.175850 C240.202988,99.971764 256.697418,100.093262 273.190277,100.062744 C274.751831,100.059853 276.313019,99.853218 278.733002,99.679558 C261.684204,67.631905 236.583115,46.545639 202.406982,34.956207  z"/>
  <path d=" M106.799530,180.287140 C106.822060,184.713028 106.822060,188.665833 106.822060,192.924957 C105.875496,193.046646 104.928421,193.273102 103.980942,193.274811 C84.172028,193.310303 64.362770,193.270081 44.554379,193.382828 C41.070190,193.402664 39.596512,191.972885 38.804771,188.650314 C33.934753,168.213196 33.953033,147.836380 38.779980,127.390663 C39.639782,123.748756 41.415909,122.526062 44.989922,122.545570 C64.132042,122.650055 83.275826,122.704399 102.416954,122.537148 C106.622490,122.500404 107.290817,124.221169 107.226616,127.935555 C106.927711,145.225815 106.901054,162.520782 106.799530,180.287140  z"/>
  <path d=" M243.000137,193.271393 C236.671310,193.296371 230.839798,193.224777 225.014603,193.383987 C221.894119,193.469269 220.602081,192.526550 220.623947,189.118988 C220.757431,168.322968 220.735245,147.525330 220.623337,126.729004 C220.606949,123.683044 221.638062,122.546173 224.636353,122.557510 C244.287384,122.631851 263.938934,122.669983 283.589813,122.590828 C286.939148,122.577339 288.310669,124.167229 289.019775,127.145134 C293.929688,147.764832 293.862396,168.357422 289.009338,188.980667 C288.206085,192.394180 286.320190,193.437759 282.969421,193.398712 C269.814270,193.245438 256.656738,193.296005 243.000137,193.271393  z"/>
  <path d=" M136.162003,193.290619 C131.513153,193.879929 129.575882,192.317734 129.612030,187.864120 C129.778061,167.407150 129.789490,146.948730 129.795959,126.490837 C129.796844,123.685890 131.140228,122.590584 133.753998,122.591194 C153.911423,122.595924 174.069565,122.529465 194.224594,122.749832 C195.518768,122.763985 197.883621,124.962143 197.906464,126.178955 C198.268753,145.465469 198.778687,164.769684 198.263840,184.043365 C198.016708,193.294815 197.080322,193.276291 187.621490,193.280106 C170.628815,193.286957 153.636124,193.285187 136.162003,193.290619  z"/>
  <path d=" M147.557343,47.631783 C150.792709,42.585983 153.380875,37.466862 157.016800,33.251446 C161.893768,27.597166 166.431122,27.283737 170.671066,33.238159 C176.183762,40.979977 181.390594,49.364170 184.561111,58.245792 C188.889526,70.371078 191.116119,83.240952 194.373840,95.757774 C195.301163,99.320709 193.863617,100.117676 190.640793,100.103745 C172.854202,100.026855 155.066895,100.031013 137.280273,100.105881 C133.987167,100.119743 132.814713,99.049492 133.433228,95.626915 C136.395157,79.237137 140.229355,63.119244 147.557343,47.631783  z"/>
  <path d=" M185.602234,255.488998 C181.266602,264.104645 177.813019,272.827728 172.781555,280.518585 C167.202118,289.047028 161.193970,288.700775 154.926331,280.558807 C145.061615,267.744049 140.807236,252.521637 136.946930,237.208664 C135.255966,230.500977 134.177277,223.638977 132.707642,216.281845 C134.909927,216.128738 136.335831,215.945267 137.761993,215.943298 C154.895142,215.919830 172.031082,216.092255 189.159790,215.813736 C194.110962,215.733231 195.306198,217.285202 194.120667,221.847885 C191.243835,232.919830 188.553711,244.040298 185.602234,255.488998  z"/>
  <path d=" M54.344196,90.412781 C71.942566,62.322079 96.453789,43.947540 128.589615,34.001637 C127.934021,35.976017 127.661087,37.176445 127.154152,38.268223 C118.894264,56.057175 114.153824,74.859322 111.155396,94.144348 C110.620026,97.587723 109.975754,100.182457 105.591270,100.149673 C87.785904,100.016518 69.979118,100.076172 52.172901,100.042274 C51.543758,100.041077 50.915066,99.802902 49.275696,99.469955 C51.037624,96.300621 52.589558,93.509041 54.344196,90.412781  z"/>
  <path d=" M214.829498,232.757965 C215.587418,228.242523 215.930115,224.033478 217.169769,220.107666 C217.706451,218.408005 220.076721,216.113403 221.641937,216.091675 C239.937180,215.837540 258.237732,215.961349 276.536804,216.015060 C276.963989,216.016312 277.390137,216.363541 277.799286,216.541779 C271.511841,240.724945 221.868835,281.354218 199.164429,280.791901 C206.812653,265.662262 211.225784,249.559708 214.829498,232.757965  z"/>
  <path d=" M85.999947,215.933838 C92.827438,215.922089 99.156700,215.993317 105.481682,215.860504 C108.412567,215.798935 110.391281,216.751694 110.836342,219.780884 C113.940857,240.910690 119.281914,261.401367 128.590973,280.888916 C105.615448,280.864319 58.928486,242.691818 49.644783,215.933304 C61.824722,215.933304 73.662346,215.933304 85.999947,215.933838  z"/>
  <path d=" M202.790558,35.051029 C236.583115,46.545639 261.684204,67.631905 278.733002,99.679558 C276.313019,99.853218 274.751831,100.059853 273.190277,100.062744 C256.697418,100.093262 240.202988,99.971764 223.712509,100.175850 C219.149948,100.232315 217.377533,98.720184 216.644165,94.080299 C213.445267,73.841522 208.609512,54.029369 199.109695,35.136551 C200.329620,35.069828 201.368301,35.013016 202.790558,35.051029  z"/>

</svg>
