<svg xmlns="http://www.w3.org/2000/svg"
     xmlns:xlink="http://www.w3.org/1999/xlink"
     lang="en-GB"
     viewBox="0 0 768 768">

  <title>XML Logo</title>

  <defs>

    <style type="text/css"><![CDATA[

    rect {
      width: 768px;
      height: 768px;
      fill: rgb(191, 0, 0);
    }

    #document {
      fill: rgb(255, 255, 255);
    }

    #format {
      width: 768px;
      height: 294px;
      fill: rgb(255, 255, 255);
      transform: translateY(350px);
    }

    #xml {
      width: 768px;
      height: 294px;
      fill: rgb(191, 0, 0);
      transform: translateY(350px);
    }

    ]]></style>

  </defs>

  <rect />

  <path id="document" d="M 125.87093,758.52375 C 117.26275,755.35636 111.42321,749.69001 107.29627,740.5 105.57887,736.67563 105.5,721.0222 105.5,384 V 31.5 l 2.30811,-5.098821 C 110.51406,20.423487 116.66689,14.118637 123,10.833944 L 127.5,8.5 314.75742,8.2396782 c 157.26405,-0.2186256 187.78572,-0.03958 190.5558,1.1178325 2.36898,0.9898243 24.54815,25.6467933 78.71227,87.5058103 41.47764,47.370209 76.10253,87.367189 76.9442,88.882169 C 662.33301,188.19942 662.5,218.39917 662.5,462.5 v 274 l -2.3818,5.27011 c -3.20071,7.08211 -11.55823,14.68915 -18.35629,16.70795 -4.53224,1.34593 -34.44901,1.51379 -258.69341,1.45148 -208.88491,-0.058 -254.20801,-0.30577 -257.19757,-1.40579 z M 632.5,464.5 v -257 L 563,207 c -76.65501,-0.55147 -71.99827,-0.12429 -76.3068,-7 L 484.5,196.5 484.22114,117.24719 483.94228,37.994385 309.72114,38.247193 135.5,38.5 135.25107,379 c -0.13692,187.275 -0.0382,341.06339 0.21937,341.75198 0.37367,0.99896 50.64591,1.20106 248.74894,1 L 632.5,721.5 Z" />

  <path id="format" d="M 81.92,292.85763 C 65.453616,290.1375 51.60581,277.55156 47.46234,261.5399 45.16103,252.6469 45.13196,40.44567 47.43084,31.61966 50.60917,19.41723 58.6421,9.94429 70.689677,4.19136 L 78.42,0.5 h 307.5 307.5 l 7.5,3.587527 c 12.1629,5.817964 20.06925,15.402253 23.46709,28.447433 1.33242,5.11549 1.52971,20.08157 1.50846,114.42514 -0.0157,69.49927 -0.38809,110.11726 -1.03544,112.92524 -3.88737,16.86196 -18.54081,30.34907 -35.94011,33.07952 -8.34609,1.30974 -599.05405,1.20539 -607,-0.10723 z" />

  <path id="xml" d="M 81.92,292.85763 m 83.48058,-75.47902 c 7.28297,-16.01676 14.50301,-32.33609 16.04453,-36.26517 l 2.80277,-7.14379 18.20758,36.26518 18.20758,36.26517 26.55734,0.2662 26.55734,0.2662 -29.9516,-51.64444 -29.9516,-51.64444 27.166,-47.12176 C 255.98181,70.70479 268.8688,48.4875 269.67826,47.25 L 271.15002,45 244.78501,45.0229 218.42,45.0458 208.47172,66.73534 c -5.47155,11.92924 -12.29075,27.46153 -15.15377,34.51619 -2.86302,7.05466 -5.52554,12.8325 -5.9167,12.83963 -0.39117,0.007 -3.74706,-6.64793 -7.45755,-14.78905 C 176.23321,91.16091 168.89102,75.6125 163.62771,64.75 L 154.05806,45 H 127.9057 c -14.3838,0 -26.00237,0.37168 -25.81903,0.82596 0.18333,0.45427 12.82915,22.94517 28.10182,49.97978 l 27.7685,49.15382 -27.86575,48.77022 c -15.32617,26.82362 -28.40434,49.79023 -29.06261,51.03691 l -1.19686,2.26669 26.16353,-0.26669 L 152.15882,246.5 Z M 336.32013,244.75 c 0.46479,-2.38636 5.23615,-106.67196 6.29101,-137.5 0.34346,-10.0375 0.89597,-18.25 1.22779,-18.25 0.33182,0 2.07825,7.31365 3.88096,16.25255 4.72783,23.44344 18.94209,78.03593 34.75877,133.49745 l 1.49721,5.25 h 17.97206 c 9.88464,0 17.97207,-0.18387 17.97207,-0.4086 0,-0.22473 7.22743,-23.51223 16.06096,-51.75 16.49466,-52.7278 24.17179,-78.57671 28.0194,-94.3414 1.20812,-4.95 2.52074,-9.36397 2.91693,-9.80882 0.3962,-0.44485 0.96391,14.40515 1.26158,33 0.29768,18.59485 1.35095,54.62132 2.3406,80.05882 L 472.31884,247 H 494.61942 516.92 l 0.0149,-2.25 C 516.9634,240.4295 506.8768,55.45546 506.32881,50.25 L 505.77613,45 h -29.7406 -29.74059 l -11.26203,35.09086 c -10.45733,32.58356 -19.88132,65.44572 -26.59182,92.72766 -1.5312,6.22519 -3.12519,10.95019 -3.5422,10.5 C 404.48185,182.86834 402.94144,176.65 401.47573,169.5 396.24814,143.99899 385.28322,103.41731 368.30941,46.75 367.82515,45.13328 365.47349,45 337.43221,45 h -30.35302 l -0.59715,6.25 c -0.32842,3.4375 -3.06255,45.625 -6.07583,93.75 -3.01328,48.125 -5.75825,90.7625 -6.09994,94.75 l -0.62125,7.25 h 21.09844 c 21.08335,0 21.09875,-0.002 21.53667,-2.25 z M 678.92,228.01134 V 209.02269 L 638.67,208.76134 598.42,208.5 598.16415,126.75 597.90831,45 H 574.91415 551.92 v 101 101 h 63.5 63.5 z" />

</svg>
