<svg xmlns="http://www.w3.org/2000/svg"
     lang="en-GB"
     viewBox="0 0 1792 1792">

  <title>Resize Icon</title>

  <defs>

    <style><![CDATA[

      rect {
        width: 1400px;
        height: 1400px;
        fill: rgb(191, 0, 0);
      }

      path {
        fill: rgb(255, 255, 255);
        transform: translate(0, 200px); 
      }

    ]]></style>

  </defs>

  <rect x="0" y="0"></rect>
  <g>
    <path d="m 755,480 q 0,-13 -10,-23 L 413,125 557,-19 q 19,-19 19,-45 0,-26 -19,-45 -19,-19 -45,-19 H 64 q -26,0 -45,19 -19,19 -19,45 v 448 q 0,26 19,45 19,19 45,19 26,0 45,-19 L 253,285 585,617 q 10,10 23,10 13,0 23,-10 L 745,503 q 10,-10 10,-23 z m 781,864 V 896 q 0,-26 -19,-45 -19,-19 -45,-19 -26,0 -45,19 L 1283,995 951,663 q -10,-10 -23,-10 -13,0 -23,10 L 791,777 q -10,10 -10,23 0,13 10,23 l 332,332 -144,144 q -19,19 -19,45 0,26 19,45 19,19 45,19 h 448 q 26,0 45,-19 19,-19 19,-45 z" />
  </g>

</svg>
