<svg xmlns="http://www.w3.org/2000/svg"
     lang="en-GB"
     viewBox="0 0 1440 1440">
   
   <title>Open Folder Icon</title>
   
   <defs>
    
     <style><![CDATA[
     
     :root {
       --outerFolderColor: rgb(164,13,13);
       --innerFolderColor: rgb(222,40,37);
     }
     
     rect:nth-of-type(1) {
       width: 1440px;
       height: 1440px;
       fill: rgb(0, 0, 0, 0);
     }
     
     path:nth-of-type(1) {
       stroke: var(--outerFolderColor);
       fill: var(--outerFolderColor);
     }
     
     rect:nth-of-type(2){
       x: 1190px;
       y: 1250px;
       width: 100px;
       height: 20px;
       fill: rgb(255,255,255);
     }
     
     path:nth-of-type(2){
       stroke: var(--innerFolderColor);
       fill: var(--innerFolderColor);
     }
     
     ]]></style>

   </defs>
   
   <rect />
   
   <path d="m 182.66667,99.232503 c 4.06945,-0.534342 7.82896,-0.564209 12,-0.565836 10.07078,-0.0039 20.55708,0 30.66666,0 39.1356,0 78.29977,-0.428386 117.33334,1.280843 40.84086,1.78833 86.67427,-0.04395 126.66666,3.82617 4.26787,0.41301 6.45996,0.23796 10.66667,0.79216 9.77083,1.28727 20.65031,2.85424 30.66667,4.66463 13.98104,2.52702 25.79455,8.46956 38.66666,15.11418 21.81588,11.26147 42.45712,27.30265 58.04733,46.32202 7.15014,8.7229 11.45068,19.2762 18.57613,27.99894 6.13334,7.50822 15.17525,11.18538 21.13582,18.68831 8.4648,10.65519 12.5225,23.42709 22.26025,33.30762 26.90365,27.29818 67.87126,43.28019 103.98047,45.2911 9.64217,0.53694 18.72673,0.66723 28,1.76139 4.07479,0.48079 7.58203,0.93026 12,0.95158 23.98535,0.11564 48.01433,1.33439 72,1.33439 h 113.33334 c 17.41263,0 37.53323,0 54.66663,0 5.7661,0 8.7609,0 14.6667,0 15.7406,0 32.4507,1.25732 48,1.33228 4.9437,0.0238 7.4747,0.001 12,0.001 10.835,0 22.8897,0.73747 33.3333,1.45264 6.8472,0.46891 17.1643,0.51953 24,3.62663 4.3734,1.98787 7.1241,4.02311 9.3334,5.4331 5.2685,3.36231 11.0845,6.91162 17.3333,12.40023 8.7826,7.71419 19.8395,17.81201 28.3611,27.75407 4.5175,5.27059 8.6536,10.26994 12.7654,16 11.214,15.62736 18.0606,33.6403 22.2078,52 1.6553,7.32796 2.2084,13.67318 3.1256,21.33333 1.0263,8.57202 2.5595,19.76905 2.859,28 0.1219,3.34921 0.3283,5.87834 0.7819,9.33334 0.607,4.62312 0.5639,7.03491 0.5659,12 0,4.65486 -0.2029,8.82316 0.2263,13.33333 2.6626,27.97721 2.4403,56.96476 2.4403,85.33333 0,155.01921 2.6667,310.15813 2.6667,465.33337 v 160 c 0,10.403 0.068,24.6948 -0,34.6666 -0.052,7.5417 -0.133,11.5871 -9.3333,13.8405 -25.6932,6.2932 -46.4377,5.0344 -73.3323,6.212 -73.7043,3.2274 -147.5147,0.8253 -221.3333,2.6337 -204.60042,5.0125 -409.91081,1.3138 -614.66667,1.3138 H 190.66667 141.33333 c -5.60569,0 -14.93319,0.1936 -20,-0.026 -6.0214,-0.2606 -7.93151,-1.2201 -12.95267,-6.6666 -15.495345,-16.808 -35.008239,-35.0154 -49.43313,-53.3077 -7.715413,-9.7839 -15.904388,-21.4541 -22.140945,-32 -6.257841,-10.5819 -7.799802,-21.7326 -9.187243,-33.3333 -5.580727,-46.6621 -1.8374,-95.4322 -5.072017,-142.6667 -2.520804,-36.81076 0.347987,-73.79757 -1.26646,-110.66663 C 14.940618,749.87467 20,603.67676 20,458.66667 V 296 c 0,-16.20882 -0.0259,-39.17586 0,-54.66667 0.01047,-6.26147 -0.08581,-9.15983 2.724279,-14.66666 3.172513,-6.21713 7.749639,-14.89877 11.376543,-21.33334 C 42.006546,191.30754 48.761581,176.92375 58.530863,164 c 17.828965,-23.58594 44.545207,-40.90739 70.802467,-52.92179 11.49786,-5.26099 25.18189,-8.39714 37.33334,-10.29118 7.8682,-1.226402 7.69913,-0.4646 16,-1.554527" />
   
   <rect />
   
   <path d="m 32,1153.3333 c 5.14802,1.7461 9.841855,2.9145 21.333333,4.5607 8.169327,1.1704 21.754954,1.9358 29.212962,-4.8457 17.785605,-16.1719 22.190285,-47.9687 27.253095,-70.3816 18.45515,-81.7006 22.76863,-165.5426 36.53806,-248.00003 7.50906,-44.96753 15.80948,-92.60222 48.38169,-126.66667 13.33801,-13.94906 29.54805,-27.93107 46.61419,-36.90633 26.40839,-13.88843 59.0127,-17.83032 88,-19.14616 49.13847,-2.23063 99.72124,-5.37939 149.33334,-6.59465 34.81156,-0.8527 70.68554,1.71818 105.33333,-1.57918 34.60343,-3.29321 70.5481,-2.44035 105.33333,-2.44035 11.46468,0 32.32512,-1.14534 42.66667,-1.33951 5.32878,-0.10002 7.57674,-0.45606 12,-4.19133 9.89062,-8.35221 23.59587,-24.73169 33.33333,-34.46916 37.51709,-37.51709 71.0507,-80.96899 116,-110.20678 37.4266,-24.34457 80.60214,-27.86125 122.66667,-32.84058 36.7327,-4.34814 74.9716,-2.73177 112,-3.63883 50.972,-1.24862 102.382,-2.26734 153.3333,-0.033 26.4268,1.15893 53.8559,3.00683 78.6667,14.07202 20.1079,8.96785 38.2518,26.50325 50.6286,44.64713 8.8893,13.03133 13.6387,28.98446 15.6614,44 2.3718,17.60531 2.5524,36.62574 1.7624,54.66667 -1.4033,32.04338 -3.4189,63.91309 -6.4938,94.66667 -4.384,43.84554 -9.0195,88.75146 -14.5124,133.33333 -10.938,88.7758 -19.5617,179.7866 -35.3795,270.6667 -8.061,46.3134 -18.0932,93.6835 -57,123.9794 -18.7441,14.5955 -40.8776,27.0778 -64,31.2006 -12.6103,2.2484 -24.4831,3.1864 -37.3334,3.5062 -76.4236,1.9017 -152.7053,3.9804 -229.3333,3.9804 H 365.33333 190.66667 141.33333 c -6.12305,0 -15.70493,0.218 -21.33333,-0.026 -7.32958,-0.3173 -9.11584,-2.9673 -14.89301,-9.3086 -3.41205,-3.7453 -6.835058,-6.9311 -10.213985,-10.6657 -11.585886,-12.8053 -23.490458,-25.4734 -35.099797,-38.6666 -5.07165,-5.7635 -11.413605,-14.005 -15.334361,-20 -3.151929,-4.8195 -5.69721,-8.7585 -8.745885,-14.6667 C 26.665827,1162.4671 34.116837,1164.8671 28,1152" />

</svg>
