<svg xmlns="http://www.w3.org/2000/svg"
     lang="en-GB"
     viewBox="0 0 1440 1440">
  
  <title>Folder Icon</title>
  <defs>
    <style><![CDATA[

    :root {
      --outerFolderColor: rgb(164, 13, 13);
      --innerFolderColor: rgb(222, 40, 37);
    }
      
    rect {
      width: 1440px;
      height: 1440px;
      fill: rgb(0, 0, 0, 0);
    }
    
    path:nth-of-type(1) {
      stroke: var(--outerFolderColor);
      fill: var(--outerFolderColor);
    }
    
    path:nth-of-type(2) {
      stroke: var(--innerFolderColor);
      fill: var(--innerFolderColor);
    }
      
    ]]></style>
  </defs>
  
  <rect />
  <path d="m 330.66667,173.89917 c 4.95792,-0.65096 10.81941,-0.56584 16,-0.56584 5.22664,0 7.95569,0 13.33333,0 19.8938,0 43.86926,0.5245 64,2.44035 38.36959,3.65161 71.77096,6.07414 108,12.11931 5.58138,0.93131 12.09094,2.18164 17.33333,3.33951 36.77775,8.12313 75.36483,16.93091 108,36.23869 7.18343,4.24992 16.89315,9.58797 24,14.87655 4.13827,3.07942 6.93636,5.77685 10.54631,9.65332 4.22632,4.53833 8.28206,10.0332 11.53597,14.66561 6.71403,9.55843 11.81372,18.35693 25.91772,27.54012 6.97738,4.54297 12.07219,6.82991 16,8.78906 8.30046,4.14014 16.26221,6.97298 28,10.33748 4.81071,1.37891 11.3947,2.75391 16,3.84571 8.44572,2.00219 16.85913,4.24479 28,6.03499 8.02596,1.28971 16.60572,1.53866 25.33334,2.68514 3.64575,0.47892 7.1962,0.64583 10.66666,0.99284 8.20858,0.8208 15.60743,1.74731 24,2.32202 4.21436,0.28857 9.11906,-0.05 13.33334,0.23861 5.15787,0.35319 7.2985,1.13712 13.33333,1.2089 11.30591,0.13444 29.15975,0.005 40,0.005 4.21061,0 6.60246,-0.08 10.66667,0.0195 3.88867,0.0952 8.1757,0.93262 12,1.1945 9.92317,0.67952 19.18685,0.68164 29.33333,2.01847 3.82812,0.50431 8.1347,0.802 12,1.33439 4.1514,0.57178 6.5693,0.93156 10.6667,1.53809 28.021,4.14795 56.0754,9.23014 82.6666,16.06787 27.5725,7.09 57.324,16.08195 85.3334,30.86833 18.253,9.6359 37.1886,23.05769 51.8807,37.74479 7.5442,7.54166 16.3907,19.25993 21.4371,27.88069 9.229,15.76563 13.4471,27.85718 17.7028,44 5.677,21.53451 9.1241,45.30998 11.4197,69.33334 0.3881,4.06136 0.1109,6.46443 0.607,10.66666 0.7981,6.76001 0.6468,14.69458 1.5185,21.33334 0.535,4.0743 0.7459,6.41764 0.7664,10.66666 0.073,15.18824 0.071,35.01636 1.5608,50.66667 0.7051,7.40918 1.107,10.46444 1.107,18.66667 0,6.90364 0,10.24064 0,17.33333 0,6.39616 0,9.49333 0,16 0,18.30526 1.3333,37.5376 1.3333,56 0,27.98763 -1.3333,56.09831 -1.3333,84 0,4.3654 0,7.96208 0,12 0,8.77344 0.016,16.77474 0,26.66667 -0.01,5.88248 -0.5367,8.67439 -1.107,14.66666 -1.8995,19.95915 -0.7521,41.21468 -2.6667,61.33334 -0.5795,6.08951 0.071,8.9209 -0.607,14.66666 -1.311,11.11068 -1.584,23.50727 -3.0535,34.66667 -0.6339,4.8137 -0.5203,7.3705 -1.1317,12 -0.965,7.307 -1.5753,15.3204 -2.4804,22.6667 -1.5494,12.5755 -3.6221,26.9689 -5.5011,38.6666 -3.5954,22.3839 -8.3512,47.2856 -14.8066,66.6667 -3.5191,10.5657 -11.6321,29.7178 -21.9989,37.0391 -8.8577,6.2555 -15.9608,8.508 -30.6471,12.6811 -10.7753,3.0617 -26.479,6.097 -38.6667,7.9793 -18.6831,2.8857 -36.967,5.6687 -56,8.0135 -11.5238,1.4196 -25.7895,2.8676 -37.3333,4.3878 -4.0399,0.532 -6.4503,0.3897 -10.6667,0.6852 -16.7104,1.1712 -35.4891,2.5358 -52,4.107 -3.591,0.3417 -5.8422,0.9014 -9.3333,1.0545 -3.6666,0.1608 -5.6604,-0.08 -9.33337,0.1718 -4.0048,0.2743 -6.39339,0.9745 -10.66666,1.1615 -26.51823,1.1613 -58.3291,4.0508 -85.33334,4.0525 -6.00293,4e-4 -14.31754,-0.2697 -20,0.1193 -3.10026,0.2124 -5.8046,0.8531 -9.33333,1.0948 -7.57642,0.5188 -12.46362,0.1193 -21.33333,0.1193 -8.65194,0 -11.20695,-0.4836 -18.66667,0.2263 -6.88363,0.6551 -16.78768,1.107 -24,1.107 -8.04606,0 -11.80168,0 -20,0 -8.19792,0 -11.95435,-0.038 -20,10e-4 -28.24015,0.1362 -56.96012,1.3323 -85.33333,1.3323 -19.76176,0 -40.42672,-1.0953 -60,-1.3282 -7.38986,-0.088 -10.86206,-0.01 -18.66667,-0.01 -8.99666,0 -12.08724,0.089 -20,-0.01 -6.32007,-0.075 -19.39136,-1.3282 -25.33333,-1.3282 -4.47209,0 -6.81763,0 -12,0 -8.33863,0 -11.45329,0 -18.66667,0 -6.18722,-0 -9.45064,-0.4838 -16,-1.107 -33.16996,-3.1566 -69.21383,-4.0532 -102.66667,-4.2273 -3.86832,-0.02 -7.00118,-0.2853 -10.66666,-0.7666 -3.40633,-0.4472 -5.71839,-0.531 -9.33334,-0.5658 -8.70988,-0.084 -8.93644,-1.1019 -18.66666,-1.3333 -12.11601,-0.2883 -33.54531,-3.0176 -45.33334,-3.8817 -7.13942,-0.5234 -14.13139,-1.0488 -21.33333,-2.0175 -7.73037,-1.0399 -16.40576,-1.783 -24,-2.8735 -34.29557,-4.9242 -70.01607,-9.4868 -101.33333,-18.464 -13.2523,-3.7987 -17.4704,-4.8385 -26.54218,-14.1543 -6.02209,-6.1841 -10.6062,-16.0918 -12.30865,-19.9424 -5.85687,-13.2469 -12.20709,-37.9341 -15.70782,-58.6666 -2.79002,-16.5235 -5.11481,-35.3023 -7.34053,-52 -1.00444,-7.5354 -1.58178,-16.2976 -2.32716,-24 -0.45103,-4.6608 -0.94687,-7.2046 -1.1214,-12 -0.63111,-17.3409 -3.82723,-35.58239 -3.9856,-52.00003 -0.055,-5.70207 -0.80271,-8.66089 -1.21399,-14.66667 -1.64403,-24.00765 -2.77676,-49.3772 -2.78601,-73.33333 -0.002,-5.85523 -0.27217,-8.89925 -0.95267,-14.66667 C 103.54045,856.87907 104,852.43799 104,844 c 0,-7.80452 0.0828,-11.27686 -0.005,-18.66667 -0.31038,-26.09106 -1.32818,-53.6818 -1.32818,-80 V 578.66667 c 0,-35.48413 1.33333,-72.79745 1.33333,-108 0,-6.50684 0,-9.60368 0,-16 0,-7.13501 0.14393,-10.47901 0.95268,-17.33334 0.55368,-4.69262 0.38035,-7.23836 0.38065,-12 8.1e-4,-12.53108 0.49284,-27.7535 2.10082,-40 0.5506,-4.19336 0.54026,-6.52645 0.56688,-10.66666 0.0349,-5.42969 1.0596,-11.76766 1.3323,-17.33334 1.087,-22.18481 5.14635,-44.88712 9.35185,-64 4.12223,-18.73437 7.75807,-30.78491 17.60391,-45.33333 4.58686,-6.77767 14.44068,-18.38778 22.37758,-24.31999 5.66233,-4.23217 10.96304,-7.66211 17.33333,-11.59358 21.39484,-13.20386 37.85392,-18.33822 56,-23.51644 30.93555,-8.82788 65.69759,-10.34188 98.66667,-14.67082" />
  <path d="m 949.33333,371.2325 c 6.34855,-0.83357 8.96582,-0.56583 14.66667,-0.56583 10.04744,0 21.81079,0 32,0 5.2268,0 7.9558,-3.3e-4 13.3333,0 14.5786,9.7e-4 44.5696,1.07617 58.6667,2.44034 4.0934,0.39616 6.4605,0.23959 10.6667,0.79216 16.2266,2.13159 32.6974,2.3457 48,4.87451 28.5009,4.70988 57.7494,11.17277 80,19.28491 8.6024,3.13632 17.2483,7.15715 24,11.3982 3.5206,2.2115 7.8791,4.69238 13.3138,9.48869 6.8517,6.04687 9.3303,10.96557 11.5925,15.72119 4.7186,9.91927 9.0588,23.2041 12.5957,37.33333 6.2041,24.78459 11.0646,50.45532 14.2912,77.33333 0.8164,6.80078 1.6483,14.45199 2.4938,21.33334 0.8965,7.29565 1.1713,13.39697 1.9393,21.33333 1.1683,12.07292 1.4619,25.57243 3.0062,37.33333 0.6234,4.74821 0.5522,7.22673 0.8868,12 0.2086,2.97754 0.7076,5.05705 0.9877,8 0.4893,5.14136 0.025,10.21696 0.2788,16 1.1454,26.15935 0.3844,55.52637 2.8405,81.33334 0.5703,5.99243 1.0976,8.78401 1.107,14.66666 0.024,14.76547 0,27.84733 0,41.33334 0,3.7028 0,6.99324 0,10.66666 0,9.23243 0.015,21.34587 0,30.66667 -0.011,7.0013 -0.9693,10.21973 -1.2808,17.33333 -1.2723,29.05485 -2.5804,59.00277 -2.7203,88 -0.02,4.16504 -0.2631,6.83366 -0.7664,10.66667 -0.4552,3.46696 -0.5315,5.76986 -0.5658,9.33333 -0.04,4.13396 -0.156,6.00928 -0.7675,10.66667 -1.4789,11.26318 -1.5061,23.4145 -2.8518,34.6667 -0.9282,7.7605 -1.1766,15.0145 -2.0948,22.6666 -4.425,36.8799 -9.6766,71.8159 -18.4887,104 -2.8531,10.4208 -6.8721,21.0332 -10.1717,28 -1.8068,3.8149 -3.5302,8.5192 -8.9157,14.4353 -6.8219,7.4939 -13.2924,9.8153 -19.3765,12.145 -15.0465,5.7614 -33.9377,9.8648 -52,13.4188 -10.634,2.0922 -25.5844,4.1569 -37.3333,5.896 -6.5153,0.9644 -13.5489,1.7891 -20,2.6697 -6.7461,0.9209 -13.2653,1.5755 -20,2.2017 -13.8116,1.2842 -28.8099,2.8025 -42.6667,4.1265 -9.4836,0.9062 -17.9744,2.0611 -28,2.426 -23.0655,0.8394 -47.81844,2.0664 -70.66667,4.2407 -4.97835,0.4738 -7.40315,1.0472 -12,1.1019 -5.17285,0.062 -7.81095,-0.2658 -13.33333,0.3858 -5.75545,0.679 -8.5153,0.9503 -14.66667,0.9526 -43.13883,0.017 -87.42212,3.9305 -130.66666,4 -7.07943,0.011 -10.39551,0 -17.33334,0 -22.23396,0 -45.6569,0 -68,0 -55.47416,0 -111.68823,-1.3392 -166.66666,-2.6862 -7.42713,-0.1819 -10.55754,-1.2801 -17.33334,-1.3128 -6.65079,-0.032 -9.52856,-10e-4 -16,-10e-4 -5.74886,0 -8.53633,0.029 -14.66666,-9e-4 -7.07866,-0.034 -10.11621,-1.0223 -16,-1.2799 -5.3219,-0.2331 -8.52189,0.1885 -14.66667,-0.6183 -5.92159,-0.7775 -8.1984,-0.7636 -13.33333,-0.7675 -4.94747,-0 -7.87488,-0.051 -13.33334,-0.7675 -3.89795,-0.5118 -6.76692,-0.5418 -10.66666,-0.5668 -3.99956,-0.026 -6.22799,-0.1838 -10.66667,-0.7666 -4.22359,-0.5546 -6.40796,-0.5573 -10.66667,-0.5658 -4.48738,-0.01 -6.47937,0.1134 -10.66666,-0.3807 -3.74707,-0.4421 -5.52796,-0.8384 -9.33334,-0.9331 -3.24914,-0.081 -4.94897,0.07 -8,-0.1388 -3.28434,-0.225 -5.00101,-0.7023 -8,-0.9877 -3.116,-0.2965 -5.00069,-0.191 -8,-0.2315 -3.48665,-0.047 -5.82039,-0.3011 -9.33333,-0.7624 -21.07705,-2.7675 -44.15879,-4.787 -65.33333,-7.1656 -6.69662,-0.7523 -13.33112,-1.6321 -20,-2.5597 -5.22274,-0.7264 -10.77379,-1.7085 -16,-2.4784 -9.31507,-1.3722 -18.21582,-2.9381 -26.66667,-4.6285 -10.43052,-2.0865 -22.09823,-4.8914 -32,-7.7336 -13.81874,-3.9665 -19.58946,-7.1592 -25.32819,-11.4794 -2.61016,-1.965 -5.09922,-3.8925 -9.43416,-9.8539 -5.39763,-7.4229 -9.04077,-17.9474 -10.51851,-24 -4.59294,-18.812 -8.45457,-38.6275 -9.33334,-58.6667 -0.27314,-6.2286 -1.05011,-13.761 -1.33333,-20 -0.209,-4.604 -0.16292,-6.996 -0.81996,-12 -1.01222,-7.7091 -0.56584,-16.314 -0.56584,-24 0,-5.2266 0,-7.9557 0,-13.3333 0,-17.1188 1.12211,-37.34378 1.32818,-54.6667 0.90017,-75.66886 8.17658,-150.29671 19.03396,-224 1.05549,-7.16496 2.15788,-13.10872 3.30864,-20 1.16948,-7.00334 2.52179,-14.45443 3.8107,-21.33333 4.93687,-26.34799 11.70702,-52.31893 19.62962,-76 6.23651,-18.64128 11.45412,-39.19768 31.55556,-52.40536 7.10173,-4.66618 12.1449,-7.1145 18.66667,-9.88273 16.92421,-7.18359 35.07876,-12.01701 53.33333,-16.22013 21.6564,-4.98641 43.87305,-8.60604 66.66667,-11.04631 7.75761,-0.83056 14.60282,-1.94905 22.66667,-2.39811 8.43347,-0.46965 19.01106,-1.03955 28,-1.43319 4.8114,-0.21069 7.33557,-1.02409 12,-1.22835 5.8881,-0.25781 13.88,-0.0525 20,-0.0525 13.12378,0 29.93164,0.50513 42.66666,-0.0525 11.73877,-0.514 23.04924,-2.03434 34.66667,-2.56169 5.92912,-0.26912 12.91919,-0.95125 18.66667,-1.48559 16.64852,-1.54794 35.76045,-5.00668 50.66666,-8.18115 21.15324,-4.50481 42.39514,-11.11841 64,-22.79729 C 660.86507,488.20133 684.40112,467.57495 704,448 c 13.76945,-13.75269 30.6547,-25.45451 48,-35.2325 18.11239,-10.21045 38.25057,-17.22673 53.33333,-21.53085 12.1626,-3.47078 26.24748,-6.0865 38.66667,-8.56998 9.75391,-1.95052 16.27645,-3.85246 28,-5.11215 3.01058,-0.32348 6.1394,-0.56787 9.33333,-0.98868 9.48055,-1.24903 15.13469,-1.25375 24,-2.46395 3.27629,-0.44727 6.1945,-0.65373 9.33334,-0.98975 11.70825,-1.2535 22.11499,-0.23161 34.66666,-1.87964" />

</svg>
  
