<svg xmlns="http://www.w3.org/2000/svg"
     xmlns:xlink="http://www.w3.org/1999/xlink"
     lang="en-GB"
     viewBox="0 0 768 768">

  <title>Document Logo</title>

  <defs>

    <style type="text/css"><![CDATA[

    rect {

      width: 768px;
      height: 768px;
      fill: rgb(191, 0, 0);
    }

    path {
      fill:rgb(255, 255, 255);
    }

    ]]></style>

  </defs>

  <rect/>

  <path d="m 132.5,759.07241 c -6.92255,-0.45116 -9.84946,-1.11314 -12.68007,-2.86782 -4.52369,-2.80423 -9.07717,-7.89316 -12.06379,-13.48239 L 105.5,738.5 105.22836,384.75947 104.95672,31.018931 l 2.48987,-4.759465 c 3.38153,-6.463915 7.05022,-10.489382 13.4039,-14.707418 L 126.20098,8 h 189.8217 189.82171 l 3.8278,4.380421 c 2.1053,2.409231 11.27234,12.646731 20.37121,22.75 26.15606,29.043348 72.59918,82.005409 109.58848,124.970739 l 22.0403,25.60116 0.66161,23.39884 c 0.36388,12.86936 0.66264,136.92927 0.66391,275.68868 l 0.002,252.28984 -2.10338,4.21016 c -2.68418,5.37272 -10.23948,13.24418 -15.39662,16.04093 l -4,2.16923 -250,0.0795 c -137.5,0.0437 -254.05,-0.18447 -259,-0.50707 z M 632,468.5 V 208 l -24.75,-0.0725 c -54.94078,-0.16085 -113.70477,-1.60724 -116.33473,-2.8634 -1.4216,-0.67901 -3.4466,-2.65872 -4.5,-4.39935 C 484.58288,197.63694 484.47836,194.0816 484,118.5 L 483.5,39.5 309.75,39.247183 136,38.994367 V 383.99718 729 h 248 248 z"/>

</svg>
