<svg xmlns="http://www.w3.org/2000/svg"
     xmlns:xlink="http://www.w3.org/1999/xlink"
     lang="en-GB"
     viewBox="0 0 768 768">

  <title>XML Logo</title>

  <defs>

    <style type="text/css"><![CDATA[

    rect {

      width: 768px;
      height: 768px;
      fill: rgb(191, 0, 0);
    }

    path {
      fill:rgb(255, 255, 255);
    }

    ]]></style>

  </defs>

  <rect/>

  <path d="M 125.87093,758.52375 C 117.26275,755.35636 111.42321,749.69001 107.29627,740.5 105.57887,736.67563 105.5,721.0222 105.5,384 V 31.5 l 2.30811,-5.098821 C 110.51406,20.423487 116.66689,14.118637 123,10.833944 L 127.5,8.5 314.75742,8.2396782 c 157.26405,-0.2186256 187.78572,-0.03958 190.5558,1.1178325 2.36898,0.9898243 24.54815,25.6467933 78.71227,87.5058103 41.47764,47.370209 76.10253,87.367189 76.9442,88.882169 C 662.33301,188.19942 662.5,218.39917 662.5,462.5 v 274 l -2.3818,5.27011 c -3.20071,7.08211 -11.55823,14.68915 -18.35629,16.70795 -4.53224,1.34593 -34.44901,1.51379 -258.69341,1.45148 -208.88491,-0.058 -254.20801,-0.30577 -257.19757,-1.40579 z M 632.5,464.5 v -257 L 563,207 c -76.65501,-0.55147 -71.99827,-0.12429 -76.3068,-7 L 484.5,196.5 484.22114,117.24719 483.94228,37.994385 309.72114,38.247193 135.5,38.5 135.25107,379 c -0.13692,187.275 -0.0382,341.06339 0.21937,341.75198 0.37367,0.99896 50.64591,1.20106 248.74894,1 L 632.5,721.5 Z"/>

</svg>
