<svg xmlns="http://www.w3.org/2000/svg"
     lang="en-GB"
     viewBox="0 0 297 297">

  <title>Code Load Icon</title>

  <defs>

  <style type="text/css"><![CDATA[

  rect {
    width: 297px;
    height: 297px;
    fill: rgb(191, 0 , 0);
  }

  path {
    fill: rgb(255, 255, 255);
    transform: translateX(43.5px);
  }

  ]]></style>

  </defs>

  <rect/>
  <path d="m 55.310517,252.47201 -11.288889,-0.21344 -2.665486,-1.07506 c -6.826779,-2.75341 -12.286008,-8.35594 -15.58255,-15.99159 l -1.15474,-2.67467 -0.09867,-83.68458 C 24.412156,57.211727 24.277857,63.559638 26.439337,58.120355 29.2031,51.165451 34.570532,45.899578 41.818567,43.03213 c 1.677595,-0.663687 3.296923,-0.948798 6.789172,-1.195353 5.977696,-0.42203 100.561191,-0.42203 106.538881,0 3.49225,0.246555 5.11158,0.531666 6.78918,1.195353 7.24545,2.866427 12.61565,8.133695 15.37675,15.082038 2.08224,5.239966 2.01922,4.174419 2.24642,37.984227 l 0.20933,31.150575 -1.19834,1.2537 c -1.17945,1.23394 -15.36152,14.55163 -16.72635,15.70691 -0.6972,0.59014 -0.69977,0.4469 -0.69977,-39.00905 V 65.599159 l -1.06668,-1.725873 c -1.53881,-2.489786 -3.39806,-3.673108 -6.37346,-4.056412 -3.18217,-0.409945 -100.470868,-0.409945 -103.65304,0 -2.975102,0.383265 -4.834403,1.566467 -6.373463,4.055879 l -1.06668,1.725337 v 81.69569 c 0,75.7132 0.04323,81.77454 0.590275,82.77233 0.739228,1.3483 3.528861,3.94562 4.727063,4.40118 0.570615,0.21695 21.507188,0.34302 56.965235,0.34302 h 56.06303 l 0.0939,-9.58044 0.0939,-9.58044 8.64306,8.05514 c 4.75368,4.43032 8.75969,8.22558 8.90224,8.43391 0.53399,0.78039 0.21649,1.74596 -1.75849,5.34782 -3.24205,5.91268 -7.38692,10.12746 -12.4835,12.69405 -5.10183,2.56924 -1.38765,2.3946 -52.16302,2.45276 -25.126601,0.0288 -50.764725,-0.0437 -56.973613,-0.1611 z M 185.78301,226.40666 c -0.80652,-0.71376 -1.99714,-1.74875 -2.64584,-2.29997 -0.64869,-0.55123 -2.52881,-2.28412 -4.17805,-3.85088 -1.64923,-1.56676 -4.50673,-4.2779 -6.35,-6.02474 -1.84326,-1.74686 -4.78014,-4.54591 -6.52639,-6.22011 -1.74625,-1.6742 -8.84169,-8.3161 -15.76766,-14.75977 -6.92597,-6.44367 -12.68464,-11.86458 -12.79706,-12.04647 -0.47986,-0.77644 4.80724,-6.10485 25.74468,-25.9458 3.48076,-3.29847 7.76171,-7.35995 9.51324,-9.02551 3.91929,-3.72693 8.33187,-7.90008 11.82764,-11.18587 l 2.64583,-2.4869 0.0925,12.84845 0.0925,12.84844 h 22.39704 22.39704 v 21.51945 21.51944 h -22.39714 -22.39715 l -0.0924,13.20399 -0.0924,13.204 z" />

</svg>
