<svg xmlns="http://www.w3.org/2000/svg"
   xmlns:xlink="http://www.w3.org/1999/xlink"
   lang="en-GB"
   viewBox="0 0 720 720">

  <title>Show Icon</title>

  <defs>

    <style><![CDATA[

      rect {
        width: 720px;
        height: 720px;
        fill: rgb(191, 0, 0);
      }

      path {
        fill: rgb(255, 255, 255);
        transform: translate(38px, 60px);
      }

    ]]></style>

  </defs>

  <rect x="0" y="0"></rect>
  <path d="m 297.71905,521.24079 c -8.8,-0.70036 -18.025,-1.75434 -20.5,-2.34217 -2.475,-0.58783 -6.45114,-1.07978 -8.83587,-1.09322 -2.38472,-0.0135 -7.10972,-0.70247 -10.5,-1.53116 -3.39027,-0.82869 -11.94397,-2.87632 -19.00823,-4.55029 -7.06425,-1.67397 -13.58925,-3.41571 -14.5,-3.87054 -2.47118,-1.2341 -8.59737,-3.07286 -10.2269,-3.06959 -1.54343,0.003 -12.75913,-4.33513 -17.08329,-6.60783 -1.45986,-0.76727 -3.54226,-1.39504 -4.62756,-1.39504 -1.08529,0 -2.49682,-0.63085 -3.13672,-1.40189 -0.63991,-0.77103 -2.35428,-1.70076 -3.80973,-2.06605 -4.49663,-1.12859 -32.9179,-15.43738 -39.78927,-20.03206 -5.59187,-3.73912 -6.98064,-4.55747 -8.73243,-5.14566 -0.9625,-0.32318 -1.75,-0.88279 -1.75,-1.24357 0,-0.36078 -1.66248,-1.54579 -3.69439,-2.63337 -2.03192,-1.08757 -4.71147,-2.9899 -5.95455,-4.2274 -1.24308,-1.2375 -2.8556,-2.25 -3.58336,-2.25 -0.72777,0 -2.07545,-0.87854 -2.99484,-1.95231 -0.9194,-1.07378 -3.4944,-3.15858 -5.72224,-4.63289 -2.22784,-1.47432 -4.05062,-3.07077 -4.05062,-3.54769 0,-0.47691 -0.675,-0.86711 -1.5,-0.86711 -0.825,0 -1.5,-0.34638 -1.5,-0.76972 0,-0.42335 -2.31059,-2.56085 -5.13465,-4.75 -2.824054,-2.18916 -8.303124,-7.01778 -12.175694,-10.73028 -3.87258,-3.7125 -7.41198,-6.75 -7.86535,-6.75 -0.45337,0 -0.82431,-0.41621 -0.82431,-0.92492 0,-0.5087 -4.275,-5.25588 -9.5,-10.54927 -5.225,-5.2934 -9.5039,-9.93968 -9.50867,-10.32508 -0.005,-0.3854 -1.57977,-2.35819 -3.5,-4.38398 -1.92023,-2.02578 -3.49133,-4.16328 -3.49133,-4.75 0,-0.58671 -0.37371,-1.06675 -0.83048,-1.06675 -0.45676,0 -2.35535,-2.1375 -4.21907,-4.75 -1.86373,-2.6125 -4.41501,-5.8704 -5.66952,-7.23978 -1.25451,-1.36938 -2.28093,-2.81873 -2.28093,-3.22077 0,-0.97475 -6.29507,-10.19837 -7.25,-10.62278 -0.4125,-0.18334 -0.75,-0.77586 -0.75,-1.31673 0,-0.54086 -1.125,-2.45833 -2.5,-4.26105 -1.375,-1.80272 -2.5,-3.76555 -2.5,-4.36185 0,-0.5963 -0.56285,-1.67883 -1.25079,-2.40561 -0.68793,-0.72679 -2.55342,-3.79643 -4.14554,-6.82143 -1.59212,-3.025 -3.43015,-6.175 -4.08452,-7 -0.65437,-0.825 -1.79045,-3.075 -2.52462,-5 -0.73418,-1.925 -2.55775,-5.75 -4.05239,-8.5 -1.49464,-2.75 -3.2908898,-6.91784 -3.9916698,-9.26188 -0.70079,-2.34403 -1.87633,-4.76163 -2.61231,-5.37244 -0.73599,-0.61081 -1.33816,-1.73658 -1.33816,-2.50169 0,-0.76512 -0.49399,-2.18213 -1.09776,-3.14892 -1.3968,-2.23663 2.78341,-13.40612 13.5535998,-36.21507 0.90897,-1.925 2.92717,-5.75 4.4849,-8.5 1.55772,-2.75 4.12012,-7.39767 5.69422,-10.32815 1.5741,-2.93048 3.53769,-6.08048 4.36352,-7 0.82584,-0.91952 2.39135,-3.35935 3.47893,-5.42185 1.08757,-2.0625 2.32507,-3.75 2.75,-3.75 0.42492,0 0.77259,-0.62686 0.77259,-1.39301 0,-0.76616 0.675,-1.65203 1.5,-1.96862 0.825,-0.31658 1.5,-1.19901 1.5,-1.96096 0,-0.76195 1.07475,-2.54504 2.38834,-3.96243 1.31359,-1.41738 3.86487,-4.63309 5.66952,-7.14602 1.80465,-2.51293 3.6549,-4.56896 4.11166,-4.56896 0.45677,0 0.83048,-0.6375 0.83048,-1.41667 0,-0.77916 0.37295,-1.56666 0.82879,-1.75 0.45583,-0.18333 3.44606,-3.43417 6.64495,-7.22409 12.00346,-14.2212 37.57715,-37.95657 38.361404,-35.60384 0.19747,0.59242 1.32785,0.0461 2.51195,-1.21414 1.1841,-1.26019 4.17791,-3.86291 6.65291,-5.78382 2.475,-1.92091 4.65,-3.83341 4.83333,-4.25 0.18334,-0.41659 0.74973,-0.75744 1.25866,-0.75744 0.50893,0 2.26282,-1.19171 3.89753,-2.64824 1.63471,-1.45654 3.83318,-3.14404 4.8855,-3.75 1.05232,-0.60597 5.29892,-3.43357 9.43691,-6.28356 4.13798,-2.84998 9.02311,-5.95027 10.85584,-6.88953 1.83272,-0.93925 3.56263,-2.06071 3.84423,-2.49213 0.58448,-0.89542 30.9287,-16.40586 38.488,-19.67312 9.41556,-4.06958 25.88616,-10.26342 27.29235,-10.26342 0.77297,0 2.8234,-0.62726 4.55652,-1.39392 6.69346,-2.96089 28.49094,-8.85365 39.15113,-10.58417 3.85,-0.62499 10.15,-1.75555 14,-2.51235 7.92862,-1.55854 13.74102,-2.14713 34.83391,-3.52741 22.68921,-1.48474 56.87992,1.1522 78.43044,6.04891 2.34539,0.53292 5.52773,0.96894 7.07186,0.96894 1.54413,0 4.80017,0.62223 7.23565,1.38272 2.43548,0.7605 6.45314,1.94633 8.92814,2.63518 10.03254,2.79229 11.8197,3.35077 19.55034,6.1094 4.42768,1.57998 8.63467,2.8727 9.34887,2.8727 1.30244,0 2.74171,0.58509 13.28886,5.40216 3.12845,1.42881 6.04699,2.59784 6.48565,2.59784 0.43867,0 3.05403,1.08555 5.81193,2.41233 2.75789,1.32678 7.03935,3.3837 9.51435,4.57095 9.07394,4.35271 23.42189,12.27376 28.25744,15.60004 2.73184,1.87917 5.36134,3.41668 5.84334,3.41668 0.77944,0 2.75197,1.41777 6.26081,4.5 0.62613,0.55 2.31467,1.60576 3.75232,2.34614 1.43764,0.74038 3.7805,2.42788 5.20635,3.75 1.42585,1.32212 2.89505,2.40386 3.2649,2.40386 0.36984,0 2.34393,1.4625 4.38686,3.25 3.71348,3.24918 4.90193,4.21805 10.52798,8.58282 7.95042,6.16805 29.52793,26.73333 36.00693,34.31782 6.91987,8.10057 14.34491,16.97871 16.49307,19.72083 1.375,1.75517 3.0625,3.81998 3.75,4.58845 0.6875,0.76847 1.25,1.84187 1.25,2.38532 0,0.54345 0.3637,1.13809 0.80823,1.32143 0.69055,0.2848 6.48253,8.4218 9.69177,13.61572 0.55,0.89013 2.4625,3.77363 4.25,6.40776 1.7875,2.63414 3.25,5.21181 3.25,5.72817 0,0.51635 0.57405,1.53347 1.27567,2.26025 0.70161,0.72679 2.61411,4.02143 4.25,7.32143 1.63588,3.3 3.20972,6.225 3.49743,6.5 1.66635,1.59278 3.9769,6.22027 3.9769,7.96482 0,1.11935 0.41425,2.03518 0.92054,2.03518 0.5063,0 1.21706,1.35 1.57946,3 0.3624,1.65 1.07316,3 1.57946,3 0.50629,0 0.92054,0.71807 0.92054,1.59571 0,0.87764 0.60667,2.79014 1.34815,4.25 6.12373,12.05669 6.19446,12.7848 2.11425,21.76539 -5.45578,12.00828 -10.49609,22.71864 -11.47746,24.3889 -0.48472,0.825 -1.83687,3.2632 -3.00476,5.41822 -3.63113,6.70024 -15.3137,25.06438 -16.16813,25.41511 -0.44663,0.18334 -0.81205,0.79358 -0.81205,1.3561 0,1.10695 -6.00086,9.09746 -7.24256,9.6439 -0.41659,0.18334 -0.75744,0.76483 -0.75744,1.29221 0,0.92551 -0.81152,2.0884 -4,5.73185 -0.825,0.94273 -3.525,4.36168 -6,7.59767 -2.475,3.23599 -5.9625,7.3906 -7.75,9.23247 -1.7875,1.84187 -3.25,3.51983 -3.25,3.7288 0,0.48504 -21.15894,21.63552 -27.61272,27.60169 -7.38236,6.82459 -13.1712,11.12269 -13.54919,10.06001 -0.18595,-0.52277 -2.17692,0.70831 -4.42439,2.73574 -2.24746,2.02743 -5.58122,4.81123 -7.40836,6.18623 -1.82713,1.375 -3.89366,3.0625 -4.59227,3.75 -0.69862,0.6875 -1.65301,1.25 -2.12088,1.25 -0.46787,0 -1.49935,0.9 -2.29219,2 -0.79284,1.1 -1.9562,2 -2.58525,2 -0.62905,0 -2.66721,1.34281 -4.52924,2.98403 -1.86203,1.64121 -3.70303,2.99121 -4.0911,3 -0.38808,0.009 -3.27518,1.81597 -6.41579,4.01597 -3.1406,2.2 -6.28822,4 -6.99471,4 -0.70649,0 -1.64439,0.57 -2.08422,1.26668 -0.98157,1.55477 -16.80161,9.82401 -37.79969,19.75817 -8.01927,3.7939 -18.81564,7.97515 -20.59258,7.97515 -0.78961,0 -3.9043,0.93888 -6.92154,2.08639 -3.01723,1.14752 -6.83588,2.45231 -8.48588,2.89953 -1.65,0.44723 -4.35,1.2598 -6,1.80572 -1.65,0.54592 -5.7,1.52732 -9,2.1809 -3.3,0.65357 -8.50452,1.82712 -11.5656,2.60788 -3.06109,0.78077 -7.56109,1.43032 -10,1.44344 -2.43892,0.0131 -6.2344,0.4616 -8.4344,0.99662 -5.08971,1.23777 -39.91864,3.98969 -48.5,3.8321 -3.575,-0.0657 -13.7,-0.69238 -22.5,-1.39274 z m 46,-70.52197 c 12.86693,-1.72956 24.32375,-4.72662 30.73643,-8.04053 0.95504,-0.49354 2.36641,-0.89734 3.13639,-0.89734 3.72104,0 35.62718,-18.03792 35.62718,-20.14158 0,-0.47213 0.57662,-0.85842 1.28138,-0.85842 1.6645,0 18.117,-15.90482 23.79201,-23 2.41951,-3.025 4.66419,-5.725 4.98818,-6 0.32398,-0.275 1.45516,-2.075 2.51374,-4 1.05858,-1.925 2.21297,-3.725 2.56531,-4 0.35235,-0.275 1.67803,-2.525 2.94596,-5 1.26794,-2.475 2.55466,-4.725 2.85938,-5 1.18367,-1.06822 4.90803,-8.67347 5.87651,-12 0.56044,-1.925 1.99353,-5.975 3.18465,-9 2.50979,-6.37396 3.25281,-9.09344 5.98611,-21.9093 2.53583,-11.88996 2.82584,-39.19151 0.52877,-49.77865 -3.1755,-14.6358 -3.73517,-16.97867 -5.21054,-21.81205 -0.83943,-2.75 -2.60291,-7.33463 -3.91885,-10.18807 -1.31593,-2.85345 -2.39261,-5.71318 -2.39261,-6.35498 0,-0.6418 -1.35,-3.16722 -3,-5.61206 -1.65,-2.44483 -3,-4.94262 -3,-5.55063 0,-0.60801 -1.125,-2.58043 -2.5,-4.38315 -1.375,-1.80272 -2.5,-3.75769 -2.5,-4.34439 0,-0.5867 -0.45,-1.06672 -1,-1.06672 -0.55,0 -1,-0.57471 -1,-1.27714 0,-0.70243 -1.35,-2.7552 -3,-4.56172 -1.65,-1.80652 -3,-3.47615 -3,-3.7103 0,-0.23415 -3.375,-3.85593 -7.5,-8.04841 -4.125,-4.19247 -7.5,-8.02312 -7.5,-8.51255 0,-0.48943 -0.63844,-0.88988 -1.41876,-0.88988 -0.78031,0 -2.90433,-1.575 -4.72004,-3.5 -1.81571,-1.925 -3.89139,-3.5 -4.61263,-3.5 -0.72124,0 -1.57036,-0.675 -1.88694,-1.5 -0.31659,-0.825 -1.20246,-1.5 -1.96862,-1.5 -0.76615,0 -1.39301,-0.41968 -1.39301,-0.93261 0,-0.51294 -1.0125,-1.24859 -2.25,-1.63478 -1.2375,-0.3862 -2.475,-0.97902 -2.75,-1.31739 -2.25794,-2.77825 -22.09291,-11.88603 -34,-15.61205 -14.75743,-4.61796 -24.79975,-5.98614 -44,-5.99465 -17.16005,-0.008 -26.72844,0.86687 -35,3.19875 -7.4378,2.09683 -28.44341,10.53183 -34,13.65304 -2.475,1.39023 -6.4125,3.53266 -8.75,4.76095 -2.3375,1.22829 -4.25,2.60349 -4.25,3.056 0,0.4525 -0.675,0.82274 -1.5,0.82274 -0.825,0 -1.5,0.4133 -1.5,0.91844 0,0.50514 -1.6875,1.95558 -3.75,3.22319 -2.0625,1.26761 -4.71397,3.21681 -5.89215,4.33156 -1.17818,1.11474 -4.89068,4.61383 -8.25,7.77574 -3.35932,3.16191 -6.10785,6.03413 -6.10785,6.38271 0,0.34857 -0.8792,1.3963 -1.95379,2.32828 -2.48937,2.15902 -10.81946,13.44832 -12.26634,16.62387 -0.6055,1.32892 -1.44834,2.41621 -1.873,2.41621 -0.42465,0 -1.08518,0.98644 -1.46784,2.1921 -0.38266,1.20565 -2.35966,4.91815 -4.39334,8.25 -2.03368,3.33184 -4.0313,7.1829 -4.43916,8.5579 -0.40785,1.375 -1.1223,3.85 -1.58765,5.5 -0.46535,1.65 -1.81243,5.475 -2.99351,8.5 -1.18108,3.025 -2.61164,8.2 -3.17901,11.5 -4.67594,27.1964 -4.79814,37.24465 -0.74794,61.5 1.75071,10.48442 7.78953,28.45644 11.76044,35 1.16817,1.925 2.39362,4.175 2.72322,5 1.18904,2.9762 2.92548,6.51024 3.43942,7 0.28858,0.275 1.36131,1.85 2.38383,3.5 5.05646,8.15939 15.84018,20.91059 24.02106,28.4037 2.15951,1.97797 4.74701,4.3838 5.75,5.3463 1.00298,0.9625 2.27361,1.75 2.82361,1.75 0.55,0 1,0.4133 1,0.91844 0,0.50514 1.6875,1.94389 3.75,3.19721 2.0625,1.25333 3.975,2.52753 4.25,2.83156 1.76797,1.95462 24.74442,13.4292 30,14.98218 2.475,0.73134 5.85,1.87608 7.5,2.54385 13.02095,5.26975 44.27903,7.98107 63,5.46463 z m -39,-61.0787 c -3.85,-1.11127 -8.27761,-2.26616 -9.83913,-2.56641 -1.56151,-0.30026 -4.93651,-1.67051 -7.5,-3.045 -2.56348,-1.3745 -6.26646,-3.34528 -8.22885,-4.37952 -1.96238,-1.03423 -4.53107,-2.77768 -5.70818,-3.87433 -1.17712,-1.09665 -2.46105,-1.99391 -2.85317,-1.99391 -2.58405,0 -22.37067,-23.93145 -22.37067,-27.05679 0,-0.45589 -0.88836,-2.33454 -1.97413,-4.17478 -2.30377,-3.90461 -6.21626,-15.65136 -5.56433,-16.70621 0.24579,-0.3977 -0.20216,-3.16189 -0.99545,-6.14265 -2.6844,-10.08649 -1.67914,-24.3257 2.91995,-41.36041 2.02235,-7.49067 8.01641,-19.27047 13.44131,-26.41554 2.74662,-3.61752 11.05406,-12.14362 11.8322,-12.14362 0.23977,0 1.47856,-1.125 2.75287,-2.5 1.27431,-1.375 2.63284,-2.5 3.01897,-2.5 0.38613,0 2.18699,-1.13262 4.00192,-2.51693 3.86565,-2.94847 20.80484,-10.48307 23.56792,-10.48307 1.04565,0 4.49269,-0.675 7.66008,-1.5 8.76621,-2.28331 37.1715,-2.03888 43.83869,0.37723 5.28973,1.91694 9.02921,3.54426 11.5,5.00449 0.825,0.48758 2.73002,1.46069 4.23337,2.16247 1.50335,0.70178 4.42835,2.99636 6.5,5.09906 2.07165,2.1027 4.16625,3.83067 4.65468,3.83992 0.95152,0.018 12.55569,12.11058 12.5909,13.12081 0.0116,0.33218 1.15884,1.90718 2.54947,3.5 1.39063,1.59281 2.99778,3.47395 3.57145,4.1803 1.886,2.32223 6.90013,12.38842 6.90013,13.85245 0,0.7885 0.63513,2.4303 1.4114,3.64845 3.90746,6.13174 5.96659,38.52738 3.08809,48.58386 -4.73059,16.527 -8.07169,24.06111 -14.99671,33.81723 -2.98559,4.20617 -17.71022,18.31373 -19.11478,18.31373 -0.67173,0 -1.37133,0.3375 -1.55467,0.75 -0.41772,0.93988 -8.19003,6.25 -9.14798,6.25 -0.38893,0 -2.61474,0.83626 -4.94625,1.85836 -8.18119,3.58652 -9.85576,4.14177 -12.53615,4.1567 -1.48662,0.008 -4.50295,0.66353 -6.70295,1.4561 -6.31507,2.27509 -27.22951,1.91955 -36,-0.61199 z" />

</svg>
