<svg xmlns="http://www.w3.org/2000/svg"
     lang="en-GB"
     viewBox="0 0 384 384">

  <title>Save Icon</title>

  <defs>

    <style><![CDATA[

    rect {
      fill: rgb(255, 0, 0);
    }

    path {
      fill: rgb(255, 255, 255);
      filter: url(#drop-shadow);
    }

    ]]></style>

    <filter id="drop-shadow">
      <feDropShadow dx="4" dy="4" stdDeviation="4" flood-color="rgb(0,0,0,0.3)"/>
      <feDropShadow dx="4" dy="-4" stdDeviation="4" flood-color="rgb(0,0,0,0.3)"/>
      <feDropShadow dx="-4" dy="-4" stdDeviation="4" flood-color="rgb(0,0,0,0.3)"/>
      <feDropShadow dx="-4" dy="4" stdDeviation="4" flood-color="rgb(0,0,0,0.3)"/>
    </filter>

  </defs>

  <rect width="384" height="384" />

  <path d="m 72.5,313.3348 c -4.409321,-2.32977 -6.487276,-4.39289 -8.60641,-8.54496 C 62.067935,301.21278 62,296.95132 62,186.00772 62,84.406643 62.181185,70.502127 63.547728,67.231529 65.612402,62.290067 68.659024,59.124298 73.5,56.890043 c 3.81511,-1.760787 9.292469,-1.846119 118.5,-1.846119 109.20753,0 114.68489,0.08533 118.5,1.846119 4.84098,2.234255 7.8876,5.400024 9.95227,10.341486 C 321.81882,70.502127 322,84.406643 322,186.00772 c 0,110.9436 -0.0679,115.20506 -1.89359,118.78212 -2.16608,4.24405 -4.26181,6.2881 -8.80675,8.58957 -2.75408,1.39461 -7.63455,1.61741 -35,1.59782 -30.05713,-0.0215 -31.61886,-0.11188 -28.50014,-1.64888 4.67866,-2.30581 9.80285,-8.69214 11.0965,-13.82969 C 259.53407,296.96474 260,285.88181 260,273.23868 c 0,-24.95003 -0.8686,-29.82221 -6.2226,-34.904 -7.47923,-7.09898 -5.02359,-6.80009 -58.7774,-7.15397 -33.28494,-0.21912 -50.12204,0.0331 -53.67046,0.80392 -7.30643,1.58721 -13.78091,7.42884 -15.81126,14.26577 -1.84822,6.22364 -2.17194,46.26804 -0.42996,53.18609 1.23231,4.89393 5.76295,10.89185 10.33195,13.67802 3.05403,1.86234 2.81684,1.87771 -28.42027,1.84171 -26.774934,-0.0308 -31.950006,-0.27407 -34.5,-1.62142 z M 277.78212,209.44695 c 4.68819,-1.95837 8.85445,-5.88431 11.30946,-10.65711 C 290.91189,195.25098 291,192.07646 291,130.03471 V 64.989747 L 197.25,65.244873 103.5,65.5 v 65 65 l 2.70902,4.60814 c 2.56557,4.36413 5.06826,6.5845 10.79098,9.57369 1.99386,1.04147 18.14624,1.3071 79.78212,1.31201 67.61522,0.005 77.74717,-0.1881 81,-1.54689 z M 145,273 v -31 h 21 21 v 31 31 h -21 -21 z" />

</svg>
