<svg xmlns="http://www.w3.org/2000/svg"
     xmlns:xlink="http://www.w3.org/1999/xlink"
     lang="en-GB"
     viewBox="0 0 945.14 584.13">

  <title>Merch by Amazon</title>

  <defs>

    <style><![CDATA[

      rect {
        width: 945.14px;
        height: 584.13px;
        fill: rgb(0, 0, 0);
      }

      path {
        fill: rgb(255, 255, 255);
        transform: translate(50px, 104px) scale(0.9);
      }

      .merch,
      .arrow {
        fill: rgb(240, 147, 32);
        stroke: rgb(236, 128, 19);
      }

    ]]></style>

  </defs>

  <rect />

  <path class="arrow" d="m 436.98229,453.64063 c -22.78258,-2.22846 -50.9536,-8.28314 -71.96627,-15.46744 -24.09222,-8.23719 -40.33554,-16.23957 -72.30453,-35.62128 -7.69037,-4.66241 -35.41292,-26.92692 -36.99717,-29.71315 -1.50911,-2.65403 0.27206,-6.06744 3.16608,-6.06744 1.39561,0 7.25464,2.58951 13.0201,5.75448 36.5578,20.06855 80.48818,35.35901 124.57546,43.3599 75.056,13.62104 149.04383,6.90612 221.71128,-20.12189 18.96081,-7.0523 23.33664,-7.23483 24.89187,-1.03829 1.13813,4.5347 -3.00171,8.27817 -20.84731,18.85123 -35.31682,20.92431 -78.49776,34.91824 -122.07393,39.56128 -12.02985,1.28178 -51.96179,1.59946 -63.17558,0.5026 z m 209.70696,-17.50029 c -0.45238,-1.17887 0.88116,-6.78816 2.96342,-12.46507 4.93708,-13.46016 9.95609,-32.17516 10.04447,-37.45417 0.0435,-2.59928 -1.00357,-5.15121 -2.77005,-6.75106 -2.48978,-2.25492 -5.02917,-2.57214 -20.59072,-2.57214 -9.76289,0 -21.70006,0.3038 -26.52707,0.67511 -8.03309,0.61792 -8.8094,0.44466 -9.16628,-2.04586 -0.46546,-3.24809 9.99923,-9.97286 20.64308,-13.26554 9.20923,-2.84887 26.65783,-5.26583 32.03814,-4.43787 2.42965,0.3739 8.33465,1.11309 13.12223,1.64264 10.80296,1.19494 14.93867,4.61208 14.8948,12.30686 -0.0519,9.09554 -5.09293,28.34835 -10.12422,38.66637 -8.49614,17.42363 -22.19563,31.77825 -24.5278,25.70073 z" />

  <path class="amazon" d="M 170.18991,354.07055 c -19.11314,-4.64 -28.59664,-18.90405 -27.27034,-41.01705 0.77377,-12.9008 4.77121,-21.37499 14.27757,-30.26707 8.23408,-7.70201 22.0502,-12.47419 43.50043,-15.02533 l 14.17501,-1.68589 -0.12557,-8.29959 c -0.15446,-10.21014 -2.72058,-14.55217 -9.86532,-16.69278 -10.64262,-3.18862 -20.06643,1.3937 -24.59545,11.95949 l -2.58485,6.03022 -13.14437,-0.97751 c -17.02169,-1.26584 -18.43506,-2.01644 -17.2893,-9.18167 1.16762,-7.30189 6.94988,-17.73264 12.56124,-22.65947 11.32471,-9.94322 26.45641,-14.13648 47.37737,-13.12906 15.61998,0.75215 25.18749,4.41666 33.66508,12.89425 9.22253,9.22253 10.09928,13.60437 11.0075,55.01383 l 0.79958,36.4557 4.11442,6.07595 c 6.8672,10.14112 7.01082,9.60521 -5.58557,20.84261 -6.29598,5.61673 -12.41801,10.21224 -13.60452,10.21224 -2.28561,0 -12.53257,-9.6691 -14.95396,-14.11066 -1.36676,-2.50708 -1.71849,-2.40265 -7.3065,2.169 -8.61959,7.05184 -16.08552,10.42032 -26.40178,11.91197 -10.8498,1.5688 -10.0597,1.59067 -18.75067,-0.51918 z m 33.42318,-28.43124 c 7.10246,-4.82624 10.74347,-13.33683 11.60351,-27.12235 0.82278,-13.18813 1.33759,-12.83632 -14.06053,-9.60883 -10.96621,2.29855 -17.16213,7.08868 -19.91579,15.39711 -5.85324,17.66057 8.14084,31.00493 22.37281,21.33407 z m 290.75317,28.27346 c -3.71308,-1.03103 -7.205,-1.9014 -7.75982,-1.93419 -1.87362,-0.11071 -11.73972,-9.74039 -14.41584,-14.07044 -5.82977,-9.43276 -6.21316,-30.37829 -0.76617,-41.85698 7.89411,-16.63559 23.47213,-24.72746 54.67179,-28.39882 l 12.827,-1.50939 0.39963,-8.32922 c 0.36435,-7.59404 0.0482,-8.72258 -3.58222,-12.78567 -3.64781,-4.08262 -4.64615,-4.45647 -11.90064,-4.45647 -9.34185,0 -15.28448,3.42049 -18.04099,10.3841 -3.40491,8.60166 -3.70922,8.7152 -18.91119,7.05554 -14.92017,-1.62891 -16.68817,-2.71275 -15.30637,-9.38337 3.37489,-16.29241 18.16436,-29.98029 37.11296,-34.34864 9.93322,-2.28997 29.68875,-1.73528 38.76105,1.08833 12.59245,3.91922 18.99365,8.99707 24.90738,19.7582 2.8033,5.10108 3.00683,7.50585 3.66716,43.32775 l 0.69914,37.92692 5.06329,7.62193 c 2.78481,4.19206 5.0633,8.49857 5.0633,9.57003 0,1.07145 -1.67089,3.25678 -3.71309,4.85628 -2.04219,1.59952 -5.83966,4.85558 -8.43881,7.23572 -6.05557,5.54527 -10.98748,8.95504 -12.95262,8.95504 -1.53284,0 -8.78315,-7.05462 -13.78102,-13.40905 l -2.58171,-3.28247 -6.60815,5.49396 c -8.99666,7.47977 -13.65228,9.60833 -24.42073,11.1653 -11.35114,1.64121 -11.69596,1.62959 -19.99333,-0.67439 z m 36.05348,-29.85636 c 6.70537,-6.29687 9.11525,-13.13591 9.14894,-25.96387 l 0.0297,-11.29483 -7.76371,0.94558 c -10.12816,1.23357 -17.78529,4.67249 -22.26935,10.0015 -6.75925,8.03292 -6.53623,20.51307 0.49219,27.54147 3.57397,3.57397 4.68851,3.93998 10.12992,3.32666 4.24048,-0.47796 7.37612,-1.87426 10.23237,-4.55651 z m 219.1364,29.47986 c -19.83606,-6.89071 -32.88969,-24.55903 -37.9443,-51.35824 -2.61012,-13.83875 -1.90982,-28.17134 2.15257,-44.05515 7.92249,-30.9766 32.13099,-47.95811 62.12085,-43.57582 28.59878,4.17901 47.25738,31.79963 47.25738,69.95582 0,43.43151 -22.56782,71.58233 -57.25779,71.42267 -5.48936,-0.0252 -12.45938,-1.04515 -16.32871,-2.38928 z m 24.73321,-27.31234 c 2.72455,-1.66111 5.63446,-5.23038 7.42616,-9.10888 2.69204,-5.82747 2.94612,-8.53178 2.94612,-31.35639 0,-28.43329 -1.39802,-35.9019 -7.71535,-41.21758 -6.15229,-5.17682 -14.82036,-4.70241 -20.65312,1.13035 -6.67371,6.67371 -8.06079,13.27273 -8.00045,38.06191 0.0625,25.67946 2.15895,34.67358 9.60625,41.2124 5.3976,4.73916 10.11081,5.10671 16.39039,1.27819 z m -494.3816,26.14513 c -1.44623,-1.44622 -1.07436,-133.85391 0.37844,-134.7518 0.70323,-0.4346 6.8437,-1.10566 13.6455,-1.49122 16.21933,-0.91939 18.83119,0.53098 18.83119,10.45704 v 6.92252 l 4.04025,-5.5774 c 2.22212,-3.06757 6.58282,-7.26 9.69042,-9.31651 5.20126,-3.44204 6.694,-3.73911 18.78801,-3.73911 12.65135,0 13.32998,0.15403 18.32646,4.15985 2.85374,2.28791 7.08803,7.02669 9.40954,10.53062 l 4.22092,6.37077 3.45742,-5.89964 c 3.49846,-5.96967 10.60659,-11.80456 17.55572,-14.41103 2.09054,-0.78412 7.86269,-1.41973 12.82701,-1.41248 14.03875,0.0205 25.21077,6.48318 32.65472,18.88976 2.81789,4.69648 3.82852,117.27023 1.06851,119.02123 -2.8263,1.79307 -29.99067,1.38995 -31.85332,-0.4727 -1.19747,-1.19747 -1.62158,-13.79296 -1.62531,-48.27005 -0.005,-43.65019 -0.17204,-46.92367 -2.60222,-50.90912 -6.80969,-11.16784 -24.41497,-5.19397 -27.20304,9.23063 -0.61981,3.20671 -1.1534,24.39242 -1.18574,47.07934 -0.0431,30.21424 -0.49224,41.68239 -1.67905,42.8692 -1.05639,1.05639 -6.60104,1.62025 -15.93249,1.62025 -9.33146,0 -14.8761,-0.56386 -15.93249,-1.62025 -1.19351,-1.19351 -1.62224,-13.19574 -1.62779,-45.56963 -0.004,-25.95548 -0.5763,-45.99724 -1.39671,-48.95123 -1.7829,-6.41947 -6.98292,-10.52556 -13.32973,-10.52556 -5.89541,0 -10.10726,2.70027 -13.29061,8.52078 -2.08092,3.8048 -2.4043,9.56895 -2.77708,49.50159 -0.27292,29.2358 -0.92728,45.80432 -1.85308,46.91984 -1.52158,1.83338 -30.85479,2.57497 -32.60545,0.82431 z m 562.44806,-0.67994 c -1.26786,-1.26786 -1.66042,-17.06056 -1.66042,-66.79905 v -65.13862 l 3.00085,-2.10189 c 3.51652,-2.46306 23.90311,-2.97315 28.14276,-0.70416 2.17448,1.16374 2.62071,2.91544 2.66572,10.46413 l 0.054,9.06643 2.1287,-4.05064 c 6.32017,-12.02635 17.5045,-18.63561 31.48694,-18.60685 18.32824,0.0377 28.97446,8.76707 33.92243,27.81464 2.23623,8.60856 2.5211,15.31595 2.54164,59.84607 0.0205,44.49921 -0.21755,50.24327 -2.11261,50.97046 -4.064,1.55951 -30.99904,0.89997 -32.69969,-0.80068 -1.19539,-1.19539 -1.62026,-13.42174 -1.62026,-46.62565 0,-48.2763 -0.41732,-51.67215 -6.90885,-56.219 -5.70794,-3.99798 -13.82639,-2.40241 -19.00348,3.73486 -4.82255,5.71697 -5.62421,12.83426 -6.40317,56.84818 l -0.76467,43.20675 -15.55477,0.37773 c -10.94942,0.26588 -16.04638,-0.11383 -17.21519,-1.28271 z m -240.37773,-2.74059 c -1.94187,-1.94187 -2.24315,-26.27026 -0.38582,-31.1554 0.67894,-1.78575 11.23652,-17.52918 23.46129,-34.98541 12.22477,-17.45622 23.32514,-33.41477 24.66746,-35.46342 l 2.44062,-3.72484 -21.06436,0.68432 c -26.55105,0.86255 -26.68881,0.79543 -26.68881,-13.0048 0,-16.81087 -3.13354,-15.75129 46.58228,-15.75129 42.26214,0 42.3843,0.008 44.4804,3.00085 2.33808,3.33808 2.84221,15.12929 0.86877,20.31983 -0.6782,1.78382 -9.07169,14.43096 -18.65218,28.10478 -9.5805,13.6738 -19.66004,28.1974 -22.399,32.27467 l -4.97993,7.4132 15.19329,2.28589 c 16.52182,2.48578 29.70476,7.49601 32.2533,12.25799 0.83494,1.56013 1.4801,7.98323 1.43366,14.27356 -0.11639,15.76441 -0.90262,16.37559 -14.21072,11.04677 -14.36678,-5.75274 -23.44432,-7.16375 -40.73865,-6.33241 -14.54579,0.69921 -24.0587,2.98725 -34.17921,8.22076 -4.99438,2.5827 -5.97007,2.64728 -8.08239,0.53495 z" />

  <path class="by" d="M 50.22087,309.75842 c -3.070377,-4.38359 -2.640633,-5.49783 3.199072,-8.29465 2.897091,-1.3875 7.395975,-4.72927 9.99752,-7.42616 l 4.730082,-4.90342 -2.666722,-12.1519 c -1.466698,-6.68355 -3.74667,-17.76273 -5.066606,-24.6204 -2.346836,-12.1929 -2.342916,-12.48659 0.177319,-13.28648 1.417461,-0.44988 3.921009,-0.48069 5.563439,-0.0685 2.607793,0.65452 3.281044,2.42386 5.312496,13.96158 1.279441,7.26664 2.703615,15.79436 3.164832,18.95048 0.461216,3.15612 1.216616,5.73348 1.678665,5.72747 0.954355,-0.0122 13.252737,-25.32087 15.369606,-31.62862 0.764346,-2.27758 1.983556,-4.90054 2.709353,-5.82881 1.797581,-2.29904 9.001594,-2.13964 9.906774,0.21921 0.98608,2.56968 -14.167352,32.127 -24.030916,46.87318 -7.861842,11.75359 -15.243243,19.02659 -23.631411,23.28439 -4.152389,2.10773 -4.39287,2.07746 -6.413503,-0.8074 z M 13.016034,291.19008 C 1.4189033,288.71377 0.28660918,287.4685 3.1665518,280.35781 c 0.7519288,-1.85654 2.1066193,-7.62869 3.0104235,-12.827 2.7183426,-15.6348 9.6857017,-49.77716 10.3907027,-50.91788 0.362098,-0.58588 2.749083,-1.06524 5.304413,-1.06524 3.693578,0 4.646053,0.5355 4.646053,2.61214 0,2.65734 -3.447315,20.15031 -4.939953,25.06718 -0.780606,2.57138 -0.695935,2.58998 1.77195,0.38905 3.308591,-2.9507 11.682946,-6.465 15.405656,-6.465 9.276515,0 15.146491,12.69563 12.01751,25.99156 -3.329155,14.14653 -10.661357,23.49836 -21.391975,27.28435 -6.316208,2.22849 -8.931517,2.35044 -16.365298,0.76311 z m 17.498137,-11.93826 c 5.368614,-4.00825 9.506083,-13.22481 9.506083,-21.17559 0,-12.54288 -7.232,-14.71086 -16.537032,-4.9574 -4.073338,4.26964 -5.0163,6.5589 -6.770641,16.4373 -1.121013,6.31223 -1.793875,11.89043 -1.495249,12.39597 1.017312,1.72224 11.960801,-0.20956 15.296839,-2.70028 z" />

  <path class="merch" d="M 271.58144,176.48412 c -22.97531,-3.5288 -36.82207,-15.10735 -44.83895,-37.49398 -3.44353,-9.61584 -3.36492,-40.177552 0.12948,-50.362289 3.80592,-11.092533 6.75985,-16.264973 12.91368,-22.61237 10.16823,-10.488086 24.02012,-15.573181 42.59743,-15.637728 24.88256,-0.08645 39.68713,10.243764 45.96119,32.070476 1.7453,6.071683 2.15656,11.452369 1.7078,22.344001 -0.3251,7.89053 -1.04226,15.07642 -1.59369,15.96866 -0.73865,1.19523 -10.20102,1.62224 -35.94867,1.62224 -19.22036,0 -35.2127,0.45569 -35.53852,1.01265 -0.32583,0.55697 0.18938,4.05064 1.14491,7.76372 3.13019,12.16352 15.31972,19.58825 32.13375,19.57291 3.09947,-0.003 11.10375,-0.98201 17.78729,-2.17596 6.68355,-1.19395 13.90014,-2.25493 16.03686,-2.35772 l 3.88498,-0.18691 0.16566,10.65489 c 0.14706,9.45783 -0.15506,10.86497 -2.68911,12.52472 -8.46348,5.54335 -38.639,9.6296 -53.85409,7.29269 z m 28.77219,-79.312868 c 0.68541,-4.812756 -2.30211,-13.653014 -5.94079,-17.579224 -2.86491,-3.091284 -4.76351,-3.759361 -11.99165,-4.219613 -11.8035,-0.751591 -18.34048,2.872219 -23.0183,12.760327 -3.36977,7.123111 -4.03255,10.16305 -2.54099,11.654615 0.44434,0.444343 10.31776,0.697503 21.94093,0.562593 20.57634,-0.23884 21.14405,-0.32258 21.5508,-3.178698 z m 183.21094,76.705138 c -19.05069,-5.62336 -28.85846,-14.75383 -36.10403,-33.6108 -2.55682,-6.6542 -2.97242,-10.34504 -2.92592,-25.98373 0.0467,-15.730999 0.48185,-19.33756 3.17633,-26.329115 1.71717,-4.455696 3.95508,-9.0605 4.97311,-10.232899 1.01804,-1.172398 1.85098,-2.782317 1.85098,-3.577596 0,-2.178975 13.94622,-14.481382 19.29208,-17.018157 15.41545,-7.315113 38.93163,-8.2245 54.29442,-2.099605 l 8.10126,3.229845 0.39813,10.670496 c 0.21896,5.868773 -0.13098,11.199606 -0.77769,11.846295 -0.66759,0.667592 -5.2166,0.227623 -10.5247,-1.017924 -17.92234,-4.205483 -33.589,-0.315116 -40.4437,10.043038 -7.01328,10.597772 -7.51081,34.173892 -0.97841,46.362282 5.99118,11.17857 18.59622,14.85048 38.82991,11.31136 6.68043,-1.16849 12.60195,-2.12648 13.15891,-2.12886 1.86131,-0.008 1.15814,22.49789 -0.75247,24.08355 -6.85501,5.68916 -38.20709,8.39575 -51.56821,4.45182 z M 16.334351,172.00338 c -0.35616,-0.92827 -0.48899,-27.81435 -0.295177,-59.74684 l 0.352388,-58.05907 13.30284,-0.388114 c 14.399492,-0.42011 16.308997,0.261641 17.506757,6.250439 l 0.755289,3.776447 11.716949,-5.736637 c 23.834014,-11.66917 44.207613,-10.940744 56.520723,2.020809 l 3.93757,4.14494 6.86412,-3.915901 c 12.05593,-6.877777 23.1772,-9.970088 35.89342,-9.980306 16.88764,-0.01357 26.54745,5.170041 32.25264,17.307293 2.74337,5.836266 2.85307,7.992782 2.85307,56.08252 v 50.01286 l -17.21519,-0.37788 -17.21519,-0.3779 -0.32771,-43.20675 c -0.35653,-47.009008 -0.56711,-48.380833 -7.89669,-51.445344 -4.9965,-2.089038 -19.0698,-0.519869 -25.90093,2.887944 l -4.35568,2.172901 v 45.133179 45.13317 H 107.53081 89.978062 v -42.33016 c 0,-26.4578 -0.539143,-43.87675 -1.437846,-46.454771 C 85.521153,76.24572 68.727879,74.934818 53.859917,82.199026 l -3.037974,1.484297 v 45.003907 45.00391 H 33.901929 c -12.290503,0 -17.097195,-0.46178 -17.567578,-1.68776 z m 339.958789,-58.05907 0.3516,-59.74684 14.22421,-0.380286 c 13.1771,-0.35229 14.23852,-0.190443 14.41848,2.198537 0.1068,1.418352 0.8722,5.096533 1.70082,8.173736 l 1.50655,5.594914 6.35344,-5.284536 c 11.2091,-9.323251 24.2984,-13.790605 34.09922,-11.637987 l 3.9842,0.87508 v 15.420144 c 0,8.481081 -0.4557,15.420464 -1.01266,15.420853 -19.03635,0.01337 -32.75028,1.174905 -36.79325,3.11646 l -4.72574,2.269447 0.31468,38.825678 c 0.17307,21.35413 -0.0497,40.19277 -0.49503,41.86366 -0.78454,2.94353 -1.32998,3.03797 -17.54391,3.03797 h -16.7342 z M 559.85149,87.31798 V 0.86413503 h 17.55275 17.55274 V 31.918988 c 0,17.08017 0.3619,31.054854 0.80423,31.054854 0.44233,0 2.41701,-1.123196 4.38818,-2.495991 1.97118,-1.372795 8.0441,-4.181136 13.49539,-6.24076 7.97845,-3.014449 12.19164,-3.754832 21.60338,-3.796354 17.68683,-0.07803 27.659,5.454486 33.54221,18.609054 2.14816,4.803204 2.46624,10.891658 2.87439,55.021099 l 0.45894,49.62025 h -17.58492 -17.58492 l -0.40772,-42.93178 c -0.45695,-48.114779 -0.47984,-48.231991 -10.22327,-52.34474 -4.28687,-1.809508 -6.24294,-1.883007 -13.13804,-0.493656 -4.4557,0.897816 -10.37158,2.870056 -13.14641,4.382755 l -5.04515,2.750362 -0.35569,43.980979 -0.3557,43.98098 -17.21519,0.3779 -17.2152,0.37788 z" />

</svg>
