<svg xmlns="http://www.w3.org/2000/svg"
     lang="en-GB"
     viewBox="0 0 1733.33 1733.33">
  
<title>Select Theme Icon</title>

<defs>
  
  <style type="text/css"><![CDATA[

  rect {
    width: 1733.33px;
    height: 1733.33px;
    fill: rgb(191, 0, 0);
  }

  path {
    stroke-width: 1.33;
    fill: rgb(255, 255, 255);
  }

  ]]></style>

</defs>

<rect />
  
<path d="M 689.93649,1470.5806 C 582.95904,1454.0036 482.34377,1409.0272 401.26983,1341.5425 327.26206,1279.9397 270.005,1202.6675 232.58531,1113.8916 193.85318,1022.0021 179.09722,915.48013 191.32423,816.03172 c 8.9251,-72.59228 29.41326,-139.265 61.86862,-201.33333 48.29563,-92.36159 116.09926,-167.16985 202.74364,-223.68862 147.78362,-96.40034 333.99873,-121.1474 502.86368,-66.82811 32.74474,10.53311 52.55683,18.81388 87.80303,36.69875 43.9721,22.31262 86.6088,51.31289 124,84.34129 11.4082,10.07716 46.0358,45.52506 55.7258,57.04601 l 9.7258,11.56355 -11.0591,10.49204 c -6.0826,5.77062 -16.7592,15.84665 -23.7259,22.39118 -6.9666,6.54454 -17.4666,16.47663 -23.3333,22.07132 -5.8667,5.59468 -46.3667,43.73953 -90,84.76633 -43.6333,41.0268 -110.90163,104.32515 -149.48508,140.66299 l -70.15173,66.06881 -6.88444,0.81536 c -17.03447,2.01748 -34.06674,15.23699 -40.22396,31.21965 -4.05774,10.53286 -4.11691,26.24072 -0.1358,36.04611 l 2.84209,7 h -5.88407 c -19.40846,0 -42.24526,6.44296 -59.80635,16.8732 -21.38163,12.69941 -45.01914,40.66191 -58.23047,68.88505 -8.07913,17.2593 -11.38535,27.5839 -21.21233,66.2417 -9.2382,36.3417 -12.3441,45.5863 -22.53942,67.0882 -6.56224,13.8397 -7.80364,15.6576 -10.2127,14.9551 -24.16939,-7.0477 -55.16201,-2.3843 -76.84125,11.5621 -16.24683,10.4518 -29.44203,25.6617 -37.30298,42.9986 -12.21778,26.9458 -10.20045,62.5012 5.03434,88.7294 9.97181,17.1674 31.09105,34.8908 49.7988,41.7914 62.31233,22.9848 128.93207,-21.9866 130.94062,-88.3911 l 0.34483,-11.4003 15.97494,-8.4486 c 54.22836,-28.6795 139.92864,-89.9321 167.00241,-119.3618 3.13176,-3.4043 5.98176,-6.1896 6.33334,-6.1896 0.35156,0 0.6392,5.2881 0.6392,11.7514 0,13.9415 2.47605,33.6945 7.93286,63.2855 8.71066,47.2358 10.59116,68.1608 8.17479,90.9631 -5.45476,51.4741 -31.26901,95.7549 -77.44099,132.8394 -33.56862,26.9616 -75.47823,47.4338 -105.99999,51.779 -12.86804,1.832 -36.28955,1.4917 -50.66667,-0.7362 z m -268.75185,-334.717 c 63.69188,-15.779 94.03011,-87.2199 61.06375,-143.79384 -25.9027,-44.45191 -83.26672,-60.56734 -129.47993,-36.37515 -16.348,8.55805 -31.74004,24.34125 -39.99092,41.00715 -7.63322,15.41834 -9.94891,23.67784 -11.03632,39.36384 -3.35382,48.3787 30.20921,90.6913 80.19528,101.1014 7.20141,1.4998 31.14224,0.7047 39.24814,-1.3034 z m -6.71132,-312.57051 c 29.53329,-4.79195 57.66423,-25.58912 71.1868,-52.62833 6.99235,-13.98161 9.54428,-25.37168 9.55191,-42.63304 0.0107,-24.39895 -6.19859,-42.83197 -20.43626,-60.66667 -13.0132,-16.30086 -30.67464,-28.02044 -51.50594,-34.17772 -11.07711,-3.27416 -36.80071,-3.35281 -48.66667,-0.1488 -34.01514,9.18466 -59.89942,34.68394 -69.61624,68.58076 -4.21922,14.71864 -4.19641,36.84912 0.0532,51.68567 11.97911,41.82169 48.92595,70.34484 92.22964,71.20177 4.76667,0.0943 12.50824,-0.45181 17.2035,-1.21364 z M 644.23741,599.4586 c 43.39403,-11.09833 73.52568,-49.77122 73.26616,-94.03453 -0.31763,-54.17699 -42.35867,-96.76057 -95.56708,-96.80042 -13.96837,-0.0107 -22.95334,1.25972 -32.17956,4.5491 -40.35054,14.3861 -65.86224,50.08356 -65.80073,92.07225 0.0364,24.85908 7.33207,44.63124 23.79276,64.48144 10.2966,12.41682 30.99697,25.02948 48.69496,29.66963 13.12461,3.44109 34.47424,3.46903 47.79349,0.0625 z m 312.94722,0.40496 c 30.16011,-7.47181 55.51707,-29.10294 67.09217,-57.23396 5.9248,-14.39909 6.998,-20.40762 6.8938,-38.59788 -0.09,-15.72821 -0.4747,-18.41121 -4.1542,-28.97312 -5.7224,-16.4256 -11.3841,-25.32045 -24.5487,-38.56754 -9.69803,-9.75884 -13.40352,-12.46817 -23.99999,-17.54804 -16.18891,-7.76083 -27.923,-10.59509 -43.86456,-10.59509 -42.53372,0 -78.06772,26.02285 -92.39788,67.66635 -3.71174,10.78636 -4.13962,13.65651 -4.17672,28.01744 -0.0499,19.30755 2.0679,28.35867 10.65548,45.54003 16.34939,32.71055 48.04638,52.20835 85.16727,52.389 9.21703,0.0448 17.80124,-0.72668 23.33333,-2.09719 z m -351.9148,662.61814 c 0,-0.4492 4.46912,-5.3842 9.93137,-10.9667 30.00889,-30.6693 59.77102,-77.6196 72.36052,-114.15 2.52729,-7.3333 8.39509,-28.0352 13.03954,-46.0042 10.28696,-39.7994 12.4153,-46.2926 20.81739,-63.5102 11.73915,-24.056 32.92893,-48.37734 50.74267,-58.24174 23.47857,-13.00124 53.8441,-15.04591 78.44183,-5.2818 38.81572,15.4079 63.08568,56.28674 57.45456,96.77304 -3.74896,26.954 -14.86621,45.1944 -40.79378,66.9316 -4.37351,3.6667 -9.16135,7.785 -10.63964,9.1519 -1.4783,1.3669 -13.4878,10.6001 -26.6878,20.5182 -56.41983,42.3922 -113.31832,75.8571 -151.33333,89.0068 -15.54703,5.3779 -40.6965,11.6242 -56,13.9086 -5.5,0.821 -11.65,1.7601 -13.66667,2.087 -2.01666,0.3268 -3.66666,0.2267 -3.66666,-0.2225 z m 342.24506,-236.9822 c -6.7602,-2.499 -4.54062,-0.4455 -56.4081,-52.18704 -29.93778,-29.86517 -46.52169,-47.39582 -48.49465,-51.26314 -4.11991,-8.07568 -3.19405,-19.40152 2.22547,-27.22372 7.00326,-10.10808 22.43981,-14.55722 33.89737,-9.76995 5.88376,2.4584 99.1096,95.60621 102.67549,102.58961 4.57699,8.9635 2.52989,22.61934 -4.51488,30.11814 -7.54273,8.0289 -19.83394,11.2652 -29.3807,7.7361 z m 337.47091,-44.23734 c -12.7058,-4.0909 -39.0825,-17.4472 -55.0603,-27.88082 -39.2469,-25.62853 -54.4119,-31.09738 -89.5418,-32.29084 -23.1987,-0.78812 -34.2213,0.29652 -55.6439,5.47551 l -12.8009,3.09467 5.5618,-6.14782 c 3.059,-3.38129 10.4085,-11.26766 16.3321,-17.52526 5.9237,-6.2576 18.9102,-20.0576 28.8589,-30.66667 9.9487,-10.60907 48.3487,-51.41784 85.3334,-90.68617 36.9846,-39.26833 78.0135,-82.88031 91.1754,-96.91552 13.1619,-14.03521 24.373,-25.24517 24.9137,-24.91103 2.3744,1.46748 17.8379,46.89148 24.3679,71.581 14.4041,54.46049 20.204,103.89695 19.1572,163.29091 -0.5691,32.28802 -0.9068,36.48818 -3.5487,44.12321 -5.2768,15.24997 -12.0524,24.13693 -24.7246,32.42913 -16.4629,10.7726 -35.2229,13.1977 -54.3802,7.0297 z m -338.38265,-61.96675 -52.66666,-52.97869 42.33038,-39.80918 c 23.28172,-21.89504 45.18172,-42.4418 48.66667,-45.65948 3.48496,-3.21768 15.63626,-14.65046 27.00296,-25.40621 11.3667,-10.75573 31.1667,-29.37906 44,-41.38517 12.8333,-12.00611 28.4395,-26.67331 34.6803,-32.59379 30.8249,-29.24257 43.6712,-41.36713 70.6787,-66.70753 6.2192,-5.83533 15.8077,-14.86546 21.3077,-20.06696 14.241,-13.4681 116.6829,-109.85005 158.6102,-149.22766 36.4814,-34.26288 68.5627,-64.47599 90.7114,-85.42901 12.8766,-12.18159 35.8938,-33.86738 79.4976,-74.8991 30.0862,-28.31156 33.7954,-30.43423 53.1808,-30.43423 12.0954,0 14.0485,0.36218 21.0368,3.90101 9.5173,4.81964 18.6836,14.41965 23.3688,24.47489 3.0137,6.46796 3.5556,9.44805 3.5734,19.65213 0.031,17.60959 -3.4332,23.81075 -27.5412,49.3053 -10.4017,11 -23.4016,24.8 -28.8885,30.66666 -5.4871,5.86667 -14.5556,15.46667 -20.1525,21.33334 -5.5968,5.86666 -29.3263,31.06666 -52.7319,55.99999 -23.4057,24.93334 -47.4097,50.43334 -53.3421,56.66667 -5.9326,6.23333 -15.257,16.12515 -20.7212,21.9818 -5.4643,5.85667 -14.4767,15.45667 -20.0278,21.33333 -24.0005,25.40847 -33.44,35.39962 -44.1069,46.68487 -6.2384,6.6 -31.0539,33 -55.1455,58.66666 -40.0519,42.67038 -68.7287,73.12623 -95.4135,101.3325 -19.5609,20.67625 -85.4664,90.68577 -121.1249,128.6675 -11.3599,12.1 -29.7599,31.6 -40.8889,43.33333 -11.1291,11.73333 -22.7795,24.18338 -25.8898,27.66668 -3.1104,3.4833 -6.0338,6.2379 -6.4964,6.1212 -0.46272,-0.1167 -24.54128,-24.05257 -53.50795,-53.19085 z" />

</svg>
