<svg xmlns="http://www.w3.org/2000/svg"
     lang="en-GB"
     viewBox="0 0 297 297">

  <title>Code Save Icon</title>

  <defs>

  <style type="text/css"><![CDATA[

  rect {
    width: 297px;
    height: 297px;
    fill: rgb(191, 0 , 0);
  }

  path {
    fill: rgb(255, 255, 255);
    transform: translateX(43.5px);
  }

  ]]></style>

  </defs>

  <rect/>
  <path d="m 59.090281,253.98392 -11.288889,-0.21344 -2.665486,-1.07506 c -6.826779,-2.75341 -12.286008,-8.35594 -15.58255,-15.99159 l -1.15474,-2.67467 -0.09867,-83.68458 C 28.19192,58.723638 28.057621,65.071549 30.219101,59.632266 c 2.763763,-6.954904 8.131195,-12.220777 15.37923,-15.088225 1.677595,-0.663687 3.296923,-0.948798 6.789172,-1.195353 5.977696,-0.42203 100.561187,-0.42203 106.538887,0 3.49225,0.246555 5.11157,0.531666 6.78917,1.195353 8.8165,3.487959 14.45373,10.100308 16.92338,19.850725 0.57249,2.260254 0.61292,7.748827 0.62074,84.262174 0.009,92.39438 0.25037,84.59313 -2.79994,90.66389 -2.62088,5.2161 -7.17999,9.82687 -12.23283,12.37143 -5.10182,2.56924 -1.38765,2.3946 -52.16302,2.45276 -25.126597,0.0288 -50.764721,-0.0437 -56.973609,-0.1611 z M 161.55777,234.68071 c 1.00417,-0.90283 2.28985,-2.45064 2.85707,-3.43959 l 1.03131,-1.79807 -0.0315,-64.73472 c -0.0173,-35.60409 -0.13487,-72.12914 -0.26127,-81.166773 l -0.22981,-16.432053 -1.06668,-1.725091 c -1.53918,-2.489235 -3.3985,-3.672381 -6.37346,-4.055628 -3.18218,-0.409945 -100.470874,-0.409945 -103.653046,0 -2.975102,0.383265 -4.834403,1.566467 -6.373463,4.055879 l -1.06668,1.725337 v 81.695689 c 0,75.6089 0.04383,81.77455 0.588286,82.75403 0.323557,0.58208 1.196682,1.64429 1.940277,2.36047 2.714622,2.61453 -2.454317,2.39744 57.140916,2.39985 l 53.67226,0.002 1.82575,-1.64151 z M 65.963944,188.74957 c -1.903039,-1.01128 -2.723374,-2.50533 -2.987428,-5.44093 -0.126101,-1.40191 -0.178964,-18.90017 -0.117479,-38.88503 0.124989,-40.62285 -0.08325,-37.50274 2.641632,-39.58107 l 1.295851,-0.98837 h 39.03686 39.03687 l 1.2958,0.98837 c 2.73735,2.08792 2.52978,-1.34788 2.52978,41.87413 0,43.00371 0.17883,39.86596 -2.37592,41.68815 -1.13653,0.81063 -1.29388,0.82294 -11.82392,0.9244 l -10.67207,0.10284 1.7479,-1.63496 c 0.96996,-0.90728 1.94161,-2.20914 2.18313,-2.92506 0.29421,-0.87208 0.43476,-3.86202 0.43376,-9.2276 -0.002,-8.52269 -0.19639,-9.65124 -1.9993,-11.58217 -1.91908,-2.05536 -1.35161,-1.99977 -20.41364,-1.99977 H 88.255713 l -1.529937,1.06068 c -0.964911,0.66895 -1.846069,1.69768 -2.385917,2.78548 -0.828898,1.67024 -0.856802,1.98269 -0.881945,9.87543 -0.02939,9.22101 0.07365,9.67956 2.753392,12.2545 l 1.419715,1.36419 H 77.41209 c -9.268184,0 -10.333291,-0.0608 -11.448146,-0.65321 z m 68.620776,-34.32849 c 1.20954,-0.66957 2.68826,-2.18077 3.39648,-3.47108 0.39156,-0.71339 0.50669,-5.01155 0.60242,-22.48958 l 0.11833,-21.60764 H 107.62737 76.55278 v 21.66841 21.6684 l 1.146528,1.49396 c 1.869626,2.43617 2.798688,2.94333 5.844807,3.19062 1.490529,0.12101 13.346303,0.20038 26.346165,0.17639 21.31499,-0.0393 23.74004,-0.10115 24.69444,-0.62948 z m -44.273607,21.22336 v -10.23055 h 6.879166 6.879171 v 10.23055 10.23056 h -6.879171 -6.879166 z" />

</svg>
