<svg xmlns="http://www.w3.org/2000/svg"
     xmlns:xlink="http://www.w3.org/1999/xlink"
     lang="en-GB"
     viewBox="0 0 320 320">

  <title>Web Worker Icon</title>

  <defs>

  <style type="text/css"><![CDATA[

  rect {
    width: 320px;
    height: 320px;
    fill: rgb(191, 0, 0);
  }

  path {
    fill: rgb(255, 255, 255);
    stroke-width: 1;
    transform: translate(-24px, 10px);
  }

  ]]></style>

  </defs>

  <rect />

  <path d="m 164.93617,277.84203 c -1.45815,-0.59753 -4.04763,-5.91171 -9.05045,-18.57356 -3.85435,-9.75511 -7.3527,-18.10981 -7.77413,-18.566 -0.42142,-0.4562 -9.1492,2.6678 -19.39506,6.94221 -21.98956,9.17371 -18.52096,9.82236 -34.862906,-6.51958 -16.363157,-16.36316 -15.720823,-12.90974 -6.469527,-34.78257 4.309809,-10.18967 7.521213,-18.84148 7.136453,-19.22624 -0.384759,-0.38475 -8.826306,-3.96708 -18.758992,-7.96072 l -18.059431,-7.26115 -1.166363,-6.54296 c -1.492787,-8.3741 -1.492787,-22.08115 0,-30.42029 l 1.166363,-6.51564 18.052331,-7.27159 c 9.928783,-3.99938 18.370329,-7.594 18.758993,-7.98804 0.388665,-0.39405 -2.826315,-9.06945 -7.144398,-19.278688 L 79.517993,75.314964 82.1331,71.614929 c 3.579239,-5.064155 19.334,-20.83682 24.13983,-24.167262 l 3.92271,-2.718441 17.10977,7.301231 c 9.41038,4.015678 17.98446,7.394155 19.05352,7.507727 1.61318,0.171378 3.20415,-2.912533 9.35516,-18.134016 6.75101,-16.706206 7.67411,-18.417639 10.35931,-19.206069 5.39726,-1.584749 28.06952,-1.934255 34.53014,-0.532302 l 6.05036,1.312926 7.25227,17.591982 c 3.98875,9.67559 7.71618,18.055903 8.28319,18.622916 0.69374,0.693728 6.98989,-1.493372 19.24911,-6.686579 l 18.21817,-7.717515 3.62707,2.580698 c 5.11584,3.63998 20.96713,19.445956 24.24451,24.175208 l 2.7435,3.958882 -7.83593,18.526492 c -4.30977,10.189573 -7.66211,18.700313 -7.44965,18.912773 0.21245,0.21246 8.59994,3.77887 18.63885,7.92536 12.30911,5.08417 18.49854,8.16545 19.00796,9.46272 1.09149,2.77953 1.07066,36.57314 -0.0243,39.45314 -0.74942,1.97111 -4.30374,3.76262 -18.87431,9.51329 -9.87307,3.8967 -18.14519,7.58149 -18.38252,8.18846 -0.23732,0.60695 2.99849,9.27473 7.19069,19.26172 l 7.6222,18.15817 -2.47254,3.71699 c -3.19805,4.80769 -19.53762,21.14726 -24.34531,24.34532 l -3.717,2.47253 -18.15816,-7.6222 c -9.98699,-4.19219 -18.65477,-7.41999 -19.26173,-7.17287 -0.60696,0.24713 -4.28855,8.51804 -8.18131,18.37981 -5.75372,14.57625 -7.53337,18.10372 -9.5133,18.85649 -3.01167,1.14504 -36.77041,1.11051 -39.57917,-0.0404 z m 35.12475,-49.60919 c 4.27287,-10.12301 8.12244,-18.94031 8.55458,-19.59403 0.56965,-0.86171 2.39515,-0.48208 6.6383,1.38049 8.42327,3.6975 12.759,5.51021 27.59387,11.53671 l 5.40087,2.19404 2.79649,-2.31597 c 1.53807,-1.27378 3.83867,-3.57439 5.11245,-5.11245 l 2.31597,-2.79649 -1.95709,-4.89023 c -1.07641,-2.68963 -4.64301,-11.32427 -7.92579,-19.1881 -3.28278,-7.86383 -5.9312,-14.51098 -5.88537,-14.77143 0.0459,-0.26045 0.71973,-0.83343 1.49757,-1.27328 2.29853,-1.29977 17.20287,-7.95529 17.81502,-7.95529 0.3093,0 2.56527,-0.91244 5.0133,-2.02764 2.44801,-1.1152 6.67385,-2.85299 9.39077,-3.86176 l 4.93984,-1.83412 v -7.56067 -7.56067 l -13.2766,-5.47518 c -7.30212,-3.01135 -14.44859,-5.92675 -15.88102,-6.47868 -5.5034,-2.12047 -9.64024,-4.56206 -9.38945,-5.54171 0.14378,-0.5617 2.83437,-7.22553 5.97907,-14.80851 3.1447,-7.58298 6.60911,-15.987837 7.6987,-18.677465 l 1.98105,-4.890232 -2.31597,-2.796486 c -1.27378,-1.538068 -3.54342,-3.813035 -5.04365,-5.055483 l -2.7277,-2.258997 -5.46966,2.155348 c -3.00832,1.185442 -11.53953,4.673012 -18.95825,7.750156 -7.41871,3.077144 -13.80267,5.66366 -14.18656,5.747813 -1.21909,0.267236 -3.04019,-3.612398 -12.15255,-25.889546 L 192.39725,53.61702 h -7.51654 -7.51654 l -4.24811,10.723404 c -2.33645,5.897873 -5.4656,13.353721 -6.95368,16.568551 -1.48806,3.214831 -2.99699,7.00632 -3.35319,8.425532 -0.36076,1.437347 -1.38389,2.580385 -2.30972,2.580385 -0.91416,0 -7.64305,-2.475804 -14.95313,-5.501787 -7.31006,-3.025983 -15.7817,-6.479703 -18.82587,-7.674934 l -5.53485,-2.173146 -2.56495,2.313232 c -1.41071,1.272276 -3.58416,3.454352 -4.82987,4.849057 l -2.26493,2.535824 2.01186,5.634388 c 1.10652,3.098913 2.41254,6.553536 2.90225,7.67694 0.48971,1.123404 2.06552,4.698734 3.5018,7.945164 1.43628,3.24642 2.62779,6.23366 2.64781,6.6383 0.02,0.40463 1.11042,3.03356 2.42312,5.84207 1.31269,2.80851 2.20795,5.57228 1.98947,6.14171 -0.21848,0.56942 -2.34293,1.78742 -4.72099,2.70665 -2.37806,0.91923 -10.98757,4.41921 -19.13225,7.77772 l -14.808515,6.1064 v 7.40302 7.40303 l 12.123335,4.91757 c 6.66783,2.70467 13.6309,5.63296 15.47349,6.50733 1.84259,0.87436 3.74028,1.59147 4.21709,1.59358 0.47682,0.002 2.34014,0.90208 4.14073,1.99995 l 3.27378,1.99614 -4.5715,10.91148 c -2.51433,6.00131 -5.20107,12.33963 -5.97054,14.08515 -2.74853,6.23498 -4.68584,11.92413 -4.65241,13.66243 0.0358,1.8573 1.88679,4.27736 6.29114,8.22493 l 2.64787,2.37325 4.96032,-1.99779 c 2.72817,-1.09879 11.48484,-4.73662 19.45926,-8.08408 7.97443,-3.34746 14.88525,-5.81428 15.3574,-5.48184 0.47214,0.33243 1.59982,2.44273 2.50594,4.68954 1.39168,3.45079 9.92653,24.22186 13.13226,31.95966 0.90218,2.17763 1.48449,2.32151 8.267,2.04256 l 7.29647,-0.3001 z m -21.17399,-26.41097 c -1.15719,-2.46181 -3.04228,-7.14565 -4.18909,-10.40854 -1.14682,-3.26288 -2.53217,-6.37957 -3.07857,-6.92598 -0.64376,-0.64376 -4.99833,0.6733 -12.37094,3.74166 l -11.37748,4.73513 -3.02396,-3.02396 c -1.66318,-1.66318 -2.82486,-3.37373 -2.58151,-3.80122 0.24334,-0.42749 1.15954,-2.38577 2.036,-4.35173 8.00843,-17.96355 7.99822,-17.79273 1.23053,-20.57798 -17.29333,-7.11709 -16.34042,-6.46024 -16.34042,-11.26352 v -4.35325 l 10.7234,-4.31437 c 11.84181,-4.76435 12.22214,-5.31625 8.82626,-12.80776 -0.83868,-1.85018 -2.73713,-6.08357 -4.21876,-9.40752 l -2.69388,-6.04355 3.04449,-3.04449 3.04448,-3.04449 4.66622,2.19339 c 10.31532,4.84877 18.12338,7.55646 19.06757,6.61227 0.52879,-0.52879 1.8421,-3.46232 2.91846,-6.51892 1.07635,-3.05661 2.8945,-7.74045 4.04032,-10.408531 1.978,-4.605836 2.28534,-4.851064 6.07967,-4.851064 5.16722,0 4.68875,-0.690477 11.49995,16.595745 1.27262,3.22979 2.71804,5.87234 3.21206,5.87234 0.49402,0 5.78237,-2.08633 11.75189,-4.63629 l 10.85368,-4.63628 3.01661,3.01661 3.01659,3.0166 -4.74365,10.83161 c -2.60902,5.95739 -4.74366,11.22861 -4.74366,11.71384 0,0.48522 2.64255,1.89167 5.87234,3.12546 3.22979,1.23379 8.51489,3.43974 11.74468,4.90214 5.42184,2.45491 5.87234,2.9169 5.87234,6.02204 0,4.10842 -1.50348,5.19754 -13.27659,9.61752 -4.77447,1.79247 -9.09188,3.63121 -9.59425,4.08607 -0.98617,0.89293 -0.17221,3.24339 5.19019,14.98755 1.86054,4.07471 3.38278,7.82535 3.38278,8.33474 0,1.2314 -6.11211,6.33773 -6.98009,5.83149 -0.71674,-0.41802 -6.54561,-3.02414 -14.85186,-6.64036 -2.73949,-1.19267 -5.52726,-2.16849 -6.19505,-2.16849 -0.66779,0 -2.24584,2.64256 -3.50676,5.87234 -1.26093,3.22979 -3.40859,8.28511 -4.77258,11.23405 -2.37183,5.12788 -2.65371,5.3617 -6.46371,5.3617 -3.70479,0 -4.13106,-0.31342 -6.0877,-4.476 z m 16.99476,-40.80143 c 3.63329,-3.63329 3.77788,-4.05021 3.77788,-10.89278 0,-6.84258 -0.14459,-7.25949 -3.77788,-10.89279 -3.32015,-3.32015 -4.49568,-3.82812 -9.70213,-4.1925 -4.95598,-0.34687 -6.50845,-0.0209 -9.49871,1.99398 -9.37642,6.31819 -9.37642,19.86442 0,26.18261 2.99026,2.01495 4.54273,2.34085 9.49871,1.99398 5.20645,-0.36438 6.38198,-0.87235 9.70213,-4.1925 z"></path>

</svg>
