<svg xmlns="http://www.w3.org/2000/svg"
     xmlns:xlink="http://www.w3.org/1999/xlink"
     lang="en-GB"
     viewBox="0 0 609 609">

<title>Ashiva Modules Icon</title>

<defs>
<style type="text/css"><![CDATA[

rect {
  width: 609px;
  height: 609px;
  fill: rgb(191, 0, 0);
}

path {
  fill: rgb(255, 255, 255);
  stroke-width: 1;
}

]]></style>

</defs>

<rect />

<path d="M 324.27702,560.01644 c 13.93988,-7.99549 15.04585,-8.83938 13.27659,-10.13046 -1.06151,-0.77463 -2.99147,-2.32985 -4.28879,-3.45606 l -2.35877,-2.04764 -14.34471,8.2164 c -7.88959,4.51903 -14.76824,8.21641 -15.28587,8.21641 -0.51764,0 -7.79442,-3.92763 -16.17064,-8.72806 l -15.22947,-8.72805 -2.35994,2.04866 c -1.29796,1.12675 -3.24056,2.6913 -4.31689,3.47676 -1.82417,1.3312 -1.47768,1.6898 5.10638,5.28457 3.88485,2.12106 13.03782,7.2175 20.33995,11.32542 l 13.2766,7.46896 3.57446,-2.11242 c 1.96596,-1.16184 10.41746,-6.03736 18.7811,-10.83449 z m 33.21428,-19.2637 c 28.84889,-16.62813 30.99495,-18.06782 29.0491,-19.48772 -1.04255,-0.76076 -2.96593,-2.31242 -4.27418,-3.44813 l -2.37865,-2.06493 -17.7307,10.35134 c -10.39123,6.0665 -17.53306,10.84869 -17.25325,11.55284 0.4412,1.11028 6.47807,5.79724 7.46692,5.79724 0.23941,0 2.54375,-1.21529 5.12076,-2.70064 z m -113.42147,-12.40117 -13.0242,-7.44223 -2.34932,2.03943 c -1.29213,1.12169 -3.22996,2.68208 -4.30629,3.46754 -1.82453,1.33146 -1.47895,1.69119 5.10638,5.31538 3.88485,2.13799 9.59101,5.34008 12.68038,7.11575 l 5.61702,3.22848 4.65011,-3.14106 4.65013,-3.14105 z M 175.7938,499.58 c 26.11915,-14.99066 49.32766,-28.18607 51.57447,-29.32311 l 4.0851,-2.06734 0.2335,-60.66596 0.23349,-60.66596 -52.82481,-29.61702 c -29.05365,-16.28936 -53.51871,-29.61702 -54.36681,-29.61702 -0.8481,0 -25.552208,13.4943 -54.898038,29.98734 l -53.35605,29.98734 0.029,59.37436 0.029,59.37437 5.84337,3.54624 c 3.21386,1.95043 27.40354,16.05836 53.75484,31.35093 41.584658,24.13302 48.192878,27.65856 50.042548,26.69814 1.17211,-0.6086 23.50131,-13.37164 49.62046,-28.36231 z M 71.368272,488.64625 24.644862,461.50061 v -49.91723 c 0,-27.45448 0.2268,-49.91723 0.504,-49.91723 0.80856,0 90.767918,52.2636 92.186688,53.55761 1.00777,0.91915 1.229,11.93856 1.02127,50.87072 l -0.26515,49.69741 z m 58.487308,-23.04081 0.0192,-50.32227 46.05467,-26.55319 c 25.33007,-14.60426 46.69164,-26.70179 47.47013,-26.8834 1.19161,-0.27799 1.41545,7.56243 1.41545,49.57915 v 49.90936 l -44.06869,25.48468 c -24.2378,14.01657 -45.60801,26.29991 -47.48937,27.29631 l -3.42066,1.81163 0.0192,-50.32227 z M 77.751242,379.5523 c -24.43404,-14.23123 -45.21295,-26.49025 -46.17535,-27.24226 -1.5466,-1.2085 3.75185,-4.53328 45.62204,-28.6278 l 47.371858,-27.26049 46.9809,27.26049 c 34.87726,20.23741 46.67208,27.54988 45.78222,28.38373 -2.41825,2.26603 -92.26079,53.5126 -93.68477,53.43819 -0.80925,-0.0423 -21.46285,-11.72062 -45.896898,-25.95186 z M 216.41878,517.73398 c 5.04899,-3.88049 5.74312,-3.14354 -11.22245,-11.91472 l -11.77644,-6.0884 -4.30899,2.56957 c -2.36995,1.41326 -3.92305,2.93264 -3.45135,3.37638 1.16729,1.09809 25.22121,15.27504 25.9486,15.29365 0.31916,0.008 2.48395,-1.44825 4.81063,-3.23648 z m 310.69417,-27.34547 c 26.11914,-14.99066 49.32766,-28.18607 51.57446,-29.3231 l 4.08511,-2.06735 0.21884,-61.1766 0.21885,-61.17659 -52.8146,-29.61702 c -29.04801,-16.28937 -53.73373,-29.61703 -54.85713,-29.61703 -1.12341,0 -25.81798,13.32766 -54.87683,29.61703 l -52.83426,29.61702 0.0121,60.25532 0.0122,60.25532 5.84338,3.54624 c 3.21386,1.95043 27.40354,16.05836 53.75484,31.35093 41.58466,24.13302 48.19288,27.65856 50.04256,26.69814 1.17213,-0.6086 23.50133,-13.37164 49.62048,-28.36231 z m -104.42554,-10.93375 -46.7234,-27.14564 v -49.91723 c 0,-27.45448 0.22681,-49.91723 0.504,-49.91723 0.80855,0 90.76792,52.2636 92.18669,53.55761 1.00777,0.91915 1.229,11.93856 1.02127,50.87072 l -0.26515,49.69741 z m 58.48732,-23.04081 0.0192,-50.32227 46.05467,-26.55319 c 25.33007,-14.60426 46.69163,-26.70179 47.47013,-26.88339 1.19161,-0.278 1.41545,7.56242 1.41545,49.57915 v 49.90935 l -44.0687,25.48468 c -24.23779,14.01657 -45.608,26.29991 -47.48936,27.29631 l -3.42066,1.81163 0.0192,-50.32227 z m -52.10434,-86.05314 c -24.43404,-14.23123 -45.21294,-26.49025 -46.17534,-27.24226 -1.5466,-1.2085 3.75184,-4.53328 45.62204,-28.6278 l 47.37185,-27.26049 46.9809,27.26049 c 34.87726,20.23741 46.67208,27.54988 45.78221,28.38373 -2.41825,2.26603 -92.26079,53.5126 -93.68476,53.43819 -0.80925,-0.0423 -21.46285,-11.72062 -45.8969,-25.95186 z m -17.56288,138.79895 c 5.44683,-3.13384 10.26536,-6.04653 10.70787,-6.47266 0.44251,-0.42611 -1.04687,-2.05781 -3.30973,-3.62598 l -4.11431,-2.85121 -9.45621,5.41133 c -14.42412,8.25419 -13.64641,7.36571 -9.21024,10.52208 2.09817,1.49288 4.18936,2.71432 4.64709,2.71432 0.45773,0 5.28871,-2.56405 10.73553,-5.69788 z M 88.764522,281.52118 l 0.28987,-10.74865 h -4.6303 -4.63029 v 13.33448 13.33448 l 4.34042,-2.58583 4.34043,-2.58583 z m 435.284598,-4.62099 v -13.2766 h -4.59575 -4.59574 v 10.6197 10.61971 l 4.34042,2.61704 c 2.38724,1.43937 4.45532,2.63498 4.59575,2.65689 0.14042,0.0219 0.25532,-5.93462 0.25532,-13.23674 z m -170.5532,-41.83083 c 26.11915,-14.99067 49.32766,-28.18607 51.57447,-29.32311 l 4.08511,-2.06735 0.23349,-60.66595 0.2335,-60.665958 -52.82481,-29.61702 c -29.05365,-16.28936 -53.51871,-29.61702 -54.36681,-29.61702 -0.8481,0 -25.55222,13.4943 -54.89804,29.98734 l -53.35605,29.98734 0.029,59.374358 0.029,59.37437 5.84338,3.54624 c 3.21386,1.95043 27.40354,16.05835 53.75484,31.35093 41.58466,24.13301 48.19288,27.65856 50.04256,26.69813 1.17201,-0.6086 23.50122,-13.37163 49.62036,-28.3623 z M 249.07039,224.1356 202.34699,196.98997 v -49.91723 c 0,-27.45448 0.2268,-49.917238 0.504,-49.917238 0.80855,0 90.76792,52.263608 92.18668,53.557618 1.00778,0.91915 1.22901,11.93856 1.02128,50.87071 l -0.26515,49.69742 z m 58.48732,-23.0408 0.0192,-50.32228 46.05467,-26.55319 c 25.33011,-14.60425 46.69167,-26.701778 47.47017,-26.883388 1.19161,-0.27799 1.41545,7.562418 1.41545,49.579148 v 49.90936 l -44.0687,25.48467 c -24.23779,14.01657 -45.608,26.29992 -47.48936,27.29632 l -3.42066,1.81163 0.0192,-50.32227 z m -52.10434,-86.05314 c -24.43404,-14.23123 -45.21294,-26.490248 -46.17534,-27.242268 -1.54661,-1.2085 3.75184,-4.53327 45.62203,-28.62779 l 47.37186,-27.2605 46.9809,27.2605 c 34.87726,20.2374 46.67208,27.54987 45.78221,28.38373 -2.41825,2.26603 -92.26079,53.512588 -93.68476,53.438178 -0.80925,-0.0423 -21.46286,-11.72062 -45.8969,-25.95185 z M 88.985292,249.32572 v -11.23405 h -4.59575 -4.59574 v 11.23405 11.23404 h 4.59574 4.59575 z m 435.063828,-7.14894 v -11.23404 h -4.59575 -4.59574 v 11.23404 11.23404 h 4.59574 4.59575 z m -435.055218,-22.7234 0.009,-8.42554 6.62968,-3.52145 6.629718,-3.52145 v -5.41472 c 0,-2.97809 -0.26284,-5.41472 -0.5841,-5.41472 -1.45675,0 -20.007008,11.19258 -21.102378,12.73244 -0.41268,0.58014 -0.75736,5.76544 -0.76596,11.52288 l -0.0156,10.46809 h 4.59574 4.59575 l 0.009,-8.42553 z m 435.039578,-9.19149 c -0.008,-5.75745 -0.35328,-10.94275 -0.76596,-11.52288 -1.09538,-1.53986 -19.64563,-12.73244 -21.10239,-12.73244 -0.32125,0 -0.5841,2.43662 -0.5841,5.41471 v 5.41472 l 6.62968,3.52145 6.62969,3.52146 0.008,8.42553 0.008,8.42553 h 4.59574 4.59575 l -0.0156,-10.46808 z M 117.69383,194.90871 c 1.90392,-1.28255 8.63188,-5.23093 14.95103,-8.77418 l 11.48936,-6.44227 v -5.6088 c 0,-3.08485 -0.36927,-5.45562 -0.82061,-5.26838 -0.45135,0.18723 -7.57273,4.24681 -15.82531,9.02127 l -15.00467,8.68086 -0.004,5.3617 c -0.002,2.94893 0.39095,5.3617 0.87426,5.3617 0.48332,0 2.43652,-1.04935 4.34043,-2.3319 z m 373.66994,-10.17874 -0.004,-5.3617 -15.00468,-8.68085 c -8.25258,-4.77447 -15.37396,-8.83404 -15.8253,-9.02128 -0.45175,-0.18724 -0.82102,2.18354 -0.82102,5.26838 v 5.6088 l 11.48936,6.44228 c 6.31915,3.54324 13.04712,7.49162 14.95103,8.77417 1.90392,1.28255 3.85711,2.3319 4.34043,2.3319 0.48332,0 0.87673,-2.41276 0.87426,-5.3617 z M 177.58103,160.0167 c 4.11775,-2.72969 4.34043,-3.13233 4.34043,-7.84798 0,-2.73386 -0.29007,-4.97066 -0.6446,-4.97066 -0.35453,0 -6.55024,3.33191 -13.76825,7.40425 l -13.12366,7.40426 -0.019,5.79819 -0.019,5.7982 9.44681,-5.35448 c 5.19574,-2.94497 11.4,-6.64927 13.78723,-8.23178 z m 271.89591,0.71327 -0.019,-5.87234 -13.12366,-7.40425 c -7.21799,-4.07235 -13.4137,-7.40426 -13.76822,-7.40426 -0.35454,0 -0.6446,2.24996 -0.6446,4.99991 0,4.90637 0.0995,5.06403 5.31484,8.42554 4.14738,2.67314 20.72309,12.48127 22.00431,13.02032 0.14042,0.0591 0.24678,-2.53513 0.23633,-5.76492 z" />

</svg>
