<svg xmlns="http://www.w3.org/2000/svg"
     xmlns:xlink="http://www.w3.org/1999/xlink"
     lang="en-GB"
     viewBox="0 0 609 609">

<title>Ashiva Modules Icon</title>

<defs>
<style type="text/css"><![CDATA[

rect {
  width: 609px;
  height: 609px;
  fill: rgb(191, 0, 0);
}

path {
  fill: rgb(255, 255, 255);
  stroke-width: 1;
}

]]></style>

</defs>

<rect />

<path d="M 318.22884,570.99856 c 15.29776,-8.5417 73.91426,-42.29843 95.13286,-54.78618 8.00426,-4.71073 14.55319,-8.91166 14.55319,-9.33541 0,-0.42373 -1.41257,-1.60485 -3.13903,-2.62471 l -3.13903,-1.85427 -16.52055,9.45148 c -9.0863,5.1983 -18.81841,10.93807 -21.62692,12.75504 -2.80851,1.81696 -13.8383,8.32879 -24.51064,14.47074 -10.67234,6.14194 -28.11295,16.18856 -38.75693,22.32583 -10.64397,6.13728 -19.51914,11.09404 -19.72261,11.01502 -0.20346,-0.079 -7.12029,-3.95308 -15.37072,-8.60903 -13.27622,-7.49215 -28.10754,-16.04206 -86.15702,-49.66759 l -14.98602,-8.68074 -3.15143,1.86159 c -1.73329,1.02388 -3.0055,2.29938 -2.82714,2.83445 0.39375,1.18126 39.04432,23.82909 77.3123,45.30221 41.69242,23.39466 42.90417,24.00381 46.56926,23.41055 1.74075,-0.28177 9.09394,-3.82281 16.34043,-7.86898 z m 22.3669,-32.64261 c 20.22128,-11.63282 43.88937,-25.19267 52.59575,-30.133 21.67177,-12.2974 20.24249,-11.05196 15.73534,-13.71125 l -3.75925,-2.21801 -11.86039,7.05847 c -14.83497,8.82873 -85.27466,49.37929 -89.65418,51.61191 l -3.24059,1.65201 -19.73813,-11.04691 c -10.85597,-6.07581 -31.45727,-17.85709 -45.78067,-26.18063 -14.32341,-8.32355 -27.94806,-16.22668 -30.277,-17.56252 l -4.23446,-2.42881 -3.72405,2.19725 c -2.04823,1.20848 -3.58953,2.32747 -3.42512,2.48664 0.73135,0.70805 16.41325,9.75972 24.29892,14.02546 4.77447,2.58274 25.22554,14.30117 45.44681,26.04096 30.535,17.7276 37.11212,21.17678 38.80851,20.35204 1.12341,-0.54618 18.58724,-10.5108 38.80851,-22.14361 z M 149.61702,514.0252 c 12.35745,-7.01864 33.75305,-19.23876 47.54579,-27.15584 13.79273,-7.91709 26.8906,-15.31469 29.10638,-16.43911 l 4.02868,-2.04442 0.2335,-60.7641 0.23349,-60.7641 -52.82481,-29.61702 c -29.05365,-16.28936 -53.51871,-29.61702 -54.36681,-29.61702 -0.8481,0 -25.552207,13.4943 -54.898037,29.98734 l -53.35605,29.98734 v 59.46677 59.46676 l 15.57446,9.22565 c 8.56596,5.07411 26.60426,15.57811 40.08511,23.34223 13.48085,7.76412 30.667437,17.68298 38.192427,22.04192 11.7853,6.8268 13.97952,7.7673 15.82979,6.78505 1.1814,-0.62717 12.25863,-6.88282 24.61608,-13.90145 z m -79.404257,-25.37895 -46.7234,-27.14564 v -49.91723 c 0,-27.45448 0.2268,-49.91723 0.504,-49.91723 0.80855,0 90.767917,52.2636 92.186687,53.55761 1.00777,0.91915 1.229,11.93856 1.02127,50.87072 l -0.26515,49.69741 z m 58.487317,-23.04081 0.0192,-50.32227 46.05467,-26.55319 c 25.33007,-14.60426 46.69164,-26.70179 47.47013,-26.8834 1.19161,-0.27799 1.41545,7.56243 1.41545,49.57915 v 49.90936 l -44.06869,25.48468 c -24.2378,14.01657 -45.60801,26.29991 -47.48937,27.29631 l -3.42066,1.81163 0.0192,-50.32227 z M 76.595743,379.5523 c -24.43404,-14.23123 -45.21295,-26.49025 -46.17535,-27.24226 -1.5466,-1.2085 3.75185,-4.53328 45.62204,-28.6278 l 47.371857,-27.26049 46.9809,27.26049 c 34.87726,20.23741 46.67208,27.54988 45.78222,28.38373 -2.41825,2.26603 -92.26079,53.5126 -93.68477,53.43819 -0.80925,-0.0423 -21.46285,-11.72062 -45.896897,-25.95186 z M 500.93617,504.83371 c 12.35745,-7.01864 33.75305,-19.23876 47.54579,-27.15584 13.79272,-7.91709 26.8906,-15.31469 29.10638,-16.43911 l 4.02868,-2.04443 0.26201,-61.27472 0.262,-61.27474 -53.32889,-30.04256 c -29.33089,-16.5234 -53.83481,-30.04255 -54.45315,-30.04255 -0.61834,0 -25.10845,13.48957 -54.42247,29.97682 l -53.29822,29.97681 v 60.41346 60.41346 l 15.57447,9.22565 c 8.56595,5.07411 26.60425,15.57811 40.0851,23.34223 13.48085,7.76412 30.66745,17.68298 38.19243,22.04192 11.78529,6.8268 13.97952,7.7673 15.82978,6.78505 1.18141,-0.62717 12.25864,-6.88282 24.61609,-13.90145 z m -79.40426,-25.37895 -46.7234,-27.14564 v -49.91723 c 0,-27.45448 0.22681,-49.91723 0.504,-49.91723 0.80855,0 90.76792,52.2636 92.18669,53.55761 1.00777,0.91915 1.229,11.93856 1.02127,50.87072 l -0.26515,49.69741 z m 58.48732,-23.04081 0.0192,-50.32227 46.05467,-26.55319 c 25.33007,-14.60426 46.69163,-26.70179 47.47013,-26.88339 1.19161,-0.278 1.41545,7.56242 1.41545,49.57915 v 49.90935 l -44.0687,25.48468 c -24.23779,14.01657 -45.608,26.29991 -47.48936,27.29631 l -3.42066,1.81163 0.0192,-50.32227 z m -52.10434,-86.05314 c -24.43404,-14.23123 -45.21294,-26.49025 -46.17534,-27.24226 -1.5466,-1.2085 3.75184,-4.53328 45.62204,-28.6278 l 47.37185,-27.26049 46.9809,27.26049 c 34.87726,20.23741 46.67208,27.54988 45.78221,28.38373 -2.41825,2.26603 -92.26079,53.5126 -93.68476,53.43819 -0.80925,-0.0423 -21.46285,-11.72062 -45.8969,-25.95186 z M 78.393723,252.42423 c 0.17559,-29.89612 0.63251,-45.73964 1.34381,-46.59671 0.59277,-0.71424 5.75815,-3.93606 11.47862,-7.15961 5.72048,-3.22355 10.630657,-6.14906 10.911507,-6.50114 0.28085,-0.35208 13.60851,-8.15839 29.61702,-17.34735 16.00851,-9.18897 33.58142,-19.27779 39.05091,-22.4196 9.78604,-5.62137 9.94473,-5.77343 9.95745,-9.54219 0.007,-2.10638 -0.15898,-3.82979 -0.36909,-3.82979 -2.1714,0 -104.469127,59.6432 -106.591647,62.14672 l -2.2928,2.70435 -0.005,48.85997 -0.005,48.85996 3.31915,-1.93826 3.31915,-1.93826 0.26606,-45.29809 z M 528.91076,199.02608 c -1.21597,-2.94579 -4.79822,-5.33459 -23.37885,-15.59002 -10.0911,-5.56971 -74.24722,-42.32475 -81.4468,-46.66088 l -3.31915,-1.99903 v 4.55209 4.55211 l 8.93617,5.0933 c 12.79265,7.29137 71.57601,41.21659 82.46808,47.5942 l 9.19149,5.3819 0.26614,43.40832 0.26613,43.40832 3.81897,2.18275 3.81897,2.18275 0.26945,-45.64777 c 0.1907,-32.30818 -0.0696,-46.469 -0.8906,-48.45804 z m -436.229907,90.14062 3.31915,-2.02372 v -35.73616 -35.73614 l 2.29787,-1.42548 c 4.331087,-2.68677 69.696747,-40.17424 76.085107,-43.63512 l 6.38298,-3.45796 v -4.95855 -4.95854 l -6.89362,3.80483 c -3.79149,2.09266 -7.58298,4.36899 -8.42553,5.0585 -1.3171,1.07788 -22.55234,13.39408 -66.630227,38.64478 l -10.97064,6.2847 -0.008,40.08511 c -0.004,22.04681 0.3366,40.08339 0.75788,40.08129 0.42128,-0.002 2.25957,-0.91449 4.08511,-2.02754 z M 512.68085,245.28622 V 207.5446 l -6.89362,-4.00429 c -3.79149,-2.20234 -19.53191,-11.25741 -34.97872,-20.12234 -24.67618,-14.1617 -32.48997,-18.71859 -46.7234,-27.24846 l -3.31915,-1.98911 v 4.58021 4.58021 l 29.3617,16.84387 c 16.14893,9.26412 35.10638,20.04544 42.12766,23.95849 l 12.76596,7.11463 0.26911,33.86587 0.26912,33.86586 3.30535,2.01534 c 1.81794,1.10843 3.42025,2.01705 3.56067,2.01915 0.14043,0.002 0.25532,-16.97991 0.25532,-37.73781 z m -185.3617,4.22833 c 12.35745,-7.01863 33.75305,-19.23876 47.54579,-27.15584 13.79272,-7.91708 26.8906,-15.31468 29.10638,-16.43911 L 408,203.87519 l 0.23349,-60.7641 0.2335,-60.764098 -52.82481,-29.61702 c -29.05365,-16.28936 -53.51871,-29.61702 -54.36681,-29.61702 -0.8481,0 -25.55222,13.4943 -54.89804,29.98734 l -53.35605,29.98734 v 59.466758 59.46677 l 15.57446,9.22565 c 8.56596,5.07411 26.60426,15.57811 40.08511,23.34222 13.48085,7.76413 30.66745,17.68299 38.19243,22.04193 11.78529,6.8268 13.97952,7.7673 15.82978,6.78505 1.18141,-0.62717 12.25864,-6.88283 24.61609,-13.90146 z m -79.40426,-25.37895 -46.7234,-27.14563 v -49.91723 c 0,-27.45448 0.2268,-49.917238 0.504,-49.917238 0.80855,0 90.76792,52.263608 92.18668,53.557618 1.00778,0.91915 1.22901,11.93856 1.02128,50.87071 l -0.26515,49.69742 z m 58.48732,-23.0408 0.0192,-50.32228 46.05467,-26.55319 c 25.33011,-14.60425 46.69167,-26.701778 47.47017,-26.883388 1.19161,-0.27799 1.41545,7.562418 1.41545,49.579148 v 49.90936 l -44.0687,25.48467 c -24.23779,14.01657 -45.608,26.29992 -47.48936,27.29632 l -3.42066,1.81163 0.0192,-50.32227 z m -52.10434,-86.05314 c -24.43404,-14.23123 -45.21294,-26.490248 -46.17534,-27.242268 -1.54661,-1.2085 3.75184,-4.53327 45.62203,-28.62779 l 47.37186,-27.2605 46.9809,27.2605 c 34.87726,20.2374 46.67208,27.54987 45.78221,28.38373 -2.41825,2.26603 -92.26079,53.512588 -93.68476,53.438178 -0.80925,-0.0423 -21.46286,-11.72062 -45.8969,-25.95185 z" />

</svg>
