<svg xmlns="http://www.w3.org/2000/svg"
     lang="en-GB"
     viewBox="0 0 297 297">

  <title>Code Download Icon</title>

  <defs>

  <style type="text/css"><![CDATA[

  rect {
    width: 297px;
    height: 297px;
    fill: rgb(191, 0 , 0);
  }

  path {
    fill: rgb(255, 255, 255);
    transform: translateX(43.5px);
  }

  ]]></style>

  </defs>

  <rect/>
  <path d="m 103.82422,275.89803 c -2.25141,-1.94107 -9.135206,-9.02202 -23.214496,-23.87938 -3.298472,-3.48076 -7.359949,-7.76171 -9.025508,-9.51324 -3.726935,-3.91929 -7.900084,-8.33187 -11.185871,-11.82764 l -2.486899,-2.64583 12.848444,-0.0925 12.848445,-0.0925 V 205.4499 183.05286 h 21.519445 21.51944 v 22.40138 22.40139 h 13.2581 13.25809 l -1.52823,1.80071 c -0.84053,0.99039 -2.97767,3.33195 -4.74921,5.20347 -1.77153,1.87152 -3.84552,4.11714 -4.60886,4.99027 -0.76335,0.87312 -2.33016,2.54952 -3.48181,3.72532 -4.55508,4.65063 -8.95654,9.31313 -20.19331,21.39095 -6.44366,6.92596 -11.86457,12.68464 -12.04646,12.79705 -0.1819,0.11242 -1.41098,-0.72697 -2.73131,-1.86529 z M 55.209725,253.96502 c -7.158093,-0.2138 -7.498369,-0.25713 -10.073819,-1.28296 -6.794147,-2.70618 -12.282071,-8.33346 -15.58255,-15.97823 l -1.15474,-2.67467 -0.09867,-83.68458 C 28.19192,58.723638 28.057621,65.071549 30.219101,59.632266 c 2.763763,-6.954904 8.131195,-12.220777 15.37923,-15.088225 1.677595,-0.663687 3.296923,-0.948798 6.789172,-1.195353 5.977696,-0.42203 100.561187,-0.42203 106.538887,0 3.49225,0.246555 5.11157,0.531666 6.78917,1.195353 8.74674,3.460361 14.35134,9.984194 16.89683,19.668148 0.54205,2.062145 0.60246,8.809436 0.73234,81.798921 0.16095,90.44626 0.25104,86.87848 -2.3283,92.20739 -3.41822,7.06202 -8.60596,12.07158 -15.06904,14.55143 -2.34451,0.89959 -2.82117,0.94608 -12.84184,1.25249 -5.72382,0.17502 -10.79064,0.27252 -11.2596,0.21665 -0.74645,-0.0889 0.14976,-1.17815 7.195,-8.74463 6.97579,-7.49189 8.26316,-8.71711 9.66567,-9.19904 2.10338,-0.72278 4.78779,-3.14064 5.88012,-5.29625 l 0.86604,-1.70903 -0.0348,-64.65826 c -0.0191,-35.56203 -0.13819,-72.05267 -0.26459,-81.090303 l -0.22981,-16.432053 -1.06668,-1.725091 c -1.53918,-2.489235 -3.3985,-3.672381 -6.37346,-4.055628 -3.18218,-0.409945 -100.470874,-0.409945 -103.653046,0 -2.975102,0.383265 -4.834403,1.566467 -6.373463,4.055879 l -1.06668,1.725337 v 81.695689 c 0,76.57823 0.03799,81.76509 0.606404,82.80352 0.905955,1.65505 3.778063,4.05624 5.605244,4.68619 1.389658,0.4791 2.657122,1.67908 9.165783,8.67776 4.154219,4.46697 7.770999,8.39603 8.03729,8.73125 0.547853,0.68964 0.06045,0.69834 -14.595277,0.26061 z" />

</svg>
