<svg xmlns="http://www.w3.org/2000/svg"
     xmlns:xlink="http://www.w3.org/1999/xlink"
     lang="en-GB"
     viewBox="0 0 100 100">

<title>Contact Icon</title>

<defs>
<style type="text/css"><![CDATA[

svg {
background-color: rgb(255, 255, 255);
}

path:nth-of-type(1) {
fill: rgb(255, 0, 0);
}

path:nth-of-type(2) {
fill: rgb(255, 255, 255);
}

path:nth-of-type(3) {
fill: rgb(255, 0, 0);
}

]]></style>
</defs>

<path d="M 23.222506,88.633772 C 21.657535,87.537624 21,86.058358 21,83.633772 c 0,-3.350512 0.107785,-3.443296 4,-3.443296 4.68259,0 8,-2.695395 8,-6.5 0,-3.804605 -3.31741,-6.5 -8,-6.5 h -4 v -5.5 -5.5 h 4 c 4.68259,0 8,-2.695395 8,-6.5 0,-3.804605 -3.31741,-6.5 -8,-6.5 h -4 v -5.5 -5.5 h 4 c 4.68259,0 8,-2.695395 8,-6.5 0,-3.804605 -3.31741,-6.5 -8,-6.5 -3.892215,0 -4,-0.09278 -4,-3.443296 0,-6.3087199 1.134643,-6.5567039 30,-6.5567039 21.510793,0 25.906713,0.246356 27.777493,1.5567039 l 2.22251,1.556704 v 37.386592 37.386592 l -2.22251,1.556704 C 76.906713,89.94412 72.510793,90.190476 51,90.190476 c -21.510792,0 -25.906709,-0.246356 -27.777494,-1.556704 z" />

<path d="M 58.418213,69.583487 c 2.132112,-0.818168 2.083412,-7.18124 -0.0732,-9.56427 -0.910244,-1.005808 -2.535097,-1.828741 -3.610785,-1.828741 -1.829758,0 -1.810055,-0.118014 0.305742,-1.831282 4.414961,-3.575019 0.02737,-9.880674 -5.002197,-7.188933 -2.929875,1.568021 -2.791373,6.781753 0.212227,7.989053 l 2.25,0.904389 -2.25,0.06339 c -3.384379,0.09534 -6.25,3.529532 -6.25,7.490062 0,2.422616 0.512772,3.560677 1.75,3.883998 2.704242,0.706693 10.902314,0.759976 12.668213,0.08234 z M 43,63.36479 c 0,-1.004127 1.125221,-2.882777 2.500492,-4.174776 2.331065,-2.189922 2.39726,-2.506642 0.976947,-4.674314 -0.83795,-1.278873 -1.175671,-2.328735 -0.750492,-2.333026 0.425179,-0.0043 1.306789,-1.158055 1.959133,-2.56392 1.009322,-2.175186 0.897551,-2.844647 -0.75,-4.492198 -2.440699,-2.440699 -3.442246,-2.429914 -5.93608,0.06392 -1.1,1.1 -2,2.45 -2,3 0,0.55 0.9,1.9 2,3 1.555556,1.555556 1.666667,2 0.5,2 -2.673688,0 -5.5,3.811239 -5.5,7.416667 0,3.526485 0.888338,4.368889 4.75,4.504386 1.540553,0.05405 2.25,-0.49671 2.25,-1.746739 z m 24.5,-3.174314 c 0,-4.047096 -0.316814,-4.658342 -3.147819,-6.073266 -2.944677,-1.471736 -3.025345,-1.649753 -1.25,-2.758474 2.462834,-1.538066 2.417452,-4.388023 -0.106243,-6.671936 -1.655908,-1.498576 -2.437669,-1.616088 -4.5,-0.676427 -2.771983,1.263 -3.158828,3.721096 -1.028228,6.53358 0.967739,1.277457 1.132592,2.567608 0.530453,4.151354 -0.660273,1.736651 -0.422349,2.706298 0.974157,3.970119 1.016294,0.919733 2.128973,2.792499 2.472622,4.161703 0.502696,2.002902 1.155478,2.428274 3.339936,2.176404 C 67.289755,64.714718 67.5,64.342019 67.5,60.190476 Z m 8.332883,-2.919032 c 0.55521,-3.810146 -0.75562,-7.08864 -3.29723,-8.246677 -2.25286,-1.02647 -2.31134,-1.247004 -0.90134,-3.398934 2.12103,-3.2371 0.32205,-6.435357 -3.619807,-6.435357 -3.828787,0 -5.33122,2.587 -3.301493,5.684755 0.912312,1.392364 1.260525,3.284543 0.881994,4.79273 -0.442562,1.763306 -0.03615,3.081367 1.389763,4.507285 C 68.093147,55.283623 69,57.015476 69,58.023809 c 0,2.60997 0.759603,3.057361 3.813263,2.245945 1.75533,-0.466424 2.80214,-1.505842 3.01962,-2.99831 z M 54.767906,45.410948 c -0.255947,-0.978741 0.141569,-2.346483 0.883368,-3.039427 1.773697,-1.656881 1.723163,-5.6254 -0.0908,-7.130858 -0.791741,-0.657086 -2.695958,-1.049686 -4.231595,-0.872445 -3.742062,0.431906 -5.495957,4.875168 -3.009087,7.623128 0.926515,1.023788 1.413531,2.132476 1.082256,2.46375 -1.155505,1.155504 0.735233,2.73538 3.2736,2.73538 1.959661,0 2.448817,-0.416042 2.092258,-1.779528 z" />

<path d="M 15.543671,76.846067 C 14.227216,75.883452 13.884296,74.787615 14.336146,72.9873 14.877519,70.830296 15.686542,70.387747 20.028455,69.873512 26.627607,69.09194 30,70.362574 30,73.630541 c 0,1.437907 -0.817083,2.926857 -1.934259,3.524751 -2.747089,1.470198 -10.345164,1.282568 -12.52207,-0.309225 z m 1.253317,-23.335868 c -1.957606,-0.515288 -3.110311,-3.33964 -2.263576,-5.546197 0.719505,-1.875 9.560563,-3.068494 13.011439,-1.756474 3.051678,1.160246 3.371216,5.422316 0.52089,6.947764 -1.917422,1.026174 -7.991784,1.217485 -11.268753,0.354907 z m 0,-24 C 13.128495,28.544564 13.516158,22.822624 17.319175,21.802672 24.037068,20.000965 30,21.829132 30,25.690476 c 0,1.378651 -0.836699,2.87742 -1.934259,3.464816 -1.917422,1.026174 -7.991784,1.217485 -11.268753,0.354907 z" />
</svg>
