<svg xmlns="http://www.w3.org/2000/svg"
     xmlns:xlink="http://www.w3.org/1999/xlink"
     lang="en-GB"
     viewBox="0 0 596 596">

<title>Ashiva Module Assets Icon</title>

<defs>
<style type="text/css"><![CDATA[

rect {
  width: 596px;
  height: 596px;
  fill: rgb(191, 0, 0);
}

path {
  fill: rgb(255, 255, 255);
  stroke-width: 1;
}

]]></style>

</defs>

<rect />

<path d="M 316.70945,556.83254 c 24.86459,-13.93025 110.76597,-63.65031 111.86823,-64.74977 1.16135,-1.15839 -0.11769,-2.137 -12.31978,-9.42606 l -9.37353,-5.59939 -10.12647,5.90688 c -26.20291,15.28445 -94.52668,54.58526 -97.79218,56.25147 l -3.66571,1.87041 -16.33429,-9.09456 c -8.98386,-5.00201 -32.60134,-18.50244 -52.48329,-30.00097 l -36.14899,-20.9064 -9.35101,5.58597 c -12.1706,7.2703 -13.45856,8.25556 -12.29725,9.40709 2.25237,2.23341 93.59422,54.52466 117.44625,67.23545 5.61171,2.99049 8.27496,3.87133 10.57802,3.49855 1.69291,-0.27402 10.69291,-4.76442 20,-9.97867 z M 119.19341,463.88143 c 0.0341,-22.1375 0.14386,-44.23328 0.24393,-49.10172 l 0.18195,-8.85173 -41.359737,-23.89114 c -22.74786,-13.14013 -43.78263,-25.27738 -46.74393,-26.97167 l -5.38419,-3.08052 v 49.44403 49.44403 l 45.75,26.5252 c 25.1625,14.58886 46.087497,26.57207 46.499997,26.62936 0.4125,0.0573 0.77789,-18.00834 0.81198,-40.14584 z m 31.86047,28.28632 c 17.00709,-10.1896 31.13284,-18.41259 39.57755,-23.03918 3.3,-1.80797 11.7375,-6.64285 18.75,-10.74418 l 12.75,-7.45696 V 401.9461 c 0,-34.96076 -0.31258,-48.87714 -1.092,-48.61734 -0.60059,0.2002 -21.27965,12.0502 -45.95346,26.33334 l -44.86146,25.96933 -0.0465,49.27568 -0.0465,49.27568 3.17245,-1.64054 c 1.74484,-0.90229 9.73234,-5.57082 17.75,-10.3745 z m 316.03101,-41.28632 -0.0465,-49.25 -44.86146,-25.96933 c -24.67381,-14.28314 -45.35287,-26.13314 -45.95346,-26.33334 -0.77942,-0.2598 -1.092,13.65658 -1.092,48.61734 v 48.98133 l 12.75,7.46418 c 7.0125,4.10529 15.76632,9.11401 19.45294,11.13048 3.68662,2.01648 14.03662,7.98515 23,13.26373 31.08089,18.30367 36.28847,21.34561 36.54213,21.34561 0.14021,0 0.23399,-22.1625 0.20839,-49.25 z m 58.36337,22.37602 45.68318,-26.37398 v -49.44941 -49.44941 l -5.3842,3.08052 c -2.9613,1.69429 -23.99608,13.83154 -46.74393,26.97167 l -41.35974,23.89114 0.18195,8.85173 c 0.10007,4.86844 0.20984,27.00172 0.24393,49.18505 0.0341,22.18334 0.42955,40.18334 0.87881,40 0.44926,-0.18333 21.37426,-12.20162 46.5,-26.70731 z M 170.13143,370.62853 c 24.475,-14.17189 45.03366,-26.26883 45.68591,-26.88209 0.88894,-0.8358 -10.43272,-7.81424 -45.21187,-27.8677 l -46.39778,-26.75268 -22.78813,13.32702 c -12.533467,7.32986 -33.246387,19.36857 -46.028717,26.75269 -12.78232,7.38411 -23.22715,13.65066 -23.21073,13.92566 0.0401,0.67198 92.314877,53.76892 92.951317,53.48624 0.275,-0.12214 20.525,-11.81725 45,-25.98914 z m 370.21769,-16.85332 c 13.59472,-7.77908 24.72802,-14.36878 24.74062,-14.64378 0.013,-0.275 -10.4354,-6.54155 -23.21773,-13.92566 -12.78232,-7.38412 -33.49524,-19.42283 -46.02871,-26.75269 l -22.78813,-13.32702 -46.38825,26.75268 c -25.51354,14.71398 -46.0142,27.13737 -45.55703,27.60753 0.45718,0.47017 21.18364,12.68041 46.05881,27.13388 l 45.22758,26.27902 21.61757,-12.49008 c 11.88967,-6.86955 32.74054,-18.85479 46.33527,-26.63388 z m -453.217687,-56.87493 7.5,-4.43291 0.2612,-40.65226 0.26121,-40.65226 2.23879,-1.38843 c 2.805067,-1.73962 63.998747,-36.87756 80.477747,-46.21103 l 12.23896,-6.93196 0.011,-13.83333 c 0.006,-7.60834 -0.33006,-13.68334 -0.74697,-13.5 -7.78165,3.42191 -114.109067,65.47028 -115.987007,67.68532 l -2.24504,2.64801 -0.005,53.34502 -0.005,53.34502 4.25,-2.49414 c 2.3375,-1.37177 7.625,-4.48895 11.75,-6.92705 z M 519.02255,194.8797 c -1.23557,-2.99504 -4.20987,-4.93422 -26.89112,-17.53237 -7.975,-4.42966 -31.33029,-17.76537 -51.90065,-29.63491 -20.57036,-11.86955 -37.55786,-21.58099 -37.75,-21.58099 -0.19214,0 -0.34579,6.1875 -0.34144,13.75 l 0.008,13.75 25.17639,14.5 c 13.84701,7.975 34.88095,19.9504 46.74209,26.61199 l 21.56569,12.11199 0.5,39.80251 0.5,39.80251 11.5,6.8007 11.5,6.80071 0.26315,-51.21521 c 0.18743,-36.47768 -0.0635,-52.00703 -0.87203,-53.96693 z m -228.93766,-5.99827 -0.0465,-49.25 -44.86146,-25.96933 C 220.50312,99.378963 199.8198,87.527543 199.21399,87.325603 c -0.79433,-0.26478 -1.02911,13.340607 -0.84199,48.792487 l 0.25947,49.15964 45.49332,26.42685 c 25.02133,14.53477 45.60883,26.42685 45.75,26.42685 0.14117,0 0.23574,-22.1625 0.21014,-49.25 z m 58.36337,22.37602 45.68317,-26.37398 V 135.43406 85.984653 l -5.38419,3.08052 c -2.96131,1.69429 -23.99608,13.831537 -46.74393,26.971667 l -41.35974,23.89114 0.18195,8.85173 c 0.10007,4.86844 0.20984,27.00172 0.24393,49.18505 0.0341,22.18334 0.42955,40.18334 0.87881,40 0.44926,-0.18333 21.37426,-12.20162 46.5,-26.70731 z M 363.34912,91.775213 c 13.59472,-7.77908 24.72743,-14.36878 24.73935,-14.64378 0.0119,-0.275 -20.70031,-12.53317 -46.02717,-27.24036 l -46.04883,-26.74037 -46.3669,26.74037 c -25.5018,14.70719 -45.99285,27.12504 -45.53568,27.5952 0.45718,0.47017 21.18364,12.68041 46.05881,27.133877 l 45.22758,26.27902 21.61757,-12.49008 c 11.88967,-6.86955 32.74054,-18.854797 46.33527,-26.633877 z" />
</svg>
