<svg xmlns="http://www.w3.org/2000/svg"
     lang="en-GB"
     viewBox="0 0 204 204">

  <title>Speech Off Icon</title>

  <defs>

  <style type="text/css"><![CDATA[

  rect {
    width: 204px;
    height: 204px;
    fill: rgb(0, 0, 0, 0.9);
  }

  path {
    fill: rgb(255, 255, 255, 0.2);
  }

  ]]></style>

  </defs>

  <rect/>
  <path d="m 31.579856,154.04842 c -3.273519,-1.32103 -5.356999,-5.01911 -5.356999,-9.50842 0,-5.03414 2.00648,-8.017 6.359059,-9.45349 11.460846,-3.78242 17.771782,13.30556 6.956682,18.83645 -2.541204,1.29958 -4.954965,1.33763 -7.958742,0.12546 z m 33,0 c -3.273519,-1.32103 -5.356999,-5.01911 -5.356999,-9.50842 0,-5.03414 2.00648,-8.017 6.359059,-9.45349 11.460846,-3.78242 17.771782,13.30556 6.956682,18.83645 -2.541204,1.29958 -4.954965,1.33763 -7.958742,0.12546 z m 33,0 c -3.273519,-1.32103 -5.356999,-5.01911 -5.356999,-9.50842 0,-5.03414 2.00648,-8.017 6.359059,-9.45349 11.460854,-3.78242 17.771784,13.30556 6.956684,18.83645 -2.5412,1.29958 -4.95496,1.33763 -7.958744,0.12546 z m 33.000004,0 c -3.27352,-1.32103 -5.357,-5.01911 -5.357,-9.50842 0,-5.03414 2.00648,-8.017 6.35906,-9.45349 11.46085,-3.78242 17.77178,13.30556 6.95668,18.83645 -2.5412,1.29958 -4.95496,1.33763 -7.95874,0.12546 z m 32,0 c -3.27352,-1.32103 -5.357,-5.01911 -5.357,-9.50842 0,-5.03414 2.00648,-8.017 6.35906,-9.45349 11.46085,-3.78242 17.77178,13.30556 6.95668,18.83645 -2.5412,1.29958 -4.95496,1.33763 -7.95874,0.12546 z" />

</svg>
