<svg xmlns="http://www.w3.org/2000/svg"
     lang="en-GB"
     viewBox="0 0 204 204">

  <title>Speech On Icon</title>

  <defs>

  <style type="text/css"><![CDATA[

  rect {
    width: 204px;
    height: 204px;
    fill: rgb(191, 0, 0);
  }

  path {
    fill: rgb(255, 255, 255);
  }

  ]]></style>

  </defs>

  <rect/>
  <path d="m 64.722857,176.94607 c -1.1,-0.45022 -2.9,-1.81876 -4,-3.0412 -1.954349,-2.17189 -2.006154,-3.82675 -2.269621,-72.50132 -0.172088,-44.856092 0.0902,-71.225109 0.725075,-72.894955 0.547082,-1.438936 2.468411,-3.533918 4.26962,-4.655516 4.235552,-2.637443 8.399964,-1.926928 12.024926,2.051644 l 2.75,3.018259 v 70.437167 c 0,50.542871 -0.321575,71.142951 -1.138557,72.936041 -1.115575,2.44841 -6.343498,5.65728 -9.012572,5.53185 -0.741879,-0.0349 -2.248871,-0.43175 -3.348871,-0.88197 z m 30.265777,-21.97261 -3.265777,-2.91797 V 99.996189 47.936884 l 2.75,-2.75 c 3.837971,-3.837972 9.662033,-3.837972 13.500003,0 l 2.75,2.75 v 52.059305 52.059301 l -3.26578,2.91797 c -2.05393,1.83519 -4.36729,2.91797 -6.23422,2.91797 -1.866933,0 -4.180294,-1.08278 -6.234226,-2.91797 z m 65.157306,-0.005 -2.92308,-2.92307 V 100.10483 48.164266 l 2.65662,-2.656621 c 3.3768,-3.376794 6.58023,-4.174855 10.40262,-2.591569 6.1533,2.548671 5.94076,0.499574 5.94076,57.274784 v 51.85442 l -2.92308,2.92307 c -2.1641,2.16411 -3.87179,2.92308 -6.57692,2.92308 -2.70513,0 -4.41282,-0.75897 -6.57692,-2.92308 z M 129.6058,137.34847 c -1.71438,-0.86788 -3.62688,-2.69691 -4.25,-4.0645 -0.76858,-1.68697 -1.13294,-12.78748 -1.13294,-34.516521 V 66.737583 l 2.92308,-2.923077 c 5.7124,-5.712399 15.09431,-2.756885 16.56482,5.218293 0.34061,1.847246 0.48267,16.961536 0.31569,33.587311 l -0.30359,30.22868 -2.5,2.4971 c -3.25328,3.2495 -7.65494,4.00823 -11.61706,2.00247 z m -98.025944,-5.44862 c -5.134406,-2.07199 -5.356999,-3.42277 -5.356999,-32.508421 0,-29.946687 0.0855,-30.383023 6.359059,-32.453485 4.146752,-1.368552 7.569351,-0.22428 10.509618,3.513664 2.055234,2.612807 2.130529,3.659709 2.109087,29.324681 -0.01981,23.706861 -0.211032,26.848211 -1.75,28.748101 -3.254717,4.01801 -7.375154,5.18966 -11.870765,3.37546 z" />

</svg>
