<svg xmlns="http://www.w3.org/2000/svg"
     lang="en-GB"
     viewBox="0 0 426 426">

  <title>Ready Write Web</title>

  <defs>

    <style type="text/css"><![CDATA[

    rect {
      width: 426px;
      height: 426px;
      fill: rgb(0, 0, 0, 0);
    }

    circle {
      fill: rgb(191, 0, 0);
    }

    #square {
      width: 366px;
      height: 366px;
      fill: rgb(191, 0, 0);
    }

    path {
      fill: rgb(255, 255, 255);
    }

    #top-left {
      transform-origin: 25% 25%;
      transform: rotateY(180deg) translateX(-0.6%);
    }

    #top-right {
      transform: translateX(0.1%);
    }

    #bottom-left {
      transform-origin: 25% 75%;
      transform: rotateZ(-180deg) translateX(-0.6%);
    }

    #bottom-right {
      transform-origin: 75% 75%;
      transform: rotateX(-180deg) translateX(0.1%);
    }

    #hieroglyph {
      transform-origin: center;
      transform: scale(0.7);
    }

    ]]></style>

    <path id="top-right" d="m 3.6248057,174.89902 c 0,-20.04254 0.3375,-36.60811 0.75,-36.81236 0.4125,-0.20426 31.5750003,-0.0687 69.2500003,0.30113 75.767794,0.74387 75.699984,0.73829 89.662404,7.36902 9.8553,4.68026 18.25593,10.54745 23.28955,16.26595 8.72949,9.91721 15.1982,25.10838 16.5292,38.81724 0.37379,3.85 0.89878,7.7875 1.16663,8.75 0.45561,1.63724 -1.35649,1.75 -28.12222,1.75 h -28.60921 l -2.84072,-6.33143 c -5.25172,-11.7051 -11.43958,-16.30343 -25.14121,-18.68294 -3.53893,-0.61459 -21.171924,-1.37685 -39.184424,-1.69391 l -32.75,-0.57647 V 197.69763 211.34 h -22 -22.0000003 z m 0,-106.075353 V 1.3073332 l 26.7500003,0.2663334 26.75,0.2663334 0.85229,57.5 c 0.46876,31.625 0.9647,57.62094 1.10208,57.76875 0.47562,0.51171 21.66855,-3.86739 24.3514,-5.03174 4.94964,-2.14813 9.08629,-5.86738 12.87644,-11.57719 C 100.94467,93.513294 110.8759,73.464754 121.15415,50.34 c 4.27803,-9.625 10.78016,-24.25 14.44918,-32.5 l 6.67096,-15 30.67526,-0.2644519 c 22.73995,-0.1960415 30.67526,0.035347 30.67526,0.8944706 0,3.7672232 -48.45789,102.9694913 -54.24124,111.0418613 -4.14636,5.78746 -7.9562,9.9947 -15.01218,16.57812 l -5.62686,5.25 H 66.184666 3.6248057 Z" />

  </defs>

  <rect />

  <circle cx="213" cy="213" r="213" />
  <rect id="square" x="30" y="30" />

  <g id="hieroglyph">
    <use id="top-left" href="#top-right" x="0" y="0" />
    <use id="top-right" href="#top-right" x="49%" y="0" />
    <use id="bottom-left" href="#top-right" x="0" y="50%" />
    <use id="bottom-right" href="#top-right" x="49%" y="50%" />
  </g>

</svg>
