<svg xmlns="http://www.w3.org/2000/svg"
     xmlns:xlink="http://www.w3.org/1999/xlink"
     lang="en-GB"
     viewBox="0 0 450 450">

  <title>Notes Icon</title>

  <defs>

  <style type="text/css"><![CDATA[

  rect {
    width: 450px;
    height: 450px;
    fill: rgb(191, 0, 0);
  }

  path {
    fill: rgb(255, 255, 255);
    stroke-width: 1;
  }

  ]]></style>

  </defs>

  <rect />

  <path d="m 124.15805,366.0547 c -1.30534,-1.30533 -1.60486,-4.25973 -1.60486,-15.82979 v -14.22492 l -9.95745,-0.0156 c -5.47659,-0.008 -10.64681,-0.45052 -11.48936,-0.98202 -1.24426,-0.78493 -1.627799,-4.65305 -2.042553,-20.59986 l -0.510638,-19.63346 -6.358173,0.26119 c -5.622906,0.23097 -6.656295,-0.037 -8.93617,-2.31682 -3.110904,-3.11092 -3.245583,-5.0671 -0.535444,-7.77724 1.653496,-1.6535 3.404255,-2.04255 9.191489,-2.04255 h 7.148936 v -11.74468 -11.74468 h -7.109152 c -5.998161,0 -7.434572,-0.3493 -9.191489,-2.23513 -1.145285,-1.22932 -2.075299,-2.95272 -2.066698,-3.82978 0.03627,-3.69771 1.866845,-4.65331 9.902208,-5.16913 l 7.954493,-0.51064 0.287729,-12 0.287731,-12 h -7.181348 c -5.819644,0 -7.568648,-0.3873 -9.223899,-2.04255 -4.998512,-4.99852 -1.326221,-8.96235 8.703854,-9.39485 l 7.125933,-0.30728 v -11.74468 -11.74468 l -7.148936,-0.27831 c -5.787242,-0.22529 -7.489359,-0.68453 -8.93617,-2.41101 -2.165715,-2.58435 -2.237078,-3.96389 -0.339464,-6.56229 1.131691,-1.54963 3.082647,-2.09392 8.93617,-2.49307 l 7.4884,-0.51064 v -11.73326 -11.73328 l -7.103521,-0.15919 c -5.991172,-0.13428 -7.390496,-0.5136 -8.93617,-2.42243 -2.211272,-2.73081 -2.289163,-4.08528 -0.384879,-6.69281 1.131691,-1.54963 3.082647,-2.09392 8.93617,-2.49307 l 7.4884,-0.51064 0.288767,-11.48936 0.288767,-11.48936 h -7.182384 c -5.820682,0 -7.569629,-0.38725 -9.224937,-2.04256 -4.998512,-4.99851 -1.326221,-8.96234 8.703854,-9.39484 l 7.125933,-0.30729 0.267886,-19.40425 c 0.231646,-16.779207 0.499833,-19.576956 1.982435,-20.68085 1.34337,-1.000232 22.66344,-1.276596 98.48271,-1.276596 h 96.76816 l 1.58983,2.269793 c 1.16157,1.658373 1.58982,4.822071 1.58982,11.744681 v 9.474887 h 13.0814 c 9.67927,0 13.59698,0.376655 15.06383,1.448263 1.85835,1.357613 2.0144,3.238765 2.49307,30.053652 l 0.51064,28.6054 18.30052,-17.79834 c 11.56979,-11.2523 19.0667,-17.79834 20.38375,-17.79834 3.06445,0 29.23062,26.41665 29.23062,29.51044 0,1.73341 -9.11626,11.59463 -34.21276,37.00856 l -34.21277,34.6455 v 74.80753 c 0,66.05375 -0.18603,75.07313 -1.58982,77.07732 l -1.58983,2.26979 H 226.22779 c -89.97,0 -100.63253,-0.16765 -102.06974,-1.60486 z m 193.45896,-74.71427 v -65.08508 l -9.19149,9.1489 -9.19149,9.1489 v 44.11856 c 0,38.74608 -0.19543,44.31398 -1.60486,45.72342 -1.43202,1.43202 -10.34098,1.60486 -82.7234,1.60486 h -81.11854 v 10.21277 10.21276 h 91.91489 91.91489 z m -30.63829,-1.02432 v -33.42856 l -10.46809,10.34608 -10.46808,10.34607 -19.17732,6.33501 c -28.92643,9.55553 -29.47813,9.04953 -20.21229,-18.5379 l 6.29374,-18.73852 26.98081,-27.57447 26.98081,-27.57446 0.0352,-57.44681 0.0352,-57.446807 h -88.34043 -88.34042 v 14.241915 14.241922 l 4.81805,0.31127 c 4.03432,0.26064 5.07259,0.76811 6.38297,3.11979 1.40573,2.52278 1.40573,3.09423 0,5.61702 -1.31294,2.35626 -2.34607,2.85885 -6.41589,3.12113 l -4.85095,0.31261 0.28822,11.41851 0.28824,11.41849 3.87231,0.14909 c 10.62565,0.40908 10.33743,12.644 -0.29784,12.644 h -4.08511 v 11.23404 11.23404 h 3.43674 c 4.18885,0 8.83059,3.41132 8.7861,6.4571 -0.0556,3.8061 -2.58624,5.99895 -7.57152,6.56087 l -4.65132,0.52426 v 11.10122 11.10123 h 4.08511 c 6.85574,0 10.53831,5.90328 6.48001,10.38767 -1.14342,1.26346 -3.12573,1.86765 -6.12766,1.86765 h -4.43746 v 11.68872 11.68873 l 4.81805,0.31127 c 4.03432,0.26064 5.07259,0.76812 6.38297,3.11979 1.40573,2.52279 1.40573,3.09423 0,5.61702 -1.31294,2.35626 -2.34607,2.85885 -6.41589,3.12113 l -4.85095,0.31262 0.28822,11.43206 0.28824,11.43206 4.0851,0.33073 c 4.80196,0.38878 7.65958,2.61053 7.65958,5.95522 0,3.73848 -3.45661,6.48001 -8.17021,6.48001 h -4.08511 v 14.29787 14.29787 h 88.34042 88.34043 z M 136.49871,274.8983 c -2.3177,-2.56102 -2.1654,-6.99765 0.28521,-8.30919 1.22389,-0.65499 12.62546,-1.0572 29.96937,-1.0572 25.82308,0 28.12504,0.14484 29.68416,1.86765 2.2174,2.45018 2.14517,5.57425 -0.17745,7.67619 -1.64262,1.48655 -5.25361,1.6902 -29.96937,1.6902 -25.92748,0 -28.23249,-0.1445 -29.79192,-1.86765 z m 0.57959,-23.21153 c -2.9136,-2.04077 -3.08678,-7.09256 -0.29438,-8.58702 1.24863,-0.66824 14.52917,-1.0572 36.09703,-1.0572 32.59074,0 34.20288,0.0898 35.93286,2.0014 2.42296,2.67733 1.33729,6.94051 -2.10031,8.24748 -1.46635,0.55751 -16.65017,0.98516 -34.97828,0.98516 -27.65998,0 -32.71842,-0.23205 -34.65692,-1.58982 z m -1.6242,-25.08061 c -1.48989,-2.12712 -1.2816,-4.26804 0.65927,-6.77638 0.76295,-0.98601 10.93884,-1.27659 44.70469,-1.27659 47.35368,0 46.92661,-0.0499 46.92661,5.48571 0,4.73263 0.0549,4.72705 -46.61443,4.72705 -43.80476,0 -44.17564,-0.0176 -45.67614,-2.15979 z m 0.6664,-22.59758 c -2.02701,-2.61839 -2.18518,-4.81544 -0.49483,-6.87322 1.72217,-2.09653 2.1834,-2.11119 57.79509,-1.83714 51.43439,0.25346 56.14925,0.41924 57.15227,2.00958 0.74253,1.17733 0.77034,2.65153 0.0867,4.59575 l -1.00653,2.8624 -56.26889,0.26391 c -44.25916,0.20757 -56.48123,-0.0104 -57.26379,-1.02128 z m 8.22139,-31.40993 c -1.5923,-1.6835 -3.19395,-4.09627 -3.55924,-5.3617 -0.36529,-1.26543 -0.70997,-13.23399 -0.76596,-26.59679 -0.0924,-22.06242 0.0784,-24.64932 1.85884,-28.13917 1.07835,-2.11374 3.16806,-4.39331 4.64379,-5.0657 1.9663,-0.8959 15.97216,-1.22151 52.42234,-1.21871 47.91082,0.004 49.86213,0.0787 53.08379,2.04303 1.83953,1.12155 3.79272,3.21784 4.34043,4.65841 0.55045,1.44779 0.99582,14.03105 0.99582,28.13535 0,20.81009 -0.28573,26.06867 -1.54921,28.51197 -3.18083,6.15105 -2.63946,6.09423 -58.05818,6.09423 h -50.51735 z m 87.13477,109.78432 c 2.01653,-0.84255 4.33614,-1.53191 5.15472,-1.53191 0.81858,0 4.32416,-1.12551 7.79017,-2.50114 3.46602,-1.37562 7.65029,-3.00492 9.29839,-3.62067 l 2.99653,-1.11956 -9.1029,-9.14527 c -5.00659,-5.0299 -9.42024,-9.14528 -9.80808,-9.14528 -0.38785,0 -1.49227,2.41277 -2.4543,5.3617 -0.96202,2.94894 -2.07489,5.82128 -2.47306,6.38298 -0.70951,1.00094 -6.15473,15.50933 -6.15473,16.39885 0,0.73725 0.8868,0.53582 4.75326,-1.0797 z m 121.37103,-124.07658 -10.72468,-10.7247 -50.28577,50.28577 -50.28576,50.28576 10.70257,10.73912 10.70257,10.73911 50.30789,-50.30018 50.30788,-50.30019 z M 317.61701,130.48938 V 100.0851 h -9.19149 -9.19149 v 39.55318 39.55317 l 9.19149,-9.1489 9.19149,-9.1489 z m 61.55106,21.91789 9.93828,-9.97571 -10.72293,-10.68643 -10.72294,-10.68645 -10.21408,10.17576 -10.21409,10.17576 10.4507,10.48639 c 5.74789,5.76751 10.69732,10.48638 10.99874,10.48638 0.30143,0 5.02028,-4.48907 10.48632,-9.9757 z"></path>

</svg>
