<svg xmlns="http://www.w3.org/2000/svg" 
     xmlns:xlink="http://www.w3.org/1999/xlink"
     lang="en-GB"
     viewBox="0 0 2070 2070">

  <title>Ashiva WebRig Icon</title>

  <defs>

    <style type="text/css"><![CDATA[

    rect {
      width: 2070px;
      height: 2070px;
      fill: rgb(191, 0, 0);
    }

    line {
      stroke: rgb(255, 255, 255);
      stroke-width: 24px;
    }

    #web-document {
      transform: scale(1);
    }

    #web-document path {
      fill: rgb(255, 255, 255);
    }

    ]]></style>

    <g id="web-document">
      <path d="M 11.999974,288.75 11.999948,12.5 176.74997,12.755272 341.5,13.010544 388.25,59.751283 435,106.49202 V 335.74601 565 H 223.5 12 Z M 417,333.5 V 120 H 370.5 324 V 75.5 31 H 177.5 31 V 289 547 H 224 417 Z M 68,482 v -9 H 223.5 379 v 9 9 H 223.5 68 Z m 0,-71 v -9 H 223.5 379 v 9 9 H 223.5 68 Z m 0,-70 v -9 H 223.5 379 v 9 9 H 223.5 68 Z m 0,-71 v -9 H 223.5 379 v 9 9 H 223.5 68 Z m 0,-70 v -9 H 223.5 379 v 9 9 H 223.5 68 Z M 396.15506,95.174899 C 388.54795,86.594484 353.33587,52.087409 349.13451,49.095777 L 346,46.863812 V 74.431906 102 h 28.10298 28.10299 z" />
    </g>

  </defs>

  <rect />

  <line x1="405" y1="1023" x2="1665" y2="1023" />
  <line x1="405" y1="1011" x2="405" y2="1163" />
  <line x1="1023" y1="883" x2="1023" y2="1163" />
  <line x1="1665" y1="1011" x2="1665" y2="1163" />

  <use id="webrig-document-top" href="#web-document" x="798" y="284" />
  <use id="webrig-document-left" href="#web-document" x="180" y="1187" />
  <use id="webrig-document-middle" href="#web-document" x="798" y="1187" />
  <use id="webrig-document-right" href="#web-document" x="1426" y="1187" />

  </svg>
