<svg xmlns="http://www.w3.org/2000/svg" 
     xmlns:xlink="http://www.w3.org/1999/xlink"
     lang="en-GB"
     viewBox="0 0 2070 2070">

  <title>Ashiva WebRig Icon</title>

  <defs>

    <style type="text/css"><![CDATA[

    rect {
      width: 2070px;
      height: 2070px;
      fill: rgb(191, 0, 0);
    }

    line {
      stroke: rgb(255, 255, 255);
      stroke-width: 48px;
    }


    #web-document {
      transform: scale(0.75);
    }

    #web-document polygon {
      fill: rgba(255, 255, 255, 0.6);
      transform: translate(10px, -8px);
    }

    #web-document path {
      transform: translateY(-8px);
    }

    #web-document path:nth-of-type(1) {
      fill: rgb(255, 255, 255);
    }

    #web-document path:nth-of-type(2) {
      fill: rgba(255, 255, 255, 0.8);
    }

    ]]></style>

  
    <g id="web-document">

      <polygon points="443,39 478,39 478,207 484,216 636,216, 636,253 449,253 443,247 443,39" />
    
      <path d="M 644.42555,497.87236 V 252.25533 h -92.62497 -92.62497 l -2.86439,-2.74427 -2.8644,-2.74426 V 143.80893 40.851065 H 296.68086 139.9149 V 392.17023 743.48938 h 252.25533 252.25532 z" />
  
      <path d="m 125.10639,772.21686 c -4.45479,-2.03482 -11.50112,-9.13062 -14.46657,-14.56813 -1.80608,-3.31165 -1.88423,-16.50735 -2.16049,-364.78882 l -0.28663,-361.352875 3.02965,-5.285433 c 3.30239,-5.761234 7.5523,-10.155488 13.86579,-14.336743 l 4.06686,-2.6933694 193.55016,0.013715 193.55018,0.013715 36.8597,41.6033074 c 20.27284,22.881819 43.26102,48.9565 51.08486,57.943733 7.82383,8.98724 22.05532,25.30213 31.62554,36.25532 25.61102,29.31203 35.5565,40.99753 37.77203,44.38038 1.94093,2.96356 1.98318,8.13079 2.31446,283.04086 0.31291,259.66002 0.21378,280.26131 -1.36321,283.31089 -2.18458,4.22451 -9.092,11.75501 -14.19129,15.47142 l -3.98302,2.90285 -263.59146,-0.0224 c -253.0783,-0.0215 -263.75439,-0.0969 -267.67656,-1.8884 z m 521.095,-267.70621 C 646.33555,372.2298 646.1058,254.34894 645.69075,242.5532 l -0.75456,-21.44681 -76.13073,-0.51064 c -70.65509,-0.47391 -76.32945,-0.64088 -78.89362,-2.32141 -1.51959,-0.99593 -2.86629,-1.91508 -2.99268,-2.04255 -0.12638,-0.12748 -0.47106,-39.75519 -0.76595,-88.06157 l -0.53617,-87.829793 -21.95745,-0.751091 c -12.0766,-0.4131 -90.20426,-0.642887 -173.61703,-0.510638 l -151.65958,0.240452 -0.26136,351.8298 c -0.14375,193.50639 -0.0429,352.40517 0.22405,353.10841 0.38729,1.02021 51.73363,1.22662 254.0486,1.02128 l 253.5632,-0.25734 z" />

    </g>

  </defs>

  <rect />

  <line x1="405" y1="1023" x2="1665" y2="1023" />
  <line x1="405" y1="1011" x2="405" y2="1163" />
  <line x1="1023" y1="883" x2="1023" y2="1163" />
  <line x1="1665" y1="1011" x2="1665" y2="1163" />

  <use id="webrig-document-top" href="#web-document" x="730" y="283" />
  <use id="webrig-document-left" href="#web-document" x="112.5" y="1187" />
  <use id="webrig-document-middle" href="#web-document" x="730.5" y="1187" />
  <use id="webrig-document-right" href="#web-document" x="1373.5" y="1187" />

  </svg>
  
