<svg xmlns="http://www.w3.org/2000/svg" 
     xmlns:xlink="http://www.w3.org/1999/xlink"
     lang="en-GB"
     viewBox="0 0 2070 2070">

  <title>Ashiva WebRig Icon</title>

  <defs>

    <style type="text/css"><![CDATA[

    rect {
      width: 2070px;
      height: 2070px;
      fill: rgb(191, 0, 0);
    }

    line {
      stroke: rgb(255, 255, 255);
      stroke-width: 24px;
    }

    #web-document {
      transform: scale(1);
    }

    #web-document path {
      fill: rgb(255, 255, 255);
    }

    ]]></style>

    <g id="web-document">
      <path d="M 12,289 V 13 H 155.75276 299.50551 L 367.25276,80.752737 435,148.50547 V 356.75274 565 H 223.5 12 Z m 393,67.5 V 178 H 337 269 V 110.5 43 H 156.5 44 V 289 535 H 224.5 405 Z M 390.4597,143.75 c -2.07517,-2.3375 -23.50253,-24.00994 -47.61636,-48.160974 L 299,51.678051 V 99.839026 148 h 47.61636 47.61636 z" />
    </g>

  </defs>

  <rect />

  <line x1="405" y1="1023" x2="1665" y2="1023" />
  <line x1="405" y1="1011" x2="405" y2="1163" />
  <line x1="1023" y1="883" x2="1023" y2="1163" />
  <line x1="1665" y1="1011" x2="1665" y2="1163" />

  <use id="webrig-document-top" href="#web-document" x="798" y="284" />
  <use id="webrig-document-left" href="#web-document" x="180" y="1187" />
  <use id="webrig-document-middle" href="#web-document" x="798" y="1187" />
  <use id="webrig-document-right" href="#web-document" x="1426" y="1187" />

  </svg>
