<svg xmlns="http://www.w3.org/2000/svg"
     xmlns:xlink="http://www.w3.org/1999/xlink"
     lang="en-GB"
     viewBox="0 0 243 243">

  <title>Delete Icon</title>

  <defs>

    <style><![CDATA[

    rect {
      width: 243px;
      height: 243px;
      fill: rgb(191, 0, 0);
    }

    path {
      fill: rgb(255, 255, 255);
      stroke-width: 1.35;
      transform: translateX(-10px);
      filter: url(#drop-shadow);
    }

    ]]></style>
    
    <filter id="drop-shadow">
      <feDropShadow dx="2" dy="2" stdDeviation="2" flood-color="rgb(0, 0, 0, 0.3)" />
      <feDropShadow dx="2" dy="-2" stdDeviation="2" flood-color="rgb(0, 0, 0, 0.3)" />
      <feDropShadow dx="-2" dy="-2" stdDeviation="2" flood-color="rgb(0, 0, 0, 0.3)" />
      <feDropShadow dx="-2" dy="2" stdDeviation="2" flood-color="rgb(0, 0, 0, 0.3)" />
    </filter>

  </defs>

  <rect x="0" y="0" />

  <path d="m 91.657393,210.86234 c -2.855218,-1.01802 -6.637397,-3.2095 -8.40484,-4.86992 -6.336167,-5.95251 -7.061181,-11.0506 -9.300288,-65.39688 -1.162661,-28.21941 -2.10685,-55.105493 -2.098198,-59.746843 l 0.01573,-8.43882 h 59.329593 c 32.63128,0 59.58022,0.4557 59.88652,1.01266 0.3063,0.55696 -0.56884,27.443043 -1.94477,59.746843 -2.7165,63.77726 -3.21064,67.15763 -10.74362,73.4962 -2.19756,1.84913 -6.25516,3.98959 -9.01691,4.75661 -7.84745,2.17945 -71.322746,1.72223 -77.723217,-0.55985 z m 18.049297,-23.04675 c 2.20561,-2.6576 -0.53105,-87.77553 -2.91443,-90.647333 -0.82381,-0.99264 -2.56424,-1.80479 -3.86761,-1.80479 -5.611029,0 -5.759639,1.74437 -4.051965,47.561603 0.93534,25.09532 2.209155,44.29345 3.003405,45.2654 1.88529,2.30707 5.75868,2.12163 7.8306,-0.37488 z m 25.47637,0.21403 c 1.09315,-1.31716 1.4318,-14.56973 1.17799,-46.0981 -0.3256,-40.44475 -0.5594,-44.377613 -2.7191,-45.739423 -1.72296,-1.08642 -3.00278,-1.08642 -4.72574,0 -2.1597,1.36181 -2.3935,5.294673 -2.7191,45.739423 -0.368,45.71194 -0.13113,47.94672 5.08197,47.94672 1.30337,0 3.06016,-0.83188 3.90398,-1.84862 z m 25.64926,0.005 c 2.42147,-2.91768 5.13581,-87.89451 2.89384,-90.595933 -2.08162,-2.50821 -5.95181,-2.69973 -7.84398,-0.38818 -2.20183,2.689854 -4.98363,88.411233 -2.94866,90.863233 2.05114,2.47146 5.89911,2.53036 7.8988,0.12084 z M 65.643698,66.216393 c -0.608317,-2.423728 -0.05583,-4.593774 1.804744,-7.088607 2.222056,-2.979542 4.160593,-3.766168 11.315115,-4.59148 19.640255,-2.265611 20.110458,-2.387335 20.110458,-5.206108 0,-5.508821 3.869855,-11.984203 8.364175,-13.995687 2.45456,-1.098562 13.20018,-2.902628 23.87917,-4.009034 23.7091,-2.456406 26.4936,-1.74183 31.05896,7.970564 2.49971,5.317888 3.48345,6.252836 5.96373,5.667954 6.01599,-1.418635 23.65568,-2.517799 26.40462,-1.645322 2.57052,0.81585 6.99578,10.600049 5.47394,12.102824 -0.60191,0.594367 -125.722565,14.28796 -130.551497,14.28796 -2.043539,0 -3.215422,-1.070629 -3.823415,-3.493064 z M 133.64195,48.549646 c 17.61794,-1.934053 20.59071,-2.592715 20.59071,-4.562179 0,-5.181663 -2.90254,-5.608296 -23.06006,-3.389497 -19.64219,2.162075 -22.84711,3.238479 -22.84711,7.673442 0,3.098275 -0.33837,3.094557 25.31646,0.278234 z" />

</svg>
