<svg xmlns="http://www.w3.org/2000/svg"
     xmlns:xlink="http://www.w3.org/1999/xlink"
     lang="en-GB"
     viewBox="0 0 1440 1440">

  <title>Dock Icon</title>

  <defs>

    <style><![CDATA[

      rect {
        width: 1440px;
        height: 1440px;
        fill: rgb(191, 0, 0);
      }

      path {
        fill: rgb(255, 255, 255);
        fill-rule: evenodd;
      }

    ]]></style>

  </defs>

  <rect x="0" y="0"></rect>
  <path d="m 542.66667,133.9187 c 15.42285,-2.40885 31.21675,0.74797 46.66666,0.74797 h 108 c 129.80339,0 261.00383,5.62516 390.66667,-0.0525 31.1808,-1.36532 62.1526,-1.36532 93.3333,0 40.8058,1.78678 73.2802,2.11295 101.0524,37.38582 19.1552,24.32861 19.0432,50.53296 20.3335,80 1.5542,35.49373 1.2808,71.07495 1.2808,106.66667 0,154.73388 -1.3333,309.25634 -1.3333,464 0,25.23315 4.4965,55.41683 -1.3868,80 -8.143,34.02498 -44.6325,66.83593 -78.6132,73.58951 -19.4091,3.85759 -41.5772,1.07715 -61.3334,1.07715 h -120 -375.99997 c -62.2775,0 -145.85713,14.73243 -186.97221,-44 -17.60201,-25.14428 -15.69445,-50.75341 -15.69445,-80 V 748 288 c 0,-24.7592 -3.76583,-52.96859 0.61934,-77.33333 6.5002,-36.11621 43.37126,-71.1237 79.38066,-76.74797 M 348,332.79842 c 15.65601,-0.27222 12,19.2701 12,29.86825 V 448 c 0,8.8387 3.12244,25.71631 -3.4187,32.75513 C 351.72196,485.98421 341.0851,484 334.66667,484 c -17.91108,0 -62.18419,-7.71476 -70.46914,13.33439 -6.17279,15.68286 -0.61662,37.02401 -0.21708,53.33228 0.81142,33.12044 -1.31378,66.74812 -1.31378,100 V 1012 c 0,38.2428 1.33333,76.5223 1.33333,114.6667 0,13.3117 -5.58706,34.4696 4.45782,45.0483 9.95238,10.4813 31.8084,6.9517 44.87551,6.9517 h 117.33334 352 106.66666 c 16.84082,0 37.07089,2.9879 53.33334,-2.0772 23.90503,-7.4455 15.96964,-51.0514 16,-69.9228 0.0241,-14.9838 0.10107,-25.8584 17.33333,-26.6142 31.5162,-1.3823 63.1157,1.3315 94.6667,1.2808 9.5737,-0.015 26.1557,-5.2864 34.0884,2.0854 4.5768,4.2532 3.2449,12.2993 3.2449,17.9146 0,16.4719 0.5299,32.9528 -1.108,49.3334 -1.8996,18.9973 -2.4285,37.5893 -8.2634,56 -16.0246,50.5619 -58.215,93.3561 -107.96193,111.0771 -32.95402,11.739 -66.88103,8.9229 -101.33334,8.9229 -45.85669,0 -91.50073,1.3333 -137.33333,1.3333 -158.31506,0 -317.91394,5.5365 -476,-1.3858 -59.82509,-2.6197 -112.18222,-39.2227 -141.50309,-90.6142 -18.40002,-32.2502 -18.31279,-66.814 -19.88271,-102.6667 -2.82233,-64.4538 0.0525,-129.9432 0.0525,-194.66663 V 576 c 0,-37.40495 -3.99224,-78.1027 5.19341,-114.66667 8.54311,-34.00626 30.63305,-65.28418 57.47325,-87.38167 C 227.53353,332.62191 286.60699,333.86597 348,332.79842 m 696,2.81063 c 8.9255,-2.90861 17.5929,4.1097 24,9.4012 13.9506,11.52149 44.9909,34.86027 29.7541,54.98975 -17.416,23.00838 -41.7688,41.82113 -61.7016,62.66667 C 990.45801,510.34904 943.99357,557.33976 897.33333,604 c -16.2421,16.24211 -31.9563,32.90023 -47.98047,49.33333 -5.03458,5.16301 -14.86564,14.38046 -12.42382,22.64608 3.84993,13.03198 27.53808,10.63916 37.73763,10.68831 23.92163,0.11532 47.97778,1.33228 72,1.33228 10.55786,0 23.90381,-2.2408 33.3138,3.48454 20.23733,12.31315 23.84373,72.43685 1.35181,84.2963 -7.82276,4.12476 -18.14844,2.88583 -26.66561,2.88583 C 939.04175,778.66667 923.62492,780 908,780 H 736 c -20.09424,0 -61.87358,6.71484 -75.12964,-12.02059 -8.16528,-11.54036 -3.53703,-35.69808 -3.53703,-49.31274 v -124 c 0,-27.8558 3.3958,-57.78418 1.10185,-85.33334 -1.46566,-17.60164 -6.15194,-44.35774 7.18209,-58.52677 8.85941,-9.41423 21.47225,-6.26571 33.0494,-6.92074 14.12085,-0.79899 34.2959,-1.76326 44.80859,9.73145 7.99569,8.74267 5.24422,21.01066 5.97738,31.71606 1.82063,26.58553 1.21403,53.31364 1.21403,80 0,10.61507 -1.60401,41.87069 17.33333,35.12858 8.63346,-3.07373 14.92725,-11.61718 21.33333,-17.74275 14.31942,-13.69239 28.47282,-27.5201 42.66667,-41.3663 49.72135,-48.50341 98.86743,-97.55362 148,-146.68619 14.93441,-14.93441 29.3829,-30.71582 45.3333,-44.56584 5.7135,-4.96102 11.2418,-12.07218 18.6667,-14.49178 M 630.66667,980 h 30.66666" />

</svg>
