<svg xmlns="http://www.w3.org/2000/svg"
     xmlns:xlink="http://www.w3.org/1999/xlink"
     lang="en-GB"
     viewBox="0 0 1440 1440">

  <title>Undock Icon</title>

  <defs>

    <style><![CDATA[

      rect {
        width: 1440px;
        height: 1440px;
        fill: rgb(191, 0, 0);
      }

      path {
        fill: rgb(255, 255, 255);
        fill-rule: evenodd;
      }

    ]]></style>

  </defs>

  <rect x="0" y="0"></rect>
  <path d="m 542.66667,135.29012 c 18.08675,-3.41235 40.15356,-0.62345 58.66666,-0.62345 H 722.66667 1104 c 28.7973,0 60.8701,-1.82992 89.3333,0.1193 6.8343,0.46802 10.069,1.21118 17.3334,1.21403 19.6021,0.008 33.1329,5.1827 49.3333,15.59774 12.908,8.29826 22.588,18.21142 30.394,31.06893 5.5439,9.13134 11.2989,20.40966 12.6482,30.66666 0.6272,4.76774 0.9343,7.3357 0.9567,12 0.032,6.69686 0,15.72095 0,22.66667 v 122.66667 450.66666 c 0,19.96208 0.032,43.02279 0,62.66667 -0.013,7.74658 -0.038,12.78727 -2.0381,21.33333 -1.9214,8.21159 -6.4667,16.65951 -11.0483,24 -9.1286,14.62541 -21.6156,26.8348 -36.2469,35.9126 -7.6514,4.74715 -17.4883,9.89974 -25.3334,11.56787 -11.6797,2.48356 -35.5715,0.51953 -49.3333,0.51953 h -124 c -46.4671,0 -95.08219,0 -141.33333,0 -6.87224,0 -10.3274,0 -17.33334,0 -72.13541,0 -147.75211,-1.75081 -220,0.0195 -8.50293,0.20834 -12.66996,1.31324 -21.33333,1.31381 -29.545,0.002 -61.3077,-1.33334 -90.66667,-1.33334 -5.75325,0 -8.9659,0.0719 -14.66666,-0.005 -7.52845,-0.10165 -14.64026,-2.55103 -21.33334,-4.58024 -7.55924,-2.29175 -17.13452,-7.25741 -24,-11.89405 -5.02962,-3.39673 -9.06429,-7.22583 -13.3282,-11.52156 -9.56885,-9.64055 -17.13273,-19.77751 -22.06787,-31.99903 -6.76681,-16.7574 -5.22958,-35.97534 -5.98975,-53.33333 -0.17277,-3.94548 -1.045,-7.81299 -1.22835,-12 -0.8796,-20.08561 -0.0525,-44.03353 -0.0525,-64 0,-9.48698 0,-14.5153 0,-25.33333 0,-39.45565 0,-80.72714 0,-120 0,-6.45614 0,-9.68262 0,-16 0,-28.61743 -0.33842,-60.45476 0.005,-89.33334 0.1001,-8.41398 1.31568,-12.17879 1.32821,-20 0.0805,-50.1761 0,-102.92252 0,-153.33333 v -98.66667 c 0,-13.43961 -0.005,-32.49723 0,-45.33333 0.002,-6.27067 -0.33024,-8.3243 1.20577,-13.33333 1.18559,-3.86621 3.7664,-9.28231 5.79215,-13.33334 5.1259,-10.25048 10.13693,-17.03361 18.34054,-25.33333 8.13977,-8.23511 16.62634,-15.84204 26.66154,-21.49894 8.21318,-4.62988 16.96724,-9.38102 26.66667,-11.21094 M 297.33333,332.56584 C 308.10887,331.15096 330.57438,332 342.66667,332 c 4.2408,0 11.68978,-1.40625 15.19547,1.37036 4.99581,3.95679 2.13786,26.78971 2.13786,31.96297 0,23.08741 0,55.05013 0,81.33334 0,8.59863 1.00053,21.93847 -0.19751,29.30761 -1.40564,8.64608 -9.40112,6.69239 -17.13582,6.69239 -4.61872,0 -7.24742,0 -12,0 -15.55296,0 -34.88823,-0.62232 -50.66667,1.73453 -7.0871,1.0586 -13.46198,4.47274 -15.42181,11.59986 C 260.03424,512.52555 264,531.5861 264,550.66667 c 0,32.8916 -1.33333,65.71297 -1.33333,98.66666 v 355.99997 c 0,41.4118 1.33333,82.6074 1.33333,124 0,4.8828 0,11.4246 0,16 0,6.6265 -2.22955,15.3099 2.5247,22.6132 4.35705,6.6931 7.58826,7.3308 13.4753,8.5463 5.29159,1.0926 16.57104,0.8405 22.66667,0.8405 6.55391,0 15.01082,0 21.33333,0 5.10368,0 7.81777,0 13.33333,0 29.15642,0 61.24097,0 90.66667,0 h 358.66667 c 43.0931,0 86.24625,0 129.33333,0 9.59766,-6e-4 19.05949,0.9323 29.32821,-1.9115 6.39502,-1.771 11.13232,-9.9874 12.42692,-15.4218 1.05306,-4.4205 0.90324,-6.8456 0.91154,-12 0.0207,-12.8507 0,-18.3043 0,-29.3333 0,-4.8869 -0.0437,-12.691 0.56583,-17.3334 0.51563,-3.9272 0.71745,-6.3998 0.7675,-10.6666 0.0658,-5.6135 -0.82414,-9.9045 6.69238,-10.5886 11.61768,-1.0571 19.43758,-1.3564 30.64095,-1.4105 5.64417,-0.027 13.32407,-0.2506 18.66667,0.3798 4.5336,0.5348 7.0212,0.9275 12,0.9516 14.6551,0.071 31.7795,10e-4 46.6667,10e-4 6.4748,0 25.2661,-1.6444 30.2428,0.8045 3.8737,1.9061 3.0577,5.2578 3.0894,9.8622 0.093,13.4501 0.1519,40.2225 -0,53.3333 -0.05,4.2201 -0.4693,6.6132 -0.9475,10.6667 -0.7849,6.6518 -1.0906,15.5525 -1.7141,22.6666 -0.4907,5.5992 -1.1133,10.1924 -2.5309,16 -11.1103,45.5171 -43.9489,88.7686 -85.4691,111.5844 -9.3221,5.1226 -22.2332,11.175 -31.99997,14.1204 -8.25675,2.4899 -16.63615,5.1977 -25.33333,6.0679 -9.76489,0.9769 -18.23364,0.2273 -29.33333,0.2273 -48.35043,0 -96.87867,1.3334 -145.33334,1.3334 H 602.66667 c -16.25293,0 -33.14547,0 -49.33334,0 -4.18725,0 -8.01265,0 -12,0 -3.3136,0 -5.90031,0 -9.33333,0 -35.33594,0 -76.15828,0 -112,0 -34.63521,0 -70.85803,0.055 -105.33333,0 -6.15609,-0.01 -8.95445,-0.5634 -14.66667,-1.107 -10.62653,-1.0113 -16.31537,-0.025 -25.33333,-0.2459 -3.60334,-0.088 -6.0951,-0.5459 -9.33334,-0.9331 -3.44348,-0.4119 -8.4388,-0.5711 -12,-1.2007 -36.45758,-6.4443 -71.72829,-28.3811 -95.8251,-56.5133 -20.14952,-23.524 -35.31042,-51.3425 -39.40638,-81.3334 -5.39414,-39.4961 -3.43518,-84.6232 -3.43518,-125.3333 0,-8.2563 0,-12.4719 0,-21.3333 0,-112.43851 0,-224.89343 0,-337.33337 0,-34.63533 0,-70.85783 0,-105.33333 0,-8.19897 0,-12.32804 0,-21.33333 0,-27.42066 -0.4158,-55.3816 1.45267,-82.66667 0.60964,-8.90259 1.64046,-18.26164 3.16667,-26.66667 1.12565,-6.19905 3.13048,-11.50236 5.17387,-17.33333 C 140.87096,401.16968 181.57082,361.09725 228,344.07096 c 13.00427,-4.76888 26.08685,-8.5813 40,-9.35693 3.64854,-0.20337 5.84717,-0.3571 9.33333,-0.81486 3.61583,-0.47477 5.70887,-0.53092 9.33334,-0.56584 4.41969,-0.0426 7.15208,-0.30599 10.66666,-0.76749 m 533.33334,0 C 835.80965,331.89054 843.6901,332 849.33333,332 h 40 147.99997 c 13.6183,0 29.3456,-0.62419 42.6667,0.95264 4.3939,0.5201 7.7422,0.0755 12,1.09057 3.6524,0.87069 6.3731,2.20728 9.1008,4.35702 3.5035,2.76123 5.9338,6.53052 7.0875,10.9331 1.1839,4.51791 1.1218,7.39038 1.144,12 0.059,12.29541 10e-4,29.85523 10e-4,42.66667 v 117.33333 c 0,17.84774 0.028,38.43449 0,56 -0.01,5.83277 -0.5423,8.73283 -1.107,14.66667 -1.805,18.96623 8.4916,62.30672 -12.2325,73.09977 -7.1413,3.71924 -11.737,2.86581 -18.6605,2.89917 -10.0136,0.0483 -23.2885,0.98462 -33.3333,-0.58431 -7.7643,-1.21273 -15.7362,-3.14396 -21.1883,-8.82104 -4.6489,-4.84066 -5.2526,-6.72136 -5.4578,-13.26026 -0.3662,-11.67366 -0.8584,-17.88313 -1.3014,-28 -0.5203,-11.88094 -0.053,-28.39567 -0.053,-40 0,-5.18383 0,-8.00732 0,-13.33333 0,-12.89632 0.6706,-19.74609 -0.7675,-30.66667 -0.4766,-3.61995 -0.3898,-6.84375 -0.967,-10.66666 -1.1247,-7.44906 -5.4408,-15.27434 -14.2655,-12.57512 -9.30802,2.84709 -16.97355,12.58854 -24,19.12248 -14.45833,13.44499 -28.84049,27.62736 -42.66667,41.45264 -7.57877,7.57828 -15.12345,13.88493 -22.66666,21.33846 -19.14836,18.92065 -37.3322,38.56893 -56.00106,57.3282 -21.72258,21.8278 -43.5363,42.20402 -65.33228,64 -13.7806,13.7806 -28.87044,29.18889 -42.66666,42.64714 -5.25244,5.1237 -9.0634,8.11409 -14.66667,13.34668 -6.63232,6.19352 -8.84367,8.15682 -16,7.60189 -4.12199,-0.31967 -9.62199,-3.53728 -13.33333,-6.42692 C 691.31234,761.66138 680.31714,751.06087 670.89404,740 c -3.9189,-4.60002 -7.90124,-11.05509 -7.96195,-16 -0.0555,-4.51465 1.28629,-6.67065 2.96708,-9.33333 2.06787,-3.27588 5.47278,-7.16455 8.81999,-10.66667 7.34094,-7.68075 12.60742,-12.65991 19.94751,-20 56.92,-56.92 113.38517,-114.62687 169.35286,-172 11.61157,-11.90316 23.25757,-22.78434 34.52678,-34.64714 4.6075,-4.85017 8.7679,-9.78474 13.50618,-14.69132 6.20435,-6.42472 16.3571,-14.53451 17.82511,-23.99382 1.4205,-9.15315 -9.29117,-11.60685 -16.54427,-12.74902 -7.16316,-1.12801 -10.15486,-0.54541 -18.66666,-0.58642 -6.30241,-0.0304 -9.32349,-0.98747 -16,-1.27979 C 856.72811,423.09188 834.01034,424 812,424 c -14.15129,0 -24.71143,1.52474 -34.14095,-10.66667 -4.6919,-6.06608 -5.66463,-11.63777 -5.83952,-18.66666 -0.2264,-9.1001 -0.0232,-21.2841 -0.0195,-30.66667 0.003,-8.7395 0.68148,-18.52734 7.10596,-24.69027 3.21012,-3.07951 5.86702,-4.40185 10.22737,-5.33333 13.14893,-2.80892 30.10946,0.0632 41.33334,-1.41056" />

</svg>
