<svg xmlns="http://www.w3.org/2000/svg"
     xmlns:xlink="http://www.w3.org/1999/xlink"
     lang="en-GB"
     viewBox="0 0 666.67 412.02">

  <title>displate</title>

  <defs>

    <style><![CDATA[

      rect {
        width: 666.67px;
        height: 412.02px;
        fill: rgb(36, 32, 33);
      }

      .star {
        fill: rgb(0, 173, 250);
        stroke: rgb(0, 173, 250);
        stroke-width: 3px;
      }

      .displate {
        fill: rgb(255, 255, 255);
      }

      .star,
      .displate {
        transform: translate(0, 92px);
      }

    ]]></style>

  </defs>

  <rect />

  <path class="displate" d="m 64.18326,202.5645 c -3.19921,-0.62884 -8.89921,-2.87694 -12.666668,-4.99576 -5.598865,-3.14883 -7.641357,-5.36979 -11.183257,-12.16042 -4.743979,-9.09528 -5.682662,-17.29529 -2.301112,-20.10173 2.341248,-1.94305 2.276692,-1.98812 5.095171,3.55687 2.740457,5.39149 11.379685,9.60408 23.100111,11.26389 25.950802,3.67509 64.155615,-8.64189 83.797265,-27.01568 9.97716,-9.33315 14.5135,-16.32532 18.1299,-27.94487 2.32646,-7.4749 3.53967,-26.361355 1.80483,-28.0962 -0.38896,-0.388948 -12.83896,3.41545 -27.66667,8.45421 -50.684131,17.22351 -54.29271,18.61615 -54.294554,20.95357 -0.0031,3.90867 -6.65155,29.75706 -8.840044,34.36897 -2.599691,5.47844 -5.211331,5.67661 -14.966,1.1356 -5.747641,-2.67567 -6.950615,-3.77887 -6.164902,-5.65365 1.418021,-3.38352 6.806558,-20.37336 7.822052,-24.66263 L 66.717474,128 H 57.600739 C 45.517946,128 35.712031,124.93748 29.32826,119.17013 23.045334,113.49389 20.853465,107.41467 21.016843,96.118171 21.361679,72.275176 45.83494,47.797366 80.000003,37.124046 88.413466,34.495642 92.855771,34 108,34 c 16.29894,0 19.12532,0.368802 29.90756,3.902494 20.61333,6.75566 38.31577,20.941428 47.09014,37.73547 2.01793,3.862302 3.99708,7.023793 4.39809,7.025536 0.40102,0.0017 7.87291,-2.396832 16.60422,-5.330166 16.66374,-5.598286 21.75592,-6.377416 24.4,-3.733333 2.39852,2.398517 2.02864,6.662032 -3.06667,35.348799 -4.97484,28.00851 -5.62463,36.22658 -3.06667,38.78454 2.0265,2.02649 7.93746,2.05733 12.31186,0.0643 2.81208,-1.28126 3.20916,-2.10988 2.39607,-5 -2.42239,-8.61049 0.96322,-20.41842 6.34412,-22.12625 7.72544,-2.45196 12.77984,4.94293 11.44466,16.74427 -0.81249,7.18146 -0.64904,7.81414 2.69903,10.44773 4.19773,3.30193 9.80995,3.59287 15.23096,0.78956 4.91685,-2.54261 6.63997,-5.75669 6.63997,-12.3854 0,-6.55777 -2.42544,-9.70594 -16.5971,-21.5427 -15.61,-13.03812 -18.51104,-20.74229 -11.51191,-30.571667 3.47767,-4.883935 14.58343,-10.739305 22.84649,-12.045519 13.44131,-2.124784 27.13859,3.348017 31.55418,12.607583 2.0503,4.299546 2.04841,4.940765 -0.0275,9.293961 -2.22659,4.669191 -9.11776,9.976462 -12.96608,9.985892 -1.53929,0.004 -1.93145,-1.21341 -1.60933,-4.995019 0.53416,-6.271089 -3.55999,-13.248894 -8.50131,-14.489089 -8.22505,-2.064356 -14.52552,4.585741 -11.76947,12.422567 0.69636,1.980078 6.92487,8.493291 13.84112,14.473801 13.96355,12.07429 17.40755,17.14408 17.40755,25.625 0,14.12352 -12.22143,25.31335 -30.26063,27.70634 -8.48516,1.1256 -19.98302,-2.03058 -24.35644,-6.68587 l -3.16028,-3.36396 -4.65772,3.55261 c -9.92791,7.57239 -23.18512,9.309 -31.03443,4.06532 -10.36297,-6.92292 -11.29542,-16.15314 -5.19602,-51.43452 2.19906,-12.720273 3.66301,-23.670273 3.25322,-24.333336 -0.99802,-1.614832 -6.76552,-1.511555 -13.05078,0.233697 -4.41804,1.226774 -5.00724,1.826954 -4.24674,4.325898 1.82968,6.012112 2.33891,27.056711 0.83048,34.321491 -3.56126,17.15164 -14.52234,33.76277 -31.08358,47.10608 -28.01455,22.57117 -69.455669,35.4238 -96.85383,30.03843 z M 70.356449,112 c 0.932979,-4.76667 1.957334,-15.489548 2.276344,-23.828627 0.319012,-8.339079 0.889932,-15.471873 1.268714,-15.850653 1.394546,-1.394547 12.850827,2.786217 16.238753,5.926041 3.423806,3.173076 3.476009,3.478172 2.537419,14.829818 C 92.150611,99.451128 91.272123,107.51667 90.725482,111 c -0.698884,4.45347 -0.539759,6.33334 0.536099,6.33334 3.418081,0 73.660189,-24.751457 75.889629,-26.741496 1.72729,-1.541811 -4.39094,-12.844692 -10.84406,-20.033431 -12.7642,-14.219246 -26.88027,-19.891746 -49.50079,-19.891746 -8.382534,0 -17.516922,0.835046 -22.192892,2.028826 C 65.7636,57.507882 50.280151,68.638852 42.613205,82.88926 c -3.862241,7.178676 -4.548302,9.788427 -4.578125,17.41501 -0.03247,8.30461 0.276675,9.28295 4.162113,13.17155 4.589137,4.59288 14.270396,7.90821 21.799537,7.46523 C 68.627,120.66862 68.672176,120.6051 70.356449,112 Z m 240.976891,90.12999 c -6.22209,-2.74651 -9.2482,-6.92128 -8.88849,-12.26244 0.17275,-2.56501 4.49332,-29.15731 9.60128,-59.09399 5.10797,-29.93669 9.28721,-55.107563 9.28721,-55.935283 0,-0.961633 3.09443,-1.504943 8.57143,-1.504943 9.13127,0 12.76191,1.915347 12.76191,6.732539 0,2.297714 0.60183,2.160395 6.26104,-1.428571 12.16128,-7.712454 24.83623,-4.071477 31.26305,8.980554 2.68162,5.445987 3.14258,8.386484 3.14258,20.046474 0,7.99592 0.52328,13.49087 1.26141,13.24619 0.69377,-0.22997 3.17957,-3.97892 5.524,-8.33099 3.69187,-6.8534 4.99828,-12.28662 9.75732,-40.579529 3.02211,-17.966667 5.80425,-34.042591 6.18253,-35.724275 0.64987,-2.88904 1.21852,-3.036056 10.3146,-2.666667 9.41631,0.382393 9.63608,0.471652 10.05107,4.082123 0.40727,3.543412 -2.0344,18.918883 -10.50601,66.157388 -3.99227,22.26127 -5.03108,40.91409 -2.53802,45.57242 2.53595,4.73845 8.66302,3.32281 15.33617,-3.54336 5.91552,-6.08661 5.95036,-6.17809 5.96609,-15.66666 0.0768,-46.315338 44.51676,-78.695339 60.21991,-43.877635 2.08652,4.626334 3.21741,5.670414 6.15998,5.687084 7.2486,0.04105 7.66912,1.195781 5.17516,14.210551 -4.30301,22.45531 -2.15552,36.20477 7.18895,46.02785 2.92864,3.07862 5.06084,6.28533 4.73825,7.12598 -0.87153,2.27118 -9.34933,5.94926 -13.69958,5.94355 -5.61896,-0.008 -11.79675,-4.3796 -15.77154,-11.16205 l -3.51672,-6.00083 -4.92178,5.45983 c -5.37322,5.9606 -16.10447,11.67444 -21.96462,11.69501 -5.94624,0.0209 -12.32004,-3.32957 -16.32634,-8.58211 l -3.7207,-4.87808 -5.45506,5.24755 c -7.13653,6.86504 -10.02026,8.22567 -17.43363,8.22567 -15.54758,0 -25.27624,-11.24783 -25.0832,-29 0.0579,-5.31667 -0.27963,-9.64229 -0.7499,-9.61248 -2.82114,0.17879 -9.73268,8.52865 -13.29738,16.06464 -9.99444,21.12876 -29.52432,29.78862 -41.64511,18.46612 -2.35319,-2.1982 -4.58715,-3.6881 -4.96436,-3.31088 -0.9971,0.99708 -6.91464,36.61272 -6.93279,41.72593 -0.0136,3.8474 -0.42655,4.32748 -3.68204,4.28115 -2.01667,-0.0287 -5.46667,-0.84674 -7.66667,-1.81783 z m 40.33334,-57.77876 c 2.38333,-2.63753 4.33333,-5.17111 4.33333,-5.63017 0,-0.45906 -2.6662,-1.54775 -5.92489,-2.41931 -3.25871,-0.87157 -8.05871,-3.45817 -10.66667,-5.748 l -4.74177,-4.16333 v 7.53768 c 0,16.2741 7.53711,20.8953 17,10.42313 z m 120.54538,2.43484 c 6.74538,-5.30593 14.38313,-26.90275 14.42404,-40.78607 0.022,-7.455172 -2.1599,-14.489087 -5.4055,-17.426313 -2.69217,-2.436383 -2.86252,-2.433366 -7.53494,0.133454 -9.16668,5.035758 -16.36231,23.337069 -16.36231,41.615819 0,12.92428 2.48183,19.01038 7.75215,19.01038 2.13853,0 5.34548,-1.14627 7.12656,-2.54727 z M 364.06117,115.67749 c 2.50578,-13.21285 0.68514,-25.137353 -4.24046,-27.773453 -3.68948,-1.974546 -9.21891,0.391928 -13.06228,5.590367 -3.71431,5.023859 -9.39482,17.123976 -9.41206,20.048706 -0.0181,3.07658 12.17768,13.73278 17.55038,15.33479 4.15706,1.23954 4.54546,1.07669 6.16442,-2.58469 0.95031,-2.14917 2.30031,-6.92624 3,-10.61572 z m 171.27218,47.63046 c -6.59825,-3.31392 -12.38857,-10.91984 -14.08539,-18.50203 -1.61762,-7.22832 -0.47694,-18.17649 5.21534,-50.056269 l 2.39555,-13.416317 h -10.51707 c -12.09054,0 -15.6751,-1.382801 -15.6751,-6.046912 0,-3.282533 0.0164,-3.286421 13.87954,-3.286421 h 13.87953 l 1.50248,-9 c 0.82636,-4.95 2.24708,-13.5 3.15716,-19 L 536.74007,34 l 9.59011,-0.390941 c 9.2562,-0.377329 9.61923,-0.274959 10.42617,2.940163 0.71508,2.849113 -2.27958,26.03218 -4.27793,33.117446 -0.57423,2.03596 0.36077,2.333333 7.33651,2.333333 8.44233,0 13.04798,2.494841 11.5951,6.280968 -0.40884,1.065423 -0.74334,2.18806 -0.74334,2.494748 0,0.306689 -4.48858,0.557617 -9.9746,0.557617 -9.25448,0 -10.0235,0.216586 -10.65182,3.000001 -6.48212,28.714875 -9.37429,58.780845 -6.22054,64.666665 3.34016,6.23376 11.73169,2.9839 19.32825,-7.48542 3.86835,-5.33124 4.58457,-7.55638 5.2084,-16.18124 1.45245,-20.08173 11.3752,-41.2583 23.3256,-49.780212 7.57539,-5.402063 18.80232,-6.402884 25.39828,-2.26412 11.60115,7.279384 10.81883,30.813982 -1.56397,47.048922 -5.93824,7.78556 -14.76991,14.17787 -20.95462,15.16685 -5.7159,0.91401 -5.89442,1.23024 -3.80617,6.74176 3.77955,9.9753 12.07847,13.18006 21.86381,8.44306 8.42245,-4.07722 15.71901,-13.05056 23.59971,-29.02293 C 639.92772,114.15 643.42216,108 643.98446,108 c 0.56231,0 1.72424,0.8457 2.58208,1.87934 1.22024,1.4703 0.6799,4.15467 -2.48264,12.33333 -10.29861,26.63343 -27.90956,43.12067 -46.0596,43.12067 -7.81217,0 -18.22521,-5.55595 -22.80848,-12.1696 l -3.75236,-5.41466 -5.89501,6.84234 c -3.24227,3.76328 -7.59175,7.71973 -9.66551,8.79212 -4.88016,2.52362 -15.47184,2.4847 -20.56959,-0.0756 z m 67.52734,-41.49381 c 8.16261,-7.82029 14.60722,-28.165627 10.49232,-33.123787 -6.91427,-8.331179 -21.78024,11.485747 -23.66192,31.542277 l -0.70984,7.56596 4.99157,-1.12579 c 2.74537,-0.61918 6.74491,-2.80558 8.88787,-4.85866 z" />

  <path class="star" d="M 216.32667,56.506851 c 0.53652,-4.212441 0.0419,-5.837785 -2.66292,-8.749302 l -3.32185,-3.575786 4.87804,-0.915126 c 3.76832,-0.706942 5.41108,-1.95411 7.22111,-5.482227 l 2.34306,-4.567102 2.17322,4.557269 c 1.70926,3.58437 3.22577,4.75473 7.10366,5.482226 l 4.93046,0.92496 -3.46018,3.611635 c -2.90826,3.035588 -3.32994,4.414059 -2.64374,8.642575 l 0.8164,5.03094 -4.88992,-2.331841 c -4.6795,-2.231495 -5.06758,-2.226902 -9.0181,0.106733 l -4.12817,2.438571 0.65893,-5.173519 z" />

</svg>
