<svg xmlns="http://www.w3.org/2000/svg"
     xmlns:xlink="http://www.w3.org/1999/xlink"
     lang="en-GB"
     viewBox="0 0 300 300">

  <title>Menu Icon</title>

  <defs>

    <style><![CDATA[

      rect {
        width: 300px;
        height: 300px;
        fill: rgb(191, 0, 0);
      }

      path {
        fill: rgb(255, 255, 255);
      }

    ]]></style>

  </defs>

  <rect x="0" y="0"></rect>
  <path d="m 243.70068,277.55954 c -5.65233,-2.08763 -8.64414,-4.58717 -12.05782,-10.07386 l -3,-4.82179 -0.3176,-22.83194 L 228.00766,217 h 9.4952 9.49519 l 0.32241,20.97929 0.3224,20.97928 2.68939,2.68738 c 2.15851,2.1569 3.6209,2.68738 7.40827,2.68738 3.89616,0 5.12714,-0.47464 7.0606,-2.72243 2.29446,-2.66746 2.34174,-3.14532 2.34174,-23.66666 V 217 h 10 10 v 20.34107 c 0,27.04503 -1.65794,32.43408 -11.81535,38.40507 -4.2781,2.51487 -5.68266,2.77623 -16.18465,3.01163 -8.15005,0.18268 -12.64836,-0.16636 -15.44218,-1.19823 z M 15.14286,247.5 V 217 h 12.96145 12.96146 l 0.97385,3.75 c 0.53562,2.0625 2.42619,9.375 4.20126,16.25 1.77507,6.875 3.49514,12.81845 3.82237,13.20768 0.32723,0.38922 2.5653,-6.92328 4.97349,-16.25 L 59.41528,217 h 12.86379 12.863787 v 30.5 30.5 h -7.999997 -8 l -0.0784,-21.75 -0.0784,-21.75 -5.67161,21.78713 -5.67159,21.78714 -7.5,-0.28714 -7.5,-0.28713 -5.16327,-20 -5.16327,-20 -0.0867,20.25 -0.0867,20.25 h -8.5 -8.5 z m 80.999997,0 V 217 h 25.500003 25.5 v 6.5 6.5 h -16 -16 v 5 5 h 15 15 v 6 6 h -15 -15 v 6 6 h 16.5 16.5 v 7 7 h -26 -26.000003 z m 61.000003,0 V 217 h 9.45316 9.45315 l 10.79685,15.98222 10.79684,15.98222 0.27477,-15.98222 L 198.1924,217 h 8.97523 8.97523 v 30.5 30.5 l -9.25,-0.0275 -9.25,-0.0275 -10.5,-15.55109 -10.5,-15.55109 -0.27539,15.57861 -0.2754,15.57862 h -9.4746 -9.47461 v -30.5 z m -142,-90 V 139 h 136 136 v 18.5 18.5 h -136 -136 z m 0,-59.000003 V 80 h 136 136 V 98.499997 117 h -136 -136 z m 0,-57.999997 V 22 h 136 136 V 40.5 59 h -136 -136 z" />

</svg>
