<svg xmlns="http://www.w3.org/2000/svg"
     xmlns:xlink="http://www.w3.org/1999/xlink"
     viewBox="0 0 683.64 376">

<defs>
<style type="text/css"><![CDATA[

path {
stroke-width: 1.33333325;
}

path:nth-of-type(-n+6) {
fill: rgb(255, 255, 255);
}

path:nth-of-type(n+7) {
fill: rgb(63, 0, 0);
}

path:nth-of-type(1),
path:nth-of-type(8),
path:nth-of-type(9) {
fill: rgb(0, 100, 185);
}

rect:nth-of-type(1) {
fill: rgb(0, 100, 185);
}

rect:nth-of-type(2) {
fill: rgb(255, 255, 255);
}

path,
rect:nth-of-type(2) {
transform: translate(45.1515px, 0);
}

path:nth-of-type(13) {
fill: rgb(187, 11, 11);
transform: translate(66px, 57px);
}

]]></style>
</defs>

<rect x="0" y="0" width="683.64" height="377" />
<rect x="2px" y="2px" width="591.33331" height="376" />
<path d="M 0.71619714,188.7162 V 0.71619048 H 297.38285 594.04946 V 188.7162 v 188 h -9.9634 -9.9634 l -0.37,-112.33333 -0.3699,-112.33334 4.2297,-7.33333 c 4.4071,-7.64105 7.7163,-19.70674 6.9073,-25.18457 -0.4672,-3.16321 -0.5091,-3.15204 -6.2631,1.66667 -3.1861,2.66818 -6.3907,4.85123 -7.1214,4.85123 -0.7307,0 -3.6423,-1.98044 -6.4701,-4.40098 -4.4821,-3.83653 -16.5002,-8.93235 -21.06615,-8.93235 -3.0239,0 -1.4314,3.05413 8.39395,16.09741 12.7708,16.95334 13.6531,18.56926 10.1391,18.56926 -2.544,0 -2.6964,0.98378 -3.047,19.66666 -0.3073,16.37946 -0.7014,19.66667 -2.358,19.66667 -1.6937,0 -1.9218,-2.92001 -1.5363,-19.66667 0.3986,-17.3162 0.1981,-19.66666 -1.6777,-19.66666 -2.6149,0 -2.6999,-1.13799 -0.2912,-3.89502 1.6024,-1.83404 0.6156,-3.94598 -7.6666,-16.40764 -6.92985,-10.42694 -10.58965,-14.70522 -13.50575,-15.78825 -2.2,-0.81708 -5.5,-2.09965 -7.3333,-2.85015 l -3.3334,-1.36456 3,-1.13756 c 3.371,-1.27821 3.7471,-2.6098 1.4,-4.95682 -1.0964,-1.096412 -1.1683,-2.031702 -0.2284,-2.971587 0.9399,-0.93988 2.4539,-0.52021 4.8103,1.333335 3.7409,2.942592 11.5274,3.596552 15.77245,1.324662 1.7775,-0.951292 2.579,-2.796487 2.579,-5.937327 0,-3.998495 -0.5312,-4.708835 -4.33335,-5.795069 -2.3833,-0.68089 -8.4547,-2.809092 -13.492,-4.729339 -5.0374,-1.920245 -9.6296,-3.491356 -10.205,-3.491356 -0.9267,0 -8.659,11.552684 -17.0688,25.502491 l -2.9154,4.83581 15.4388,19.16419 15.4388,19.16419 -0.9524,6.66666 c -0.5238,3.66667 -1.3179,20.46667 -1.7648,37.33334 l -0.8125,30.66666 h -22 -22 l -0.6667,-36.51812 -0.6666,-36.51812 3.2173,-4.731 c 4.0603,-5.97046 8.116,-18.85035 8.116,-25.77415 v -5.30381 l -5.804,4.75594 c -3.1922,2.61576 -6.6555,4.75593 -7.6962,4.75593 -1.0407,0 -4.0927,-1.81384 -6.7822,-4.03076 -7.588,-6.25467 -23.7906,-10.89009 -22.0299,-6.30257 0.3518,0.91666 5.216,7.78673 10.8093,15.26682 10.0738,13.47194 12.0369,17.73318 8.1697,17.73318 -1.6855,0 -2,3.02829 -2,19.25464 0,17.58113 -0.9834,23.21433 -3.3766,19.34214 -0.4917,-0.79569 -0.8049,-9.81345 -0.6959,-20.03948 0.1693,-15.88564 -0.1105,-18.71124 -1.9223,-19.40644 -1.9345,-0.74237 -1.9354,-1.01809 -0.01,-3.14612 1.9531,-2.1581 1.4252,-3.3667 -7.0624,-16.1686 -10.3239,-15.57181 -11.2196,-16.49516 -17.2513,-17.78476 -5.4068,-1.156 -6.6581,-3.04365 -3.5325,-5.32915 1.9855,-1.45178 2.1166,-2.12835 0.7355,-3.79258 -2.3674,-2.852467 0.5976,-4.452287 3.5324,-1.906027 5.8469,5.072847 18.0035,3.460317 19.5219,-2.58951 0.5514,-2.19703 0.228,-4.16559 -0.8616,-5.245221 -2.3112,-2.289902 -27.3361,-10.954384 -28.7749,-9.96284 -2.0168,1.389718 -17.6363,27.276498 -17.6363,29.228878 0,1.04564 5.591,8.87104 12.4246,17.38978 17.5476,21.87498 17.4062,21.62026 16.1855,29.15286 -0.5647,3.48467 -1.383,20.13576 -1.8184,37.00243 l -0.7917,30.66666 -22.1342,0.36467 -22.1341,0.36467 -0.7214,-36.84174 -0.7215,-36.84173 3.8477,-6.1896 c 3.6814,-5.9222 9.1768,-25.98735 7.5601,-27.60405 -0.4224,-0.42238 -3.5728,1.37309 -7.0011,3.98991 -3.4282,2.61683 -6.6792,4.75787 -7.2243,4.75787 -0.5452,0 -3.3492,-2.00262 -6.2312,-4.45027 -7.22324,-6.13461 -23.24003,-11.36978 -23.24003,-7.59612 0,0.70781 1.7137,3.25781 3.8082,5.66667 6.92592,7.96535 18.92783,25.5048 18.44463,26.95462 -0.2613,0.78381 -1.3251,1.4251 -2.3639,1.4251 -1.5276,0 -1.9595,3.76187 -2.2579,19.66667 -0.3203,17.07001 -0.6536,19.66667 -2.52423,19.66667 -1.91848,0 -2.07697,-2.12544 -1.44276,-19.34827 0.60008,-16.29564 0.39804,-19.52424 -1.28054,-20.46363 -1.62851,-0.91134 -1.69379,-1.5945 -0.35698,-3.73509 1.43386,-2.29596 0.50339,-4.32451 -7.52857,-16.41341 -9.55544,-14.38191 -9.83457,-14.65487 -18.49795,-18.08916 -4.66101,-1.8477 -5.02893,-2.28607 -2.91861,-3.47746 1.83408,-1.03545 2.20937,-2.29819 1.56072,-5.25145 -1.00804,-4.589587 -0.23263,-4.808467 4.3274,-1.221542 3.71284,2.920522 12.16344,3.581322 16.45148,1.286422 1.73865,-0.930492 2.57901,-2.794007 2.57901,-5.718997 0,-4.324353 -0.0488,-4.355777 -14.71196,-9.463354 -8.09158,-2.818527 -14.92214,-4.894976 -15.17905,-4.614333 -1.48041,1.617266 -18.10805,29.320834 -18.10349,30.162524 0.003,0.55793 6.64318,9.11441 14.75593,19.01441 l 14.75047,18 -0.77188,10.66667 c -0.42435,5.86667 -1.14475,23.11667 -1.60089,38.33333 l -0.82936,27.66667 h -21.6073 -21.60729 L 301.606,187.90837 c -0.84105,-35.5272 -0.77768,-36.9394 1.82129,-40.58933 4.10904,-5.7706 6.54808,-12.46277 7.75282,-21.27198 1.26817,-9.2731 0.42632,-9.79062 -6.41456,-3.94334 -5.46866,4.67437 -8.07832,4.93221 -11.51037,1.13727 -3.65284,-4.03907 -11.59356,-7.77942 -18.53572,-8.73094 -7.15258,-0.98037 -7.58432,0.29618 -2.19607,6.49309 7.06753,8.12822 18.81633,25.36921 18.08933,26.54551 -0.39686,0.64215 -1.57013,1.16755 -2.60724,1.16755 -1.52344,0 -1.95654,3.77799 -2.25465,19.66667 -0.48315,25.75205 -2.90253,25.79366 -3.40728,0.0587 -0.25747,-13.12738 -0.87189,-19.2602 -2,-19.96292 -1.27111,-0.79178 -1.24241,-1.63681 0.1308,-3.85166 1.60032,-2.58119 0.87808,-4.15471 -8,-17.4292 -9.02379,-13.49239 -10.20588,-14.7223 -15.68767,-16.32225 -5.8775,-1.71545 -8.96409,-4.82597 -4.78885,-4.82597 1.76567,0 2.00547,-0.88516 1.28305,-4.73601 l -0.88849,-4.736017 5.04359,3.422667 c 4.04477,2.74487 5.99106,3.25193 9.82806,2.56052 7.4066,-1.33466 9.45115,-2.866712 9.45115,-7.082097 0,-2.38777 -0.87117,-4.155741 -2.33333,-4.735297 -13.34211,-5.28841 -26.841,-9.59896 -27.86099,-8.896742 -1.95352,1.34492 -17.80568,27.599276 -17.80568,29.489776 0,0.92173 6.64235,9.85927 14.76077,19.8612 l 14.76079,18.18534 -0.94968,8.66666 c -0.52231,4.76663 -1.31467,21.56663 -1.76077,37.3333 l -0.81111,28.66666 -32.33333,0.35704 -32.33333,0.35704 -0.0717,2.9763 c -0.0395,1.63696 -0.18942,35.67629 -0.33333,75.64296 l -0.26167,72.66666 h -4.66666 -4.66667 l -0.24456,-56.66666 c -0.13451,-31.16667 -0.80397,-66.26667 -1.48771,-78 l -1.24316,-21.33334 6.47374,-9.53101 c 12.02537,-17.70447 20.36653,-45.32091 19.55732,-64.75164 l -0.38896,-9.33956 -13.98787,11.47777 c -17.19995,14.11346 -18.52188,14.31228 -29.11112,4.37858 -10.67621,-10.01531 -13.91225,-11.92254 -28.31069,-16.68547 -8.84403,-2.92559 -15.29678,-4.21533 -21.08978,-4.21533 -8.0371,0 -8.31302,0.11132 -7.43557,3 1.12346,3.69854 6.07106,10.61656 12.63477,17.66666 2.73096,2.93334 11.32599,14.33334 19.10007,25.33334 7.77408,11 15.34139,21.5 16.81625,23.33333 1.47486,1.83333 2.68962,4.70931 2.69946,6.39104 0.0159,2.71655 -0.54,3.01408 -4.98212,2.66667 l -5,-0.39104 -1.17798,45 -1.17797,45 h -3.28189 -3.2819 l 0.98198,-45.51238 0.98197,-45.51237 -4.24747,0.6234 c -6.20109,0.91012 -6.42419,-1.16896 -0.74908,-6.9808 l 5.02047,-5.14143 -19.8674,-30.20449 C 92.492237,129.01658 91.738697,128.10689 83.716287,126.17304 c -11.07687,-2.67015 -21.66776,-7.04612 -21.66776,-8.95274 0,-1.04832 1.36811,-1.83743 3.18562,-1.83743 1.75209,0 4.60209,-1.148 6.33333,-2.55112 l 3.14772,-2.55111 -3,-4.06156 c -2.72362,-3.68738 -4.16898,-10.836227 -2.19088,-10.836227 0.44501,0 3.82218,2.39904 7.5048,5.331197 9.2368,7.35445 15.08612,8.935 25.276973,6.83012 18.96391,-3.91694 21.33181,-6.12784 20.75329,-19.377301 L 122.7152,80.284216 97.381857,71.179174 C 56.292097,56.410761 56.811167,56.570737 54.327547,57.909625 c -2.30719,1.243776 -41.42413,63.802625 -42.52362,68.007075 -0.37136,1.42009 3.08528,6.86625 9.15788,14.42885 5.36491,6.68125 20.44385,25.40861 33.50875,41.61634 16.72398,20.74704 23.95662,30.74407 24.43776,33.77812 0.37587,2.37024 -0.86359,20.96799 -2.75436,41.32835 -2.82436,30.41357 -3.43776,44.39057 -3.43776,78.33333 v 41.31451 h -36 H 0.71619714 Z M 177.38286,150.29584 c 2.2,-2.05773 11.5,-10.54333 20.66667,-18.85686 9.16666,-8.31353 17.41617,-16.17788 18.33225,-17.47633 1.45689,-2.06502 0.39542,-3.71099 -8.47185,-13.13696 -5.57559,-5.926897 -10.84291,-10.776168 -11.70516,-10.776168 -0.86227,0 -6.34994,5.761171 -12.19483,12.802618 -5.84489,7.04143 -11.75064,14.09143 -13.12388,15.66666 -1.37323,1.57524 -5.81472,6.94366 -9.86997,11.92982 l -7.37319,9.06575 7.86999,7.26707 c 4.32848,3.99689 8.76997,7.26453 9.86997,7.26141 1.1,-0.003 3.8,-1.68926 6,-3.74701 z m -27.32177,-15.91297 c 0.007,-0.55 1.97446,-3.1 4.37354,-5.66667 10.18363,-10.89495 34.28156,-41.809814 34.28156,-43.979266 0,-2.989596 -24.37625,-22.970982 -26.86046,-22.017705 -0.9971,0.382624 -3.60704,3.538468 -5.79988,7.012987 -2.19283,3.474518 -11.29778,17.031725 -20.2332,30.127132 -8.93542,13.095402 -15.95928,24.557592 -15.60857,25.471522 1.49964,3.908 29.80722,12.49312 29.84701,9.052 z m -37.84602,-12.02042 c 2.32857,-1.52182 7.15726,-10.04709 7.16281,-12.64625 0.007,-3.28446 -4.30382,-2.99701 -16.82482,1.12191 -7.813463,2.57032 -12.125573,3.26937 -16.836863,2.72949 -6.28807,-0.72057 -8.47278,0.64325 -4,2.49704 4.56749,1.89305 23.711403,7.12932 26.333333,7.20273 1.46667,0.0411 3.34116,-0.36615 4.16554,-0.90492 z m 204.54532,-18.88007 c -0.62298,-1.15473 -2.60983,-3.48089 -4.41524,-5.169237 l -3.28258,-3.06971 -9.10216,10.912937 -9.10215,10.91292 3.68033,3.16569 3.68034,3.1657 9.83707,-8.90939 c 7.50943,-6.80126 9.56905,-9.40619 8.70439,-11.00891 z m 83.17742,10.04953 9.2215,-8.4126 -3.7131,-4.86823 c -2.0423,-2.677527 -4.1865,-4.868227 -4.7651,-4.868227 -0.5785,0 -4.9553,4.650007 -9.7263,10.333347 l -8.6744,10.33333 2.7836,3 c 1.531,1.65 3.4291,2.97638 4.2179,2.9475 0.7889,-0.0289 5.584,-3.83818 10.6559,-8.46512 z m 92.4953,-1.82452 8.3837,-7.6936 -4.6741,-5.102892 -4.6741,-5.102895 -6.9242,8.454097 c -3.8083,4.64976 -7.8263,9.51039 -8.9289,10.8014 -1.8075,2.11652 -1.7027,2.6686 1.0654,5.61512 3.6682,3.90469 4.1176,3.70583 15.7522,-6.97123 z m 87.93015,2.78337 c 4.7353,-4.15732 8.9298,-8.39314 9.3211,-9.41293 0.7078,-1.84452 -6.0472,-10.059207 -7.7156,-9.382837 -1.4302,0.57982 -17.2526,19.324247 -17.2526,20.438737 0,1.38072 4.3682,5.73737 5.8521,5.83656 0.652,0.0436 5.0598,-3.3222 9.795,-7.47953 z" />

<path d="M 297.32768,103.4503 c 4.06368,-4.967027 7.38851,-9.652017 7.38851,-10.411077 0,-1.936725 -9.25919,-9.859574 -10.57336,-9.047365 -1.6098,0.994911 -17.42664,24.503612 -17.42664,25.901352 0,2.07573 9.81175,5.37525 11.61149,3.90474 0.88632,-0.72418 4.93632,-5.38062 9,-10.34765 z m 91.18663,-0.64097 8.5079,-10.545317 -5.1425,-4.444087 c -2.8284,-2.444245 -5.7472,-4.261572 -6.4863,-4.038505 -1.3225,0.399121 -17.97714,24.834949 -17.99922,26.408569 -0.0152,1.07755 8.13422,3.67594 10.63382,3.39054 1.0881,-0.12424 5.807,-4.97128 10.4863,-10.7712 z m 181.32485,0.74354 c 4.5157,-5.406507 8.2103,-10.312817 8.2103,-10.902937 0,-1.14904 -9.4064,-9.267077 -10.7378,-9.267077 -0.4382,0 -4.8065,6.026848 -9.7073,13.392997 l -8.9106,13.393007 4.3445,1.91398 c 2.3895,1.05269 5.2999,1.77584 6.4676,1.607 1.1676,-0.16883 5.8176,-4.73047 10.3333,-10.13697 z m -90.58795,-0.50334 c 4.4442,-5.316677 8.0919,-10.366257 8.106,-11.221297 0.014,-0.855051 -2.2936,-3.391516 -5.1283,-5.636597 -4.8273,-3.82333 -5.2799,-3.93603 -7.1435,-1.778706 -3.5661,4.128103 -15.7026,22.81432 -15.7026,24.1768 0,1.96748 4.1727,4.03976 8.2273,4.08592 2.8104,0.032 5.2633,-1.99637 11.6411,-9.62612 z m -205.66179,3.60917 c 1.22278,-3.18654 -0.012,-3.4958 -6.75751,-1.69179 -4.70503,1.2584 -5.65251,1.90281 -3.84603,2.6158 4.29846,1.69655 9.78128,1.21877 10.60354,-0.92401 z m 91.12677,-0.60917 c 1.19266,-2.22851 1.01398,-2.66666 -1.08746,-2.66666 -1.38304,0 -4.52348,0.70029 -6.97874,1.5562 -3.90004,1.35956 -4.13579,1.68468 -1.86563,2.57295 4.67225,1.82818 8.47,1.26895 9.93183,-1.46249 z m 91.19092,-0.34874 c 2.1692,-3.43896 0.2829,-3.97014 -6.7168,-1.89144 l -6.4741,1.92263 4.6666,1.36531 c 5.6062,1.64018 6.7243,1.457 8.5243,-1.3965 z m 89.87565,1.41541 c 0.88,-0.88 1.6,-2.42043 1.6,-3.42318 0,-1.85524 -1.798,-1.59554 -9.33325,1.34807 -3.1695,1.23812 -3.2022,1.35585 -0.6667,2.39491 3.8933,1.59542 6.5874,1.49286 8.39995,-0.3198 z" />

<path d="M 141.71715,80.974857 c 17.31396,-24.714756 16.6022,-22.376016 8.92499,-29.326659 -15.93831,-14.429873 -20.48426,-17.797876 -23.44146,-17.367284 -2.22423,0.323866 -5.29933,4.359848 -12.01442,15.768608 -4.96377,8.433334 -9.05018,16.056 -9.08089,16.939258 -0.0307,0.883258 4.46604,3.751741 9.99278,6.374406 11.20062,5.315158 12.61804,7.349108 12.61804,18.106467 0,3.61893 0.23384,6.57987 0.51965,6.57987 0.2858,0 5.90239,-7.683601 12.48131,-17.074666 z m 144.12469,7.883391 5.51204,-7.85794 -5.32269,-4.808727 c -2.92748,-2.644799 -6.07096,-4.808115 -6.98551,-4.807369 -1.43354,0.0012 -8.99616,11.639058 -8.99616,13.843924 0,0.43208 2.1,1.663036 4.66667,2.735457 3.60421,1.50594 4.66667,2.724239 4.66667,5.35123 0,1.87075 0.21306,3.40137 0.47348,3.40137 0.26041,0 2.95389,-3.53608 5.9855,-7.857945 z m 91.80057,-1.124523 4.7049,-7.354993 -5.8156,-5.103899 c -3.19851,-2.807144 -6.2817,-4.975823 -6.85147,-4.819288 -0.56977,0.156536 -2.83367,3.432299 -5.03088,7.279473 l -3.99493,6.994862 4.69754,2.240105 c 4.39147,2.094147 5.37394,3.787127 4.76635,8.213338 -0.44065,3.21008 2.68453,0.11584 7.52409,-7.449598 z m 90.3717,0.666928 c 2.5861,-3.840211 4.7021,-7.689793 4.7021,-8.554627 0,-2.355884 -10.1308,-9.91847 -12.2152,-9.118605 -2.3518,0.902468 -8.2904,12.092051 -7.2828,13.722351 0.4257,0.688892 2.587,2.003446 4.8027,2.921234 2.8858,1.195344 4.0286,2.56838 4.0286,4.840277 0,1.74437 0.2841,3.17157 0.6312,3.17157 0.3472,0 2.7472,-3.14199 5.3334,-6.9822 z m 94.18555,-4.671509 c 1.7966,-3.312907 0,-6.153622 -7.1094,-11.21856 l -3.6258,-2.584466 -4.0155,6.395035 c -2.2085,3.517271 -4.02685,7.036756 -4.04075,7.82108 -0.014,0.784324 1.92455,2.284324 4.30795,3.333333 2.8988,1.275899 4.4869,2.996503 4.7974,5.197567 0.4612,3.26954 0.4881,3.26114 4.2652,-1.333339 2.0906,-2.542982 4.53,-5.967776 5.4209,-7.61065 z" />

<path d="M 270.24962,76.614557 c 1.97466,-3.244103 3.63002,-6.498368 3.6786,-7.231701 0.13093,-1.977578 -9.1765,-7.632274 -11.25174,-6.835931 -2.61564,1.003716 -11.43146,14.564756 -10.24174,15.754477 1.45462,1.454622 11.37256,4.945406 12.91968,4.547299 0.71769,-0.184677 2.92053,-2.990043 4.8952,-6.234144 z" />

<path d="M 361.27589,75.869 c 1.89216,-3.385444 3.4403,-6.600048 3.4403,-7.143567 0,-1.710176 -10.1779,-7.806917 -11.49667,-6.886707 -1.76383,1.230766 -9.83667,14.164088 -9.83667,15.75912 0,1.329435 11.9092,5.569642 13.55971,4.827862 0.49117,-0.220746 2.44117,-3.171264 4.33333,-6.556708 z m 181.70252,0.167854 4.26215,-7.293425 -4.26215,-3.150245 c -2.3442,-1.732635 -4.9796,-3.553974 -5.8563,-4.047419 -1.7996,-1.012872 -13.2175,14.803008 -11.7481,16.273183 0.8625,0.862841 11.3062,5.364106 12.6755,5.463122 0.3667,0.02652 2.5847,-3.233832 4.9289,-7.245216 z m -90.0665,-1.459592 3.842,-6.805593 -5.0905,-3.52774 c -2.7998,-1.940257 -5.6583,-3.494369 -6.3522,-3.453583 -1.3257,0.07792 -11.9103,15.797544 -11.077,16.45085 1.6903,1.32523 11.4707,4.65457 12.9922,4.422662 1.0139,-0.154552 3.5724,-3.34352 5.6855,-7.086596 z" />

<path d="M 109.02755,47.590389 c 10.73389,-19.187497 11.15129,-17.180655 -5.90208,-28.376516 -8.241953,-5.410996 -11.156023,-6.69811 -12.865673,-5.68264 -3.19821,1.899624 -27.10879,38.168813 -25.8967,39.281871 1.71474,1.574629 31.55995,11.810869 33.57164,11.514321 1.03687,-0.152847 6.028633,-7.684513 11.092813,-16.737036 z" />

<path d="M 85.898857,370.04953 c -0.38127,-1.71504 0.46613,-30.06276 0.91244,-30.52333 0.27892,-0.28784 1.40026,0.21791 2.49187,1.12385 1.28249,1.06439 5.18596,1.48543 11.032223,1.19 l 9.04747,-0.45718 v 4.66666 4.66667 l -9.958203,-0.48789 c -9.15141,-0.44836 -9.80953,-0.30876 -8.12317,1.72317 1.38992,1.67475 1.46063,2.58547 0.29153,3.75456 -2.40342,2.40343 -1.81904,5.01016 1.12318,5.01016 1.77777,0 2.66666,-0.88889 2.66666,-2.66667 0,-1.5511 0.88889,-2.66666 2.12483,-2.66666 1.16865,0 2.43863,1.2 2.822173,2.66666 0.52401,2.00382 1.81869,2.66667 5.20851,2.66667 4.65006,0 4.99771,0.66096 3.3765,6.41943 -0.81039,2.87849 -1.60877,3.10272 -11.868323,3.33333 -6.04972,0.13599 -11.06618,-0.0528 -11.14769,-0.41943 z" />

<path d="M 469.38281,363.76452 c -7.8311,-1.08095 -21.1742,-4.47636 -22.7587,-5.79143 -1.2384,-1.02772 -0.7896,-4.08138 1.9427,-13.22066 3.9551,-13.22944 4.6389,-14.39636 7.1935,-12.27622 3.2353,2.68503 17.3721,5.57332 27.2788,5.57332 15.5958,0 24.3437,-4.77594 24.3437,-13.29053 0,-6.61551 -4.4196,-10.51773 -18.8893,-16.6778 -12.4817,-5.31381 -21.2027,-11.83296 -24.7466,-18.49883 -1.4991,-2.81961 -2.2485,-7.48789 -2.2808,-14.2072 -0.04,-8.28766 0.5858,-11.30353 3.6407,-17.54738 4.6414,-9.4868 11.7182,-15.93315 21.7683,-19.82908 13.9217,-5.39679 56.1757,-5.07582 63.73485,0.48414 1.9253,1.41611 1.7693,2.72003 -1.6222,13.56668 -4.2261,13.51596 -3.1966,12.97316 -17.60495,9.28267 -14.3659,-3.67963 -32.7634,-0.83213 -35.1717,5.44373 -2.7502,7.1668 0.5825,10.68886 17.7327,18.74052 16.5712,7.77987 21.0672,11.39859 25.0965,20.19979 6.47735,14.14856 2.0008,35.54651 -9.4528,45.18411 -12.5912,10.59481 -37.7302,15.96636 -60.2047,12.86417 z" />

<path d="M 207.35874,359.7162 c -0.0216,-2.09415 3.50072,-19.69848 19.94185,-99.66667 l 4.93429,-24 h 20.49355 20.49353 l 11.66994,40.66667 c 6.41845,22.36667 11.88432,41.56667 12.14636,42.66667 0.26205,1.1 4.27567,-17.35 8.91917,-41 l 8.44273,-43 h 15.15801 c 13.98496,0 15.15802,0.19538 15.15802,2.52468 0,4.25214 -24.08556,122.07176 -25.18115,123.17894 -0.56436,0.57034 -9.94885,0.87034 -20.85441,0.66667 l -19.82832,-0.37029 -12.01248,-41.67128 c -6.69343,-23.21952 -12.4376,-40.91162 -12.97259,-39.95566 -0.52805,0.9436 -1.85452,6.79567 -2.9477,13.00462 -1.09318,6.20894 -4.51678,24.33898 -7.608,40.28898 l -5.62043,29 h -15.15412 c -13.53442,0 -15.1567,-0.24938 -15.17825,-2.33333 z m 124.45841,-0.66667 c 0.39786,-1.65 5.89697,-29.1 12.22024,-61 6.32326,-31.9 11.80322,-59.05 12.17768,-60.33333 0.59902,-2.05299 2.58294,-2.33333 16.51228,-2.33333 8.70726,0 16.09936,0.45 16.42676,1 0.3274,0.55 -1.4269,10.9 -3.8983,23 -2.4715,12.1 -4.504,22.45 -4.5166,23 -0.012,0.55 8.2479,1 18.3568,1 h 18.3798 l 4.6545,-23.66667 4.6546,-23.66667 16.2989,-0.37437 c 15.4758,-0.35547 16.299,-0.24116 16.299,2.26291 0,1.4505 -5.4,29.76698 -12,62.9255 -6.6,33.15852 -12,60.49022 -12,60.7371 0,0.24688 -7.5,0.44886 -16.6666,0.44886 -9.1667,0 -16.6667,-0.49841 -16.6667,-1.10758 0,-0.60916 2.1,-11.51075 4.6667,-24.22575 2.5666,-12.715 4.6666,-24.21659 4.6666,-25.55908 0,-2.24452 -1.441,-2.44092 -17.909,-2.44092 h -17.9091 l -2.05407,9.66667 c -1.12976,5.31666 -3.30196,15.96666 -4.82711,23.66666 -1.52516,7.7 -3.05317,15.35 -3.39558,17 -0.60582,2.91928 -1.07423,3 -17.40838,3 -16.73294,0 -16.78353,-0.009 -16.06242,-3 z" />

<path d="M 99.382857,335.3466 c 0,-4.59423 0.3765,-5.16327 3.666673,-5.54184 2.18286,-0.25116 3.66667,-1.23124 3.66667,-2.42189 0,-2.49502 -5.96208,-3.56415 -6.09372,-1.09274 -0.14256,2.67648 -2.372213,-3.15965 -2.479243,-6.48945 -0.0744,-2.3156 0.79795,-3.02617 4.239623,-3.45328 2.55389,-0.31695 1.08043,-0.62539 -3.588173,-0.75115 -7.32704,-0.19737 -7.72728,-0.0607 -5.33333,1.82262 2.5446,2.00172 2.53766,2.0718 -0.41183,4.16262 -3.71099,2.63064 -3.83182,5.82984 -0.33333,8.82534 1.46666,1.2558 2.67585,1.83914 2.68708,1.29632 0.0112,-0.54282 0.55572,-0.14136 1.20997,0.89214 1.62921,2.57359 0.30899,5.45424 -2.49972,5.45424 -4.26064,0 -7.39448,-5.09341 -7.2599,-11.79946 0.0684,-3.4103 0.29143,-19.56204 0.49554,-35.89278 0.20411,-16.33073 0.83808,-29.98085 1.40882,-30.33358 0.57075,-0.35275 0.72626,-2.96346 0.34559,-5.80158 -0.41359,-3.08353 -0.0942,-5.52973 0.79358,-6.07842 0.81713,-0.50503 1.4857,-1.51822 1.4857,-2.25155 0,-0.73333 -0.6,-0.96252 -1.33333,-0.50929 -0.77571,0.47941 -1.33333,-0.84882 -1.33333,-3.17596 0,-4.38558 2.24418,-6.80979 3.43391,-3.70939 0.58989,1.53721 2.84738,1.84072 10.657253,1.43283 9.74613,-0.50903 9.90884,-0.46434 9.90884,2.72214 0,1.78182 -0.62914,3.6285 -1.39808,4.10372 -0.96735,0.59786 -0.94837,1.40594 0.0616,2.62291 1.39943,1.6862 1.61229,10.79112 0.42496,18.17784 -0.55763,3.46917 -0.66118,3.49964 -9.49281,2.79197 -7.999333,-0.64096 -8.748763,-0.49792 -7.197623,1.37387 1.41966,1.71313 1.41966,2.28469 0,3.17432 -2.60734,1.63391 8.424773,3.13292 11.411733,1.5506 3.33024,-1.76417 5.17967,0.2764 4.62776,5.10605 -0.33899,2.96647 -1.03832,3.73786 -3.10423,3.42411 -3.80065,-0.57721 -14.482983,-0.22315 -15.210263,0.50413 -0.33658,0.33658 0.098,1.32196 0.96581,2.18975 2.28083,2.28083 1.98423,5.48572 -0.42222,4.56227 -1.1,-0.42211 -2,-0.1863 -2,0.52401 0,0.71032 2.1,1.29149 4.66667,1.29149 3.49366,0 4.666663,0.56678 4.666663,2.25484 0,2.07864 0.13024,2.08435 1.66667,0.0729 0.91667,-1.20003 3.32659,-2.58224 5.35538,-3.07159 l 3.68872,-0.88972 -0.64226,13.81675 c -0.35323,7.59925 -0.69528,14.41678 -0.76009,15.15012 -0.0648,0.73333 0.26975,3.73333 0.74348,6.66666 0.73073,4.52467 0.38777,5.76031 -2.26195,8.1493 -1.7178,1.54877 -4.47328,3.1426 -6.12328,3.54184 -2.716293,0.65724 -3.000003,0.24169 -3.000003,-4.39407 z m -3.64371,-32.14077 c -1.65075,-1.65076 -5.68962,-0.6777 -5.68962,1.37076 0,1.71536 4.34547,2.62549 5.93333,1.24269 0.7901,-0.68805 0.69841,-1.67135 -0.24371,-2.61345 z m 12.310383,1.51037 c -0.45323,-0.73333 -1.98864,-1.33333 -3.41202,-1.33333 -1.42339,0 -2.58798,0.6 -2.58798,1.33333 0,0.73333 1.53541,1.33333 3.41202,1.33333 1.93516,0 3.05534,-0.57712 2.58798,-1.33333 z m -0.0864,-43.86029 c 1.02752,-1.66256 -2.51406,-2.80638 -8.689373,-2.80638 -4.68368,0 -5.22428,-0.34493 -5.22428,-3.33333 0,-1.83333 -0.6,-3.33333 -1.33333,-3.33333 -1.47515,0 -1.85546,8.36677 -0.44445,9.77777 1.33306,1.33307 14.841363,1.07073 15.691433,-0.30473 z" />

<path d="M 96.003237,235.36973 c -5.42969,-2.04522 -6.6825,-5.65649 -6.12431,-17.65353 0.13909,-2.98941 0.79401,-3.66667 3.54578,-3.66667 4.51731,0 5.76892,3.61424 2.13343,6.16064 -1.56307,1.09482 -2.84194,2.7232 -2.84194,3.61864 0,1.98212 4.81114,6.29847 5.85592,5.25368 1.31396,-1.31396 2.411103,3.39602 1.25565,5.39044 -0.74645,1.28847 -2.00272,1.58304 -3.82453,0.8968 z m 6.046293,-3.3202 c 0,-4.0588 0.42394,-4.66666 3.25464,-4.66666 3.84838,0 5.66821,-2.27715 3.52924,-4.41612 -1.13392,-1.13392 -2.14784,-1.1232 -4.01428,0.0424 -2.12003,1.32398 -2.61567,1.11757 -3.28184,-1.36672 -1.783173,-6.64982 -1.16131,-7.5929 5.00668,-7.5929 h 5.82778 l 0.94069,8.3146 c 0.89121,7.87726 0.75609,8.47339 -2.56879,11.33334 -1.93022,1.6603 -4.67603,3.01873 -6.10181,3.01873 -2.07375,0 -2.59231,-0.93351 -2.59231,-4.66667 z" />

<path d="M 76.553387,191.98887 c -4.21973,-5.589 -5.20675,-7.76979 -4.04319,-8.93334 2.2444,-2.2444 1.88636,-3.67266 -0.92069,-3.67266 -1.35301,0 -3.48082,-1.12798 -4.72847,-2.50662 -2.15352,-2.37961 -2.11332,-2.54586 0.79336,-3.28132 5.05724,-1.2796 12.31404,-8.09622 11.33503,-10.64748 -0.47091,-1.22718 -1.63833,-2.23125 -2.59426,-2.23125 -2.51317,0 -11.70711,7.88924 -13.04127,11.19061 -0.88122,2.18058 -1.15426,2.30195 -1.21985,0.54231 -0.0465,-1.24689 -1.13452,-2.86612 -2.41785,-3.59828 -2.12419,-1.21187 -2.15407,-1.65437 -0.33334,-4.93671 2.94568,-5.31033 8.32261,-8.76656 13.88359,-8.92418 11.76391,-0.33347 15.82853,17.50502 5.27553,23.15282 -2.18442,1.16907 -2.77754,2.15502 -1.85272,3.07982 0.74815,0.74816 1.36027,2.74028 1.36027,4.42694 0,3.30059 0.90373,3.71952 3.91426,1.81454 1.58646,-1.00387 1.61558,-1.57119 0.17008,-3.31291 -1.40951,-1.69836 -1.42034,-2.49185 -0.0564,-4.13527 1.50633,-1.81502 1.95538,-1.79145 4.17723,0.2193 2.35036,2.12705 2.67547,2.07818 5.81854,-0.87458 3.26237,-3.06484 3.36811,-3.0759 5.27696,-0.55262 2.60385,3.44201 2.60241,8.57488 -0.002,8.57488 -1.1193,0 -4.73509,2.7 -8.03509,6 -3.3,3.3 -6.26478,6 -6.58839,6 -0.32361,0 -3.10052,-3.32731 -6.17091,-7.394 z m -23.96765,-29.14222 c -1.02825,-0.80508 -3.60845,-3.79032 -5.73379,-6.63386 -4.89138,-6.54431 -3.79595,-11.38776 3.08147,-13.62483 2.55493,-0.83107 5.29314,-2.98804 6.34731,-5 2.41899,-4.61681 4.3135,-4.47524 6.17694,0.46157 0.8304,2.2 2.20928,4 3.06416,4 1.85831,0 5.86103,5.78806 5.86103,8.47522 0,1.0463 -1.51526,2.28266 -3.36724,2.74749 -1.85199,0.46481 -5.6607,3.13857 -8.4638,5.94167 -3.96903,3.96904 -5.51014,4.7727 -6.96608,3.63274 z m 1.73158,-10.27377 c 2.16153,-1.15681 2.36882,-1.71788 0.95706,-2.59039 -1.84188,-1.13834 -5.22485,0.73738 -5.22485,2.89696 0,1.54322 0.93724,1.4759 4.26779,-0.30657 z m -21.16281,-24.46703 c -6.61871,-2.87909 -9.38731,-10.5023 -5.10498,-14.05632 1.1,-0.91292 2,-1.06798 2,-0.34459 0,2.07101 9.82747,8.34459 13.07167,8.34459 3.53925,0 3.80495,-2.79337 0.5462,-5.7425 -3.15704,-2.85708 -11.19059,-6.06609 -13.28454,-5.30652 -0.91666,0.33252 -1.66666,-0.0454 -1.66666,-0.83987 0,-0.79444 0.9,-1.44444 2,-1.44444 1.1,0 2,-0.91883 2,-2.04185 0,-5.60349 12.45851,-2.05628 16.43786,4.68023 3.2397,5.48438 2.747,9.85821 -1.63948,14.55395 -4.24145,4.54049 -7.74201,5.07613 -14.36007,2.19732 z m 12.60861,-22.72298 c -2.698,-1.83334 -5.80187,-3.33334 -6.89749,-3.33334 -3.98753,0 -3.60219,-2.936432 1.40529,-10.708818 2.81157,-4.363992 5.56194,-7.93978 6.11194,-7.946195 0.55,-0.0064 1,-0.953556 1,-2.104761 0,-2.251964 6.5462,-12.373828 9.6901,-14.983038 2.5971,-2.1554 9.91779,0.406886 11.01194,3.854246 0.59171,1.864305 2.04854,2.555225 5.38781,2.555225 3.63048,0 4.57682,0.531371 4.57682,2.569893 0,1.413442 -1.58091,3.813442 -3.51315,5.333334 -1.93222,1.519892 -3.11682,2.76344 -2.63242,2.76344 1.10614,0 -2.74652,7.56992 -4.36025,8.567257 -0.6553,0.405 -3.42325,-1.307897 -6.15101,-3.806429 -4.88847,-4.477662 -10.85457,-7.039715 -12.5005,-5.368156 -0.46347,0.470681 1.54327,2.863938 4.45943,5.318346 6.23043,5.243899 5.46812,7.247149 -1.62184,4.261959 -5.06271,-2.131632 -9.68026,-2.600611 -9.68026,-0.983173 0,1.459453 6.05801,6.676863 7.7526,6.676863 0.8694,0 1.58073,0.535815 1.58073,1.190685 0,1.685572 3.62629,2.869042 6,1.958162 1.1,-0.42211 2,-2.203282 2,-3.958167 0,-1.75487 0.55957,-3.19068 1.24349,-3.19068 1.9109,0 3.36371,5.797605 1.60011,6.385477 -0.83065,0.27688 -1.51026,1.26043 -1.51026,2.18566 0,2.45071 -4.462,6.09554 -7.46214,6.09554 -1.42203,0 -4.79295,-1.5 -7.49094,-3.33333 z m 16.28641,-29.375194 c 0,-2.149439 -3.54876,-4.18717 -4.91417,-2.82176 -0.94964,0.94964 2.06341,4.863606 3.7441,4.863606 0.64354,0 1.17007,-0.91883 1.17007,-2.041846 z" />

<path d="m 66.040912,316.28691 c -0.410838,-3.48376 0.468502,-29.51467 1.027581,-30.41928 0.375356,-0.60734 1.51813,-0.41071 2.539498,0.43695 1.126157,0.93462 5.462944,1.35898 11.019034,1.07821 l 9.162,-0.46297 v 4.72574 4.72574 l -10.801687,-0.4555 c -9.833598,-0.41467 -10.561271,-0.27433 -8.119189,1.56582 2.554267,1.92468 2.570403,2.14517 0.337552,4.61244 -3.167771,3.50035 -2.956342,4.40382 1.030583,4.40382 2.475386,0 3.375527,-0.72011 3.375527,-2.70042 0,-1.48523 0.840528,-2.70042 1.86784,-2.70042 1.02731,0 2.185619,1.21519 2.574015,2.70042 0.510467,1.95202 1.841709,2.70042 4.803529,2.70042 2.253545,0 4.411165,0.50776 4.79471,1.12834 1.0008,1.61934 -1.289795,9.03692 -2.716382,8.79641 -7.721063,-1.30174 -18.074767,-1.57155 -18.074767,-0.47102 0,1.55049 -2.639524,1.86434 -2.819844,0.3353 z m 13.621532,-36.20913 c 0,-3.96732 0.41668,-4.68707 2.362869,-4.08146 3.252481,1.0121 6.307602,-1.17308 5.302416,-3.79256 -0.975464,-2.54201 -6.271671,-2.9335 -6.409974,-0.47381 -0.154116,2.7409 -2.407064,-3.42499 -2.510623,-6.87108 -0.08849,-2.94471 0.287957,-3.10446 5.573738,-2.36512 3.252275,0.4549 5.122821,0.29131 4.388186,-0.38379 -1.85406,-1.70379 -16.629915,-2.89955 -17.544439,-1.41981 -0.425162,0.68792 -0.281465,1.26007 0.319323,1.27144 0.600789,0.0108 1.980182,0.58225 3.065315,1.26862 1.627039,1.02913 1.297781,1.87367 -1.877861,4.81677 l -3.850834,3.56882 3.228072,3.08993 c 1.775441,1.69947 3.68377,2.82853 4.240732,2.50903 0.556962,-0.31949 1.012658,0.60515 1.012658,2.05475 0,2.72651 -3.358079,4.86218 -5.532292,3.51844 -2.319062,-1.43327 -4.674391,-8.00928 -4.323342,-12.07066 0.192567,-2.22785 0.368552,-7.9107 0.391078,-12.62856 0.03635,-7.61247 0.30533,-8.46904 2.389887,-7.61052 6.010584,2.47543 7.074669,2.36889 7.074669,-0.70838 0,-2.714 -0.499208,-2.95356 -4.725738,-2.26768 l -4.725739,0.76688 v -5.47343 c 0,-5.01725 0.253206,-5.40558 3.037975,-4.65929 1.670886,0.44778 4.773866,0.82245 6.895512,0.83259 2.870173,0.0138 3.658611,0.53683 3.080351,2.04375 -0.987845,2.57428 1.344519,2.66434 2.784049,0.10748 0.593862,-1.0548 2.760684,-2.33838 4.815158,-2.85241 l 3.73541,-0.93458 -0.650386,13.99164 c -0.357712,7.6954 -0.750595,14.59923 -0.873074,15.34185 -0.122478,0.74262 0.222386,3.60003 0.76637,6.34979 0.866168,4.37838 0.527969,5.4269 -2.721943,8.43881 -5.50243,5.09951 -8.717523,4.59149 -8.717523,-1.37745 z m 8.458304,-28.39545 c 1.489562,-1.48956 -0.620258,-4.59373 -3.122233,-4.59373 -2.842091,0 -4.534482,2.0706 -3.310755,4.05063 0.912047,1.47573 5.143157,1.83294 6.432988,0.5431 z m -16.55957,-15.36983 -3.375527,-0.82412 0.4708,-15.46572 c 0.258939,-8.50614 0.403081,-18.07574 0.320313,-21.26579 -0.140371,-5.4102 0.168349,-5.93332 4.592491,-7.78184 5.339701,-2.23107 6.033991,-3.22514 2.042556,-2.92447 -1.485232,0.11193 -2.700422,0.66264 -2.700422,1.22392 0,0.56129 -0.911392,0.67078 -2.025316,0.24333 -2.275593,-0.87324 -2.759056,-6.62649 -0.665569,-7.92034 0.74786,-0.46219 1.700797,0.0483 2.117637,1.13466 0.597349,1.55667 2.883424,1.86402 10.792152,1.45097 9.906685,-0.51742 10.03426,-0.48176 10.03426,2.80402 0,2.45852 -1.322981,4.04411 -5.063291,6.06839 l -5.063291,2.74028 5.09294,-0.83854 5.092939,-0.83853 -0.651539,8.59464 c -0.358346,4.72706 -0.675485,9.65794 -0.704753,10.95752 -0.05196,2.30697 -3.434721,3.36208 -4.328885,1.35021 -0.247538,-0.55696 -4.095639,-0.65911 -8.551335,-0.22698 -4.455696,0.43212 -6.96711,0.88781 -5.58092,1.01265 1.786449,0.16089 2.321356,0.98793 1.836974,2.84021 -0.407327,1.55762 0.119075,2.92114 1.303165,3.37553 3.513227,1.34814 10.975362,0.81257 11.521873,-0.82696 0.95062,-2.85187 3.745912,0.30088 3.745912,4.22491 0,4.51728 -3.111937,6.21142 -6.036876,3.28648 -1.135415,-1.1354 -2.06439,-1.51299 -2.06439,-0.83907 0,0.67392 -2.531222,1.32449 -5.62494,1.44571 -6.811284,0.2669 -7.278299,0.62827 -4.457438,3.44913 2.966624,2.96663 2.041496,4.55348 -2.06952,3.5498 z M 89.11392,204.55695 c 0,-1.55479 -1.72527,-2.02531 -7.42616,-2.02531 H 74.2616 l -0.02067,-5.06329 c -0.01538,-3.76625 -0.355963,-4.54448 -1.329539,-3.03798 -1.495059,2.31344 -1.798648,9.90318 -0.45007,11.25176 0.495077,0.49508 4.444444,0.90014 8.776371,0.90014 6.100952,0 7.87623,-0.45651 7.87623,-2.02532 z M 78.407132,179.95797 c -0.0522,-0.90495 -0.94325,-1.31984 -1.980125,-0.92195 -3.32498,1.27591 -6.21604,-4.8915 -6.21604,-13.26051 0,-7.37045 0.181835,-7.80083 3.295842,-7.80083 4.958081,0 5.48532,2.43576 1.35567,6.26299 l -3.694689,3.42412 3.513294,3.25771 c 1.932309,1.79174 4.147405,3.25771 4.922431,3.25771 1.643176,0 1.655766,1.0097 0.05892,4.72574 -0.638226,1.48523 -1.203116,1.95999 -1.255311,1.05502 z m 4.20774,-3.41789 c 0.338404,-3.50978 1.0988,-4.483 3.798626,-4.86187 3.513716,-0.49306 5.704437,-2.66849 4.556962,-4.52514 -1.076581,-1.74194 -7.245002,-1.23239 -7.391973,0.61064 -0.169118,2.12076 -2.249379,-4.23333 -2.431243,-7.42616 -0.109327,-1.91941 1.00289,-2.36287 5.926235,-2.36287 5.408126,0 6.052478,0.32717 5.983312,3.03797 -0.04263,1.67089 0.335934,5.53049 0.841256,8.57689 0.844902,5.09362 0.591356,5.77206 -3.153772,8.43882 -6.072696,4.32415 -8.644431,3.85333 -8.129403,-1.48828 z m -21.421145,-36.0802 c -1.352754,-1.60557 -4.130438,-4.81072 -6.172632,-7.1226 -4.261207,-4.82391 -4.503668,-5.82516 -1.67359,-6.91116 4.01824,-1.54195 4.146649,-1.40301 4.555817,4.9294 0.129769,2.00834 0.620611,2.16158 2.942829,0.91877 2.216561,-1.18627 2.609187,-2.30156 1.918036,-5.44835 -0.674779,-3.07224 -0.392321,-3.95675 1.26355,-3.95675 1.172928,0 2.132598,0.6076 2.132598,1.35021 0,2.38804 3.861141,1.4407 6.745171,-1.65495 l 2.799734,-3.00516 0.785869,3.00516 c 0.432227,1.65284 1.322598,3.00517 1.9786,3.00517 3.230478,0 0.425495,3.87498 -5.91069,8.1654 -3.890584,2.63443 -7.07379,5.46988 -7.07379,6.30098 0,3.07254 -1.901625,3.26036 -4.291502,0.42388 z M 46.728958,120.33085 c -2.184423,-2.41376 -2.133533,-2.57941 1.036881,-3.37513 7.57752,-1.90184 15.76271,-12.98948 9.589176,-12.98948 -3.554762,0 -12.605823,6.8649 -13.974043,10.59881 -1.218799,3.32613 -1.318758,3.36423 -1.417839,0.54043 -0.06361,-1.81299 -0.959938,-3.03797 -2.222899,-3.03797 -4.393689,0 0.741434,-8.66771 7.090831,-11.9688 5.251992,-2.730543 13.928426,-1.582974 13.928426,1.84221 0,0.95502 0.911392,2.08614 2.025316,2.51359 1.282494,0.49214 2.025317,2.56408 2.025317,5.64917 0,9.69469 -12.278091,16.6395 -18.081166,10.22717 z M 28.554272,101.35767 c -3.080377,-3.896967 -5.600687,-7.918561 -5.600687,-8.936869 0,-2.797246 5.515627,-7.357513 8.898884,-7.357513 2.149171,0 3.412433,-1.215105 4.496618,-4.325202 l 1.507774,-4.325201 3.012497,3.014313 c 2.950789,2.95257 2.963233,3.100228 0.60747,7.208501 -2.69538,4.700539 -2.149914,7.030542 0.610946,2.609704 2.174459,-3.481863 4.073629,-3.580475 6.985658,-0.362718 2.752872,3.041889 2.914524,6.98229 0.286444,6.98229 -2.352965,0 -11.553971,5.276905 -11.553971,6.626355 0,0.52733 -0.821462,2.0822 -1.825473,3.45526 -1.700466,2.32553 -2.208999,2.01129 -7.42616,-4.58892 z m 7.901423,-6.979949 c 0,-2.041402 -2.674825,-2.672089 -5.32266,-1.255011 -1.514819,0.810708 -2.357348,2.268975 -1.939717,3.357304 0.584425,1.522987 1.418302,1.614242 4.000353,0.43778 1.794113,-0.817453 3.262024,-1.960486 3.262024,-2.540073 z M 15.293688,71.937593 c -3.517861,-0.643855 -9.8928444,-6.717789 -9.8928444,-9.42567 0,-1.061479 0.6607279,-3.164543 1.4682842,-4.673475 l 1.4682843,-2.743514 1.9964669,2.850356 c 4.007523,5.721539 16.670339,9.873986 16.670339,5.46661 0,-3.608932 -12.452001,-11.226635 -16.519627,-10.106136 -2.8164897,0.77585 -2.8715131,0.691679 -0.6955619,-1.06403 1.2995779,-1.04859 2.3628689,-2.534031 2.3628689,-3.300982 0,-4.838344 11.680656,-1.127784 15.864978,5.039781 3.832145,5.648466 3.830407,9.20505 -0.0068,13.725885 -3.124816,3.681618 -7.594114,5.168694 -12.716482,4.231175 z m 9.747633,-24.612878 c -3.67875,-2.165489 -7.130437,-3.664204 -7.670416,-3.330479 -2.484186,1.535312 -2.268593,-2.407046 0.376828,-6.890699 2.634804,-4.465662 3.06202,-4.711629 4.284072,-2.466525 0.746577,1.371583 2.170789,2.979677 3.164914,3.573538 0.994124,0.593864 1.816803,2.112851 1.828175,3.375528 0.01491,1.654986 0.32013,1.824152 1.093538,0.60608 0.818502,-1.289093 1.715739,-1.090765 3.784438,0.83652 2.221353,2.069505 3.122115,2.226021 4.98241,0.865741 1.24896,-0.913263 2.270836,-2.960582 2.270836,-4.549601 0,-3.467664 2.292569,-3.868673 3.008609,-0.526254 0.886334,4.137334 -4.672125,12.505011 -8.281166,12.466427 -1.184481,-0.01269 -5.163489,-1.794788 -8.842238,-3.960276 z m 6.688635,-13.016144 c -1.485232,-1.133682 -4.06751,-1.80621 -5.738396,-1.494506 -3.110565,0.580276 -3.783901,-0.944711 -2.218411,-5.024311 0.869892,-2.266905 4.58128,-2.992496 4.58128,-0.895657 0,0.682048 2.126582,2.554388 4.725738,4.160754 4.754225,2.938272 6.171378,5.437625 3.037975,5.357903 -0.92827,-0.02361 -2.902954,-0.9705 -4.388186,-2.104183 z M 44.856344,32.999225 C 43.542249,30.575973 34.97688,25.47247 29.308861,23.735568 c -2.762579,-0.846562 -1.839623,-3.352491 4.142044,-11.246117 4.221708,-5.5711181 8.366974,-5.6548347 13.865331,-0.28002 2.908419,2.843069 5.003768,3.853882 6.804258,3.282429 3.312466,-1.051337 4.925716,2.620073 2.457888,5.593624 -1.281971,1.54468 -3.315754,1.97215 -7.239664,1.521665 -4.980551,-0.571795 -5.13276,-0.502337 -1.743783,0.795731 4.327835,1.657679 4.733376,4.742584 1.197496,9.109211 -2.443783,3.017945 -2.556126,3.031848 -3.936087,0.487134 z M 42.259328,18.947184 c -0.990132,-3.786266 -4.221462,-6.21712 -5.957154,-4.481428 -0.952237,0.952238 -0.239822,2.293451 2.264628,4.263452 4.469043,3.515349 4.556153,3.520491 3.692526,0.217976 z" />
</svg>
