<svg xmlns="http://www.w3.org/2000/svg"
     xmlns:xlink="http://www.w3.org/1999/xlink"
     viewBox="0 0 550 550">

<defs>
<style type="text/css"><![CDATA[

svg {
background-color: rgb(0, 136, 0);
}

#crown, #portcullis {
fill: rgb(255, 255, 255);
}

#portcullis ~ g path,
#portcullis ~ g line {
stroke: rgb(255, 255, 255);
stroke-width: 5.7px;
fill: rgba(0, 0, 0, 0);
}

svg > g, #portcullis {
transform: translateX(45px);
}

]]></style>
</defs>


<g id="crown">
<circle cx="105" cy="112" r="8.6" />
<circle cx="182" cy="95" r="8.6" />
<path d="M412.7,39.522c10.872,16.794,18.063,35.141,3,55c-13.565-4.295-18.154-20.093-21-38l-26,47 c16.31-7.443,31.082-15.262,42-1.522c-16.575,22.95-62.557,49.67-76.406,11.272c1.448-2.147,2.57-4.648,3.219-7.406 c1.362-5.795,0.396-11.507-2.25-15.75c11.794-30.673,27.828-20.376,36.906-5.719c0.546-16.316,2.55-38.864-32.094-17.406 c7.512-17.968,4.772-48.205,1.656-48.938c-3.117-0.732-19.065,25.129-20.344,44.563c-21.458-34.644-29.721-13.57-36.5,1.281 c14.657-9.078,33.636-11.153,30.531,21.563c-4.259,2.62-7.7,7.298-9.063,13.094c-0.644,2.739-0.77,5.448-0.438,8 C266.7,120,256.7,110,236.7,70V52.506c2-0.506,2-1.506,2.5-3.5c19.124-0.11,25.949,11.557,33.5,23.516v-53 c-7.44,13.603-16.032,23.333-33.5,22.484c-0.5-2.006-0.5-3.006-2.5-3.5c2.71-18.246,10.181-26.241,28-34.984L231,3.506l0,0h-0.15 H230.7l0,0L197,3.522c17.819,8.744,25.29,16.738,28,34.984c-2,0.494-2,1.494-2.5,3.5c-17.468,0.849-26.061-8.881-33.5-22.484v53 c7.55-11.959,14.376-23.625,33.5-23.516C223,51,223,52,225,52.506V70c-20,40-30,50-69.219,36.553c0.332-2.552,0.206-5.261-0.438-8 c-1.362-5.795-4.803-10.474-9.063-13.094c-3.105-32.715,15.874-30.641,30.531-21.563c-6.78-14.851-15.042-35.925-36.5-1.281 c-1.279-19.433-17.227-45.295-20.344-44.563c-3.117,0.733-5.856,30.97,1.656,48.938c-34.644-21.458-32.64,1.09-32.094,17.406 c9.079-14.657,25.112-24.954,36.906,5.719c-2.646,4.243-3.612,9.955-2.25,15.75c0.648,2.758,1.77,5.259,3.219,7.406 C113.557,151.67,67.575,124.95,51,102c10.918-13.74,25.69-5.921,42,1.522l-26-47c-2.846,17.907-7.435,33.705-21,38 c-15.063-19.859-7.873-38.206,3-55l-35,20l67,115c43.636-28.458,96.889-41.869,149.7-41.018v0.002c0.05-0.001,0.1,0,0.149-0.001 c0.051,0.001,0.101,0,0.15,0.001v-0.002c52.811-0.851,106.065,12.56,149.7,41.018l67-115L412.7,39.522z" />
<circle cx="356.7" cy="112" r="8.6" />
<circle cx="279.7" cy="95" r="8.6" />
</g>

<path id="portcullis" d="M231,166.522h-0.3H73v351h17c0,0,25-66,25-71c0-1.392-2-2-8-2v-35.001h35v37.001h-8l26,67l26-67h-8v-37.001 h35v37.001h-8l25.7,66.228v0.772l0.149-0.387l0.15,0.387v-0.772l25.7-66.228h-8v-37.001h35v37.001h-8l26,67l26-67h-8v-37.001h35 v35.001c-6,0-8,0.608-8,2c0,5,25,71,25,71h17v-351H231z M90,400.521c-4.968,0-9-4.031-9-9c0-4.967,4.032-9,9-9s9,4.033,9,9 C99,396.49,94.968,400.521,90,400.521z M90,329.521c-4.968,0-9-4.031-9-9c0-4.967,4.032-9,9-9s9,4.033,9,9 C99,325.49,94.968,329.521,90,329.521z M90,260.522c-4.968,0-9-4.032-9-9c0-4.968,4.032-9,9-9s9,4.032,9,9 C99,256.49,94.968,260.522,90,260.522z M90,193.522c-4.968,0-9-4.032-9-9c0-4.968,4.032-9,9-9s9,4.032,9,9 C99,189.49,94.968,193.522,90,193.522z M142,373.521h-35v-35h35V373.521z M142,302.521h-35v-32h35V302.521z M142,234.522h-35v-32h35 V234.522z M160,400.521c-4.968,0-9-4.031-9-9c0-4.967,4.032-9,9-9s9,4.033,9,9C169,396.49,164.968,400.521,160,400.521z M160,329.521c-4.968,0-9-4.031-9-9c0-4.967,4.032-9,9-9s9,4.033,9,9C169,325.49,164.968,329.521,160,329.521z M160,260.522 c-4.968,0-9-4.032-9-9c0-4.968,4.032-9,9-9s9,4.032,9,9C169,256.49,164.968,260.522,160,260.522z M160,193.522c-4.968,0-9-4.032-9-9 c0-4.968,4.032-9,9-9s9,4.032,9,9C169,189.49,164.968,193.522,160,193.522z M213,373.521h-35v-35h35V373.521z M213,302.521h-35v-32 h35V302.521z M213,234.522h-35v-32h35V234.522z M230.85,400.514c-4.897-0.081-8.85-4.074-8.85-8.992c0-4.916,3.952-8.911,8.85-8.992 c4.898,0.081,8.851,4.076,8.851,8.992C239.7,396.439,235.748,400.433,230.85,400.514z M230.85,329.514 c-4.897-0.081-8.85-4.074-8.85-8.992c0-4.916,3.952-8.911,8.85-8.992c4.898,0.081,8.851,4.076,8.851,8.992 C239.7,325.439,235.748,329.433,230.85,329.514z M230.85,260.515c-4.897-0.081-8.85-4.075-8.85-8.993 c0-4.917,3.952-8.912,8.85-8.993c4.898,0.081,8.851,4.076,8.851,8.993C239.7,256.439,235.748,260.434,230.85,260.515z M230.85,193.515c-4.897-0.081-8.85-4.075-8.85-8.993c0-4.917,3.952-8.912,8.85-8.993c4.898,0.081,8.851,4.076,8.851,8.993 C239.7,189.439,235.748,193.434,230.85,193.515z M283.7,373.521h-35v-35h35V373.521z M283.7,302.521h-35v-32h35V302.521z M283.7,234.522h-35v-32h35V234.522z M301.7,400.521c-4.968,0-9-4.031-9-9c0-4.967,4.032-9,9-9s9,4.033,9,9 C310.7,396.49,306.668,400.521,301.7,400.521z M301.7,329.521c-4.968,0-9-4.031-9-9c0-4.967,4.032-9,9-9s9,4.033,9,9 C310.7,325.49,306.668,329.521,301.7,329.521z M301.7,260.522c-4.968,0-9-4.032-9-9c0-4.968,4.032-9,9-9s9,4.032,9,9 C310.7,256.49,306.668,260.522,301.7,260.522z M301.7,193.522c-4.968,0-9-4.032-9-9c0-4.968,4.032-9,9-9s9,4.032,9,9 C310.7,189.49,306.668,193.522,301.7,193.522z M354.7,373.521h-35v-35h35V373.521z M354.7,302.521h-35v-32h35V302.521z M354.7,234.522h-35v-32h35V234.522z M371.7,400.521c-4.968,0-9-4.031-9-9c0-4.967,4.032-9,9-9s9,4.033,9,9 C380.7,396.49,376.668,400.521,371.7,400.521z M371.7,329.521c-4.968,0-9-4.031-9-9c0-4.967,4.032-9,9-9s9,4.033,9,9 C380.7,325.49,376.668,329.521,371.7,329.521z M371.7,260.522c-4.968,0-9-4.032-9-9c0-4.968,4.032-9,9-9s9,4.032,9,9 C380.7,256.49,376.668,260.522,371.7,260.522z M371.7,193.522c-4.968,0-9-4.032-9-9c0-4.968,4.032-9,9-9s9,4.032,9,9 C380.7,189.49,376.668,193.522,371.7,193.522z" />

<g>
<path d="M432.2,207.496c-0.051,0-0.1,0.004-0.15,0.004 c-13.53,0-24.5-10.969-24.5-24.5"/>
<path d="M432.2,207.496 c13.462-0.081,24.35-11.015,24.35-24.496c0-13.531-10.969-24.5-24.5-24.5c-13.53,0-24.5,10.969-24.5,24.5"/>
<line x1="421.7" y1="183" x2="407.55" y2="183"/>
<line x1="407.55" y1="183" x2="388.2" y2="183"/>
<path d="M432.2,233.5H418c-3.424,0-6.2,2.776-6.2,6.2 v40.6c0,3.425,2.776,6.2,6.2,6.2h14.2"/>
<path d="M432.2,286.5H446.6c3.425,0,6.2-2.775,6.2-6.2 v-40.6c0-3.424-2.775-6.2-6.2-6.2H432.2"/>
<line x1="432.2" y1="233.5" x2="432.2" y2="241"/>
<line x1="432.2" y1="233.5" x2="432.2" y2="207.496"/>
<line x1="432.2" y1="207.496" x2="432.2" y2="200"/>
<path d="M432.2,367.9H418c-3.424,0-6.2-2.776-6.2-6.2 V321.1c0-3.424,2.776-6.199,6.2-6.199h14.2"/>
<path d="M432.2,367.9H446.6c3.425,0,6.2-2.776,6.2-6.2 V321.1c0-3.424-2.775-6.199-6.2-6.199H432.2"/>
<line x1="432.2" y1="286.5" x2="432.2" y2="281.4"/>
<line x1="432.2" y1="286.5" x2="432.2" y2="314.9"/>
<line x1="432.2" y1="322.4" x2="432.2" y2="314.9"/>
<path d="M432.2,395.8H418c-3.424,0-6.2,2.776-6.2,6.2 v40.6c0,3.425,2.776,6.2,6.2,6.2h14.2"/>
<path d="M432.2,395.8H446.6c3.425,0,6.2,2.776,6.2,6.2 v40.6c0,3.425-2.775,6.2-6.2,6.2H432.2"/>
<line x1="432.2" y1="395.8" x2="432.2" y2="403.3"/>
<line x1="432.2" y1="395.8" x2="432.2" y2="367.9"/>
<line x1="432.2" y1="367.9" x2="432.2" y2="362.3"/>
<path d="M432.2,473.504c-0.051,0-0.1-0.004-0.15-0.004 c-13.53,0-24.5,10.969-24.5,24.5s10.97,24.5,24.5,24.5c13.531,0,24.5-10.969,24.5-24.5 C456.55,484.52,445.662,473.585,432.2,473.504"/>
<line x1="432.2" y1="442" x2="432.2" y2="448.8"/>
<line x1="432.2" y1="473.504" x2="432.2" y2="483"/>
<line x1="432.2" y1="473.504" x2="432.2" y2="448.8"/>

<g>
<path d="M29.65,158.5c-13.531,0-24.5,10.969-24.5,24.5 c0,13.481,10.889,24.415,24.35,24.496c0.05,0,0.1,0.004,0.15,0.004c13.531,0,24.5-10.969,24.5-24.5S43.181,158.5,29.65,158.5z"/>
<line x1="54.15" y1="183" x2="40" y2="183"/>
<line x1="73.5" y1="183" x2="54.15" y2="183"/>
<path d="M43.7,233.5H29.5H15.1c-3.424,0-6.2,2.776-6.2,6.2v40.6 c0,3.425,2.776,6.2,6.2,6.2h14.4h14.2c3.424,0,6.2-2.775,6.2-6.2v-40.6C49.9,236.276,47.124,233.5,43.7,233.5z"/>
<line x1="29.5" y1="207.496" x2="29.5" y2="200"/>
<line x1="29.5" y1="207.496" x2="29.5" y2="233.5"/>
<line x1="29.5" y1="241" x2="29.5" y2="233.5"/>
<path d="M43.7,314.9H29.5H15.1c-3.424,0-6.2,2.775-6.2,6.199V361.7 c0,3.424,2.776,6.2,6.2,6.2h14.4h14.2c3.424,0,6.2-2.776,6.2-6.2V321.1C49.9,317.676,47.124,314.9,43.7,314.9z"/>
<line x1="29.5" y1="286.5" x2="29.5" y2="314.9"/>
<line x1="29.5" y1="314.9" x2="29.5" y2="322.4"/>
<line x1="29.5" y1="286.5" x2="29.5" y2="281.4"/>
<path d="M29.5,448.8h14.2c3.424,0,6.2-2.775,6.2-6.2V402 c0-3.424-2.776-6.2-6.2-6.2H29.5"/>
<path d="M29.5,395.8H15.1c-3.424,0-6.2,2.776-6.2,6.2v40.6 c0,3.425,2.776,6.2,6.2,6.2h14.4"/>
<line x1="29.5" y1="362.3" x2="29.5" y2="367.9"/>
<line x1="29.5" y1="395.8" x2="29.5" y2="367.9"/>
<line x1="29.5" y1="395.8" x2="29.5" y2="403.3"/>
<path d="M29.5,473.504C16.039,473.585,5.15,484.52,5.15,498 c0,13.531,10.969,24.5,24.5,24.5c13.531,0,24.5-10.969,24.5-24.5s-10.969-24.5-24.5-24.5C29.6,473.5,29.55,473.504,29.5,473.504" />
<line x1="29.5" y1="448.8" x2="29.5" y2="473.504"/>
<line x1="29.5" y1="448.8" x2="29.5" y2="442"/>
<line x1="29.5" y1="473.504" x2="29.5" y2="483"/>
</g>
</g>

</svg>
