<svg xmlns="http://www.w3.org/2000/svg"
     xmlns:xlink="http://www.w3.org/1999/xlink"
     viewBox="0 0 353.75528 75.611816">


<defs>

<style type="text/css"><![CDATA[

svg {
background-color: rgb(0, 58, 152);
}

path {
fill: rgb(255, 255, 255);
stroke-width: 1.35021102;
}

]]></style>
</defs>


<path d="m 79.677301,61.172383 c -2.403315,-0.47815 -2.902056,-1.22941 -2.227377,-3.35514 0.478135,-1.50647 1.314263,-6.01771 1.85806,-10.02498 l 0.988725,-7.28593 -4.837297,0.0207 c -6.82972,0.0292 -7.687684,0.98653 -9.038485,10.08538 l -1.199655,8.08074 -5.400844,0.90608 c -2.970464,0.49835 -5.799706,0.50759 -6.287203,0.0205 -0.884711,-0.88391 4.598635,-40.153385 5.770386,-41.325136 0.340008,-0.340009 3.21734,-1.033817 6.39407,-1.541798 l 5.775871,-0.923598 -0.947474,8.374566 -0.947474,8.374566 5.922599,-0.42419 5.922601,-0.42418 1.232845,-7.42616 c 0.678065,-4.084388 1.893255,-7.872552 2.700422,-8.418143 1.93101,-1.305233 10.245951,-1.322025 10.236926,-0.02067 -0.0039,0.556962 -2.747781,7.635831 -6.097593,15.730823 -3.349814,8.09498 -5.86341,14.94531 -5.585771,15.22295 0.277639,0.27764 3.78105,-4.52274 7.785356,-10.66752 4.004307,-6.144785 9.103341,-12.859807 11.331191,-14.922278 5.04383,-4.669414 12.56339,-6.784108 20.10298,-5.653476 8.26407,1.239273 9.38269,2.227616 8.26757,7.304698 -0.73169,3.331364 -1.45687,4.101756 -3.1823,3.380708 -1.22906,-0.513619 -5.12074,-1.241385 -8.64817,-1.617258 -6.18281,-0.658823 -6.4135,-0.557058 -6.4135,2.829236 0,2.607877 1.13028,4.08392 4.38819,5.73057 5.75759,2.91007 10.46413,7.28592 10.46413,9.7289 0,1.35315 -0.51974,1.55741 -1.68776,0.66328 -3.51503,-2.6908 -22.88524,-12.718485 -22.09357,-11.43753 0.45591,0.73768 5.68942,4.19075 11.63003,7.67349 5.9406,3.48273 10.80109,6.84254 10.80109,7.46623 0,3.53276 -3.19336,8.40119 -7.05495,10.7556 -4.95312,3.01992 -14.76487,3.56835 -22.987242,1.28488 -5.49972,-1.52735 -5.824418,-2.18208 -3.553673,-7.16582 1.329204,-2.91729 1.959853,-3.1563 5.276943,-1.99996 2.072032,0.72231 6.101562,1.1214 8.954512,0.88685 4.04246,-0.33233 5.27524,-1.04215 5.58616,-3.21641 0.30472,-2.13093 -1.17678,-3.64759 -6.27179,-6.42064 -3.6689,-1.99687 -7.092034,-4.69075 -7.606948,-5.9864 -0.652269,-1.64128 -2.470925,1.94402 -5.996499,11.82148 -5.288838,14.81753 -5.848905,15.40239 -13.325082,13.91499 z m -15.587126,-7.5015 c -0.374566,-0.92827 -0.681028,-0.16877 -0.681028,1.68777 0,1.85654 0.306462,2.61603 0.681028,1.68776 0.374564,-0.92827 0.374564,-2.44726 0,-3.37553 z m 208.888755,6.38226 c 0.63674,-1.65936 0.29063,-1.78974 -1.7921,-0.6751 -7.12302,3.81212 -18.96134,-2.01393 -18.96134,-9.33155 0,-3.00727 0.72131,-3.9624 3.37553,-4.46978 2.29365,-0.43846 3.37553,-0.0426 3.37553,1.23518 0,1.03425 1.06329,2.28308 2.36287,2.77519 1.29958,0.4921 3.13111,1.65357 4.07006,2.58103 3.75988,3.71386 13.20153,-3.15052 10.45217,-7.59907 -0.46306,-0.74926 -2.66472,-1.36229 -4.89257,-1.36229 -2.3566,0 -3.70164,-0.56468 -3.21616,-1.35021 0.48686,-0.78775 -0.88612,-1.35021 -3.29584,-1.35021 -2.33004,0 -5.30735,-1.17704 -6.83074,-2.70043 -1.48523,-1.48523 -3.1324,-2.65546 -3.66037,-2.6005 -1.80352,0.18772 -2.7,-4.819823 -1.5709,-8.774649 1.44526,-5.062151 7.19048,-11.055876 12.30727,-12.839596 3.41369,-1.190024 3.87818,-1.083747 3.18285,0.728259 -0.68521,1.785614 0.005,1.98321 4.35871,1.247673 3.84019,-0.648796 5.6229,-0.33167 6.91976,1.230958 0.9608,1.157698 2.59896,2.104906 3.64033,2.104906 2.18381,0 4.96871,6.352859 3.94937,9.009214 -0.95656,2.492746 -7.0587,2.251216 -8.04476,-0.318422 -0.44552,-1.160992 -1.35824,-1.772077 -2.02829,-1.357966 -0.67005,0.414112 -1.56666,-0.154973 -1.99248,-1.264632 -1.11412,-2.903359 -5.79493,-2.482443 -9.09525,0.817882 -3.59619,3.596195 -2.43501,4.744615 7.66236,7.578103 14.68338,4.12041 18.42705,9.57164 13.33538,19.41786 -3.18808,6.16507 -15.76524,12.88096 -13.61139,7.26815 z m 7.46951,-10.67689 c -0.35521,-0.35521 -1.45023,0.69361 -2.43339,2.33072 -1.70791,2.84396 -1.67913,2.87274 0.64585,0.64585 1.33837,-1.2819 2.14276,-2.62135 1.78754,-2.97657 z M 261.85053,23.966245 c 1.46784,-2.75473 1.40932,-2.865203 -0.62761,-1.184884 -1.23551,1.019199 -2.24637,2.386287 -2.24637,3.037975 0,2.062425 1.19984,1.288794 2.87398,-1.853091 z m 70.20965,35.897088 c 1.67514,-2.03066 1.56987,-2.09549 -1.09613,-0.67511 -4.19454,2.23476 -9.38468,1.94538 -13.63838,-0.76041 -4.77772,-3.03912 -5.64528,-4.36263 -5.67022,-8.65016 -0.0159,-2.72825 0.76483,-3.70583 3.35486,-4.20094 2.15955,-0.41283 3.37552,-0.0309 3.37552,1.06021 0,2.45961 7.97775,7.15101 10.87289,6.39391 3.59236,-0.93942 7.13011,-5.353 6.21089,-7.74848 -0.4742,-1.23569 -2.45276,-2.0756 -4.88951,-2.0756 -2.25115,0 -4.093,-0.6076 -4.093,-1.35021 0,-0.74262 -1.51899,-1.35021 -3.37553,-1.35021 -1.85654,0 -4.54008,-1.16456 -5.96343,-2.58791 -1.42334,-1.42334 -2.8931,-2.2827 -3.26614,-1.90967 -0.37302,0.37302 -1.37234,-0.61876 -2.22072,-2.20396 -3.16543,-5.914654 3.65386,-16.855064 12.61706,-20.241961 3.36862,-1.272888 3.75717,-1.174539 3.01373,0.762832 -0.71303,1.858159 -0.18179,2.089784 3.22866,1.407694 2.613,-0.522599 5.75976,0.02233 8.74356,1.514137 4.71915,2.35942 8.47332,8.400862 6.85123,11.025441 -1.35306,2.189308 -7.08364,1.702645 -7.99764,-0.67919 -0.44551,-1.160992 -1.35824,-1.772077 -2.02828,-1.357966 -0.67006,0.414112 -1.56667,-0.154973 -1.99248,-1.264632 -0.42582,-1.109659 -2.00847,-2.017561 -3.51702,-2.017561 -3.10681,0 -8.61962,4.88854 -7.51974,6.668195 0.39731,0.642869 4.97644,2.460981 10.17584,4.040251 5.19939,1.57926 9.45343,3.39063 9.45343,4.02526 0,0.63463 1.21519,1.47165 2.70042,1.86005 3.59578,0.94031 3.62401,8.20406 0.0547,14.05799 -2.69289,4.41645 -8.93215,8.50437 -12.97996,8.50437 -1.94799,0 -2.0035,-0.30815 -0.4046,-2.24637 z m 7.79755,-10.48708 c -0.35522,-0.35521 -1.45024,0.69361 -2.4334,2.33072 -1.7079,2.84396 -1.67913,2.87274 0.64585,0.64585 1.33837,-1.2819 2.14276,-2.62135 1.78755,-2.97657 z M 321.25981,23.966245 c 1.46784,-2.75473 1.40932,-2.865203 -0.6276,-1.184884 -1.23551,1.019199 -2.24638,2.386287 -2.24638,3.037975 0,2.062425 1.19984,1.288794 2.87398,-1.853091 z M 163.68237,59.578063 c 0.40158,-0.64979 -0.80964,-1.18144 -2.69162,-1.18144 -1.88198,0 -4.80205,-1.29669 -6.48904,-2.88155 -1.687,-1.58485 -3.41733,-2.53148 -3.84519,-2.10362 -0.42785,0.42786 -1.51376,-1.4517 -2.41312,-4.17679 -1.51374,-4.58665 -1.17084,-11.74944 0.8485,-17.72422 0.46116,-1.364499 -0.85151,-0.19996 -2.91705,2.58787 -2.06556,2.78783 -3.98191,4.84241 -4.25858,4.56574 -0.27667,-0.27667 0.78072,-3.93419 2.34976,-8.127812 2.98499,-7.978098 7.85845,-14.767075 12.31121,-17.150117 2.49434,-1.334927 2.47807,-1.115616 -0.32459,4.37807 l -2.95047,5.783393 4.8044,-4.218324 c 2.64242,-2.320077 6.52516,-4.596267 8.62832,-5.058198 5.35623,-1.176425 14.97448,3.621067 16.07849,8.019803 0.46168,1.839463 1.45013,2.967038 2.19655,2.505722 1.71947,-1.062692 3.70799,2.005699 3.73497,5.763234 0.0261,3.635539 -5.36937,5.420579 -7.55434,2.499279 -0.82449,-1.10234 -2.12071,-2.00425 -2.8805,-2.00425 -0.75979,0 -1.69842,-1.212124 -2.08583,-2.693607 -0.38742,-1.481484 -1.82537,-3.108053 -3.19545,-3.614595 -1.37009,-0.506542 -2.88154,-1.503237 -3.3588,-2.214878 -1.55921,-2.324961 -7.66222,0.334006 -10.76361,4.689499 -2.06808,2.904352 -3.17001,6.665301 -3.46059,11.811121 -0.23448,4.15244 -0.074,6.79039 0.35672,5.86212 1.18662,-2.55765 3.25843,-2.01889 3.25843,0.84733 0,3.45872 3.43658,6.04171 6.85051,5.14894 2.05653,-0.53779 2.61519,-0.21716 2.07488,1.19086 -1.09437,2.85189 1.16642,2.34316 5.48577,-1.23444 4.63568,-3.83958 9.89263,-5.41805 9.89263,-2.97039 0,2.67918 -5.23852,8.67876 -9.50365,10.88434 -4.18364,2.16345 -11.36725,2.73998 -10.17871,0.81691 z m 37.23511,-0.17852 c 0,-0.70136 1.21292,-3.26457 2.69537,-5.69602 2.64559,-4.33917 3.44084,-3.24956 1.87887,2.57438 -0.78989,2.94523 -4.57424,5.52781 -4.57424,3.12164 z m 35.75487,-2.01558 c 2.39146,-11.51844 2.42261,-11.24949 -0.74274,-6.4135 -3.51018,5.3628 -4.41901,5.54443 -3.37808,0.67511 1.79405,-8.39237 5.78702,-31.392408 5.44994,-31.392408 -0.19971,0 -1.68065,1.974684 -3.29097,4.388186 l -2.92786,4.388186 0.90143,-6.751055 c 1.11515,-8.351778 1.37647,-8.776372 5.40152,-8.776372 2.26331,0 3.02844,0.586398 2.51409,1.926801 -0.55135,1.436747 0.0286,1.725953 2.28042,1.137102 3.30479,-0.864224 3.267,-2.162579 0.48079,16.51416 l -0.8057,5.40084 2.77981,-3.37553 c 3.36386,-4.084734 3.41189,-3.36735 0.73584,10.99009 -2.03631,10.92511 -4.15415,14.66392 -8.30635,14.66392 -1.19926,0 -1.56091,-1.11776 -1.09214,-3.37553 z m 59.39901,-0.87825 c 0.50198,-2.48742 1.21026,-5.73778 1.57392,-7.22301 0.39082,-1.59613 -0.58774,-0.81923 -2.39298,1.89983 -1.67981,2.53014 -3.23355,4.04912 -3.45276,3.37553 -0.21919,-0.6736 1.044,-8.73923 2.80709,-17.92363 l 3.20565,-16.698897 -3.30527,3.871895 -3.30524,3.871894 0.81436,-5.947163 c 1.02983,-7.520621 1.5021,-8.230052 5.47874,-8.230052 2.26332,0 3.02844,0.586398 2.51409,1.926801 -0.53989,1.406932 0.018,1.728743 2.06769,1.192733 3.37847,-0.883489 3.46184,0.407331 0.88653,13.724968 l -1.82127,9.418341 3.21441,-4.0175 c 3.82786,-4.7842 3.85216,-4.5409 1.01478,10.15972 -2.44376,12.66124 -2.50675,12.78798 -7.03768,14.15987 -2.99856,0.90791 -3.12412,0.71024 -2.26206,-3.56133 z M 6.4807757,57.721523 C 6.4773056,56.793253 7.8443894,47.223633 9.5187504,36.455693 12.166325,19.428964 12.66373,17.669428 13.335678,22.953587 l 0.772634,6.07595 1.082948,-5.708698 c 0.961781,-5.069969 1.577832,-5.801538 5.506031,-6.538472 8.049128,-1.510026 8.93643,-0.704184 14.205509,12.90136 5.346458,13.805346 5.408709,13.800936 7.964714,-0.564616 0.784019,-4.406431 1.516744,-8.355798 1.628281,-8.776372 0.111536,-0.420574 0.627874,1.969498 1.147418,5.31127 0.935196,6.015304 0.946649,5.991724 1.147417,-2.362869 l 0.202794,-8.438819 h 4.725738 c 5.852121,0 5.863116,0.208703 1.209183,22.953582 -1.899376,9.28271 -3.50542,17.63714 -3.56899,18.56541 -0.07806,1.1399 -2.621108,1.68776 -7.834305,1.68776 h -7.718725 l -4.732672,-13.16456 -4.732673,-13.16455 -0.988799,8.10126 c -0.543839,4.4557 -1.429907,10.53165 -1.969038,13.50211 -1.092135,6.01736 -0.754645,6.69428 -4.712164,-9.45148 -1.092143,-4.45569 -1.71502,-5.97468 -1.384168,-3.37552 0.330851,2.59915 1.001647,7.91561 1.490657,11.81434 l 0.889111,7.08861 h -5.589743 c -3.5682838,0 -5.5920273,-0.61036 -5.5960603,-1.68776 z M 221.17064,57.604283 c 0,-1.32949 -0.90079,-1.75726 -2.7062,-1.28513 -2.46584,0.64483 -2.67571,0.12392 -2.36287,-5.86481 0.30877,-5.91082 0.0375,-6.61592 -2.69464,-7.00395 -1.67089,-0.2373 -3.03798,-0.99679 -3.03798,-1.68776 0,-1.85287 -4.8512,-1.52751 -6.43306,0.43146 -0.74959,0.92827 -1.80979,4.42194 -2.356,7.76371 -1.03831,6.35244 -2.39899,8.04611 -6.4918,8.08059 -1.69526,0.0143 -2.24751,-0.70979 -1.7864,-2.34219 0.36711,-1.29958 1.09066,-5.09705 1.60792,-8.43882 l 0.94043,-6.07595 -2.96121,3.37553 -2.96123,3.37553 0.67439,-3.37553 c 0.3709,-1.85654 1.68094,-8.93801 2.91119,-15.736603 l 2.23681,-12.361075 4.94662,-0.895667 c 2.72063,-0.492618 6.32057,-1.225575 7.99984,-1.628792 2.25515,-0.541493 2.86173,-0.234042 2.32056,1.176213 -0.56938,1.483787 0.34343,1.783706 4.0956,1.345662 3.3364,-0.389505 5.64408,0.174608 7.46848,1.82566 1.45211,1.314134 2.64949,1.83947 2.66086,1.167412 0.0114,-0.672059 0.60966,-0.310532 1.32954,0.803392 2.44854,3.788846 1.48124,10.438772 -2.14534,14.748728 -1.92257,2.28482 -2.83396,4.15423 -2.02532,4.15423 0.80863,0 1.48956,1.97468 1.51317,4.38818 0.0405,4.13644 0.15587,4.23892 2.01137,1.78633 2.87398,-3.79882 3.51727,-2.11846 2.33851,6.1085 -0.88005,6.14227 -1.52309,7.36323 -4.06924,7.72651 -1.96083,0.27977 -3.024,-0.26917 -3.024,-1.56136 z m -1.40404,-24.45925 c 0.89486,-1.07825 1.42496,-2.897837 1.17799,-4.043529 -0.31062,-1.440852 -1.15817,-0.836434 -2.74912,1.960454 -2.36957,4.165695 -1.31628,5.562185 1.57113,2.083075 z m -4.29533,-3.094911 c 2.95266,-3.964548 1.40739,-6.465754 -3.73322,-6.042625 -5.54601,0.456499 -5.184,0.130322 -6.29174,5.669016 l -0.90014,4.5007 4.59916,-0.90426 c 2.52953,-0.49735 5.37621,-1.94762 6.32594,-3.222831 z M 203.5394,27.509156 c 3.00732,-5.097031 2.89312,-6.756641 -0.37855,-5.501185 -1.46464,0.562037 -4.09505,10.397092 -2.78073,10.397092 0.14885,0 1.57051,-2.203157 3.15928,-4.895907 z" />
</svg>
