<svg xmlns="http://www.w3.org/2000/svg"
     xmlns:xlink="http://www.w3.org/1999/xlink"
     lang="en-GB"
     viewBox="0 0 353.75528 74">

<title>NHS Crisis App Logo</title>

<defs>

<style type="text/css"><![CDATA[

svg {
background-color: rgb(0, 58, 152);
}

path {
fill: rgb(255, 255, 255);
stroke-width: 1.35021102;
}

g {
transform: translate(5px, -28px) scale(0.225);
}

g rect {
fill: rgb(255, 255, 255);
}

g path {
fill: rgb(0, 58, 152);	
}

]]></style>
</defs>

<g>
<rect x="1" y="130.97873" width="580.12769" height="320.17023" />
<path d="M 0,291.06385 V 0 H 291.06385 582.12769 V 291.06385 582.12769 H 291.06385 0 Z m 378.561,90.38298 c 3.01877,-8.42553 7.74576,-21.75319 10.50441,-29.61702 2.75865,-7.86383 6.40521,-18.20426 8.10345,-22.97873 1.69825,-4.77447 8.14472,-22.92766 14.32549,-40.34043 8.282,-23.33245 11.24782,-30.64379 11.27598,-27.79756 0.021,2.1241 0.97442,6.64111 2.11869,10.03782 5.01949,14.90013 12.47806,21.50352 39.85863,35.28858 18.3749,9.25106 25.72506,15.3297 27.65616,22.8719 2.77039,10.82017 -3.13488,17.05692 -20.30938,21.44942 -16.42132,4.19987 -38.65355,0.84817 -59.32722,-8.94408 -4.11848,-1.95075 -7.72786,-3.3071 -8.02084,-3.01412 -0.74479,0.74478 -15.63997,37.33328 -15.63997,38.41798 0,1.82856 21.52317,7.70262 42.89362,11.70643 20.7956,3.89611 36.02453,5.03468 48.85868,3.65287 38.78027,-4.17533 63.70419,-26.43808 68.04042,-60.77562 l 0.64484,-5.10638 -14.09111,-8.59371 c -7.75012,-4.72654 -26.04006,-15.8116 -40.64431,-24.63347 -39.50015,-23.8605 -43.80982,-26.5175 -43.01152,-26.5175 0.40149,0 2.08587,0.70116 3.74308,1.55814 1.65722,0.85697 3.01312,1.16686 3.01312,0.68861 0,-0.80843 -13.15138,-8.91759 -26.80852,-16.53016 -3.22978,-1.8003 -5.85993,-3.57409 -5.84475,-3.94175 0.0151,-0.36766 1.40942,-4.34506 3.09835,-8.83868 1.68892,-4.49361 2.79581,-6.5617 2.45975,-4.59574 -0.33605,1.96596 -0.85565,4.97173 -1.15467,6.67949 -0.536,3.06126 -0.33723,3.22203 14.1084,11.41076 8.05864,4.56817 19.82229,10.87633 26.14144,14.01815 12.64227,6.28561 15.36967,8.35566 4.70408,3.57034 -3.7319,-1.6744 -7.02552,-2.80411 -7.31915,-2.51048 -0.72893,0.72892 -1.33151,0.36981 14.10443,8.4054 7.58298,3.94751 22.05957,11.53912 32.17021,16.87023 33.80606,17.82517 42.52261,22.23696 43.93445,22.23696 1.16528,0 1.13392,-0.90614 -0.18556,-5.3617 -2.27852,-7.69401 -3.70167,-10.0759 -10.23937,-17.1374 -7.16569,-7.73979 -12.77005,-11.5802 -32.90342,-22.54717 -15.85007,-8.63379 -24.45533,-15.08655 -27.20174,-20.39752 -2.90791,-5.62327 -1.48622,-15.76267 2.9786,-21.24312 0.63193,-0.77567 1.69377,-3.7629 2.35964,-6.6383 l 1.21067,-5.22798 -0.16873,4.59574 -0.16875,4.59575 18.36232,-0.35497 c 10.98557,-0.21237 20.92618,0.11332 24.74433,0.81072 7.56436,1.38165 19.87424,5.18435 24.46148,7.55651 1.79732,0.92942 3.65969,1.68987 4.1386,1.68987 0.47893,0 1.89943,-3.33192 3.15668,-7.40426 1.25724,-4.07234 3.90378,-12.39901 5.88117,-18.50372 1.97741,-6.10472 3.38038,-11.65951 3.11772,-12.344 -0.50939,-1.32744 -14.59142,-5.50068 -27.22277,-8.06753 -20.20595,-4.10609 -34.9298,-5.23494 -49.17906,-3.77044 -30.9907,3.18513 -51.87233,14.33546 -63.41669,33.86313 -4.39472,7.43383 -4.67381,7.32527 -1.68748,-0.65641 1.17825,-3.14919 1.90629,-5.96179 1.61785,-6.25023 -0.28844,-0.28845 -21.52295,31.10922 -47.18781,69.7726 -25.66485,38.66337 -47.05359,70.71348 -47.53054,71.22248 -0.9539,1.01801 1.97622,-6.44139 26.96493,-68.64638 16.23466,-40.41333 17.03301,-42.73451 18.96815,-55.14894 1.81219,-11.62573 2.00837,-12.25025 1.90556,-6.06637 -0.063,3.79146 0.10633,7.1145 0.37637,7.38454 0.27004,0.27003 4.77688,-10.0827 10.0152,-23.00608 5.23832,-12.92338 9.27405,-23.74723 8.96828,-24.05299 -0.50866,-0.50866 -25.75352,0.75451 -44.89437,2.24636 l -7.88811,0.61481 -0.52152,3.21522 c -1.03042,6.35264 -7.57427,54.40984 -8.22546,60.40672 -1.0988,10.119 -0.0449,9.36086 -14.05769,10.11315 -6.86561,0.36859 -19.73947,1.17462 -28.60855,1.79119 -8.86909,0.61656 -16.32581,0.92084 -16.57048,0.67616 -0.24467,-0.24468 -0.009,-3.17538 0.52422,-6.51268 1.19304,-7.47 1.17758,-7.36243 5.62755,-39.1419 1.99662,-14.25883 3.4063,-26.14906 3.13261,-26.42274 -0.27368,-0.27368 -7.52653,-0.0397 -16.11742,0.51992 -8.59089,0.55965 -20.60104,1.26942 -26.68922,1.57727 -6.08818,0.30784 -11.30941,0.79973 -11.60276,1.09307 -0.29335,0.29334 -1.39959,6.41849 -2.45834,13.61144 -2.89486,19.6672 -4.68566,31.70917 -7.56434,50.86533 -1.43496,9.54894 -4.88718,32.91045 -7.6716,51.91446 -5.60939,38.2848 -8.71219,58.63344 -10.21312,66.97928 -1.18607,6.59502 -1.29099,11.6217 -0.22894,10.96845 0.42128,-0.25912 11.33617,-1.03386 24.25532,-1.72164 12.91915,-0.68778 23.84851,-1.57438 24.28747,-1.97022 0.87393,-0.7881 -1.56998,-22.44437 -3.91695,-34.70939 -0.8121,-4.24394 -1.44035,-8.6354 -1.3961,-9.75881 0.10493,-2.66391 0.43776,-1.59309 2.46012,7.9149 2.47697,11.64528 3.75925,9.98365 3.1525,-4.08511 -0.61347,-14.22475 -0.0303,-13.29096 1.43489,2.29787 2.73259,29.07227 3.44438,35.23405 4.07008,35.23405 0.62425,0 3.40741,-16.65098 6.65741,-39.82979 2.96226,-21.12674 5.83552,-39.34273 6.27569,-39.78688 0.25494,-0.25725 9.98072,-1.03322 21.61283,-1.72439 11.63211,-0.69116 24.48121,-1.56872 28.55356,-1.95013 4.3864,-0.41083 7.40425,-0.30591 7.40425,0.2574 0,0.89427 -1.04717,8.94826 -4.62141,35.54442 -0.83036,6.17873 -2.21419,17.19173 -3.07518,24.47336 -2.09234,17.69552 -2.04926,17.56231 -7.87412,24.34613 -2.79851,3.25922 -4.86892,6.14514 -4.6009,6.41316 0.26801,0.26801 7.09924,1.38428 15.18051,2.48063 8.08128,1.09633 19.05919,2.6467 24.39536,3.44527 5.33617,0.79857 10.34552,1.38161 11.13189,1.29563 0.87049,-0.0952 3.57673,-6.14859 6.91845,-15.47545 z m -41.14323,-14.68128 c 2.54373,-6.03141 5.07895,-9.99475 9.08576,-14.20392 3.05664,-3.21101 10.40102,-11.3531 16.32082,-18.09353 5.9198,-6.74042 13.14206,-14.78298 16.04946,-17.87234 4.99905,-5.3119 4.93513,-5.17837 -1.17677,2.45812 -7.98847,9.98117 -27.96178,34.59496 -35.25239,43.44272 -5.58828,6.78184 -7.1759,10.11869 -3.12548,6.56915 2.8371,-2.48627 6.75617,-5.27298 5.3617,-3.81251 -0.5617,0.58829 -3.21953,3.0515 -5.90629,5.47382 l -4.88502,4.4042 z M 257.9291,334.41136 c -0.3845,-2.04954 -0.49484,-3.9307 -0.24519,-4.18034 0.24964,-0.24965 0.76849,1.223 1.15298,3.27255 0.3845,2.04954 0.49484,3.9307 0.24519,4.18034 -0.24964,0.24965 -0.76849,-1.223 -1.15298,-3.27255 z m 127.60284,-25.98581 c 1.01667,-1.12341 2.07827,-2.04256 2.35912,-2.04256 0.28085,0 -0.32118,0.91915 -1.33785,2.04256 -1.01667,1.1234 -2.07828,2.04255 -2.35913,2.04255 -0.28085,0 0.32118,-0.91915 1.33786,-2.04255 z m 46.49936,-78.12767 c 0,-0.5617 0.4455,-1.71063 0.99,-2.55319 0.5445,-0.84255 0.98999,-1.07234 0.98999,-0.51064 0,0.56171 -0.44549,1.71064 -0.98999,2.5532 -0.5445,0.84255 -0.99,1.07234 -0.99,0.51063 z M 272.34044,213.78724 c -0.37447,-0.37446 -0.65172,-1.63829 -0.61611,-2.80851 0.0595,-1.95635 0.14351,-1.9307 1.04321,0.31849 1.00015,2.50031 0.79269,3.70981 -0.4271,2.49002 z m 118.96977,-1.3617 c 0,-1.40425 0.23181,-1.97872 0.51512,-1.27659 0.28331,0.70212 0.28331,1.85106 0,2.55319 -0.28331,0.70213 -0.51512,0.12766 -0.51512,-1.2766 z m -124.1202,-14.84799 c -0.98551,-2.5682 -0.69478,-3.23086 0.50914,-1.16052 0.59611,1.02511 0.8687,2.07897 0.60575,2.34192 -0.26295,0.26295 -0.76465,-0.26869 -1.11489,-1.1814 z M 32.959059,382.57743 c 12.229609,-0.74063 22.41033,-1.52778 22.623823,-1.74923 0.63039,-0.6539 -9.260847,-68.52176 -10.403307,-71.38138 -0.336611,-0.84255 -1.160614,2.14469 -1.831116,6.6383 l -1.219096,8.17022 -0.12851,-5.93262 c -0.160345,-7.40221 -2.107472,-6.87341 -2.324084,0.63119 -0.08416,2.91579 -0.324246,4.15249 -0.533522,2.74823 -0.209276,-1.40425 0.0047,-7.83829 0.475525,-14.29787 0.551927,-7.57243 0.413117,-18.81936 -0.390744,-31.65957 -0.685724,-10.9532 -1.830381,-34.50639 -2.543682,-52.34043 -0.713299,-17.83405 -1.676103,-32.42554 -2.139562,-32.42554 -0.463461,0 -0.842655,0.39814 -0.842655,0.88476 0,0.98076 -6.54188,44.08402 -8.1583,53.75354 -3.829311,22.9072 -10.124716,63.04279 -13.856497,88.34043 -0.787165,5.33617 -2.5982211,16.82554 -4.0245691,25.53192 -1.4263481,8.70638 -2.877294,17.78298 -3.2243242,20.17021 l -0.6309641,4.34043 3.4579651,-0.038 c 1.9018808,-0.0209 13.4640093,-0.64397 25.6936193,-1.38459 z m 5.065116,-54.74763 c 0,-1.96595 0.210174,-2.77021 0.467054,-1.78723 0.256878,0.98298 0.256878,2.59149 0,3.57447 -0.25688,0.98298 -0.467054,0.17872 -0.467054,-1.78724 z m 33.400055,35.74469 c 1.267538,-10.39149 3.162006,-24.86809 4.20993,-32.17022 1.047924,-7.30213 3.321422,-23.84681 5.052217,-36.76596 1.730796,-12.91915 3.719522,-26.92118 4.41939,-31.11561 l 1.272489,-7.62625 4.74589,13.75391 c 4.977812,14.42603 13.370364,38.00403 22.708264,63.79647 3.05038,8.42553 8.09904,22.40455 11.21924,31.06449 3.1202,8.65994 5.81116,15.88341 5.97989,16.05216 0.16875,0.16873 9.70462,-0.34843 21.19083,-1.14928 11.48621,-0.80084 25.02019,-1.55024 30.07551,-1.66532 5.05532,-0.11509 11.16036,-0.41395 13.56676,-0.66412 4.30096,-0.44713 4.37284,-0.51804 4.23216,-4.17406 -0.13448,-3.49508 3.89693,-26.35403 13.44392,-76.22983 2.25789,-11.79575 5.45379,-28.8 7.102,-37.78724 1.64822,-8.98723 3.44398,-18.6383 3.99058,-21.44681 0.5466,-2.80851 2.40803,-12.68936 4.13651,-21.95745 2.78775,-14.94792 3.93489,-20.86041 5.71565,-29.4593 l 0.49608,-2.39548 -24.17869,0.35292 -24.1787,0.35293 0.67458,12.76595 c 0.37101,7.02128 1.106,18.74043 1.63329,26.04256 0.52731,7.30213 1.4422,20.62979 2.03309,29.61702 0.5909,8.98724 1.53808,23.23404 2.10486,31.65958 4.4871,66.70417 5.71491,92.80098 4.25236,90.38298 -0.50963,-0.84255 -1.49856,-8.65532 -2.19764,-17.3617 -0.69909,-8.70639 -1.46155,-17.66809 -1.69438,-19.9149 -0.23282,-2.24681 -1.10912,-12.12766 -1.94732,-21.95745 -1.54929,-18.1688 -3.91605,-44.5681 -5.19345,-57.92873 -0.38784,-4.05655 -1.09994,-7.13155 -1.58246,-6.83335 -0.4825,0.29821 -0.87728,4.16455 -0.87728,8.59187 0,4.42731 -0.45958,8.3337 -1.02128,8.68085 -0.64189,0.39672 -1.02967,-1.95207 -1.04389,-6.3227 -0.0502,-15.45539 -1.11385,-49.1142 -1.68811,-53.42198 -0.84853,-6.36529 -0.61281,-7.44494 -11.65017,53.3617 -5.27631,29.06809 -9.86639,52.85107 -10.20016,52.85107 -0.33379,0 -1.09867,-1.49362 -1.69975,-3.31915 -0.60109,-1.82553 -5.06655,-13.65958 -9.92326,-26.29787 -4.85671,-12.6383 -9.49485,-24.81703 -10.30698,-27.06384 -0.81212,-2.2468 -6.94534,-18.33191 -13.62939,-35.74468 l -12.1528,-31.65957 -9.04424,0.0515 c -12.326778,0.0702 -50.98157,2.61642 -52.325161,3.44681 -0.653965,0.40417 -1.912599,13.4502 -3.164348,32.79919 -1.143158,17.67042 -2.266178,33.277 -2.495598,34.68125 -0.229421,1.40426 1.35422,11.28511 3.519202,21.95745 2.164983,10.67234 6.9527,34.34043 10.639373,52.59575 8.442062,41.80261 9.91872,48.27786 10.781103,47.27589 0.382402,-0.44429 1.732352,-9.30993 2.999889,-19.70142 z" />
</g>

<path d="M 272.97893,60.053143 c 0.63674,-1.65936 0.29063,-1.78974 -1.7921,-0.6751 -7.12302,3.81212 -18.96134,-2.01393 -18.96134,-9.33155 0,-3.00727 0.72131,-3.9624 3.37553,-4.46978 2.29365,-0.43846 3.37553,-0.0426 3.37553,1.23518 0,1.03425 1.06329,2.28308 2.36287,2.77519 1.29958,0.4921 3.13111,1.65357 4.07006,2.58103 3.75988,3.71386 13.20153,-3.15052 10.45217,-7.59907 -0.46306,-0.74926 -2.66472,-1.36229 -4.89257,-1.36229 -2.3566,0 -3.70164,-0.56468 -3.21616,-1.35021 0.48686,-0.78775 -0.88612,-1.35021 -3.29584,-1.35021 -2.33004,0 -5.30735,-1.17704 -6.83074,-2.70043 -1.48523,-1.48523 -3.1324,-2.65546 -3.66037,-2.6005 -1.80352,0.18772 -2.7,-4.819823 -1.5709,-8.774649 1.44526,-5.062151 7.19048,-11.055876 12.30727,-12.839596 3.41369,-1.190024 3.87818,-1.083747 3.18285,0.728259 -0.68521,1.785614 0.005,1.98321 4.35871,1.247673 3.84019,-0.648796 5.6229,-0.33167 6.91976,1.230958 0.9608,1.157698 2.59896,2.104906 3.64033,2.104906 2.18381,0 4.96871,6.352859 3.94937,9.009214 -0.95656,2.492746 -7.0587,2.251216 -8.04476,-0.318422 -0.44552,-1.160992 -1.35824,-1.772077 -2.02829,-1.357966 -0.67005,0.414112 -1.56666,-0.154973 -1.99248,-1.264632 -1.11412,-2.903359 -5.79493,-2.482443 -9.09525,0.817882 -3.59619,3.596195 -2.43501,4.744615 7.66236,7.578103 14.68338,4.12041 18.42705,9.57164 13.33538,19.41786 -3.18808,6.16507 -15.76524,12.88096 -13.61139,7.26815 z" />

<path d="M 280.44.844,49.376253 c -0.35521,-0.35521 -1.45023,0.69361 -2.43339,2.33072 -1.70791,2.84396 -1.67913,2.87274 0.64585,0.64585 1.33837,-1.2819 2.14276,-2.62135 1.78754,-2.97657 z" />

<path d="M 261.85053,23.966245 c 1.46784,-2.75473 1.40932,-2.865203 -0.62761,-1.184884 -1.23551,1.019199 -2.24637,2.386287 -2.24637,3.037975 0,2.062425 1.19984,1.288794 2.87398,-1.853091 z m 70.20965,35.897088 c 1.67514,-2.03066 1.56987,-2.09549 -1.09613,-0.67511 -4.19454,2.23476 -9.38468,1.94538 -13.63838,-0.76041 -4.77772,-3.03912 -5.64528,-4.36263 -5.67022,-8.65016 -0.0159,-2.72825 0.76483,-3.70583 3.35486,-4.20094 2.15955,-0.41283 3.37552,-0.0309 3.37552,1.06021 0,2.45961 7.97775,7.15101 10.87289,6.39391 3.59236,-0.93942 7.13011,-5.353 6.21089,-7.74848 -0.4742,-1.23569 -2.45276,-2.0756 -4.88951,-2.0756 -2.25115,0 -4.093,-0.6076 -4.093,-1.35021 0,-0.74262 -1.51899,-1.35021 -3.37553,-1.35021 -1.85654,0 -4.54008,-1.16456 -5.96343,-2.58791 -1.42334,-1.42334 -2.8931,-2.2827 -3.26614,-1.90967 -0.37302,0.37302 -1.37234,-0.61876 -2.22072,-2.20396 -3.16543,-5.914654 3.65386,-16.855064 12.61706,-20.241961 3.36862,-1.272888 3.75717,-1.174539 3.01373,0.762832 -0.71303,1.858159 -0.18179,2.089784 3.22866,1.407694 2.613,-0.522599 5.75976,0.02233 8.74356,1.514137 4.71915,2.35942 8.47332,8.400862 6.85123,11.025441 -1.35306,2.189308 -7.08364,1.702645 -7.99764,-0.67919 -0.44551,-1.160992 -1.35824,-1.772077 -2.02828,-1.357966 -0.67006,0.414112 -1.56667,-0.154973 -1.99248,-1.264632 -0.42582,-1.109659 -2.00847,-2.017561 -3.51702,-2.017561 -3.10681,0 -8.61962,4.88854 -7.51974,6.668195 0.39731,0.642869 4.97644,2.460981 10.17584,4.040251 5.19939,1.57926 9.45343,3.39063 9.45343,4.02526 0,0.63463 1.21519,1.47165 2.70042,1.86005 3.59578,0.94031 3.62401,8.20406 0.0547,14.05799 -2.69289,4.41645 -8.93215,8.50437 -12.97996,8.50437 -1.94799,0 -2.0035,-0.30815 -0.4046,-2.24637 z m 7.79755,-10.48708 c -0.35522,-0.35521 -1.45024,0.69361 -2.4334,2.33072 -1.7079,2.84396 -1.67913,2.87274 0.64585,0.64585 1.33837,-1.2819 2.14276,-2.62135 1.78755,-2.97657 z" />

<path d="M 321.25981,23.966245 c 1.46784,-2.75473 1.40932,-2.865203 -0.6276,-1.184884 -1.23551,1.019199 -2.24638,2.386287 -2.24638,3.037975 0,2.062425 1.19984,1.288794 2.87398,-1.853091 z" />

<path d="M 163.68237,59.578063 c 0.40158,-0.64979 -0.80964,-1.18144 -2.69162,-1.18144 -1.88198,0 -4.80205,-1.29669 -6.48904,-2.88155 -1.687,-1.58485 -3.41733,-2.53148 -3.84519,-2.10362 -0.42785,0.42786 -1.51376,-1.4517 -2.41312,-4.17679 -1.51374,-4.58665 -1.17084,-11.74944 0.8485,-17.72422 0.46116,-1.364499 -0.85151,-0.19996 -2.91705,2.58787 -2.06556,2.78783 -3.98191,4.84241 -4.25858,4.56574 -0.27667,-0.27667 0.78072,-3.93419 2.34976,-8.127812 2.98499,-7.978098 7.85845,-14.767075 12.31121,-17.150117 2.49434,-1.334927 2.47807,-1.115616 -0.32459,4.37807 l -2.95047,5.783393 4.8044,-4.218324 c 2.64242,-2.320077 6.52516,-4.596267 8.62832,-5.058198 5.35623,-1.176425 14.97448,3.621067 16.07849,8.019803 0.46168,1.839463 1.45013,2.967038 2.19655,2.505722 1.71947,-1.062692 3.70799,2.005699 3.73497,5.763234 0.0261,3.635539 -5.36937,5.420579 -7.55434,2.499279 -0.82449,-1.10234 -2.12071,-2.00425 -2.8805,-2.00425 -0.75979,0 -1.69842,-1.212124 -2.08583,-2.693607 -0.38742,-1.481484 -1.82537,-3.108053 -3.19545,-3.614595 -1.37009,-0.506542 -2.88154,-1.503237 -3.3588,-2.214878 -1.55921,-2.324961 -7.66222,0.334006 -10.76361,4.689499 -2.06808,2.904352 -3.17001,6.665301 -3.46059,11.811121 -0.23448,4.15244 -0.074,6.79039 0.35672,5.86212 1.18662,-2.55765 3.25843,-2.01889 3.25843,0.84733 0,3.45872 3.43658,6.04171 6.85051,5.14894 2.05653,-0.53779 2.61519,-0.21716 2.07488,1.19086 -1.09437,2.85189 1.16642,2.34316 5.48577,-1.23444 4.63568,-3.83958 9.89263,-5.41805 9.89263,-2.97039 0,2.67918 -5.23852,8.67876 -9.50365,10.88434 -4.18364,2.16345 -11.36725,2.73998 -10.17871,0.81691 z m 37.23511,-0.17852 c 0,-0.70136 1.21292,-3.26457 2.69537,-5.69602 2.64559,-4.33917 3.44084,-3.24956 1.87887,2.57438 -0.78989,2.94523 -4.57424,5.52781 -4.57424,3.12164 z m 35.75487,-2.01558 c 2.39146,-11.51844 2.42261,-11.24949 -0.74274,-6.4135 -3.51018,5.3628 -4.41901,5.54443 -3.37808,0.67511 1.79405,-8.39237 5.78702,-31.392408 5.44994,-31.392408 -0.19971,0 -1.68065,1.974684 -3.29097,4.388186 l -2.92786,4.388186 0.90143,-6.751055 c 1.11515,-8.351778 1.37647,-8.776372 5.40152,-8.776372 2.26331,0 3.02844,0.586398 2.51409,1.926801 -0.55135,1.436747 0.0286,1.725953 2.28042,1.137102 3.30479,-0.864224 3.267,-2.162579 0.48079,16.51416 l -0.8057,5.40084 2.77981,-3.37553 c 3.36386,-4.084734 3.41189,-3.36735 0.73584,10.99009 -2.03631,10.92511 -4.15415,14.66392 -8.30635,14.66392 -1.19926,0 -1.56091,-1.11776 -1.09214,-3.37553 z m 59.39901,-0.87825 c 0.50198,-2.48742 1.21026,-5.73778 1.57392,-7.22301 0.39082,-1.59613 -0.58774,-0.81923 -2.39298,1.89983 -1.67981,2.53014 -3.23355,4.04912 -3.45276,3.37553 -0.21919,-0.6736 1.044,-8.73923 2.80709,-17.92363 l 3.20565,-16.698897 -3.30527,3.871895 -3.30524,3.871894 0.81436,-5.947163 c 1.02983,-7.520621 1.5021,-8.230052 5.47874,-8.230052 2.26332,0 3.02844,0.586398 2.51409,1.926801 -0.53989,1.406932 0.018,1.728743 2.06769,1.192733 3.37847,-0.883489 3.46184,0.407331 0.88653,13.724968 l -1.82127,9.418341 3.21441,-4.0175 c 3.82786,-4.7842 3.85216,-4.5409 1.01478,10.15972 -2.44376,12.66124 -2.50675,12.78798 -7.03768,14.15987 -2.99856,0.90791 -3.12412,0.71024 -2.26206,-3.56133 z" />

<path d="M 221.17064,57.604283 c 0,-1.32949 -0.90079,-1.75726 -2.7062,-1.28513 -2.46584,0.64483 -2.67571,0.12392 -2.36287,-5.86481 0.30877,-5.91082 0.0375,-6.61592 -2.69464,-7.00395 -1.67089,-0.2373 -3.03798,-0.99679 -3.03798,-1.68776 0,-1.85287 -4.8512,-1.52751 -6.43306,0.43146 -0.74959,0.92827 -1.80979,4.42194 -2.356,7.76371 -1.03831,6.35244 -2.39899,8.04611 -6.4918,8.08059 -1.69526,0.0143 -2.24751,-0.70979 -1.7864,-2.34219 0.36711,-1.29958 1.09066,-5.09705 1.60792,-8.43882 l 0.94043,-6.07595 -2.96121,3.37553 -2.96123,3.37553 0.67439,-3.37553 c 0.3709,-1.85654 1.68094,-8.93801 2.91119,-15.736603 l 2.23681,-12.361075 4.94662,-0.895667 c 2.72063,-0.492618 6.32057,-1.225575 7.99984,-1.628792 2.25515,-0.541493 2.86173,-0.234042 2.32056,1.176213 -0.56938,1.483787 0.34343,1.783706 4.0956,1.345662 3.3364,-0.389505 5.64408,0.174608 7.46848,1.82566 1.45211,1.314134 2.64949,1.83947 2.66086,1.167412 0.0114,-0.672059 0.60966,-0.310532 1.32954,0.803392 2.44854,3.788846 1.48124,10.438772 -2.14534,14.748728 -1.92257,2.28482 -2.83396,4.15423 -2.02532,4.15423 0.80863,0 1.48956,1.97468 1.51317,4.38818 0.0405,4.13644 0.15587,4.23892 2.01137,1.78633 2.87398,-3.79882 3.51727,-2.11846 2.33851,6.1085 -0.88005,6.14227 -1.52309,7.36323 -4.06924,7.72651 -1.96083,0.27977 -3.024,-0.26917 -3.024,-1.56136 z m -1.40404,-24.45925 c 0.89486,-1.07825 1.42496,-2.897837 1.17799,-4.043529 -0.31062,-1.440852 -1.15817,-0.836434 -2.74912,1.960454 -2.36957,4.165695 -1.31628,5.562185 1.57113,2.083075 z m -4.29533,-3.094911 c 2.95266,-3.964548 1.40739,-6.465754 -3.73322,-6.042625 -5.54601,0.456499 -5.184,0.130322 -6.29174,5.669016 l -0.90014,4.5007 4.59916,-0.90426 c 2.52953,-0.49735 5.37621,-1.94762 6.32594,-3.222831 z" />

<path d="M 203.5394,27.509156 c 3.00732,-5.097031 2.89312,-6.756641 -0.37855,-5.501185 -1.46464,0.562037 -4.09505,10.397092 -2.78073,10.397092 0.14885,0 1.57051,-2.203157 3.15928,-4.895907 z" />
</svg>
