<svg xmlns="http://www.w3.org/2000/svg"
     xmlns:xlink="http://www.w3.org/1999/xlink"
     viewBox="0 0 436.08511 239.84553">


<defs>
<style type="text/css"><![CDATA[

svg > path, svg > g {
transform: translateY(-40px);
}

g {
transform: translateX(2px);
}

path {
stroke-width: 1.02127659; 
fill: rgb(0, 0, 0);
}

g path {
fill: rgb(19, 191, 60);
}

g + path {
fill: rgb(229, 23, 23);
}

rect {
fill: rgb(255, 255, 255);
}

]]></style>
</defs>

<path d="m 204.25532,223.8178 c 0,-2.27664 8.97627,-21.0944 10.06225,-21.0944 1.04919,0 8.01465,14.12389 9.90906,20.09262 1.0398,3.27613 -2.68138,2.14471 -3.9435,-1.19901 -1.05704,-2.80042 -1.56557,-3.06383 -5.91505,-3.06383 -4.32444,0 -4.87436,0.27952 -6.02765,3.06383 -1.14279,2.75893 -4.08511,4.34406 -4.08511,2.20079 z m 11.85395,-10.96517 c -0.34096,-0.88849 -0.61991,-2.03743 -0.61991,-2.55319 0,-1.85973 -1.73948,-0.88335 -2.87801,1.61544 -1.07757,2.36504 -0.96871,2.5532 1.47726,2.5532 1.98826,0 2.48742,-0.39907 2.02066,-1.61545 z m 11.38009,11.12421 c -1.08865,-0.28448 -1.78723,-1.44496 -1.78723,-2.9689 0,-2.43183 0.0712,-2.45517 2.54531,-0.83409 1.39991,0.91725 3.23821,1.40185 4.0851,1.07687 2.73131,-1.04811 1.56849,-4.15596 -2.6462,-7.07249 -3.54833,-2.45543 -4.06519,-3.28989 -3.79103,-6.12056 0.39918,-4.12123 4.33766,-6.40147 8.39343,-4.85947 4.05036,1.53995 3.37852,3.86615 -1.07635,3.72679 -4.98105,-0.15582 -5.39367,1.79776 -0.98874,4.68108 3.28662,2.1513 5.7338,5.57272 5.7338,8.01644 0,0.53527 -0.91915,1.89237 -2.04255,3.01578 -1.94967,1.94967 -4.52278,2.35845 -8.42554,1.33855 z m 13.2766,-0.39908 c -0.98298,-0.57253 -1.78723,-1.70749 -1.78723,-2.52213 0,-1.76545 0.50443,-1.82964 3.16954,-0.40332 2.43447,1.30289 6.02194,0.34653 6.02194,-1.60534 0,-0.77611 -1.63051,-2.65477 -3.62336,-4.1748 -1.99286,-1.52002 -4.07711,-3.6115 -4.63169,-4.64771 -2.23902,-4.18366 3.69704,-8.91752 8.76569,-6.99043 3.99579,1.51919 3.32348,4.08169 -0.89144,3.39771 -5.42982,-0.88114 -5.47178,1.27785 -0.1217,6.26009 3.94423,3.67304 4.65901,4.87464 4.07203,6.84544 -1.34698,4.52255 -6.62899,6.3711 -10.97378,3.84049 z m 13.53191,-9.57159 v -10.77214 h 6.12766 c 4.76596,0 6.12766,0.34043 6.12766,1.53192 0,1.10638 -1.13475,1.53191 -4.0851,1.53191 -3.64965,0 -4.08511,0.2656 -4.08511,2.49154 0,2.14081 0.53793,2.53617 3.82129,2.80851 2.67059,0.22153 3.92329,0.85517 4.16,2.10421 0.27763,1.46505 -0.41123,1.78723 -3.8213,1.78723 -3.73036,0 -4.15999,0.25763 -4.15999,2.49447 0,2.20456 0.50445,2.53097 4.34043,2.80851 3.03773,0.21979 4.34042,0.77382 4.34042,1.84596 0,1.16587 -1.5252,1.60457 -6.38298,1.83597 l -6.38298,0.30404 z m 15.31915,0.0262 c 0,-9.68615 0.18786,-10.79829 1.824,-10.79829 1.0032,0 3.24947,1.8547 4.99171,4.12155 l 3.1677,4.12154 3.26433,-4.12154 c 1.81427,-2.29069 4.1494,-4.12155 5.25678,-4.12155 1.86499,0 1.97385,0.66902 1.70142,10.45611 -0.25078,9.00984 -0.53825,10.50344 -2.07828,10.79829 -1.57673,0.30188 -1.79126,-0.59887 -1.82147,-7.6476 l -0.0342,-7.98978 -3.13494,3.83765 -3.13495,3.83764 -2.91207,-3.66438 -2.91208,-3.66436 -0.30171,7.47547 c -0.24881,6.1645 -0.61515,7.53528 -2.08895,7.81651 -1.61094,0.30739 -1.78724,-0.72411 -1.78724,-10.45726 z m 24.17022,9.96767 c -0.37447,-0.37446 -0.68085,-5.2 -0.68085,-10.72341 v -10.04255 h 4.66288 c 6.24985,0 8.61371,1.39467 8.61371,5.08205 0,1.63219 -0.44281,3.2413 -0.98403,3.57578 -0.54932,0.33951 -0.0981,1.49402 1.02128,2.61346 4.77342,4.77343 0.54216,10.17552 -7.97011,10.17552 -2.19011,0 -4.28842,-0.30638 -4.66288,-0.68085 z m 10.3689,-5.70213 c -0.25013,-1.76119 -1.10155,-2.37262 -3.6455,-2.6179 -2.96468,-0.28584 -3.31915,-0.0404 -3.31915,2.29788 0,2.32074 0.41379,2.61789 3.6455,2.61789 3.19636,0 3.60529,-0.2831 3.31915,-2.29787 z m -1.34763,-9.44681 c 0,-1.46904 -0.78857,-2.13328 -2.80851,-2.3657 -2.43451,-0.28013 -2.80851,0.0349 -2.80851,2.3657 0,2.3308 0.374,2.64584 2.80851,2.36571 2.01994,-0.23242 2.80851,-0.89666 2.80851,-2.36571 z m 8.34043,15.14894 c -0.37447,-0.37446 -0.68085,-5.2 -0.68085,-10.72341 0,-9.36169 0.13847,-10.04255 2.04255,-10.04255 1.88236,0 2.04255,0.68086 2.04255,8.68085 v 8.68085 h 4.59575 c 3.91489,0 4.59574,0.30261 4.59574,2.04256 0,1.80912 -0.68085,2.04255 -5.95744,2.04255 -3.2766,0 -6.26384,-0.30638 -6.6383,-0.68085 z m 16.67093,-5.11661 c -0.009,-5.27908 -0.42086,-6.46353 -3.66795,-10.54296 -3.01966,-3.79372 -3.35659,-4.6568 -1.93062,-4.9456 0.99812,-0.20215 2.92286,1.08208 4.55889,3.04177 l 2.83146,3.39164 2.77432,-3.2971 c 1.52588,-1.81341 3.70798,-3.2971 4.84912,-3.2971 1.84546,0 1.67223,0.49127 -1.56723,4.44461 -3.11458,3.80094 -3.68702,5.31547 -3.95281,10.45816 -0.24634,4.76639 -0.68145,6.08409 -2.09803,6.35369 -1.53559,0.29223 -1.78863,-0.49724 -1.79715,-5.60711 z M 137.61495,199.79641 c -11.03203,-4.11554 -17.11531,-13.0318 -17.09433,-25.0552 0.027,-15.46425 12.85679,-26.68519 29.02725,-25.38717 7.50994,0.60282 11.86476,2.63112 17.66919,8.22956 5.49496,5.29998 7.88424,12.01338 7.15149,20.09427 -0.84463,9.31473 -5.60559,16.14162 -14.40145,20.65068 -5.35122,2.74322 -16.90039,3.50165 -22.35215,1.46786 z m 18.24829,-7.70769 c 9.3243,-4.23434 13.40353,-16.13102 8.6955,-25.35954 -6.56159,-12.86178 -25.29373,-13.62231 -33.55571,-1.36237 -4.65451,6.90682 -2.62687,19.01798 4.14099,24.73429 4.8731,4.11595 14.08626,4.99978 20.71922,1.98762 z m 159.67231,6.80489 c -4.20204,-2.11897 -4.58127,-2.6358 -4.87087,-6.6383 -0.17271,-2.38723 -0.0538,-4.34042 0.26417,-4.34042 0.31801,0 2.48147,1.37872 4.8077,3.06382 8.97028,6.49805 18.94126,2.26069 15.53961,-6.60385 -0.35131,-0.91548 -4.43134,-4.16214 -9.06674,-7.21478 -6.0625,-3.99248 -8.92436,-6.59626 -10.19645,-9.27701 -4.60457,-9.70341 3.5464,-19.53903 15.37915,-18.55776 7.36116,0.61043 10.65044,2.91568 10.65044,7.46418 0,1.95301 -0.2481,3.55093 -0.55133,3.55093 -0.30323,0 -2.353,-0.91915 -4.55506,-2.04255 -2.20205,-1.12341 -5.63055,-2.04256 -7.61888,-2.04256 -3.6775,0 -7.70027,2.81573 -7.70027,5.38978 0,2.43291 3.14032,5.80329 7.96198,8.54529 2.64219,1.50257 6.53307,4.36579 8.6464,6.36271 13.72731,12.97121 -1.40351,31.05751 -18.68985,22.34052 z M 48,175.14893 v -25.02128 h 10.245569 c 6.606502,0 11.495569,0.52228 13.764871,1.47046 7.619405,3.18359 10.280986,14.6493 4.888309,21.05814 -3.649131,4.33675 -8.095349,6.06715 -15.58935,6.06715 h -6.160462 v 10.7234 10.7234 H 51.574469 48 Z m 21.219569,-5.16429 c 1.680982,-1.17741 2.269793,-2.61561 2.269793,-5.54408 0,-5.74123 -1.941298,-7.16397 -9.775076,-7.16397 h -6.565349 v 7.14893 7.14894 h 5.900419 c 3.687438,0 6.751716,-0.59627 8.170213,-1.58982 z m 16.567666,5.16429 v -25.02128 h 14.297875 14.29787 v 3.57447 3.57447 H 104.17021 93.957448 v 7.14893 7.14894 h 10.212762 10.21277 v 3.57447 3.57447 H 104.17021 93.957448 v 7.11321 7.1132 l 10.468082,0.29105 10.46809,0.29105 0.32003,3.31914 0.32002,3.31915 H 100.66045 85.787235 Z m 97.021275,0 v -25.02128 h 10.24557 c 6.60651,0 11.49557,0.52228 13.76487,1.47046 7.61941,3.18359 10.28099,14.6493 4.88831,21.05814 -3.64913,4.33675 -8.09535,6.06715 -15.58935,6.06715 h -6.16046 v 10.7234 10.7234 h -3.57447 -3.57447 z m 21.21957,-5.16429 c 1.68099,-1.17741 2.26979,-2.61561 2.26979,-5.54408 0,-5.74123 -1.94129,-7.16397 -9.77507,-7.16397 h -6.56535 v 7.14893 7.14894 h 5.90041 c 3.68745,0 6.75172,-0.59627 8.17022,-1.58982 z m 16.56767,5.16429 v -25.02128 h 4.0851 4.08511 v 21.44681 21.44681 H 240 251.23404 v 3.57447 3.57446 H 235.9149 220.59575 Z m 35.74468,0 v -25.02128 h 14.87322 14.87322 l -0.32003,3.31915 -0.32003,3.31915 -10.46808,0.29104 -10.46809,0.29106 v 7.1132 7.11321 h 10.21277 10.21276 v 3.57447 3.57447 h -10.21276 -10.21277 v 7.14893 7.14894 h 10.7234 10.72341 v 3.57447 3.57446 H 271.14894 256.34043 Z M 55.148937,139.40425 V 130.7234 H 51.574469 C 48.6581,130.7234 48,130.34002 48,128.64109 c 0,-1.9594 0.527492,-2.0649 8.936171,-1.78724 7.131264,0.23548 8.93617,0.6045 8.93617,1.827 0,1.03301 -1.247258,1.63514 -3.829787,1.84888 l -3.829788,0.31697 v 8.6192 c 0,6.98066 -0.291222,8.6192 -1.531914,8.6192 -1.241552,0 -1.531915,-1.64539 -1.531915,-8.68085 z m 13.276595,-2.04255 c 0,-8.85107 0.267478,-10.72341 1.531915,-10.72341 1.134752,0 1.531915,1.19149 1.531915,4.59575 v 4.59574 h 5.617022 5.617021 v -4.67062 c 0,-3.89773 0.295757,-4.61401 1.787234,-4.32846 1.540027,0.29485 1.827491,1.78845 2.078281,10.79829 0.276416,9.93052 0.18658,10.45611 -1.787235,10.45611 -1.782296,0 -2.07828,-0.65452 -2.07828,-4.59574 v -4.59575 h -5.617021 -5.617022 v 4.59575 c 0,3.40425 -0.397163,4.59574 -1.531915,4.59574 -1.264437,0 -1.531915,-1.87234 -1.531915,-10.7234 z m 21.666401,0.25532 0.291046,-10.46809 6.467672,-0.30625 c 5.764049,-0.27294 6.429729,-0.10627 6.118849,1.53192 -0.25845,1.36193 -1.47105,1.91953 -4.680437,2.1522 -3.796062,0.27522 -4.331615,0.61519 -4.331615,2.74979 0,2.12744 0.539349,2.4755 4.261051,2.74979 6.093341,0.44908 6.447391,2.86723 0.419799,2.86723 -4.520094,0 -4.68085,0.10522 -4.68085,3.06383 0,2.95036 0.170213,3.06383 4.595744,3.06383 3.404258,0 4.595748,0.39716 4.595748,1.53191 0,1.20543 -1.42241,1.53192 -6.674028,1.53192 h -6.674025 z" />

<g>
<path d="m 229.73602,135.81453 c -1.99414,-1.02668 -5.46467,-3.86173 -7.71229,-6.30011 -3.74339,-4.06109 -4.72544,-4.54232 -11.69346,-5.72994 -19.59954,-3.34052 -32.62814,-14.84283 -32.62814,-28.805761 0,-13.707803 11.32394,-24.078611 30.8137,-28.22011 17.4961,-3.717855 39.80024,2.382968 48.26793,13.202664 l 2.44851,3.128627 -2.72251,5.178452 c -2.41335,4.590377 -2.72252,6.318539 -2.72252,15.217788 0,8.84799 -0.24239,10.22108 -2.04256,11.57082 -4.0748,3.05527 -11.91827,6.5623 -17.64016,7.88742 -5.26258,1.21875 -5.82027,1.59993 -5.5607,3.80075 0.15868,1.34538 1.45693,4.21176 2.88502,6.36974 1.42808,2.15799 2.44719,4.06823 2.26469,4.24498 -0.18251,0.17676 -1.96339,-0.51864 -3.95751,-1.54532 z M 190.8257,97.021272 c 0.58742,-1.685106 1.34565,-3.063829 1.68494,-3.063829 0.33929,0 1.09751,1.378723 1.68494,3.063829 0.58744,1.685106 1.48268,3.063828 1.98944,3.063828 1.25401,0 1.18348,-0.40233 -0.7997,-4.561094 -0.94659,-1.985014 -2.24019,-3.609117 -2.87468,-3.609117 -0.63449,0 -1.92809,1.624103 -2.87468,3.609117 -1.98318,4.158764 -2.05372,4.561094 -0.7997,4.561094 0.50676,0 1.402,-1.378722 1.98944,-3.063828 z m 14.25873,0.754229 c 0.18806,-0.976528 -0.17846,-1.775505 -0.81449,-1.775505 -0.63605,0 -0.87241,0.459574 -0.52526,1.021276 0.34715,0.561702 -0.31508,1.021277 -1.47164,1.021277 -1.38236,0 -2.10283,-0.66238 -2.10283,-1.933288 0,-2.096323 2.58312,-3.590738 4.33507,-2.507974 0.64052,0.395867 0.78764,0.187513 0.3582,-0.507326 -1.02067,-1.651482 -3.23766,-1.467507 -5.13095,0.425792 -2.0259,2.025897 -2.01656,2.943932 0.051,5.011497 2.03597,2.03597 4.84026,1.63617 5.30089,-0.755749 z m 5.45158,-0.754229 c 0.58744,-1.685106 1.43772,-3.063829 1.88952,-3.063829 0.45181,0 1.30209,1.378723 1.88953,3.063829 0.58743,1.685106 1.56088,3.063828 2.16321,3.063828 0.61454,0 0.18056,-1.792766 -0.98891,-4.085104 -1.14624,-2.246809 -2.52496,-4.085107 -3.06383,-4.085107 -0.53886,0 -1.91759,1.838298 -3.06383,4.085107 -1.16946,2.292338 -1.60344,4.085104 -0.9889,4.085104 0.60233,0 1.57578,-1.378722 2.16321,-3.063828 z m 11.08101,-1.021276 c 0,-2.246809 -0.45957,-4.085107 -1.02127,-4.085107 -0.56171,0 -1.02128,1.838298 -1.02128,4.085107 0,2.246808 0.45957,4.085104 1.02128,4.085104 0.5617,0 1.02127,-1.838296 1.02127,-4.085104 z m 4.08511,1.340843 v -2.744263 l 2.86439,2.744263 c 1.57542,1.509344 3.18393,2.744261 3.57447,2.744261 0.39054,0 0.71008,-1.838296 0.71008,-4.085104 0,-2.246809 -0.45958,-4.085107 -1.02128,-4.085107 -0.5617,0 -1.02128,0.919149 -1.02128,2.042554 0,1.123404 -0.38835,2.042553 -0.86299,2.042553 -0.47464,0 -1.6948,-0.919149 -2.71148,-2.042553 -2.72261,-3.00845 -3.57446,-2.521674 -3.57446,2.042553 0,2.246808 0.45957,4.085104 1.02127,4.085104 0.56171,0 1.02128,-1.234917 1.02128,-2.744261 z M 240,97.53191 c 0,-0.722361 -0.68936,-1.577917 -1.53191,-1.901235 -0.84256,-0.323318 -1.53192,-1.111019 -1.53192,-1.750445 0,-0.639426 0.71323,-0.888902 1.58496,-0.554389 0.90886,0.348762 1.3188,0.177548 0.961,-0.401373 -0.84812,-1.372293 -3.28258,-1.275098 -4.17363,0.16663 -0.39981,0.646914 0.0327,1.731621 0.961,2.41046 2.18123,1.594945 2.14464,2.536994 -0.0993,2.55663 -1.44345,0.01263 -1.51037,0.190909 -0.34793,0.926788 C 237.61166,100.11774 240,99.287046 240,97.53191 Z m 6.12766,-0.946392 c 0,-2.474161 0.52368,-3.636436 1.78724,-3.966636 0.98297,-0.25688 -0.0511,-0.484083 -2.29788,-0.504896 -2.24681,-0.02081 -3.51064,0.19396 -2.80851,0.477275 0.70213,0.283315 1.2766,2.085331 1.2766,4.004479 0,1.919149 0.45957,3.48936 1.02128,3.48936 0.5617,0 1.02127,-1.574811 1.02127,-3.499582 z" />

<rect x="190" y="97" width="5" height="1.5" />
<rect x="210" y="97" width="5" height="1.5" />
</g>

<path d="m 294.36572,158.04255 c 5.40935,-7.11619 7.65305,-14.64446 4.61301,-15.47794 -0.70213,-0.1925 -3.80426,-0.91676 -6.89362,-1.60945 -15.96526,-3.57971 -32.13192,-15.89642 -36.60404,-27.88709 -6.49743,-17.420965 2.28773,-34.634997 22.8168,-44.708241 12.02447,-5.90019 19.22993,-7.475573 34.21277,-7.4802 20.12845,-0.0062 34.79075,5.111912 46.9899,16.402646 15.83242,14.653455 15.61086,35.735085 -0.52673,50.118275 -9.56307,8.52343 -27.32277,15.57739 -39.22228,15.57867 -4.34401,4.7e-4 -5.00315,0.3668 -8.99016,4.99653 -4.05607,4.70991 -15.65305,13.38594 -17.89257,13.38594 -0.56437,0 0.10925,-1.49361 1.49692,-3.31914 z m -29.85508,-51.82979 c 0,-0.5617 1.37872,-1.02128 3.06383,-1.02128 1.68511,0 3.06383,0.45958 3.06383,1.02128 0,0.5617 0.89314,1.02128 1.98475,1.02128 1.91784,0 1.90519,-0.18077 -0.37522,-5.3617 -3.25555,-7.396431 -5.70079,-7.647357 -8.61048,-0.88359 -2.60647,6.05889 -2.62613,6.24529 -0.65862,6.24529 0.84255,0 1.53191,-0.45958 1.53191,-1.02128 z m 2.04255,-5.10638 c 0.60123,-1.123406 1.25316,-2.042555 1.44874,-2.042555 0.19557,0 0.59595,0.919149 0.88973,2.042555 0.3987,1.52461 0.0313,2.04255 -1.44873,2.04255 -1.66641,0 -1.80841,-0.32599 -0.88974,-2.04255 z m 18.82067,4.52279 c 0.91429,-0.91428 1.60487,-3.3313 1.60487,-5.61702 0,-3.331303 -0.34662,-4.012154 -2.04256,-4.012154 -1.70213,0 -2.04255,0.680851 -2.04255,4.085104 0,3.40425 -0.34042,4.08511 -2.04255,4.08511 -1.70213,0 -2.04256,-0.68086 -2.04256,-4.08511 0,-3.404253 -0.34042,-4.085104 -2.04255,-4.085104 -1.62709,0 -2.04255,0.680851 -2.04255,3.347227 0,4.656137 2.50391,7.886817 6.11262,7.886817 1.61313,0 3.65516,-0.72219 4.53783,-1.60487 z m 10.60301,-1.13454 c 0.20409,-1.43356 -0.4438,-2.6361 -1.81583,-3.37039 -2.41949,-1.294871 -1.86123,-3.327097 0.64931,-2.36371 1.11657,0.428461 1.48573,0.170234 1.1588,-0.81056 -0.26655,-0.799608 -1.80371,-1.439336 -3.45851,-1.439336 -3.76415,0 -4.79737,3.823856 -1.50878,5.583856 2.69682,1.44329 2.74237,3.50202 0.062,2.80108 -1.35835,-0.35521 -2.04255,-0.0314 -2.04255,0.96687 0,1.07825 0.93486,1.41088 3.31915,1.18099 2.50974,-0.24199 3.39652,-0.86353 3.63644,-2.5488 z m 8.36356,-1.3457 c 0,-3.404253 0.34042,-4.085105 2.04255,-4.085105 1.13475,0 2.04255,-0.680851 2.04255,-1.531915 0,-1.157446 -1.24822,-1.531914 -5.10638,-1.531914 -3.85816,0 -5.10638,0.374468 -5.10638,1.531914 0,0.842554 0.68936,1.531915 1.53191,1.531915 1.10638,0 1.53192,1.134755 1.53192,4.085105 0,2.95036 0.42553,4.08511 1.53191,4.08511 1.10638,0 1.53192,-1.13475 1.53192,-4.08511 z m 14.29787,3.06383 c 0,-0.5617 -0.91915,-1.02128 -2.04255,-1.02128 -2.802,0 -2.58902,-2.81427 0.25532,-3.37378 l 2.29787,-0.45202 -2.29787,-0.7594 c -2.84809,-0.94124 -3.00968,-2.563731 -0.25532,-2.563731 1.1234,0 2.04255,-0.459575 2.04255,-1.021277 0,-0.561702 -1.8383,-1.021276 -4.08511,-1.021276 h -4.0851 v 5.617024 5.61702 h 4.0851 c 2.24681,0 4.08511,-0.45958 4.08511,-1.02128 z m 6.16439,-1.78723 0.0368,-2.80851 2.29951,2.80851 c 2.60925,3.18682 5.46874,3.88139 4.20449,1.02127 -0.4345,-0.98297 -0.72453,-3.14568 -0.64452,-4.806 0.17504,-3.631955 -1.12618,-4.604495 -6.18826,-4.625166 l -3.82982,-0.01564 v 5.617026 c 0,4.93616 0.24758,5.61702 2.04256,5.61702 1.53848,0 2.05162,-0.69309 2.07928,-2.80851 z m -0.0367,-4.76596 c 0,-0.889362 0.72766,-1.617021 1.61702,-1.617021 0.88937,0 1.43511,0.545744 1.21276,1.212766 -0.63122,1.893675 -2.82978,2.207755 -2.82978,0.404255 z m 13.2766,1.95745 c 0,-4.936173 -0.24758,-5.617024 -2.04256,-5.617024 -1.79497,0 -2.04255,0.680851 -2.04255,5.617024 0,4.93616 0.24758,5.61702 2.04255,5.61702 1.79498,0 2.04256,-0.68086 2.04256,-5.61702 z m 8.17021,1.53191 c 0,-3.404253 0.34042,-4.085105 2.04255,-4.085105 1.13475,0 2.04256,-0.680851 2.04256,-1.531915 0,-1.157446 -1.24823,-1.531914 -5.10639,-1.531914 -3.85816,0 -5.10638,0.374468 -5.10638,1.531914 0,0.842554 0.68936,1.531915 1.53191,1.531915 1.10638,0 1.53192,1.134755 1.53192,4.085105 0,2.95036 0.42553,4.08511 1.53191,4.08511 1.10638,0 1.53192,-1.13475 1.53192,-4.08511 z m 13.27659,1.15901 c 0,-1.60936 0.95251,-4.13702 2.11668,-5.617025 1.88548,-2.396995 1.92566,-2.690919 0.36791,-2.690919 -0.96182,0 -2.37424,0.804255 -3.1387,1.787234 -1.32375,1.702128 -1.44095,1.702128 -2.46122,0 -0.58919,-0.982979 -1.99887,-1.787234 -3.13261,-1.787234 -2.05597,0 -2.05584,0.0078 0.0508,2.966165 1.16165,1.631389 2.11209,4.159049 2.11209,5.617019 0,1.97 0.52461,2.65086 2.04255,2.65086 1.56729,0 2.04255,-0.68086 2.04255,-2.9261 z" />

</svg>
