<svg xmlns="http://www.w3.org/2000/svg"
     xmlns:xlink="http://www.w3.org/1999/xlink"
     lang="en-GB"
     viewBox="0 0 320 320">

<title>Ashiva Configuration Icon</title>

<defs>
<style type="text/css"><![CDATA[

rect {
  width: 320px;
  height: 320px;
  fill: rgb(191, 0, 0);
}

path {
  fill: rgb(255, 255, 255);
  stroke-width: 1;
}

]]></style>

</defs>

<rect />

<path d="M 1.2190414,160 Z m 185.8457886,119.8977 5.16054,-6.10231 7.86091,-0.31406 7.8609,-0.31406 5.85311,5.91483 c 6.63112,6.70103 5.7864,6.64835 17.8025,1.11042 l 7.88374,-3.63343 -0.56115,-8.66137 -0.56115,-8.66138 5.1222,-5.74697 5.1222,-5.74698 8.27611,0.51633 c 5.5563,0.34664 8.58,0.1425 9.20081,-0.6212 1.53798,-1.89196 5.90515,-12.9034 6.61212,-16.67186 0.63396,-3.37932 0.39646,-3.75653 -5.51035,-8.75176 l -6.17288,-5.22022 -0.31828,-7.96669 -0.31829,-7.96669 6.01026,-5.20678 c 7.03224,-6.09213 7.05955,-6.51014 1.21856,-18.65406 l -3.59862,-7.48183 -8.74937,0.56684 -8.74938,0.56685 -5.6506,-5.71018 -5.65059,-5.71017 0.64265,-7.60254 c 0.62427,-7.38513 0.56895,-7.65083 -1.93435,-9.29106 -2.89596,-1.89751 -15.39184,-6.49021 -17.69738,-6.50445 -0.825,-0.005 -3.92152,2.91041 -6.88114,6.47891 L 203.95676,149 h -7.49444 -7.49444 l -5.65837,-6.15212 -5.65838,-6.15213 -4.96604,1.67544 c -2.73132,0.92148 -7.21604,2.91128 -9.96604,4.42177 l -5,2.74635 v 8.4849 8.4849 l -5,5.83424 -5,5.83424 -8.19019,-0.67358 -8.19019,-0.67358 -2.47161,4.87749 c -1.35939,2.68263 -3.23886,7.51671 -4.17659,10.7424 -1.66271,5.71952 -1.65548,5.90438 0.29169,7.45729 1.09817,0.87582 4.07572,3.3341 6.61678,5.46285 l 4.62011,3.87046 v 7.70709 7.70708 l -6.02957,5.79162 c -6.85387,6.58339 -6.80795,5.86365 -1.11987,17.55329 l 3.64944,7.5 h 8.56873 8.56872 l 5.68128,5.17635 5.68127,5.17635 v 8.41313 c 0,8.19204 0.0723,8.44775 2.75,9.73012 4.7842,2.29117 14.6871,5.89778 16.34261,5.95195 0.87594,0.0286 3.91487,-2.69394 6.75317,-6.0502 z m 0.44026,-32.29014 c -10.40256,-3.395 -19.44537,-11.43176 -24.11532,-21.43241 -2.28256,-4.88809 -2.65009,-6.99267 -2.65009,-15.17515 0,-8.21368 0.36364,-10.27892 2.68557,-15.25264 3.753,-8.03914 11.44073,-15.84851 19.07143,-19.37319 5.54046,-2.55919 7.31826,-2.87415 16.22237,-2.87397 8.96446,1.9e-4 10.60035,0.2948 15.79745,2.84507 7.39749,3.63002 14.72707,10.95952 18.35748,18.35728 2.57803,5.25329 2.84507,6.78299 2.84507,16.29745 0,9.48169 -0.27222,11.05442 -2.8069,16.21677 -6.36498,12.96346 -18.65483,20.92169 -33.14771,21.46465 -4.92943,0.18468 -9.67745,-0.23123 -12.25935,-1.07386 z m -77.33314,-66.07845 c 0.38583,-0.23846 1.53852,-3.19799 2.56152,-6.57674 1.80084,-5.94776 2.03297,-6.21967 7.29722,-8.54777 2.99047,-1.32253 5.88746,-2.4046 6.43774,-2.4046 0.55029,0 3.66914,1.1976 6.93077,2.66133 l 5.93024,2.66134 5.51855,-5.41134 c 7.90751,-7.75388 7.93532,-7.85056 4.31938,-15.0137 l -3.10065,-6.14236 2.12185,-5.67377 c 2.09695,-5.60719 2.20053,-5.7028 8.82617,-8.14679 l 6.70431,-2.47301 0.29862,-7.46907 c 0.44352,-11.09356 0.23833,-11.48449 -7.35415,-14.01111 -6.3997,-2.12968 -6.61873,-2.31852 -9.04028,-7.79409 l -2.48169,-5.611533 2.53875,-5.85386 c 1.39631,-3.219626 2.53875,-6.40079 2.53875,-7.069254 C 150.21905,76.774137 138.88337,66 136.90681,66 c -0.96484,0 -4.08315,1.180143 -6.92958,2.622541 l -5.17534,2.62254 -5.04142,-1.770675 c -6.721,-2.360585 -6.95112,-2.590408 -9.4465,-9.434231 -2.10748,-5.779951 -2.26955,-5.943817 -6.50755,-6.579344 -2.39044,-0.358468 -6.724998,-0.271301 -9.632368,0.193704 L 88.887932,54.5 l -2.15766,6.464305 c -2.03809,6.10604 -2.43073,6.587582 -7.08445,8.688628 -6.31843,2.852621 -6.56273,2.846978 -13.60692,-0.314266 l -5.93024,-2.661332 -5.51855,5.411332 c -7.88033,7.727224 -7.92398,7.873052 -4.42895,14.79666 l 2.99108,5.925303 -2.16615,5.94766 c -2.15678,5.92192 -2.1945,5.95812 -8.7166,8.36454 l -6.55045,2.41689 -0.25515,8.48014 c -0.14034,4.66408 0.0976,9.02066 0.52883,9.6813 0.4312,0.66064 3.63109,2.23564 7.11088,3.5 6.12647,2.22601 6.40229,2.47884 8.70669,7.9808 l 2.37979,5.68195 -2.47575,5.31805 c -1.36166,2.92492 -2.48014,6.00713 -2.48552,6.84934 -0.0134,2.1026 11.13235,12.9687 13.30247,12.9687 0.96484,0 4.06667,-1.17179 6.89295,-2.60398 l 5.1387,-2.60397 5.3969,1.83446 c 6.31932,2.148 6.38846,2.21982 9.01101,9.35991 1.45182,3.95271 2.67671,5.6891 4.38168,6.21144 2.31612,0.70957 15.433128,0.18803 16.819428,-0.66875 z M 90.063232,149.67246 c -12.93004,-4.85263 -20.3954,-13.38356 -22.72105,-25.96417 -2.65784,-14.37758 4.42921,-28.40879 17.63199,-34.908503 5.89491,-2.90205 7.66962,-3.29969 14.72385,-3.29899 9.573728,9.5e-4 16.949578,2.92776 23.246078,9.224253 6.6859,6.6859 8.77495,12.22696 8.77495,23.27495 0,8.03152 -0.37453,10.26097 -2.42291,14.42291 -3.10625,6.31134 -8.63134,11.81078 -15.22029,15.14965 -6.37294,3.22942 -18.238198,4.26703 -24.012618,2.0999 z M 190.65125,117.5 c 2.3133,-3.03289 3.23718,-3.5 6.92252,-3.5 3.54768,0 4.81549,0.5804 7.64528,3.5 3.95331,4.07878 5.40002,4.24389 12.06462,1.37686 l 4.93538,-2.12315 v -5.29993 c 0,-4.58493 0.4151,-5.71504 3.07692,-8.37686 C 227.9523,100.4206 229.09226,100 233.63546,100 c 5.73134,0 5.90125,-0.17029 9.11057,-9.131273 1.27905,-3.57131 1.23589,-3.69438 -2.61323,-7.452947 -3.18048,-3.105654 -3.91375,-4.526316 -3.91375,-7.582608 0,-3.111099 0.70448,-4.418066 4.07722,-7.564122 l 4.07722,-3.80319 -2.16018,-5.480433 c -3.09273,-7.8463 -3.62232,-8.292427 -8.99748,-7.579388 -4.27182,0.566677 -4.82067,0.370872 -7.918,-2.824755 -3.0892,-3.187251 -3.27901,-3.760355 -2.64522,-7.986782 0.65573,-4.372723 0.55169,-4.633169 -2.62539,-6.572599 -1.81949,-1.1107 -4.81386,-2.519157 -6.65415,-3.129906 -3.14601,-1.044088 -3.56687,-0.894754 -7.04216,2.498775 C 203.1564,36.490601 201.97745,37 197.97778,37 c -4.14707,0 -4.94923,-0.383208 -7.32653,-3.5 -3.16332,-4.147333 -4.27795,-4.250624 -11.1822,-1.036236 l -5.25,2.444226 v 5.241286 c 0,4.325503 -0.4695,5.731341 -2.68709,8.046005 C 169.25097,50.576121 168.04541,51 163.55501,51 c -5.94566,0 -6.98144,0.947306 -9.85845,9.016369 L 152.09793,64.5 l 4.06056,3.527268 c 3.52516,3.062183 4.06056,4.072974 4.06056,7.665971 0,3.639376 -0.48652,4.524032 -4.03254,7.332532 -4.45275,3.526646 -4.47353,3.867596 -0.74495,12.224229 l 2.11936,4.75 5.57907,3e-5 c 5.11925,3e-5 5.79727,0.27351 8.2267,3.31829 2.26535,2.83914 2.57167,3.99231 2.12148,7.98643 l -0.52617,4.66817 5.37852,2.50377 c 7.22246,3.36214 9.11592,3.21192 12.31073,-0.97669 z m 0.58823,-27.750003 c -5.74582,-2.93597 -8.18899,-6.448882 -8.78276,-12.628289 C 181.52881,67.464715 188.51127,60 198.4723,60 c 11.71227,0 19.38072,13.314768 13.53448,23.5 -2.48055,4.321577 -9.2583,8.499997 -13.78773,8.499997 -1.41692,0 -4.55773,-1.0125 -6.97957,-2.25 z" />

</svg>
