<svg xmlns="http://www.w3.org/2000/svg"
     xmlns:xlink="http://www.w3.org/1999/xlink"
     lang="en-GB"
     viewBox="0 0 58 58">

  <title>Cogwheel</title>

  <defs>

    <style type="text/css"><![CDATA[

    rect {
      width: 58px;
      height: 58px;
      fill: rgb(191, 0, 0);
    }

    path {
      fill: rgb(255, 255, 255);
      fill-rule: evenodd;
      stroke: rgb(255, 255, 255);
      stroke-width: 1;
      transform: translate(-103px, -90px);
    }

    ]]></style>


  </defs>

  <rect/>

  <path d="M 127.78857,157.89428 z m 11.55899,-14.962766 c 0.89181,-4.753756 5.9662,-7.918695 9.53007,-5.943986 1.32602,0.734734 2.71541,1.351827 3.08755,1.371317 0.37213,0.01949 2.13381,-2.511491 3.91484,-5.624401 l 3.23823,-5.659836 -2.66484,-2.292198 c -3.7166,-3.196886 -3.73776,-8.957481 -0.0437,-11.903003 l 2.62112,-2.090002 -2.04284,-3.947563 c -3.68115,-7.113451 -4.38695,-7.706951 -7.67745,-6.455902 -4.26433,1.621293 -9.14563,-1.1722 -9.99925,-5.722418 l -0.63,-3.358176 -6.69635,0.294467 c -6.69474,0.294397 -6.69641,0.295211 -7.00018,3.416872 -0.24594,2.527409 -1.03326,3.451327 -4.13167,4.848514 -2.96026,1.334892 -4.29304,1.477134 -5.88042,0.627595 -2.93221,-1.569275 -2.92803,-1.571697 -6.20609,3.597267 -3.49837,5.516358 -3.69853,7.373132 -0.97798,9.072146 1.50508,0.93994 2,2.332028 2,5.625537 0,3.572644 -0.4623,4.679429 -2.51691,6.025662 -2.76575,1.812188 -2.72148,2.014025 2.14038,9.756901 2.18436,3.478763 2.46743,3.615935 5.27495,2.556215 4.18855,-1.581015 10.10155,1.538038 10.10155,5.328495 0,3.658512 0.54317,3.939263 7.62135,3.939263 h 6.28802 z m -0.8,-17.787878 c 6.7296,-6.729597 -0.87689,-18.136092 -9.66633,-14.495386 -3.10599,1.286545 -5.87912,5.448531 -5.87912,8.823546 0,1.085114 1.165,3.357461 2.58889,5.04966 3.40661,4.048524 9.24964,4.329108 12.95656,0.62218 z"/>

</svg>
