<svg xmlns="http://www.w3.org/2000/svg"
   xmlns:xlink="http://www.w3.org/1999/xlink"
   lang="en-GB"
   viewBox="0 0 768 768">

  <title>Expand Subcategory Icon</title>

  <defs>

    <style><![CDATA[

      rect {
        width: 768px;
        height: 768px;
        fill: rgb(191, 0, 0);
      }

      path {
        fill: rgb(255, 255, 255);
        filter: url(#drop-shadow);
      }

    ]]></style>
    
    <filter id="drop-shadow">
      <feDropShadow dx="10" dy="10" stdDeviation="10" flood-color="rgb(0, 0, 0, 0.3)"/>
      <feDropShadow dx="10" dy="-10" stdDeviation="10" flood-color="rgb(0, 0, 0, 0.3)"/>
      <feDropShadow dx="-10" dy="-10" stdDeviation="10" flood-color="rgb(0, 0, 0, 0.3)"/>
      <feDropShadow dx="-10" dy="10" stdDeviation="10" flood-color="rgb(0, 0, 0, 0.3)"/>
    </filter>

  </defs>

  <rect x="0" y="0"></rect>
  <path d="M 295.17838,479.39769 207,406.85723 V 396.42861 C 207,390.69288 207.14748,386 207.32774,386 c 0.18026,0 39.80575,20.49536 88.05665,45.54524 l 87.72892,45.54524 12.69334,-6.47596 C 402.78799,467.05274 442.475,446.57053 484,425.0985 l 75.5,-39.04006 0.28837,9.6496 c 0.1586,5.30728 0.0832,10.18425 -0.16755,10.8377 -0.25075,0.65345 -37.73052,31.70877 -83.28837,69.01181 -45.55785,37.30305 -85.11468,69.74902 -87.90407,72.10216 l -5.07161,4.27844 z M 295,311.47371 l -87.5,-73.43312 -0.28362,-11.11292 -0.28361,-11.11292 5.28361,2.96035 c 8.19394,4.59096 169.05373,87.68529 170.42224,88.03394 0.66717,0.16997 40.05891,-19.71834 87.53721,-44.19624 47.47829,-24.4779 87.11167,-44.80261 88.07417,-45.16603 1.59759,-0.6032 1.75,0.25481 1.75,9.85199 v 10.51274 l -88.17201,73.59425 c -48.49461,40.47684 -88.43211,73.57329 -88.75,73.54767 C 382.76009,384.92779 343.125,351.86193 295,311.47371 Z" />

</svg>
