<svg xmlns="http://www.w3.org/2000/svg"
     xmlns:xlink="http://www.w3.org/1999/xlink"
     lang="en-GB"
     viewBox="0 0 1080 1080">

  <title>Expand DaNIS³H Capsules</title>

  <defs>

  <style type="text/css"><![CDATA[

  rect {
    width: 1080px;
    height: 1080px;
    fill: rgb(191, 0, 0);
  }

  path {
    fill: rgb(255, 255, 255);
    transform: translateX(4px);
  }

  ]]></style>

  </defs>

  <rect />

  <path d="M 164.72574,637.21041 54.683545,591.67242 54.347057,563.51554 54.010569,535.35866 163.4699,490.12659 c 60.20262,-24.87763 110.02492,-45.4346 110.71623,-45.68213 0.75377,-0.26991 1.25691,12.77838 1.25691,32.59601 v 33.04608 l -5.06329,1.99 c -2.78481,1.09451 -33.01266,12.80965 -67.17299,26.03365 -34.16034,13.22401 -62.58689,24.44634 -63.17011,24.93852 -0.58321,0.49218 29.18894,12.59936 66.16034,26.90485 36.97141,14.30548 67.68749,26.44694 68.25796,26.98103 0.57047,0.53409 0.87427,15.5607 0.6751,33.39245 l -0.36211,32.42136 z m 635.95227,11.90353 0.003,-32.74262 64.4697,-24.88147 c 35.4585,-13.68481 65.98885,-25.63796 67.84539,-26.56255 3.21803,-1.60265 3.24953,-1.72937 0.67511,-2.71597 -1.48524,-0.56919 -31.86498,-12.37522 -67.51055,-26.23564 l -64.81013,-25.20074 -0.36097,-33.19634 -0.36096,-33.19634 18.63063,7.68228 c 10.24684,4.22527 59.78266,24.69495 110.07957,45.4882 l 91.4489,37.80591 -0.3515,28.20984 -0.3515,28.20982 -108.69198,45.00467 c -59.78059,24.75257 -109.14768,45.02018 -109.70464,45.03912 -0.55696,0.0189 -1.01136,-14.69973 -1.00977,-32.70817 z M 367.6299,633.0604 c -11.69792,-1.37852 -24.48937,-7.82613 -34.01188,-17.14391 -26.01685,-25.45749 -25.35144,-65.05819 1.51267,-90.02342 18.61202,-17.29645 45.84903,-21.53278 68.3091,-10.62451 8.7802,4.26431 22.15223,16.42526 26.82095,24.39182 13.53818,23.10118 10.87202,52.08891 -6.67951,72.62245 -13.70968,16.03895 -33.57196,23.41483 -55.95133,20.77757 z m 160.67511,0 c -11.69792,-1.37852 -24.48937,-7.82613 -34.01188,-17.14391 -26.01685,-25.45749 -25.35144,-65.05819 1.51267,-90.02342 18.61202,-17.29645 45.84903,-21.53278 68.3091,-10.62451 8.78019,4.26431 22.15223,16.42526 26.82094,24.39182 13.53819,23.10118 10.87202,52.08891 -6.6795,72.62245 -13.70968,16.03895 -33.57196,23.41483 -55.95133,20.77757 z m 160.67511,0 c -11.69792,-1.37852 -24.48937,-7.82613 -34.01188,-17.14391 -26.01685,-25.45749 -25.35144,-65.05819 1.51267,-90.02342 18.61202,-17.29645 45.84903,-21.53278 68.3091,-10.62451 8.78019,4.26431 22.15222,16.42526 26.82094,24.39182 13.53819,23.10118 10.87202,52.08891 -6.6795,72.62245 -13.70968,16.03895 -33.57196,23.41483 -55.95133,20.77757 z" />

</svg>
