<svg xmlns="http://www.w3.org/2000/svg"
     lang="en-GB"
     viewBox="0 0 960 960">

  <title>Danis³h Logo</title>

  <defs>

    <style type="text/css"><![CDATA[

    rect {
      width: 960px;
      height: 960px;
      fill: rgb(131, 0, 0);
    }

    #square {
      width: 480px;
      height: 480px;
      fill: rgb(191, 0, 0);
      stroke: rgb(0, 0, 0);
    }

    #square.top {
      fill: rgba(0, 0, 0, 0);  
    }

    #triangle {
      fill: rgb(255, 0, 0);
      stroke: rgb(0, 0, 0);
    }

    #top-left,
    #top-right,
    #bottom-left,
    #bottom-right {
      transform-origin: 240px 240px;
    }

    #top-left {
      transform: rotate(-90deg) translateY(240px);
    }

    #top-right {
      transform: translate(480px, 240px);
    }

    #bottom-left {
      transform: rotate(180deg) translate(0px, -240px);
    }

    #bottom-right {
      transform: rotate(90deg) translate(480px, -240px);
    }

    #element-name {
      fill: rgb(255, 255, 255);
      transform: scale(0.5);
    }

    ]]></style>

    
    <polygon id="triangle" points="240,0 480,240 0,240" />
    
    <path id="element-name" d="m 527.03776,491.05131 c -24.68067,-4.46592 -46.01774,-16.39742 -60.68849,-33.93647 -6.66079,-7.96306 -16.37424,-27.76515 -19.40533,-39.5602 -3.31218,-12.88895 -4.20381,-44.03325 -1.60922,-56.20978 9.05665,-42.50324 42.19605,-71.91421 96.58819,-85.72129 23.78845,-6.03855 41.79723,-7.92937 84.40499,-8.86206 l 38.98226,-0.85332 -0.6468,-19.02909 c -0.78246,-23.01955 -3.25934,-30.86788 -13.16083,-41.70168 -11.18971,-12.24333 -26.90154,-18.11509 -52.005,-19.43508 -37.33981,-1.96343 -80.18838,6.80271 -126.58228,25.89669 -2.21351,0.911 -2.36287,-1.17475 -2.36287,-32.99616 v -33.96862 l 4.82544,-2.0162 c 7.66142,-3.20115 35.94892,-11.07645 50.26489,-13.99386 53.04024,-10.80891 110.7596,-9.9482 149.36683,2.22736 34.47545,10.87251 56.2063,30.21007 66.91111,59.54196 8.15528,22.346 8.1254,21.74112 8.1254,164.51319 v 130.11849 h -36.24939 -36.2494 L 676.672,469.87531 c -0.48141,-8.35443 -0.87803,-18.37974 -0.88141,-22.27848 -0.003,-3.89873 -0.36868,-7.0886 -0.81178,-7.0886 -0.44312,0 -4.84818,3.7349 -9.78903,8.29976 -33.90774,31.32743 -67.01118,44.54844 -110.76363,44.23729 -9.37108,-0.0667 -21.69585,-0.96392 -27.38839,-1.99397 z m 73.22737,-67.53215 c 15.0407,-4.38229 30.64762,-15.12911 51.55308,-35.49914 l 13.16455,-12.82739 v -24.05105 -24.05107 l -25.31645,0.0213 c -47.85365,0.0404 -67.9439,3.36237 -84.54032,13.97896 -12.97702,8.3013 -20.90876,21.4293 -22.12856,36.62547 -2.30114,28.66726 17.3372,47.5692 49.71495,47.85073 5.62049,0.0489 13.51922,-0.87268 17.55275,-2.04789 z M 39.835078,255.49676 V 25.734502 l 82.700432,0.636158 c 87.22265,0.670944 97.67072,1.320629 125.01441,7.773693 71.60489,16.898628 114.48514,61.883509 130.46848,136.872067 5.80463,27.23337 6.79671,38.72163 6.77348,78.43697 -0.0174,29.84623 -0.54498,41.21718 -2.50564,54.00843 -11.36763,74.1624 -42.26036,123.4291 -96.03765,153.15761 -21.64374,11.96483 -46.35989,20.07025 -76.96203,25.23895 -11.27008,1.90352 -26.39207,2.37309 -91.47679,2.84056 l -77.974692,0.56007 z M 184.98276,412.00722 c 16.26686,-1.99345 32.64229,-6.89487 45.84056,-13.7208 8.29745,-4.29131 13.94055,-8.66571 23.85625,-18.4928 11.54817,-11.44497 13.75433,-14.4435 19.90136,-27.0491 3.80237,-7.79747 8.40837,-19.45662 10.23555,-25.90922 11.87892,-41.94972 11.2704,-108.21654 -1.39544,-151.96185 -10.91699,-37.70517 -36.2779,-62.50994 -73.70526,-72.089 -9.6857,-2.47894 -16.29312,-2.963068 -48.02416,-3.518768 l -36.79324,-0.64437 V 255.16252 c 0,86.09766 0.40506,156.94628 0.90014,157.44134 1.46648,1.4665 46.01342,1.0174 59.18424,-0.59664 z" />

  </defs>

  <rect />

  <rect id="square" x="240" y="240" />
  <use id="top-left" href="#triangle" x="0" y="0" />
  <use id="top-right" href="#triangle" x="0" y="0" />
  <use id="bottom-left" href="#triangle" x="0" y="0" />
  <use id="bottom-right" href="#triangle" x="0" y="0" />
  <rect id="square" class="top" x="240" y="240" />
  
  <use id="da" href="#element-name" x="282" y="346" />


</svg>
