<svg xmlns="http://www.w3.org/2000/svg"
  xmlns:xlink="http://www.w3.org/1999/xlink"
  lang="en-GB"
  viewBox="0 0 160 160">

<title>Sellers JSON Protocol Logo</title>

<defs>

  <style type="text/css"><![CDATA[

  rect {
    width: 160px;
    height: 160px;
    fill: rgb(191,0,0);
  }

  #stop-black {
    stop-color: rgb(0, 0, 0);
    stop-opacity: 1;
  }

  #stop-white {
    stop-color: rgb(255, 255, 255);
    stop-opacity: 1;
  }

  .group1 {
    opacity: 0.5;
  }

  .path1 {
    display: inline;
    color: rgb(0, 0, 0);
    fill: url(#linearGradient3);
    fill-opacity: 1;
    fill-rule: evenodd;
    stroke: none;
    stroke-width: 0.5;
    marker: none;
    visibility: visible;
    overflow: visible
  }

  .path2 {
    display: inline;
    color: rgb(0, 0, 0);
    fill: url(#linearGradient2);
    fill-opacity: 1;
    fill-rule: evenodd;
    stroke: none;
    stroke-width: 0.5;
    marker: none;
    visibility: visible;
    overflow: visible;
  }
  
  #letter {
    transform: scale(0.2264); 
  }
  
  #letter rect {
    width: 212px;
    height: 212px;
    fill: rgba(155, 4, 4, 0.9);
    stroke: rgb(63, 0, 0);
    stroke-width: 10.6px;
  }
  
  #letter path {
    transform: translateX(1px);
  }
  
  #letter path:nth-of-type(1) {
    stroke: rgb(63, 0, 0);
    stroke-width: 30px;  
  }
  
  #letter path:nth-of-type(2) {
    fill: rgb(255, 255, 255);
  }

  ]]></style>


  <linearGradient id="linearGradient1">
    <stop id="stop-black" offset="0" />
    <stop id="stop-white" offset="1" />
  </linearGradient>

  <linearGradient id="linearGradient2" x1="-553.26971" y1="525.90778" x2="-666.11639" y2="413.0452" xlink:href="#linearGradient1" gradientUnits="userSpaceOnUse" gradientTransform="matrix(0.99884,0,0,0.998699,689.00774,-388.84375)" />
  <linearGradient id="linearGradient3" x1="-666.11664" y1="413.04492" x2="-553.2699" y2="525.90759" xlink:href="#linearGradient1" gradientUnits="userSpaceOnUse" gradientTransform="matrix(0.99884,0,0,0.998699,689.00774,-388.84375)" />
  
  
  <g id="letter">
  
    <rect />
  
    <path d="m 99.676963,178.39151 c -9.134969,-0.96039 -19.712296,-4.15747 -28.656257,-8.66158 l -6.969245,-3.50965 -3.40676,4.10129 c -3.86981,4.65874 -8.361731,5.61253 -10.205708,2.16703 -1.509929,-2.82133 -1.365685,-33.33524 0.164816,-34.86574 0.66,-0.66 2.694647,-1.2 4.52144,-1.2 2.68122,0 3.540492,0.53007 4.457881,2.75 4.791704,11.59512 5.822437,13.23368 10.481169,16.66197 6.285561,4.62544 18.419681,9.32297 27.355732,10.59033 13.915259,1.97354 31.110319,-1.68573 41.457739,-8.82259 14.43923,-9.95908 14.27151,-28.79975 -0.33878,-38.05478 -6.2105,-3.9341 -10.73935,-5.33948 -30.76734,-9.54764 C 74.700256,103.05139 65.30664,98.01608 57.790943,83.20876 48.934268,65.759468 58.370624,43.008392 78.494995,33.291238 c 7.975243,-3.850887 15.151166,-5.204018 26.908815,-5.074074 12.49632,0.138108 20.33211,2.005399 28.32167,6.749128 3.20192,1.901111 6.12692,3.438277 6.5,3.415924 0.37308,-0.02235 2.23633,-1.372352 4.14056,-3 4.0459,-3.458261 8.45838,-3.910468 10.00259,-1.0251 1.363,2.546793 1.363,33.584689 0,36.131482 -1.04675,1.955859 -5.38698,2.626997 -7.55953,1.168946 -0.6021,-0.404078 -2.04654,-3.89509 -3.20988,-7.757806 C 140.78549,54.557057 136.37326,49.493371 127.09979,44.964162 109.61278,36.423421 87.118681,38.71455 74.730936,50.298174 65.784262,58.664095 63.739799,68.754824 69.0234,78.4685 c 5.54329,10.1911 11.812964,13.12848 41.45818,19.42341 24.40196,5.18157 32.47669,8.31377 40.50118,15.71048 2.40906,2.2206 5.62682,6.57613 7.15058,9.67896 2.46649,5.02252 2.77047,6.73871 2.77047,15.64151 0,8.54746 -0.35025,10.71159 -2.41129,14.8989 -4.76531,9.68146 -12.97368,16.33172 -25.88217,20.96921 -5.78914,2.07981 -22.78483,5.10581 -25.20654,4.4879 -0.275,-0.0702 -3.75208,-0.46947 -7.726847,-0.88736 z" />
  
    <path d="m 99.676963,178.39151 c -9.134969,-0.96039 -19.712296,-4.15747 -28.656257,-8.66158 l -6.969245,-3.50965 -3.40676,4.10129 c -3.86981,4.65874 -8.361731,5.61253 -10.205708,2.16703 -1.509929,-2.82133 -1.365685,-33.33524 0.164816,-34.86574 0.66,-0.66 2.694647,-1.2 4.52144,-1.2 2.68122,0 3.540492,0.53007 4.457881,2.75 4.791704,11.59512 5.822437,13.23368 10.481169,16.66197 6.285561,4.62544 18.419681,9.32297 27.355732,10.59033 13.915259,1.97354 31.110319,-1.68573 41.457739,-8.82259 14.43923,-9.95908 14.27151,-28.79975 -0.33878,-38.05478 -6.2105,-3.9341 -10.73935,-5.33948 -30.76734,-9.54764 C 74.700256,103.05139 65.30664,98.01608 57.790943,83.20876 48.934268,65.759468 58.370624,43.008392 78.494995,33.291238 c 7.975243,-3.850887 15.151166,-5.204018 26.908815,-5.074074 12.49632,0.138108 20.33211,2.005399 28.32167,6.749128 3.20192,1.901111 6.12692,3.438277 6.5,3.415924 0.37308,-0.02235 2.23633,-1.372352 4.14056,-3 4.0459,-3.458261 8.45838,-3.910468 10.00259,-1.0251 1.363,2.546793 1.363,33.584689 0,36.131482 -1.04675,1.955859 -5.38698,2.626997 -7.55953,1.168946 -0.6021,-0.404078 -2.04654,-3.89509 -3.20988,-7.757806 C 140.78549,54.557057 136.37326,49.493371 127.09979,44.964162 109.61278,36.423421 87.118681,38.71455 74.730936,50.298174 65.784262,58.664095 63.739799,68.754824 69.0234,78.4685 c 5.54329,10.1911 11.812964,13.12848 41.45818,19.42341 24.40196,5.18157 32.47669,8.31377 40.50118,15.71048 2.40906,2.2206 5.62682,6.57613 7.15058,9.67896 2.46649,5.02252 2.77047,6.73871 2.77047,15.64151 0,8.54746 -0.35025,10.71159 -2.41129,14.8989 -4.76531,9.68146 -12.97368,16.33172 -25.88217,20.96921 -5.78914,2.07981 -22.78483,5.10581 -25.20654,4.4879 -0.275,-0.0702 -3.75208,-0.46947 -7.726847,-0.88736 z" />
  
  </g>

</defs>

<rect />

<g class="group1">
  <path class="path1" d="m 79.8646,119.09957 c 35.39768,48.25534 70.03957,-13.46852 69.98868,-50.58675 C 149.79308,24.62677 105.31237,0.09913 79.8356,0.09913 38.94318,0.09913 0,33.89521 0,80.13502 c 0,51.396 44.64038,79.86497 79.8356,79.86497 -7.96447,-1.14675 -34.5062,-6.83395 -34.86292,-67.96677 -0.23987,-41.3466 13.48757,-57.86551 34.80527,-50.59905 0.47743,0.17707 23.51392,9.26451 23.51392,38.95053 0,29.55992 -23.42727,38.71487 -23.42727,38.71487 z" />
  <path class="path2" d="M 79.82327,41.40081 C 56.43322,33.33893 27.78025,52.61662 27.78025,91.22962 c 0,63.04798 46.72055,68.77037 52.38416,68.77037 C 121.05683,159.99999 160,126.20391 160,79.9641 160,28.5681 115.35962,0.09913 80.16441,0.09913 c 9.74811,-1.35 52.54087,10.54991 52.54087,69.0368 0,38.14117 -31.95286,58.90496 -52.73547,50.03344 -0.47743,-0.17707 -23.51392,-9.26451 -23.51392,-38.95053 0,-29.55992 23.36738,-38.81803 23.36738,-38.81803 z" />
</g>

<use id="letter-s" href="#letter" x="56" y="56" />

</svg>
