<svg xmlns="http://www.w3.org/2000/svg"
     xmlns:xlink="http://www.w3.org/1999/xlink"
     viewBox="0 0 64 64">

<defs>
<style type="text/css"><![CDATA[

rect {
fill: rgb(255, 0, 0);
}

path {
stroke: rgb(255, 255, 255);
fill: rgb(255, 255, 255);
}

path:nth-of-type(1) {
fill: rgb(255, 0, 0);   
}

]]></style>
</defs>

<rect x="0" y="0" width="64" height="64" />
<path type="arc" id="path7255" cx="32.968853" cy="31.384699" rx="27.577164" ry="27.577164" d="M 60.546017 31.384699 A 27.577164 27.577164 0 1 1  5.3916893,31.384699 A 27.577164 27.577164 0 1 1  60.546017 31.384699 z" transform="matrix(0.980769,0.000000,0.000000,0.980769,-0.334829,1.218860)" />
<path d="M 31.187500,0.00000000 C 13.904525,0.43835438 3.7379722e-013,14.612004 0.00000000,32.000000 C 2.3684758e-015,49.663996 14.336004,64.000000 32.000000,64.000000 C 49.663996,64.000000 64.000000,49.663996 64.000000,32.000000 C 64.000000,14.336004 49.663996,1.3812956e-013 32.000000,0.00000000 C 31.724000,3.7007434e-017 31.461833,-0.0069580061 31.187500,0.00000000 z M 31.156250,5.5000000 C 31.439783,5.4910103 31.714297,5.5000000 32.000000,5.5000000 C 46.628003,5.4999998 58.500000,17.371998 58.500000,32.000000 C 58.499998,46.628001 46.628002,58.500000 32.000000,58.500000 C 17.371999,58.499999 5.5000000,46.628002 5.5000000,32.000000 C 5.4999999,17.657701 16.922915,5.9512829 31.156250,5.5000000 z " />
<path transform="translate(-6.250000e-2,0.185547)" d="M 36.687500 15.750000 A 4.6250000 4.6250000 0 1 1  27.437500,15.750000 A 4.6250000 4.6250000 0 1 1  36.687500 15.750000 z" ry="4.6250000" rx="4.6250000" cy="15.750000" cx="32.062500" type="arc" />
<path d="M 27.215125,52.689453 L 36.784875,52.689453 L 36.784875,37.310548 L 39.677883,37.310548 C 39.677883,37.310548 39.676818,26.320181 39.677883,24.590437 C 39.675042,24.134131 39.719076,23.225380 39.057144,22.563448 C 38.395212,21.901516 37.501745,21.941644 37.030154,21.942709 C 36.558564,21.943774 27.441437,21.943774 26.969846,21.942709 C 26.498255,21.941644 25.604789,21.901516 24.942857,22.563448 C 24.280924,23.225380 24.324959,24.134131 24.322118,24.590437 C 24.323183,26.320181 24.322118,37.310548 24.322118,37.310548 L 27.215125,37.310548 L 27.215125,52.689453 z " />

</svg>
