<svg xmlns="http://www.w3.org/2000/svg"
     xmlns:xlink="http://www.w3.org/1999/xlink"
     lang="en-GB"
     viewBox="0 0 220 220">

<title>External Link Icon</title>

<defs>
<style type="text/css"><![CDATA[

rect {
  width: 220px;
  height: 220px;
  fill: rgb(255, 0, 0);
}

path {
  fill: rgb(255, 255, 255);
  stroke-width: 1.33;
}

]]></style>

</defs>

<rect x="0" y="0"></rect>

<path d="M 49.993526,187.08116 C 43.083592,184.93652 37.861028,180.56544 34.364162,174 32.604389,170.69599 32.5,167.11214 32.5,110 32.5,49.922006 32.515056,49.472099 34.658417,45.5 37.184021,40.819527 41.101332,36.973278 46,34.364162 c 3.184066,-1.69589 6.596301,-1.891156 37.801649,-2.163211 l 34.301651,-0.29905 -0.18309,9.04905 L 117.73712,50 H 86.323103 54.909091 L 52.454545,52.454545 50,54.909091 V 110 165.09091 l 2.454545,2.45454 L 54.909091,170 H 110 165.09091 l 2.45454,-2.45455 L 170,165.09091 V 134.04545 103 h 9.04942 9.04942 l -0.29942,33.75 c -0.27206,30.66605 -0.46976,34.06982 -2.16358,37.25 -2.60912,4.89867 -6.45537,8.81598 -11.13584,11.34158 -3.95738,2.13542 -4.62862,2.16033 -63,2.33797 -32.45,0.0987 -60.127913,-0.17052 -61.506474,-0.59839 z M 85.20498,134.70682 79.021939,128.46833 117.51097,89.989033 C 138.67994,68.825422 156,51.170049 156,50.75487 156,50.339692 150.825,50 144.5,50 H 133 V 41 32 H 160.5 188 V 59.5 87 h -9 -9 V 75.5 c 0,-6.325 -0.28912,-11.5 -0.64249,-11.5 -0.35337,0 -17.92603,17.2125 -39.05036,38.25 -21.12432,21.0375 -38.522893,38.3502 -38.663493,38.47266 -0.140599,0.12246 -3.038004,-2.58467 -6.438677,-6.01584 z" />
</svg>
