<svg xmlns="http://www.w3.org/2000/svg"
     xmlns:xlink="http://www.w3.org/1999/xlink"
     lang="en-GB"
     viewBox="0 0 799 799">

  <title>Settings Icon</title>

  <defs>

  <style type="text/css"><![CDATA[

  rect {
    width: 799px;
    height: 799px;
    fill: rgb(191,0,0);
  }

  path {
    fill: rgb(255,255,255);
    stroke-width: 1;
  }

  ]]></style>

  </defs>

  <rect />

  <path d="m 313.33334,755.03129 c -4.91348,-0.89264 -15.99366,-3.99353 -21.33333,-5.97031 -4.77887,-1.76916 -20.1346,-10.10051 -21.33334,-11.57453 -0.36666,-0.45087 -3.44784,-3.05354 -6.84706,-5.78371 -12.00682,-9.64359 -25.07883,-30.71425 -29.9996,-48.35611 -1.02478,-3.67397 -2.21968,-12.37994 -2.65538,-19.34661 -2.25186,-36.00767 18.50178,-71.69762 52.16871,-89.7143 23.39035,-12.51721 51.7399,-13.90904 79.33334,-3.89485 21.847,7.92868 45.68047,31.76215 53.60915,53.60915 8.67581,23.90564 8.76609,50.93744 0.23601,70.66667 -6.73856,15.58561 -12.78547,24.16842 -25.18774,35.75078 -10.43493,9.74507 -27.47502,19.45421 -38.28837,21.81601 -2.76964,0.60493 -7.58572,1.67374 -10.70239,2.37514 -5.72612,1.28864 -22.85886,1.53835 -29,0.42267 z M 92.666669,719.06571 c -21.473371,-5.0326 -37.151406,-19.35828 -43.958452,-40.16668 -1.822782,-5.57204 -2.204504,-10.30892 -1.772868,-22 0.487679,-13.20905 1.013547,-15.88205 4.636146,-23.56568 5.038945,-10.68773 12.179698,-19.04449 21.022807,-24.6028 13.971599,-8.7818 13.558402,-8.73053 70.371598,-8.73053 28.34887,0 51.84809,0.49302 52.22051,1.0956 0.37242,0.60258 -0.1052,2.60354 -1.06139,4.4466 -2.55348,4.92182 -7.45835,21.0967 -7.45835,24.59555 0,1.66209 -0.64,4.70532 -1.42222,6.76272 -0.78222,2.0574 -1.42222,11.62033 -1.42222,21.25096 0,18.96849 2.06756,32.01778 7.65687,48.32582 1.84933,5.39583 3.04191,10.64583 2.65017,11.66667 -0.5922,1.54327 -8.97754,1.83001 -49.75409,1.70141 -26.97301,-0.0851 -50.241844,-0.4359 -51.708511,-0.77964 z m 366.522161,-0.9615 c -0.40012,-1.0427 -0.0428,-3.1751 0.79396,-4.73867 2.35514,-4.40064 5.25017,-14.21393 8.0731,-27.36552 4.78335,-22.28483 2.72867,-50.22864 -5.39213,-73.33334 -1.54651,-4.4 -3.14849,-9.05 -3.55996,-10.33333 -0.70887,-2.21084 5.74992,-2.33333 123.02947,-2.33333 113.01396,0 124.30323,0.19625 129.82218,2.25677 17.73302,6.62069 30.97375,20.16575 36.48844,37.3271 2.90653,9.0449 2.97681,30.77089 0.1264,39.0828 -5.23175,15.25613 -14.4613,27.02429 -26.44966,33.72472 -13.91584,7.77772 -10.76156,7.60861 -141.9166,7.60861 -102.75436,0 -120.39375,-0.27633 -121.0152,-1.89581 z M 499.33335,495.469 c -0.73334,-0.27619 -4.93334,-1.27896 -9.33334,-2.22837 -17.69269,-3.81767 -40.68754,-17.51102 -51.03605,-30.39176 -2.73017,-3.39824 -5.73387,-6.99219 -6.67487,-7.98656 -3.14265,-3.32087 -13.18829,-26.09476 -15.08382,-34.19563 -2.64819,-11.31749 -2.3651,-32.58758 0.58561,-44 7.66992,-29.6649 29.08279,-54.12923 58.20913,-66.5043 15.68286,-6.66325 41.81511,-8.22493 59.01689,-3.52688 16.76852,4.57974 30.55989,12.50176 42.82198,24.59779 14.59303,14.39537 20.81871,25.18389 26.72114,46.30527 2.82312,10.1023 2.82429,34.81376 0.003,44.92291 -5.5821,19.99545 -13.89088,33.62342 -29.23805,47.956 -10.68815,9.98153 -25.69772,18.4522 -39.59849,22.34741 -6.56458,1.83949 -33.39467,3.83309 -36.39227,2.70412 z M 86.478403,457.36088 c -17.917768,-5.90205 -31.805231,-19.94985 -37.381415,-37.81299 -3.424361,-10.96984 -3.286663,-29.70393 0.302371,-41.13809 4.847567,-15.44368 19.648111,-30.36743 35.809262,-36.10736 5.987454,-2.12656 17.436689,-2.30243 149.891649,-2.30243 78.87497,0 143.71373,0.49303 144.08614,1.0956 0.37243,0.60259 -0.1264,2.64439 -1.10847,4.53735 -1.8431,3.55258 -5.94938,17.66353 -8.77877,30.16764 -4.35148,19.23081 0.0185,59.58791 8.19605,75.69083 0.78896,1.55361 1.21711,3.95361 0.95142,5.33333 -0.46895,2.43527 -4.63267,2.51597 -142.46485,2.76115 -135.16557,0.24042 -142.342882,0.13361 -149.503387,-2.22503 z m 556.751017,0.84909 c -0.42244,-1.10086 -0.0835,-3.28086 0.75337,-4.84444 2.35515,-4.40064 5.25018,-14.21393 8.07311,-27.36552 4.74291,-22.09641 2.63267,-51.08969 -5.33747,-73.33333 -1.57657,-4.4 -3.20316,-9.05 -3.61462,-10.33334 -0.6983,-2.17788 1.36897,-2.33333 31.02946,-2.33333 34.98171,0 37.50547,0.43687 50.53342,8.74743 17.84119,11.38093 26,27.37253 26,50.96104 0,18.73689 -4.1264,30.32775 -14.87986,41.79672 -6.38245,6.80713 -14.04333,11.98155 -22.75137,15.36703 -8.26281,3.21238 -68.64264,4.36949 -69.80604,1.33774 z M 280.00001,230.58699 c -2.56667,-0.60849 -7.11982,-1.64122 -10.1181,-2.29494 -5.82513,-1.27007 -27.14622,-11.14458 -30.1063,-13.94322 -0.97855,-0.92518 -4.55955,-3.91593 -7.95779,-6.6461 -12.00677,-9.64635 -25.07764,-30.71642 -29.99781,-48.35611 -1.02478,-3.67398 -2.21968,-12.37995 -2.65538,-19.34662 -2.71174,-43.361156 28.58339,-86.03947 71.50204,-97.509907 10.14928,-2.712497 36.76125,-2.991184 45.99513,-0.48167 20.72585,5.632717 32.06274,12.0246 46.06402,25.971503 20.1449,20.066654 28.533,41.427824 27.57792,70.229994 -0.65448,19.73708 -2.45136,26.92607 -10.61198,42.45675 -8.75566,16.66307 -24.46999,32.0363 -41.2071,40.31264 -18.821,9.3068 -42.99964,13.2788 -58.48465,9.60768 z M 86.478403,193.35773 C 68.857425,187.56079 55.711471,174.49318 49.380759,156.48116 45.860368,146.46503 45.63394,126.24332 48.925463,115.81978 54.486283,98.209876 68.346029,84.113405 85.904188,78.209457 c 5.45476,-1.834168 12.518682,-2.209455 41.587982,-2.209455 19.25942,0 35.31025,0.474282 35.6685,1.053958 0.35827,0.579677 -0.1558,2.829677 -1.14235,5 -2.76594,6.084821 -5.71504,16.225696 -8.12704,27.94604 -2.50565,12.17535 -2.91066,41.8174 -0.65249,47.75347 0.78533,2.0644 1.42788,5.20548 1.42788,6.98016 0,1.77468 1.8282,8.72943 4.06267,15.45499 2.23445,6.72556 3.75329,13.03448 3.37517,14.01984 -0.55165,1.43759 -7.34725,1.77497 -34.39599,1.70764 -29.094766,-0.0724 -34.738013,-0.4226 -41.230117,-2.55837 z m 340.710427,0.74646 c -0.40012,-1.04269 -0.0428,-3.17509 0.79396,-4.73866 2.33108,-4.35566 5.24145,-14.14655 8.09558,-27.23458 4.84278,-22.20725 2.76547,-50.59895 -5.3751,-73.464281 -1.5665,-4.4 -2.96556,-8.9 -3.10904,-10 -0.2302,-1.764797 16.11772,-2.039931 139.01163,-2.339541 128.22997,-0.31262 139.75304,-0.160116 145.33333,1.923436 17.75044,6.627613 30.98797,20.165595 36.5047,37.333306 2.9086,9.05135 3.01423,31.14536 0.18764,39.24849 -7.13154,20.44441 -19.03799,32.45459 -38.26286,38.59618 -7.73465,2.47092 -13.41393,2.57147 -145.25087,2.57147 -117.37571,0 -137.3066,-0.27395 -137.92897,-1.89582 z"></path>

</svg>
